<?xml version="1.0" encoding="UTF-8" standalone="no"?>
<!DOCTYPE svg PUBLIC "-//W3C//DTD SVG 1.1//EN"
 "http://www.w3.org/Graphics/SVG/1.1/DTD/svg11.dtd">
<!-- Generated by graphviz version 12.1.2 (0)
 -->
<!-- Title: Logger::log Pages: 1 -->
<svg width="685pt" height="609pt"
 viewBox="0.00 0.00 685.00 609.41" xmlns="http://www.w3.org/2000/svg" xmlns:xlink="http://www.w3.org/1999/xlink">
<g id="graph0" class="graph" transform="scale(1 1) rotate(0) translate(4 605.41)">
<title>Logger::log</title>
<!-- Node1 -->
<g id="Node000001" class="node">
<title>Node1</title>
<g id="a_Node000001"><a xlink:title="Logs a message if it meets the current log level.">
<polygon fill="#999999" stroke="#666666" points="677,-357.75 613,-357.75 613,-339.25 677,-339.25 677,-357.75"/>
<text text-anchor="middle" x="645" y="-344.25" font-family="Helvetica,sans-Serif" font-size="10.00">Logger::log</text>
</a>
</g>
</g>
<!-- Node2 -->
<g id="Node000002" class="node">
<title>Node2</title>
<g id="a_Node000002"><a xlink:href="classLogger.html#abeffd58a6beace1b1c01a5324227fd83" target="_top" xlink:title="Logs a debug message.">
<polygon fill="white" stroke="#666666" points="577,-498.75 499.5,-498.75 499.5,-480.25 577,-480.25 577,-498.75"/>
<text text-anchor="middle" x="538.25" y="-485.25" font-family="Helvetica,sans-Serif" font-size="10.00">Logger::debug</text>
</a>
</g>
</g>
<!-- Node1&#45;&gt;Node2 -->
<g id="edge1_Node000001_Node000002" class="edge">
<title>Node1&#45;&gt;Node2</title>
<g id="a_edge1_Node000001_Node000002"><a xlink:title=" ">
<path fill="none" stroke="#63b8ff" d="M629.99,-367.36C607.28,-397.93 563.26,-457.17 546.22,-480.11"/>
<polygon fill="#63b8ff" stroke="#63b8ff" points="632.74,-369.52 635.9,-359.41 627.12,-365.35 632.74,-369.52"/>
</a>
</g>
</g>
<!-- Node9 -->
<g id="Node000009" class="node">
<title>Node9</title>
<g id="a_Node000009"><a xlink:href="classLogger.html#ac862952b8ffa9de295a496af0108785c" target="_top" xlink:title="Logs an error message.">
<polygon fill="white" stroke="#666666" points="573.62,-317.75 502.88,-317.75 502.88,-299.25 573.62,-299.25 573.62,-317.75"/>
<text text-anchor="middle" x="538.25" y="-304.25" font-family="Helvetica,sans-Serif" font-size="10.00">Logger::error</text>
</a>
</g>
</g>
<!-- Node1&#45;&gt;Node9 -->
<g id="edge11_Node000001_Node000009" class="edge">
<title>Node1&#45;&gt;Node9</title>
<g id="a_edge11_Node000001_Node000009"><a xlink:title=" ">
<path fill="none" stroke="#63b8ff" d="M608.16,-334.82C593.89,-329.36 577.78,-323.21 564.74,-318.23"/>
<polygon fill="#63b8ff" stroke="#63b8ff" points="606.64,-337.98 617.23,-338.28 609.14,-331.44 606.64,-337.98"/>
</a>
</g>
</g>
<!-- Node14 -->
<g id="Node000014" class="node">
<title>Node14</title>
<g id="a_Node000014"><a xlink:href="classLogger.html#a0c5851d03ba2e560bfd57aeb713267b3" target="_top" xlink:title="Logs an informational message.">
<polygon fill="white" stroke="#666666" points="571.75,-180.75 504.75,-180.75 504.75,-162.25 571.75,-162.25 571.75,-180.75"/>
<text text-anchor="middle" x="538.25" y="-167.25" font-family="Helvetica,sans-Serif" font-size="10.00">Logger::info</text>
</a>
</g>
</g>
<!-- Node1&#45;&gt;Node14 -->
<g id="edge21_Node000001_Node000014" class="edge">
<title>Node1&#45;&gt;Node14</title>
<g id="a_edge21_Node000001_Node000014"><a xlink:title=" ">
<path fill="none" stroke="#63b8ff" d="M632.58,-329.21C610.24,-291.46 561.5,-209.1 544.91,-181.06"/>
<polygon fill="#63b8ff" stroke="#63b8ff" points="629.49,-330.86 637.6,-337.68 635.52,-327.29 629.49,-330.86"/>
</a>
</g>
</g>
<!-- Node17 -->
<g id="Node000017" class="node">
<title>Node17</title>
<g id="a_Node000017"><a xlink:href="classLogger.html#a4d229b17ee039e273686455c74382ec6" target="_top" xlink:title="Logs a warning message.">
<polygon fill="white" stroke="#666666" points="415.88,-387.75 331.62,-387.75 331.62,-369.25 415.88,-369.25 415.88,-387.75"/>
<text text-anchor="middle" x="373.75" y="-374.25" font-family="Helvetica,sans-Serif" font-size="10.00">Logger::warning</text>
</a>
</g>
</g>
<!-- Node1&#45;&gt;Node17 -->
<g id="edge32_Node000001_Node000017" class="edge">
<title>Node1&#45;&gt;Node17</title>
<g id="a_edge32_Node000001_Node000017"><a xlink:title=" ">
<path fill="none" stroke="#63b8ff" d="M601.36,-353.25C550.56,-358.91 466.28,-368.3 416.07,-373.9"/>
<polygon fill="#63b8ff" stroke="#63b8ff" points="601.53,-356.75 611.08,-352.17 600.76,-349.8 601.53,-356.75"/>
</a>
</g>
</g>
<!-- Node3 -->
<g id="Node000003" class="node">
<title>Node3</title>
<g id="a_Node000003"><a xlink:href="classSensorManager.html#ab621f498c240f93c0d9a7e47cbb669c6" target="_top" xlink:title="Retrieves the current pressure reading from the BMP280 sensor.">
<polygon fill="white" stroke="#666666" points="445.12,-498.75 302.38,-498.75 302.38,-480.25 445.12,-480.25 445.12,-498.75"/>
<text text-anchor="middle" x="373.75" y="-485.25" font-family="Helvetica,sans-Serif" font-size="10.00">SensorManager::getPressure</text>
</a>
</g>
</g>
<!-- Node2&#45;&gt;Node3 -->
<g id="edge2_Node000002_Node000003" class="edge">
<title>Node2&#45;&gt;Node3</title>
<g id="a_edge2_Node000002_Node000003"><a xlink:title=" ">
<path fill="none" stroke="#63b8ff" d="M487.81,-489.5C474.45,-489.5 459.72,-489.5 445.44,-489.5"/>
<polygon fill="#63b8ff" stroke="#63b8ff" points="487.64,-493 497.64,-489.5 487.64,-486 487.64,-493"/>
</a>
</g>
</g>
<!-- Node4 -->
<g id="Node000004" class="node">
<title>Node4</title>
<g id="a_Node000004"><a xlink:href="main_8cpp.html#afe461d27b9c48d5921c00d521181f12f" target="_top" xlink:title="Main loop for retrieving sensor data and updating the display.">
<polygon fill="white" stroke="#666666" points="179,-479.75 145,-479.75 145,-461.25 179,-461.25 179,-479.75"/>
<text text-anchor="middle" x="162" y="-466.25" font-family="Helvetica,sans-Serif" font-size="10.00">loop</text>
</a>
</g>
</g>
<!-- Node2&#45;&gt;Node4 -->
<g id="edge8_Node000002_Node000004" class="edge">
<title>Node2&#45;&gt;Node4</title>
<g id="a_edge8_Node000002_Node000004"><a xlink:title=" ">
<path fill="none" stroke="#63b8ff" d="M494,-501.88C484.07,-504.22 473.48,-506.3 463.5,-507.5 384.29,-517.03 362.9,-519.29 284,-507.5 245.55,-501.75 202.42,-486.26 179.47,-477.25"/>
<polygon fill="#63b8ff" stroke="#63b8ff" points="494.56,-505.35 503.41,-499.54 492.87,-498.56 494.56,-505.35"/>
</a>
</g>
</g>
<!-- Node5 -->
<g id="Node000005" class="node">
<title>Node5</title>
<g id="a_Node000005"><a xlink:href="classSensorManager.html#aa4207d6b919d2deac9d8b95c6a36f8b9" target="_top" xlink:title="Retrieves the current temperature reading from the BMP280 sensor.">
<polygon fill="white" stroke="#666666" points="463.5,-461.75 284,-461.75 284,-443.25 463.5,-443.25 463.5,-461.75"/>
<text text-anchor="middle" x="373.75" y="-448.25" font-family="Helvetica,sans-Serif" font-size="10.00">SensorManager::getTemperatureBMP</text>
</a>
</g>
</g>
<!-- Node2&#45;&gt;Node5 -->
<g id="edge4_Node000002_Node000005" class="edge">
<title>Node2&#45;&gt;Node5</title>
<g id="a_edge4_Node000002_Node000005"><a xlink:title=" ">
<path fill="none" stroke="#63b8ff" d="M488.06,-477.29C479.86,-475.31 471.45,-473.32 463.5,-471.5 449.83,-468.37 434.94,-465.12 421.33,-462.21"/>
<polygon fill="#63b8ff" stroke="#63b8ff" points="487.01,-480.63 497.55,-479.59 488.66,-473.83 487.01,-480.63"/>
</a>
</g>
</g>
<!-- Node6 -->
<g id="Node000006" class="node">
<title>Node6</title>
<g id="a_Node000006"><a xlink:href="classSensorManager.html#a4fa7cbb9b36b933c0ca03553ba4db966" target="_top" xlink:title="Checks if new data is available from the sensors.">
<polygon fill="white" stroke="#666666" points="451.88,-572.75 295.62,-572.75 295.62,-554.25 451.88,-554.25 451.88,-572.75"/>
<text text-anchor="middle" x="373.75" y="-559.25" font-family="Helvetica,sans-Serif" font-size="10.00">SensorManager::isDataAvailable</text>
</a>
</g>
</g>
<!-- Node2&#45;&gt;Node6 -->
<g id="edge6_Node000002_Node000006" class="edge">
<title>Node2&#45;&gt;Node6</title>
<g id="a_edge6_Node000002_Node000006"><a xlink:title=" ">
<path fill="none" stroke="#63b8ff" d="M517.18,-506.29C502.97,-517.41 483.05,-531.55 463.5,-540.5 451.34,-546.07 437.61,-550.45 424.64,-553.84"/>
<polygon fill="#63b8ff" stroke="#63b8ff" points="519.25,-509.12 524.84,-500.12 514.86,-503.66 519.25,-509.12"/>
</a>
</g>
</g>
<!-- Node7 -->
<g id="Node000007" class="node">
<title>Node7</title>
<g id="a_Node000007"><a xlink:href="classSensorManager.html#ad6448faa4a1a1e9647682ee4a7005d80" target="_top" xlink:title="Resets the calibration flag stored in EEPROM.">
<polygon fill="white" stroke="#666666" points="462,-424.75 285.5,-424.75 285.5,-406.25 462,-406.25 462,-424.75"/>
<text text-anchor="middle" x="373.75" y="-411.25" font-family="Helvetica,sans-Serif" font-size="10.00">SensorManager::resetCalibrationFlag</text>
</a>
</g>
</g>
<!-- Node2&#45;&gt;Node7 -->
<g id="edge9_Node000002_Node000007" class="edge">
<title>Node2&#45;&gt;Node7</title>
<g id="a_edge9_Node000002_Node000007"><a xlink:title=" ">
<path fill="none" stroke="#63b8ff" d="M519.39,-472.68C505.27,-460.3 484.5,-444.03 463.5,-434.5 455.18,-430.72 446.07,-427.68 436.96,-425.24"/>
<polygon fill="#63b8ff" stroke="#63b8ff" points="516.76,-475.02 526.52,-479.13 521.45,-469.83 516.76,-475.02"/>
</a>
</g>
</g>
<!-- Node8 -->
<g id="Node000008" class="node">
<title>Node8</title>
<g id="a_Node000008"><a xlink:href="main_8cpp.html#a4fc01d736fe50cf5b977f755b675f11d" target="_top" xlink:title="Initializes the system, including the display, sensors, and logger.">
<polygon fill="white" stroke="#666666" points="40,-275.75 0,-275.75 0,-257.25 40,-257.25 40,-275.75"/>
<text text-anchor="middle" x="20" y="-262.25" font-family="Helvetica,sans-Serif" font-size="10.00">setup</text>
</a>
</g>
</g>
<!-- Node2&#45;&gt;Node8 -->
<g id="edge10_Node000002_Node000008" class="edge">
<title>Node2&#45;&gt;Node8</title>
<g id="a_edge10_Node000002_Node000008"><a xlink:title=" ">
<path fill="none" stroke="#63b8ff" d="M528.04,-509.46C516.51,-531.75 494.46,-566.64 463.5,-581.5 391.58,-616.02 362.02,-598.15 284,-581.5 184.97,-560.37 140.97,-566.17 76,-488.5 20.97,-422.71 19.65,-309.9 20.58,-276.25"/>
<polygon fill="#63b8ff" stroke="#63b8ff" points="531.18,-511.01 532.43,-500.49 524.89,-507.93 531.18,-511.01"/>
</a>
</g>
</g>
<!-- Node3&#45;&gt;Node4 -->
<g id="edge3_Node000003_Node000004" class="edge">
<title>Node3&#45;&gt;Node4</title>
<g id="a_edge3_Node000003_Node000004"><a xlink:title=" ">
<path fill="none" stroke="#63b8ff" d="M290.57,-482.06C249.41,-478.33 203.34,-474.15 179.42,-471.99"/>
<polygon fill="#63b8ff" stroke="#63b8ff" points="290.25,-485.54 300.52,-482.96 290.88,-478.57 290.25,-485.54"/>
</a>
</g>
</g>
<!-- Node5&#45;&gt;Node4 -->
<g id="edge5_Node000005_Node000004" class="edge">
<title>Node5&#45;&gt;Node4</title>
<g id="a_edge5_Node000005_Node000004"><a xlink:title=" ">
<path fill="none" stroke="#63b8ff" d="M272.62,-461.09C236.46,-464.2 199.54,-467.36 179.12,-469.12"/>
<polygon fill="#63b8ff" stroke="#63b8ff" points="272.63,-464.61 282.29,-460.26 272.03,-457.63 272.63,-464.61"/>
</a>
</g>
</g>
<!-- Node6&#45;&gt;Node4 -->
<g id="edge7_Node000006_Node000004" class="edge">
<title>Node6&#45;&gt;Node4</title>
<g id="a_edge7_Node000006_Node000004"><a xlink:title=" ">
<path fill="none" stroke="#63b8ff" d="M314.42,-550.8C304.12,-547.88 293.63,-544.45 284,-540.5 242.91,-523.66 198.73,-495.12 176.88,-480.22"/>
<polygon fill="#63b8ff" stroke="#63b8ff" points="313.43,-554.16 323.99,-553.37 315.25,-547.4 313.43,-554.16"/>
</a>
</g>
</g>
<!-- Node9&#45;&gt;Node7 -->
<g id="edge19_Node000009_Node000007" class="edge">
<title>Node9&#45;&gt;Node7</title>
<g id="a_edge19_Node000009_Node000007"><a xlink:title=" ">
<path fill="none" stroke="#63b8ff" d="M526.47,-327.73C514.02,-348.09 491.58,-379.59 463.5,-396.5 457.16,-400.32 450.15,-403.38 442.94,-405.83"/>
<polygon fill="#63b8ff" stroke="#63b8ff" points="529.39,-329.68 531.43,-319.28 523.35,-326.13 529.39,-329.68"/>
</a>
</g>
</g>
<!-- Node9&#45;&gt;Node8 -->
<g id="edge20_Node000009_Node000008" class="edge">
<title>Node9&#45;&gt;Node8</title>
<g id="a_edge20_Node000009_Node000008"><a xlink:title=" ">
<path fill="none" stroke="#63b8ff" d="M491.5,-318.29C406.52,-334.33 219.87,-359.47 76,-306.5 58.05,-299.89 40.79,-285.63 30.54,-276.05"/>
<polygon fill="#63b8ff" stroke="#63b8ff" points="491.93,-321.77 501.08,-316.43 490.59,-314.9 491.93,-321.77"/>
</a>
</g>
</g>
<!-- Node10 -->
<g id="Node000010" class="node">
<title>Node10</title>
<g id="a_Node000010"><a xlink:href="classSensorManager.html#a3608ee33385f64e74410127d59c2638e" target="_top" xlink:title="Calibrates the SCD30 sensor using the forced recalibration factor.">
<polygon fill="white" stroke="#666666" points="437.25,-229 310.25,-229 310.25,-200 437.25,-200 437.25,-229"/>
<text text-anchor="start" x="318.25" y="-215.5" font-family="Helvetica,sans-Serif" font-size="10.00">SensorManager::calibrate</text>
<text text-anchor="middle" x="373.75" y="-205" font-family="Helvetica,sans-Serif" font-size="10.00">SCD30</text>
</a>
</g>
</g>
<!-- Node9&#45;&gt;Node10 -->
<g id="edge12_Node000009_Node000010" class="edge">
<title>Node9&#45;&gt;Node10</title>
<g id="a_edge12_Node000009_Node000010"><a xlink:title=" ">
<path fill="none" stroke="#63b8ff" d="M522.69,-290.3C509.02,-274.38 487.17,-251.8 463.5,-238.5 455.43,-233.97 446.46,-230.26 437.41,-227.23"/>
<polygon fill="#63b8ff" stroke="#63b8ff" points="519.7,-292.17 528.78,-297.61 525.08,-287.69 519.7,-292.17"/>
</a>
</g>
</g>
<!-- Node12 -->
<g id="Node000012" class="node">
<title>Node12</title>
<g id="a_Node000012"><a xlink:href="classDisplayManager.html#aeb1c8224403ea2595f202e5d93380609" target="_top" xlink:title="Initializes the OLED display.">
<polygon fill="white" stroke="#666666" points="437.25,-265.75 310.25,-265.75 310.25,-247.25 437.25,-247.25 437.25,-265.75"/>
<text text-anchor="middle" x="373.75" y="-252.25" font-family="Helvetica,sans-Serif" font-size="10.00">DisplayManager::initialize</text>
</a>
</g>
</g>
<!-- Node9&#45;&gt;Node12 -->
<g id="edge15_Node000009_Node000012" class="edge">
<title>Node9&#45;&gt;Node12</title>
<g id="a_edge15_Node000009_Node000012"><a xlink:title=" ">
<path fill="none" stroke="#63b8ff" d="M509.15,-293.68C495.64,-287.04 479.04,-279.58 463.5,-274.5 453.64,-271.27 442.96,-268.52 432.55,-266.2"/>
<polygon fill="#63b8ff" stroke="#63b8ff" points="507.38,-296.7 517.89,-298.08 510.53,-290.45 507.38,-296.7"/>
</a>
</g>
</g>
<!-- Node13 -->
<g id="Node000013" class="node">
<title>Node13</title>
<g id="a_Node000013"><a xlink:href="classSensorManager.html#aded8aff6d741a64d0c34668a0694dd3d" target="_top" xlink:title="Initializes the SCD30 and BMP280 sensors.">
<polygon fill="white" stroke="#666666" points="436.12,-313 311.38,-313 311.38,-284 436.12,-284 436.12,-313"/>
<text text-anchor="start" x="319.38" y="-299.5" font-family="Helvetica,sans-Serif" font-size="10.00">SensorManager::initialize</text>
<text text-anchor="middle" x="373.75" y="-289" font-family="Helvetica,sans-Serif" font-size="10.00">Sensors</text>
</a>
</g>
</g>
<!-- Node9&#45;&gt;Node13 -->
<g id="edge17_Node000009_Node000013" class="edge">
<title>Node9&#45;&gt;Node13</title>
<g id="a_edge17_Node000009_Node000013"><a xlink:title=" ">
<path fill="none" stroke="#63b8ff" d="M491.08,-305.66C474.1,-304.61 454.58,-303.41 436.44,-302.3"/>
<polygon fill="#63b8ff" stroke="#63b8ff" points="490.68,-309.14 500.88,-306.26 491.11,-302.15 490.68,-309.14"/>
</a>
</g>
</g>
<!-- Node11 -->
<g id="Node000011" class="node">
<title>Node11</title>
<g id="a_Node000011"><a xlink:href="classSensorManager.html#a9daa366f758f7419ab22fb3c243801fe" target="_top" xlink:title="Checks if the SCD30 sensor needs calibration and performs calibration if necessary.">
<polygon fill="white" stroke="#666666" points="248,-201 76,-201 76,-172 248,-172 248,-201"/>
<text text-anchor="start" x="84" y="-187.5" font-family="Helvetica,sans-Serif" font-size="10.00">SensorManager::checkAndCalibrate</text>
<text text-anchor="middle" x="162" y="-177" font-family="Helvetica,sans-Serif" font-size="10.00">SCD30</text>
</a>
</g>
</g>
<!-- Node10&#45;&gt;Node11 -->
<g id="edge13_Node000010_Node000011" class="edge">
<title>Node10&#45;&gt;Node11</title>
<g id="a_edge13_Node000010_Node000011"><a xlink:title=" ">
<path fill="none" stroke="#63b8ff" d="M298.74,-204.62C282.46,-202.45 265.08,-200.13 248.39,-197.9"/>
<polygon fill="#63b8ff" stroke="#63b8ff" points="297.94,-208.04 308.32,-205.9 298.87,-201.11 297.94,-208.04"/>
</a>
</g>
</g>
<!-- Node11&#45;&gt;Node8 -->
<g id="edge14_Node000011_Node000008" class="edge">
<title>Node11&#45;&gt;Node8</title>
<g id="a_edge14_Node000011_Node000008"><a xlink:title=" ">
<path fill="none" stroke="#63b8ff" d="M95.36,-205.74C88.64,-208.63 82.06,-211.88 76,-215.5 56.99,-226.85 38.98,-245.61 29.02,-256.94"/>
<polygon fill="#63b8ff" stroke="#63b8ff" points="96.6,-209.02 104.58,-202.05 93.99,-202.52 96.6,-209.02"/>
</a>
</g>
</g>
<!-- Node12&#45;&gt;Node8 -->
<g id="edge16_Node000012_Node000008" class="edge">
<title>Node12&#45;&gt;Node8</title>
<g id="a_edge16_Node000012_Node000008"><a xlink:title=" ">
<path fill="none" stroke="#63b8ff" d="M298.47,-246.95C238.14,-241.01 151.07,-236.53 76,-248.5 63.9,-250.43 50.84,-254.61 40.48,-258.45"/>
<polygon fill="#63b8ff" stroke="#63b8ff" points="297.97,-250.42 308.28,-247.96 298.69,-243.46 297.97,-250.42"/>
</a>
</g>
</g>
<!-- Node13&#45;&gt;Node8 -->
<g id="edge18_Node000013_Node000008" class="edge">
<title>Node13&#45;&gt;Node8</title>
<g id="a_edge18_Node000013_Node000008"><a xlink:title=" ">
<path fill="none" stroke="#63b8ff" d="M299.77,-300.49C239.32,-300.84 151.42,-298.36 76,-284.5 63.85,-282.27 50.67,-278.02 40.27,-274.22"/>
<polygon fill="#63b8ff" stroke="#63b8ff" points="299.62,-303.99 309.59,-300.4 299.56,-296.99 299.62,-303.99"/>
</a>
</g>
</g>
<!-- Node14&#45;&gt;Node4 -->
<g id="edge26_Node000014_Node000004" class="edge">
<title>Node14&#45;&gt;Node4</title>
<g id="a_edge26_Node000014_Node000004"><a xlink:title=" ">
<path fill="none" stroke="#63b8ff" d="M493.25,-169.31C429.63,-167.04 316.05,-166.64 284,-190.5 248.12,-217.22 265.31,-243.25 248,-284.5 219.3,-352.93 180.81,-433.6 167.64,-460.91"/>
<polygon fill="#63b8ff" stroke="#63b8ff" points="492.88,-172.8 503.01,-169.69 493.15,-165.8 492.88,-172.8"/>
</a>
</g>
</g>
<!-- Node14&#45;&gt;Node8 -->
<g id="edge31_Node000014_Node000008" class="edge">
<title>Node14&#45;&gt;Node8</title>
<g id="a_edge31_Node000014_Node000008"><a xlink:title=" ">
<path fill="none" stroke="#63b8ff" d="M524.67,-152.35C511.75,-134.59 489.82,-109.33 463.5,-98.5 389.72,-68.16 362.89,-86.64 284,-98.5 188.35,-112.88 150.51,-100.83 76,-162.5 44.85,-188.29 28.98,-236.4 23.39,-256.87"/>
<polygon fill="#63b8ff" stroke="#63b8ff" points="521.77,-154.31 530.35,-160.53 527.52,-150.32 521.77,-154.31"/>
</a>
</g>
</g>
<!-- Node14&#45;&gt;Node10 -->
<g id="edge22_Node000014_Node000010" class="edge">
<title>Node14&#45;&gt;Node10</title>
<g id="a_edge22_Node000014_Node000010"><a xlink:title=" ">
<path fill="none" stroke="#63b8ff" d="M493.28,-183.14C474.19,-188.19 451.59,-194.17 431.28,-199.54"/>
<polygon fill="#63b8ff" stroke="#63b8ff" points="494.13,-186.53 502.9,-180.59 492.34,-179.76 494.13,-186.53"/>
</a>
</g>
</g>
<!-- Node14&#45;&gt;Node11 -->
<g id="edge23_Node000014_Node000011" class="edge">
<title>Node14&#45;&gt;Node11</title>
<g id="a_edge23_Node000014_Node000011"><a xlink:title=" ">
<path fill="none" stroke="#63b8ff" d="M519.71,-154.36C505.76,-142 485.06,-126.34 463.5,-119.5 387.45,-95.39 361.24,-99.54 284,-119.5 244.94,-129.59 205.04,-155.29 182.22,-171.77"/>
<polygon fill="#63b8ff" stroke="#63b8ff" points="517.01,-156.64 526.73,-160.85 521.77,-151.5 517.01,-156.64"/>
</a>
</g>
</g>
<!-- Node14&#45;&gt;Node12 -->
<g id="edge24_Node000014_Node000012" class="edge">
<title>Node14&#45;&gt;Node12</title>
<g id="a_edge24_Node000014_Node000012"><a xlink:title=" ">
<path fill="none" stroke="#63b8ff" d="M522.25,-189.35C508.52,-204.51 486.84,-225.63 463.5,-237.5 455.49,-241.57 446.65,-244.77 437.75,-247.29"/>
<polygon fill="#63b8ff" stroke="#63b8ff" points="524.77,-191.79 528.72,-181.96 519.5,-187.18 524.77,-191.79"/>
</a>
</g>
</g>
<!-- Node14&#45;&gt;Node13 -->
<g id="edge25_Node000014_Node000013" class="edge">
<title>Node14&#45;&gt;Node13</title>
<g id="a_edge25_Node000014_Node000013"><a xlink:title=" ">
<path fill="none" stroke="#63b8ff" d="M528.3,-191.28C516.7,-214.68 494.24,-253.16 463.5,-274.5 455.37,-280.14 445.97,-284.46 436.4,-287.76"/>
<polygon fill="#63b8ff" stroke="#63b8ff" points="531.34,-193.04 532.47,-182.51 525.02,-190.04 531.34,-193.04"/>
</a>
</g>
</g>
<!-- Node15 -->
<g id="Node000015" class="node">
<title>Node15</title>
<g id="a_Node000015"><a xlink:href="classDisplayManager.html#a2d6f5efef5cb7e03c820ab14c4adc217" target="_top" xlink:title="Runs a display check to verify the OLED functionality.">
<polygon fill="white" stroke="#666666" points="231.5,-29 92.5,-29 92.5,0 231.5,0 231.5,-29"/>
<text text-anchor="start" x="100.5" y="-15.5" font-family="Helvetica,sans-Serif" font-size="10.00">DisplayManager::runDisplay</text>
<text text-anchor="middle" x="162" y="-5" font-family="Helvetica,sans-Serif" font-size="10.00">Check</text>
</a>
</g>
</g>
<!-- Node14&#45;&gt;Node15 -->
<g id="edge27_Node000014_Node000015" class="edge">
<title>Node14&#45;&gt;Node15</title>
<g id="a_edge27_Node000014_Node000015"><a xlink:title=" ">
<path fill="none" stroke="#63b8ff" d="M531.91,-151.09C523.06,-121.77 502.37,-68.53 463.5,-43.5 394.21,1.12 296.66,1.87 231.71,-4.2"/>
<polygon fill="#63b8ff" stroke="#63b8ff" points="528.5,-151.9 534.58,-160.58 535.24,-150 528.5,-151.9"/>
</a>
</g>
</g>
<!-- Node16 -->
<g id="Node000016" class="node">
<title>Node16</title>
<g id="a_Node000016"><a xlink:href="classI2CScanner.html#ad3b7b4bc25e6c1e8b89e702862a56af5" target="_top" xlink:title="Scans the I2C bus for connected devices.">
<polygon fill="white" stroke="#666666" points="209,-275.75 115,-275.75 115,-257.25 209,-257.25 209,-275.75"/>
<text text-anchor="middle" x="162" y="-262.25" font-family="Helvetica,sans-Serif" font-size="10.00">I2CScanner::scan</text>
</a>
</g>
</g>
<!-- Node14&#45;&gt;Node16 -->
<g id="edge29_Node000014_Node000016" class="edge">
<title>Node14&#45;&gt;Node16</title>
<g id="a_edge29_Node000014_Node000016"><a xlink:title=" ">
<path fill="none" stroke="#63b8ff" d="M500.41,-158.27C448.78,-142.11 353.44,-121.12 284,-157.5 259.1,-170.55 268.02,-189.77 248,-209.5 227.75,-229.45 199.61,-246.73 181.35,-256.88"/>
<polygon fill="#63b8ff" stroke="#63b8ff" points="499.32,-161.59 509.91,-161.36 501.48,-154.94 499.32,-161.59"/>
</a>
</g>
</g>
<!-- Node15&#45;&gt;Node8 -->
<g id="edge28_Node000015_Node000008" class="edge">
<title>Node15&#45;&gt;Node8</title>
<g id="a_edge28_Node000015_Node000008"><a xlink:title=" ">
<path fill="none" stroke="#63b8ff" d="M85,-35.49C81.75,-37.88 78.72,-40.54 76,-43.5 46.23,-75.98 26.87,-218.57 22.13,-256.96"/>
<polygon fill="#63b8ff" stroke="#63b8ff" points="86.77,-38.51 93.41,-30.25 83.07,-32.57 86.77,-38.51"/>
</a>
</g>
</g>
<!-- Node16&#45;&gt;Node8 -->
<g id="edge30_Node000016_Node000008" class="edge">
<title>Node16&#45;&gt;Node8</title>
<g id="a_edge30_Node000016_Node000008"><a xlink:title=" ">
<path fill="none" stroke="#63b8ff" d="M103.54,-266.5C80.99,-266.5 56.64,-266.5 40.28,-266.5"/>
<polygon fill="#63b8ff" stroke="#63b8ff" points="103.26,-270 113.26,-266.5 103.26,-263 103.26,-270"/>
</a>
</g>
</g>
<!-- Node17&#45;&gt;Node4 -->
<g id="edge33_Node000017_Node000004" class="edge">
<title>Node17&#45;&gt;Node4</title>
<g id="a_edge33_Node000017_Node000004"><a xlink:title=" ">
<path fill="none" stroke="#63b8ff" d="M320.32,-386.71C308.16,-389.44 295.44,-392.97 284,-397.5 241.57,-414.29 196.92,-445.22 175.68,-460.88"/>
<polygon fill="#63b8ff" stroke="#63b8ff" points="320.71,-390.21 329.78,-384.74 319.28,-383.35 320.71,-390.21"/>
</a>
</g>
</g>
<!-- Node17&#45;&gt;Node8 -->
<g id="edge35_Node000017_Node000008" class="edge">
<title>Node17&#45;&gt;Node8</title>
<g id="a_edge35_Node000017_Node000008"><a xlink:title=" ">
<path fill="none" stroke="#63b8ff" d="M320.09,-387.95C257.17,-396.36 150.98,-401.19 76,-355.5 45.75,-337.07 29.67,-295.08 23.73,-276.11"/>
<polygon fill="#63b8ff" stroke="#63b8ff" points="320.42,-391.43 329.83,-386.56 319.43,-384.5 320.42,-391.43"/>
</a>
</g>
</g>
<!-- Node17&#45;&gt;Node16 -->
<g id="edge34_Node000017_Node000016" class="edge">
<title>Node17&#45;&gt;Node16</title>
<g id="a_edge34_Node000017_Node000016"><a xlink:title=" ">
<path fill="none" stroke="#63b8ff" d="M344.52,-363.42C300.72,-340.04 217.63,-295.67 181.06,-276.14"/>
<polygon fill="#63b8ff" stroke="#63b8ff" points="342.7,-366.42 353.17,-368.04 346,-360.25 342.7,-366.42"/>
</a>
</g>
</g>
</g>
</svg>
