<?xml version="1.0" encoding="UTF-8" standalone="no"?>
<!DOCTYPE svg PUBLIC "-//W3C//DTD SVG 1.1//EN"
 "http://www.w3.org/Graphics/SVG/1.1/DTD/svg11.dtd">
<!-- Generated by graphviz version 12.1.2 (0)
 -->
<!-- Title: DisplayManager::runDisplayCheck Pages: 1 -->
<svg width="350pt" height="37pt"
 viewBox="0.00 0.00 350.00 37.00" xmlns="http://www.w3.org/2000/svg" xmlns:xlink="http://www.w3.org/1999/xlink">
<g id="graph0" class="graph" transform="scale(1 1) rotate(0) translate(4 33)">
<title>DisplayManager::runDisplayCheck</title>
<!-- Node1 -->
<g id="Node000001" class="node">
<title>Node1</title>
<g id="a_Node000001"><a xlink:title="Runs a display check to verify the OLED functionality.">
<polygon fill="#999999" stroke="#666666" points="139,-29 0,-29 0,0 139,0 139,-29"/>
<text text-anchor="start" x="8" y="-15.5" font-family="Helvetica,sans-Serif" font-size="10.00">DisplayManager::runDisplay</text>
<text text-anchor="middle" x="69.5" y="-5" font-family="Helvetica,sans-Serif" font-size="10.00">Check</text>
</a>
</g>
</g>
<!-- Node2 -->
<g id="Node000002" class="node">
<title>Node2</title>
<g id="a_Node000002"><a xlink:href="classLogger.html#a0c5851d03ba2e560bfd57aeb713267b3" target="_top" xlink:title="Logs an informational message.">
<polygon fill="white" stroke="#666666" points="242,-23.75 175,-23.75 175,-5.25 242,-5.25 242,-23.75"/>
<text text-anchor="middle" x="208.5" y="-10.25" font-family="Helvetica,sans-Serif" font-size="10.00">Logger::info</text>
</a>
</g>
</g>
<!-- Node1&#45;&gt;Node2 -->
<g id="edge1_Node000001_Node000002" class="edge">
<title>Node1&#45;&gt;Node2</title>
<g id="a_edge1_Node000001_Node000002"><a xlink:title=" ">
<path fill="none" stroke="#63b8ff" d="M139.4,-14.5C147.45,-14.5 155.49,-14.5 163.07,-14.5"/>
<polygon fill="#63b8ff" stroke="#63b8ff" points="163.05,-18 173.05,-14.5 163.05,-11 163.05,-18"/>
</a>
</g>
</g>
<!-- Node3 -->
<g id="Node000003" class="node">
<title>Node3</title>
<g id="a_Node000003"><a xlink:href="classLogger.html#af0dc4ff68b6d37026b9f6c7a51da6aaa" target="_top" xlink:title="Logs a message if it meets the current log level.">
<polygon fill="white" stroke="#666666" points="342,-23.75 278,-23.75 278,-5.25 342,-5.25 342,-23.75"/>
<text text-anchor="middle" x="310" y="-10.25" font-family="Helvetica,sans-Serif" font-size="10.00">Logger::log</text>
</a>
</g>
</g>
<!-- Node2&#45;&gt;Node3 -->
<g id="edge2_Node000002_Node000003" class="edge">
<title>Node2&#45;&gt;Node3</title>
<g id="a_edge2_Node000002_Node000003"><a xlink:title=" ">
<path fill="none" stroke="#63b8ff" d="M242.36,-14.5C249.96,-14.5 258.17,-14.5 266.13,-14.5"/>
<polygon fill="#63b8ff" stroke="#63b8ff" points="266.02,-18 276.02,-14.5 266.02,-11 266.02,-18"/>
</a>
</g>
</g>
</g>
</svg>
