<?xml version="1.0" encoding="UTF-8" standalone="no"?>
<!DOCTYPE svg PUBLIC "-//W3C//DTD SVG 1.1//EN"
 "http://www.w3.org/Graphics/SVG/1.1/DTD/svg11.dtd">
<!-- Generated by graphviz version 12.1.2 (0)
 -->
<!-- Title: Logger::log Pages: 1 -->
<svg width="692pt" height="630pt"
 viewBox="0.00 0.00 691.75 630.06" xmlns="http://www.w3.org/2000/svg" xmlns:xlink="http://www.w3.org/1999/xlink">
<g id="graph0" class="graph" transform="scale(1 1) rotate(0) translate(4 626.06)">
<title>Logger::log</title>
<!-- Node1 -->
<g id="Node000001" class="node">
<title>Node1</title>
<g id="a_Node000001"><a xlink:title="Logs a message if it meets the current log level.">
<polygon fill="#999999" stroke="#666666" points="683.75,-282.74 619.75,-282.74 619.75,-264.24 683.75,-264.24 683.75,-282.74"/>
<text text-anchor="middle" x="651.75" y="-269.24" font-family="Helvetica,sans-Serif" font-size="10.00">Logger::log</text>
</a>
</g>
</g>
<!-- Node2 -->
<g id="Node000002" class="node">
<title>Node2</title>
<g id="a_Node000002"><a xlink:href="classLogger.html#abeffd58a6beace1b1c01a5324227fd83" target="_top" xlink:title="Logs a debug message.">
<polygon fill="white" stroke="#666666" points="580.38,-519.74 502.88,-519.74 502.88,-501.24 580.38,-501.24 580.38,-519.74"/>
<text text-anchor="middle" x="541.62" y="-506.24" font-family="Helvetica,sans-Serif" font-size="10.00">Logger::debug</text>
</a>
</g>
</g>
<!-- Node1&#45;&gt;Node2 -->
<g id="edge1_Node000001_Node000002" class="edge">
<title>Node1&#45;&gt;Node2</title>
<g id="a_edge1_Node000001_Node000002"><a xlink:title=" ">
<path fill="none" stroke="#63b8ff" d="M641.62,-293.51C619.42,-342.17 563.24,-465.31 547.05,-500.79"/>
<polygon fill="#63b8ff" stroke="#63b8ff" points="644.78,-295.01 645.75,-284.46 638.41,-292.1 644.78,-295.01"/>
</a>
</g>
</g>
<!-- Node9 -->
<g id="Node000009" class="node">
<title>Node9</title>
<g id="a_Node000009"><a xlink:href="classLogger.html#ac862952b8ffa9de295a496af0108785c" target="_top" xlink:title="Logs an error message.">
<polygon fill="white" stroke="#666666" points="577,-350.74 506.25,-350.74 506.25,-332.24 577,-332.24 577,-350.74"/>
<text text-anchor="middle" x="541.62" y="-337.24" font-family="Helvetica,sans-Serif" font-size="10.00">Logger::error</text>
</a>
</g>
</g>
<!-- Node1&#45;&gt;Node9 -->
<g id="edge11_Node000001_Node000009" class="edge">
<title>Node1&#45;&gt;Node9</title>
<g id="a_edge11_Node000001_Node000009"><a xlink:title=" ">
<path fill="none" stroke="#63b8ff" d="M625.75,-289.22C604.86,-302.35 575.74,-320.67 558.09,-331.77"/>
<polygon fill="#63b8ff" stroke="#63b8ff" points="627.38,-292.33 633.98,-284.04 623.65,-286.4 627.38,-292.33"/>
</a>
</g>
</g>
<!-- Node14 -->
<g id="Node000014" class="node">
<title>Node14</title>
<g id="a_Node000014"><a xlink:href="classLogger.html#a0c5851d03ba2e560bfd57aeb713267b3" target="_top" xlink:title="Logs an informational message.">
<polygon fill="white" stroke="#666666" points="575.12,-235.74 508.12,-235.74 508.12,-217.24 575.12,-217.24 575.12,-235.74"/>
<text text-anchor="middle" x="541.62" y="-222.24" font-family="Helvetica,sans-Serif" font-size="10.00">Logger::info</text>
</a>
</g>
</g>
<!-- Node1&#45;&gt;Node14 -->
<g id="edge21_Node000001_Node000014" class="edge">
<title>Node1&#45;&gt;Node14</title>
<g id="a_edge21_Node000001_Node000014"><a xlink:title=" ">
<path fill="none" stroke="#63b8ff" d="M618.18,-259.33C601,-251.87 580.36,-242.9 565,-236.22"/>
<polygon fill="#63b8ff" stroke="#63b8ff" points="616.39,-262.38 626.96,-263.15 619.18,-255.96 616.39,-262.38"/>
</a>
</g>
</g>
<!-- Node17 -->
<g id="Node000017" class="node">
<title>Node17</title>
<g id="a_Node000017"><a xlink:href="classLogger.html#a4d229b17ee039e273686455c74382ec6" target="_top" xlink:title="Logs a warning message.">
<polygon fill="white" stroke="#666666" points="583.75,-61.74 499.5,-61.74 499.5,-43.24 583.75,-43.24 583.75,-61.74"/>
<text text-anchor="middle" x="541.62" y="-48.24" font-family="Helvetica,sans-Serif" font-size="10.00">Logger::warning</text>
</a>
</g>
</g>
<!-- Node1&#45;&gt;Node17 -->
<g id="edge30_Node000001_Node000017" class="edge">
<title>Node1&#45;&gt;Node17</title>
<g id="a_edge30_Node000001_Node000017"><a xlink:title=" ">
<path fill="none" stroke="#63b8ff" d="M641.17,-253.9C618.81,-208.21 563.86,-95.9 547.38,-62.2"/>
<polygon fill="#63b8ff" stroke="#63b8ff" points="637.9,-255.19 645.44,-262.64 644.19,-252.12 637.9,-255.19"/>
</a>
</g>
</g>
<!-- Node3 -->
<g id="Node000003" class="node">
<title>Node3</title>
<g id="a_Node000003"><a xlink:href="classSensorManager.html#ab621f498c240f93c0d9a7e47cbb669c6" target="_top" xlink:title="Retrieves the current pressure reading from the BMP280 sensor.">
<polygon fill="white" stroke="#666666" points="445.12,-519.74 302.38,-519.74 302.38,-501.24 445.12,-501.24 445.12,-519.74"/>
<text text-anchor="middle" x="373.75" y="-506.24" font-family="Helvetica,sans-Serif" font-size="10.00">SensorManager::getPressure</text>
</a>
</g>
</g>
<!-- Node2&#45;&gt;Node3 -->
<g id="edge2_Node000002_Node000003" class="edge">
<title>Node2&#45;&gt;Node3</title>
<g id="a_edge2_Node000002_Node000003"><a xlink:title=" ">
<path fill="none" stroke="#63b8ff" d="M491.42,-510.49C477.03,-510.49 461.01,-510.49 445.56,-510.49"/>
<polygon fill="#63b8ff" stroke="#63b8ff" points="491.06,-513.99 501.06,-510.49 491.06,-506.99 491.06,-513.99"/>
</a>
</g>
</g>
<!-- Node4 -->
<g id="Node000004" class="node">
<title>Node4</title>
<g id="a_Node000004"><a xlink:href="main_8cpp.html#afe461d27b9c48d5921c00d521181f12f" target="_top" xlink:title="Main loop for retrieving sensor data and updating the display.">
<polygon fill="white" stroke="#666666" points="179,-500.74 145,-500.74 145,-482.24 179,-482.24 179,-500.74"/>
<text text-anchor="middle" x="162" y="-487.24" font-family="Helvetica,sans-Serif" font-size="10.00">loop</text>
</a>
</g>
</g>
<!-- Node2&#45;&gt;Node4 -->
<g id="edge8_Node000002_Node000004" class="edge">
<title>Node2&#45;&gt;Node4</title>
<g id="a_edge8_Node000002_Node000004"><a xlink:title=" ">
<path fill="none" stroke="#63b8ff" d="M495.71,-522.8C485.22,-525.17 474.03,-527.28 463.5,-528.49 384.25,-537.62 362.9,-540.29 284,-528.49 245.55,-522.75 202.42,-507.26 179.47,-498.25"/>
<polygon fill="#63b8ff" stroke="#63b8ff" points="496.36,-526.24 505.28,-520.52 494.74,-519.43 496.36,-526.24"/>
</a>
</g>
</g>
<!-- Node5 -->
<g id="Node000005" class="node">
<title>Node5</title>
<g id="a_Node000005"><a xlink:href="classSensorManager.html#aa4207d6b919d2deac9d8b95c6a36f8b9" target="_top" xlink:title="Retrieves the current temperature reading from the BMP280 sensor.">
<polygon fill="white" stroke="#666666" points="463.5,-482.74 284,-482.74 284,-464.24 463.5,-464.24 463.5,-482.74"/>
<text text-anchor="middle" x="373.75" y="-469.24" font-family="Helvetica,sans-Serif" font-size="10.00">SensorManager::getTemperatureBMP</text>
</a>
</g>
</g>
<!-- Node2&#45;&gt;Node5 -->
<g id="edge4_Node000002_Node000005" class="edge">
<title>Node2&#45;&gt;Node5</title>
<g id="a_edge4_Node000002_Node000005"><a xlink:title=" ">
<path fill="none" stroke="#63b8ff" d="M491.51,-498.89C482.21,-496.73 472.56,-494.52 463.5,-492.49 449.66,-489.4 434.58,-486.13 420.85,-483.2"/>
<polygon fill="#63b8ff" stroke="#63b8ff" points="490.6,-502.27 501.13,-501.13 492.19,-495.45 490.6,-502.27"/>
</a>
</g>
</g>
<!-- Node6 -->
<g id="Node000006" class="node">
<title>Node6</title>
<g id="a_Node000006"><a xlink:href="classSensorManager.html#a4fa7cbb9b36b933c0ca03553ba4db966" target="_top" xlink:title="Checks if new data is available from the sensors.">
<polygon fill="white" stroke="#666666" points="451.88,-593.74 295.62,-593.74 295.62,-575.24 451.88,-575.24 451.88,-593.74"/>
<text text-anchor="middle" x="373.75" y="-580.24" font-family="Helvetica,sans-Serif" font-size="10.00">SensorManager::isDataAvailable</text>
</a>
</g>
</g>
<!-- Node2&#45;&gt;Node6 -->
<g id="edge6_Node000002_Node000006" class="edge">
<title>Node2&#45;&gt;Node6</title>
<g id="a_edge6_Node000002_Node000006"><a xlink:title=" ">
<path fill="none" stroke="#63b8ff" d="M519.94,-526.92C505.01,-538.07 483.95,-552.39 463.5,-561.49 451.14,-567 437.2,-571.38 424.1,-574.78"/>
<polygon fill="#63b8ff" stroke="#63b8ff" points="521.79,-529.91 527.6,-521.06 517.53,-524.36 521.79,-529.91"/>
</a>
</g>
</g>
<!-- Node7 -->
<g id="Node000007" class="node">
<title>Node7</title>
<g id="a_Node000007"><a xlink:href="classSensorManager.html#ad6448faa4a1a1e9647682ee4a7005d80" target="_top" xlink:title="Resets the calibration flag stored in EEPROM.">
<polygon fill="white" stroke="#666666" points="462,-445.74 285.5,-445.74 285.5,-427.24 462,-427.24 462,-445.74"/>
<text text-anchor="middle" x="373.75" y="-432.24" font-family="Helvetica,sans-Serif" font-size="10.00">SensorManager::resetCalibrationFlag</text>
</a>
</g>
</g>
<!-- Node2&#45;&gt;Node7 -->
<g id="edge9_Node000002_Node000007" class="edge">
<title>Node2&#45;&gt;Node7</title>
<g id="a_edge9_Node000002_Node000007"><a xlink:title=" ">
<path fill="none" stroke="#63b8ff" d="M521.81,-493.71C506.98,-481.34 485.23,-465.07 463.5,-455.49 454.85,-451.68 445.38,-448.61 435.95,-446.15"/>
<polygon fill="#63b8ff" stroke="#63b8ff" points="519.48,-496.31 529.35,-500.17 524.04,-491 519.48,-496.31"/>
</a>
</g>
</g>
<!-- Node8 -->
<g id="Node000008" class="node">
<title>Node8</title>
<g id="a_Node000008"><a xlink:href="main_8cpp.html#a4fc01d736fe50cf5b977f755b675f11d" target="_top" xlink:title="Initializes the system, including the display, sensors, and logger.">
<polygon fill="white" stroke="#666666" points="40,-329.74 0,-329.74 0,-311.24 40,-311.24 40,-329.74"/>
<text text-anchor="middle" x="20" y="-316.24" font-family="Helvetica,sans-Serif" font-size="10.00">setup</text>
</a>
</g>
</g>
<!-- Node2&#45;&gt;Node8 -->
<g id="edge10_Node000002_Node000008" class="edge">
<title>Node2&#45;&gt;Node8</title>
<g id="a_edge10_Node000002_Node000008"><a xlink:title=" ">
<path fill="none" stroke="#63b8ff" d="M530.91,-530.18C518.68,-552.47 495.33,-587.64 463.5,-602.49 391.2,-636.23 362.02,-619.14 284,-602.49 184.97,-581.36 142.53,-585.84 76,-509.49 28.18,-454.62 21.86,-360.22 21.09,-330.06"/>
<polygon fill="#63b8ff" stroke="#63b8ff" points="533.93,-531.96 535.45,-521.48 527.72,-528.72 533.93,-531.96"/>
</a>
</g>
</g>
<!-- Node3&#45;&gt;Node4 -->
<g id="edge3_Node000003_Node000004" class="edge">
<title>Node3&#45;&gt;Node4</title>
<g id="a_edge3_Node000003_Node000004"><a xlink:title=" ">
<path fill="none" stroke="#63b8ff" d="M290.57,-503.05C249.41,-499.32 203.34,-495.15 179.42,-492.98"/>
<polygon fill="#63b8ff" stroke="#63b8ff" points="290.25,-506.54 300.52,-503.95 290.88,-499.56 290.25,-506.54"/>
</a>
</g>
</g>
<!-- Node5&#45;&gt;Node4 -->
<g id="edge5_Node000005_Node000004" class="edge">
<title>Node5&#45;&gt;Node4</title>
<g id="a_edge5_Node000005_Node000004"><a xlink:title=" ">
<path fill="none" stroke="#63b8ff" d="M272.62,-482.09C236.46,-485.19 199.54,-488.36 179.12,-490.11"/>
<polygon fill="#63b8ff" stroke="#63b8ff" points="272.63,-485.6 282.29,-481.26 272.03,-478.63 272.63,-485.6"/>
</a>
</g>
</g>
<!-- Node6&#45;&gt;Node4 -->
<g id="edge7_Node000006_Node000004" class="edge">
<title>Node6&#45;&gt;Node4</title>
<g id="a_edge7_Node000006_Node000004"><a xlink:title=" ">
<path fill="none" stroke="#63b8ff" d="M314.42,-571.79C304.12,-568.87 293.63,-565.44 284,-561.49 242.91,-544.65 198.73,-516.12 176.88,-501.22"/>
<polygon fill="#63b8ff" stroke="#63b8ff" points="313.43,-575.15 323.99,-574.37 315.25,-568.39 313.43,-575.15"/>
</a>
</g>
</g>
<!-- Node9&#45;&gt;Node7 -->
<g id="edge19_Node000009_Node000007" class="edge">
<title>Node9&#45;&gt;Node7</title>
<g id="a_edge19_Node000009_Node000007"><a xlink:title=" ">
<path fill="none" stroke="#63b8ff" d="M525.84,-359.74C511.55,-376.17 488.46,-399.78 463.5,-413.49 453.18,-419.17 441.41,-423.48 429.89,-426.75"/>
<polygon fill="#63b8ff" stroke="#63b8ff" points="528.44,-362.08 532.2,-352.18 523.08,-357.57 528.44,-362.08"/>
</a>
</g>
</g>
<!-- Node9&#45;&gt;Node8 -->
<g id="edge20_Node000009_Node000008" class="edge">
<title>Node9&#45;&gt;Node8</title>
<g id="a_edge20_Node000009_Node000008"><a xlink:title=" ">
<path fill="none" stroke="#63b8ff" d="M516.88,-357.18C502.17,-365.93 482.53,-375.96 463.5,-380.49 295.71,-420.51 237.74,-418.45 76,-358.49 58.81,-352.12 41.89,-339.14 31.45,-330.14"/>
<polygon fill="#63b8ff" stroke="#63b8ff" points="518.69,-360.17 525.34,-351.93 515,-354.22 518.69,-360.17"/>
</a>
</g>
</g>
<!-- Node10 -->
<g id="Node000010" class="node">
<title>Node10</title>
<g id="a_Node000010"><a xlink:href="classSensorManager.html#a3608ee33385f64e74410127d59c2638e" target="_top" xlink:title="Calibrates the SCD30 sensor using the forced recalibration factor.">
<polygon fill="white" stroke="#666666" points="437.25,-287.99 310.25,-287.99 310.25,-258.99 437.25,-258.99 437.25,-287.99"/>
<text text-anchor="start" x="318.25" y="-274.49" font-family="Helvetica,sans-Serif" font-size="10.00">SensorManager::calibrate</text>
<text text-anchor="middle" x="373.75" y="-263.99" font-family="Helvetica,sans-Serif" font-size="10.00">SCD30</text>
</a>
</g>
</g>
<!-- Node9&#45;&gt;Node10 -->
<g id="edge12_Node000009_Node000010" class="edge">
<title>Node9&#45;&gt;Node10</title>
<g id="a_edge12_Node000009_Node000010"><a xlink:title=" ">
<path fill="none" stroke="#63b8ff" d="M516.98,-325.91C502.11,-316.65 482.26,-305.23 463.5,-297.49 455.24,-294.09 446.34,-291.02 437.49,-288.31"/>
<polygon fill="#63b8ff" stroke="#63b8ff" points="514.81,-328.68 525.13,-331.09 518.57,-322.77 514.81,-328.68"/>
</a>
</g>
</g>
<!-- Node12 -->
<g id="Node000012" class="node">
<title>Node12</title>
<g id="a_Node000012"><a xlink:href="classDisplayManager.html#aeb1c8224403ea2595f202e5d93380609" target="_top" xlink:title="Initializes the OLED display.">
<polygon fill="white" stroke="#666666" points="437.25,-371.74 310.25,-371.74 310.25,-353.24 437.25,-353.24 437.25,-371.74"/>
<text text-anchor="middle" x="373.75" y="-358.24" font-family="Helvetica,sans-Serif" font-size="10.00">DisplayManager::initialize</text>
</a>
</g>
</g>
<!-- Node9&#45;&gt;Node12 -->
<g id="edge15_Node000009_Node000012" class="edge">
<title>Node9&#45;&gt;Node12</title>
<g id="a_edge15_Node000009_Node000012"><a xlink:title=" ">
<path fill="none" stroke="#63b8ff" d="M494.45,-347.34C476.86,-349.57 456.5,-352.14 437.62,-354.53"/>
<polygon fill="#63b8ff" stroke="#63b8ff" points="494.87,-350.82 504.35,-346.09 493.99,-343.87 494.87,-350.82"/>
</a>
</g>
</g>
<!-- Node13 -->
<g id="Node000013" class="node">
<title>Node13</title>
<g id="a_Node000013"><a xlink:href="classSensorManager.html#aded8aff6d741a64d0c34668a0694dd3d" target="_top" xlink:title="Initializes the SCD30 and BMP280 sensors.">
<polygon fill="white" stroke="#666666" points="436.12,-334.99 311.38,-334.99 311.38,-305.99 436.12,-305.99 436.12,-334.99"/>
<text text-anchor="start" x="319.38" y="-321.49" font-family="Helvetica,sans-Serif" font-size="10.00">SensorManager::initialize</text>
<text text-anchor="middle" x="373.75" y="-310.99" font-family="Helvetica,sans-Serif" font-size="10.00">Sensors</text>
</a>
</g>
</g>
<!-- Node9&#45;&gt;Node13 -->
<g id="edge17_Node000009_Node000013" class="edge">
<title>Node9&#45;&gt;Node13</title>
<g id="a_edge17_Node000009_Node000013"><a xlink:title=" ">
<path fill="none" stroke="#63b8ff" d="M494.54,-335.66C476.62,-333.39 455.81,-330.76 436.62,-328.33"/>
<polygon fill="#63b8ff" stroke="#63b8ff" points="493.99,-339.12 504.35,-336.9 494.87,-332.17 493.99,-339.12"/>
</a>
</g>
</g>
<!-- Node11 -->
<g id="Node000011" class="node">
<title>Node11</title>
<g id="a_Node000011"><a xlink:href="classSensorManager.html#a9daa366f758f7419ab22fb3c243801fe" target="_top" xlink:title="Checks if the SCD30 sensor needs calibration and performs calibration if necessary.">
<polygon fill="white" stroke="#666666" points="248,-287.99 76,-287.99 76,-258.99 248,-258.99 248,-287.99"/>
<text text-anchor="start" x="84" y="-274.49" font-family="Helvetica,sans-Serif" font-size="10.00">SensorManager::checkAndCalibrate</text>
<text text-anchor="middle" x="162" y="-263.99" font-family="Helvetica,sans-Serif" font-size="10.00">SCD30</text>
</a>
</g>
</g>
<!-- Node10&#45;&gt;Node11 -->
<g id="edge13_Node000010_Node000011" class="edge">
<title>Node10&#45;&gt;Node11</title>
<g id="a_edge13_Node000010_Node000011"><a xlink:title=" ">
<path fill="none" stroke="#63b8ff" d="M298.74,-273.49C282.46,-273.49 265.08,-273.49 248.39,-273.49"/>
<polygon fill="#63b8ff" stroke="#63b8ff" points="298.3,-276.99 308.3,-273.49 298.3,-269.99 298.3,-276.99"/>
</a>
</g>
</g>
<!-- Node11&#45;&gt;Node8 -->
<g id="edge14_Node000011_Node000008" class="edge">
<title>Node11&#45;&gt;Node8</title>
<g id="a_edge14_Node000011_Node000008"><a xlink:title=" ">
<path fill="none" stroke="#63b8ff" d="M105.93,-291.98C82.81,-299.74 57.41,-308.27 40.47,-313.96"/>
<polygon fill="#63b8ff" stroke="#63b8ff" points="106.9,-295.35 115.27,-288.85 104.67,-288.71 106.9,-295.35"/>
</a>
</g>
</g>
<!-- Node12&#45;&gt;Node8 -->
<g id="edge16_Node000012_Node000008" class="edge">
<title>Node12&#45;&gt;Node8</title>
<g id="a_edge16_Node000012_Node000008"><a xlink:title=" ">
<path fill="none" stroke="#63b8ff" d="M298.54,-358.69C238.26,-354.84 151.2,-347.53 76,-334.49 64.06,-332.42 50.9,-329.11 40.44,-326.23"/>
<polygon fill="#63b8ff" stroke="#63b8ff" points="298.14,-362.18 308.34,-359.3 298.58,-355.19 298.14,-362.18"/>
</a>
</g>
</g>
<!-- Node13&#45;&gt;Node8 -->
<g id="edge18_Node000013_Node000008" class="edge">
<title>Node13&#45;&gt;Node8</title>
<g id="a_edge18_Node000013_Node000008"><a xlink:title=" ">
<path fill="none" stroke="#63b8ff" d="M299.78,-320.49C217.41,-320.49 88.59,-320.49 40.21,-320.49"/>
<polygon fill="#63b8ff" stroke="#63b8ff" points="299.56,-323.99 309.56,-320.49 299.56,-316.99 299.56,-323.99"/>
</a>
</g>
</g>
<!-- Node14&#45;&gt;Node4 -->
<g id="edge26_Node000014_Node000004" class="edge">
<title>Node14&#45;&gt;Node4</title>
<g id="a_edge26_Node000014_Node000004"><a xlink:title=" ">
<path fill="none" stroke="#63b8ff" d="M510.36,-212.3C458.9,-190.48 353.19,-155.91 284,-203.49 247.14,-228.85 264.98,-256.11 248,-297.49 218.69,-368.94 180.27,-453.71 167.41,-481.87"/>
<polygon fill="#63b8ff" stroke="#63b8ff" points="508.83,-215.45 519.4,-216.26 511.64,-209.04 508.83,-215.45"/>
</a>
</g>
</g>
<!-- Node14&#45;&gt;Node8 -->
<g id="edge29_Node000014_Node000008" class="edge">
<title>Node14&#45;&gt;Node8</title>
<g id="a_edge29_Node000014_Node000008"><a xlink:title=" ">
<path fill="none" stroke="#63b8ff" d="M529.15,-207.35C516.07,-187.61 492.7,-158.01 463.5,-145.49 390.17,-114.06 361.61,-127.02 284,-145.49 183.26,-169.48 156.12,-184.88 76,-250.49 54.24,-268.32 35.62,-296.18 26.67,-310.8"/>
<polygon fill="#63b8ff" stroke="#63b8ff" points="526.06,-209.01 534.36,-215.6 531.98,-205.27 526.06,-209.01"/>
</a>
</g>
</g>
<!-- Node14&#45;&gt;Node10 -->
<g id="edge22_Node000014_Node000010" class="edge">
<title>Node14&#45;&gt;Node10</title>
<g id="a_edge22_Node000014_Node000010"><a xlink:title=" ">
<path fill="none" stroke="#63b8ff" d="M499.87,-239.58C488.16,-243.23 475.36,-247.12 463.5,-250.49 454.01,-253.2 443.91,-255.94 434.05,-258.55"/>
<polygon fill="#63b8ff" stroke="#63b8ff" points="500.76,-242.97 509.25,-236.63 498.66,-236.29 500.76,-242.97"/>
</a>
</g>
</g>
<!-- Node14&#45;&gt;Node11 -->
<g id="edge23_Node000014_Node000011" class="edge">
<title>Node14&#45;&gt;Node11</title>
<g id="a_edge23_Node000014_Node000011"><a xlink:title=" ">
<path fill="none" stroke="#63b8ff" d="M523.83,-209.03C509.34,-195.31 487.07,-177.26 463.5,-169.49 387.73,-144.53 358.8,-141.77 284,-169.49 235.43,-187.5 193.25,-234.69 174.05,-258.83"/>
<polygon fill="#63b8ff" stroke="#63b8ff" points="521.14,-211.29 530.72,-215.82 526.06,-206.31 521.14,-211.29"/>
</a>
</g>
</g>
<!-- Node14&#45;&gt;Node12 -->
<g id="edge24_Node000014_Node000012" class="edge">
<title>Node14&#45;&gt;Node12</title>
<g id="a_edge24_Node000014_Node000012"><a xlink:title=" ">
<path fill="none" stroke="#63b8ff" d="M533.34,-246.4C522.45,-273.17 499.32,-320.2 463.5,-344.49 455.69,-349.79 446.67,-353.59 437.43,-356.31"/>
<polygon fill="#63b8ff" stroke="#63b8ff" points="536.47,-247.99 536.82,-237.4 529.94,-245.46 536.47,-247.99"/>
</a>
</g>
</g>
<!-- Node14&#45;&gt;Node13 -->
<g id="edge25_Node000014_Node000013" class="edge">
<title>Node14&#45;&gt;Node13</title>
<g id="a_edge25_Node000014_Node000013"><a xlink:title=" ">
<path fill="none" stroke="#63b8ff" d="M525.78,-244.48C511.46,-260.67 488.35,-283.96 463.5,-297.49 455.11,-302.06 445.78,-305.75 436.41,-308.73"/>
<polygon fill="#63b8ff" stroke="#63b8ff" points="528.31,-246.9 532.16,-237.03 523,-242.35 528.31,-246.9"/>
</a>
</g>
</g>
<!-- Node15 -->
<g id="Node000015" class="node">
<title>Node15</title>
<g id="a_Node000015"><a xlink:href="classDisplayManager.html#a2d6f5efef5cb7e03c820ab14c4adc217" target="_top" xlink:title="Runs a display check to verify the OLED functionality.">
<polygon fill="white" stroke="#666666" points="443.25,-240.99 304.25,-240.99 304.25,-211.99 443.25,-211.99 443.25,-240.99"/>
<text text-anchor="start" x="312.25" y="-227.49" font-family="Helvetica,sans-Serif" font-size="10.00">DisplayManager::runDisplay</text>
<text text-anchor="middle" x="373.75" y="-216.99" font-family="Helvetica,sans-Serif" font-size="10.00">Check</text>
</a>
</g>
</g>
<!-- Node14&#45;&gt;Node15 -->
<g id="edge27_Node000014_Node000015" class="edge">
<title>Node14&#45;&gt;Node15</title>
<g id="a_edge27_Node000014_Node000015"><a xlink:title=" ">
<path fill="none" stroke="#63b8ff" d="M496.51,-226.49C480.24,-226.49 461.4,-226.49 443.47,-226.49"/>
<polygon fill="#63b8ff" stroke="#63b8ff" points="496.34,-229.99 506.34,-226.49 496.34,-222.99 496.34,-229.99"/>
</a>
</g>
</g>
<!-- Node16 -->
<g id="Node000016" class="node">
<title>Node16</title>
<g id="a_Node000016"><a xlink:href="classI2CScanner.html#ad3b7b4bc25e6c1e8b89e702862a56af5" target="_top" xlink:title="Scans the I2C bus for connected devices.">
<polygon fill="white" stroke="#666666" points="420.75,-79.74 326.75,-79.74 326.75,-61.24 420.75,-61.24 420.75,-79.74"/>
<text text-anchor="middle" x="373.75" y="-66.24" font-family="Helvetica,sans-Serif" font-size="10.00">I2CScanner::scan</text>
</a>
</g>
</g>
<!-- Node14&#45;&gt;Node16 -->
<g id="edge28_Node000014_Node000016" class="edge">
<title>Node14&#45;&gt;Node16</title>
<g id="a_edge28_Node000014_Node000016"><a xlink:title=" ">
<path fill="none" stroke="#63b8ff" d="M534.56,-206.49C524.61,-177.13 501.99,-122.72 463.5,-93.49 451.33,-84.25 435.81,-78.71 421.16,-75.39"/>
<polygon fill="#63b8ff" stroke="#63b8ff" points="531.1,-207.17 537.5,-215.62 537.77,-205.03 531.1,-207.17"/>
</a>
</g>
</g>
<!-- Node17&#45;&gt;Node4 -->
<g id="edge31_Node000017_Node000004" class="edge">
<title>Node17&#45;&gt;Node4</title>
<g id="a_edge31_Node000017_Node000004"><a xlink:title=" ">
<path fill="none" stroke="#63b8ff" d="M504.12,-39.22C449.24,-21.86 345.38,0.53 284,-52.49 242.36,-88.47 263.18,-244.6 248,-297.49 226.8,-371.37 183.56,-453.92 168.4,-481.75"/>
<polygon fill="#63b8ff" stroke="#63b8ff" points="503.03,-42.55 513.62,-42.35 505.21,-35.9 503.03,-42.55"/>
</a>
</g>
</g>
<!-- Node17&#45;&gt;Node8 -->
<g id="edge33_Node000017_Node000008" class="edge">
<title>Node17&#45;&gt;Node8</title>
<g id="a_edge33_Node000017_Node000008"><a xlink:title=" ">
<path fill="none" stroke="#63b8ff" d="M515.95,-37.15C501.3,-28.95 482.03,-19.71 463.5,-15.49 385.71,2.2 360.46,7.28 284,-15.49 178.15,-47.03 143.12,-63.78 76,-151.49 36.62,-202.95 24.84,-283.71 21.88,-311.07"/>
<polygon fill="#63b8ff" stroke="#63b8ff" points="514,-40.07 524.41,-42.08 517.53,-34.02 514,-40.07"/>
</a>
</g>
</g>
<!-- Node17&#45;&gt;Node16 -->
<g id="edge32_Node000017_Node000016" class="edge">
<title>Node17&#45;&gt;Node16</title>
<g id="a_edge32_Node000017_Node000016"><a xlink:title=" ">
<path fill="none" stroke="#63b8ff" d="M487.98,-58.21C466.54,-60.53 441.97,-63.2 421.2,-65.45"/>
<polygon fill="#63b8ff" stroke="#63b8ff" points="488.13,-61.71 497.69,-57.15 487.37,-54.75 488.13,-61.71"/>
</a>
</g>
</g>
</g>
</svg>
