<?xml version="1.0" encoding="UTF-8" standalone="no"?>
<!DOCTYPE svg PUBLIC "-//W3C//DTD SVG 1.1//EN"
 "http://www.w3.org/Graphics/SVG/1.1/DTD/svg11.dtd">
<!-- Generated by graphviz version 12.1.2 (0)
 -->
<!-- Title: SensorManager::isDataAvailable Pages: 1 -->
<svg width="378pt" height="27pt"
 viewBox="0.00 0.00 377.75 26.50" xmlns="http://www.w3.org/2000/svg" xmlns:xlink="http://www.w3.org/1999/xlink">
<g id="graph0" class="graph" transform="scale(1 1) rotate(0) translate(4 22.5)">
<title>SensorManager::isDataAvailable</title>
<!-- Node1 -->
<g id="Node000001" class="node">
<title>Node1</title>
<g id="a_Node000001"><a xlink:title="Checks if new data is available from the sensors.">
<polygon fill="#999999" stroke="#666666" points="156.25,-18.5 0,-18.5 0,0 156.25,0 156.25,-18.5"/>
<text text-anchor="middle" x="78.12" y="-5" font-family="Helvetica,sans-Serif" font-size="10.00">SensorManager::isDataAvailable</text>
</a>
</g>
</g>
<!-- Node2 -->
<g id="Node000002" class="node">
<title>Node2</title>
<g id="a_Node000002"><a xlink:href="classLogger.html#abeffd58a6beace1b1c01a5324227fd83" target="_top" xlink:title="Logs a debug message.">
<polygon fill="white" stroke="#666666" points="269.75,-18.5 192.25,-18.5 192.25,0 269.75,0 269.75,-18.5"/>
<text text-anchor="middle" x="231" y="-5" font-family="Helvetica,sans-Serif" font-size="10.00">Logger::debug</text>
</a>
</g>
</g>
<!-- Node1&#45;&gt;Node2 -->
<g id="edge1_Node000001_Node000002" class="edge">
<title>Node1&#45;&gt;Node2</title>
<g id="a_edge1_Node000001_Node000002"><a xlink:title=" ">
<path fill="none" stroke="#63b8ff" d="M156.33,-9.25C164.52,-9.25 172.67,-9.25 180.42,-9.25"/>
<polygon fill="#63b8ff" stroke="#63b8ff" points="180.29,-12.75 190.29,-9.25 180.29,-5.75 180.29,-12.75"/>
</a>
</g>
</g>
<!-- Node3 -->
<g id="Node000003" class="node">
<title>Node3</title>
<g id="a_Node000003"><a xlink:href="classLogger.html#af0dc4ff68b6d37026b9f6c7a51da6aaa" target="_top" xlink:title="Logs a message if it meets the current log level.">
<polygon fill="white" stroke="#666666" points="369.75,-18.5 305.75,-18.5 305.75,0 369.75,0 369.75,-18.5"/>
<text text-anchor="middle" x="337.75" y="-5" font-family="Helvetica,sans-Serif" font-size="10.00">Logger::log</text>
</a>
</g>
</g>
<!-- Node2&#45;&gt;Node3 -->
<g id="edge2_Node000002_Node000003" class="edge">
<title>Node2&#45;&gt;Node3</title>
<g id="a_edge2_Node000002_Node000003"><a xlink:title=" ">
<path fill="none" stroke="#63b8ff" d="M270.11,-9.25C277.9,-9.25 286.13,-9.25 294.06,-9.25"/>
<polygon fill="#63b8ff" stroke="#63b8ff" points="293.86,-12.75 303.86,-9.25 293.86,-5.75 293.86,-12.75"/>
</a>
</g>
</g>
</g>
</svg>
