<?xml version="1.0" encoding="UTF-8" standalone="no"?>
<!DOCTYPE svg PUBLIC "-//W3C//DTD SVG 1.1//EN"
 "http://www.w3.org/Graphics/SVG/1.1/DTD/svg11.dtd">
<!-- Generated by graphviz version 12.1.2 (0)
 -->
<!-- Title: DisplayManager::initialize Pages: 1 -->
<svg width="342pt" height="64pt"
 viewBox="0.00 0.00 341.75 63.50" xmlns="http://www.w3.org/2000/svg" xmlns:xlink="http://www.w3.org/1999/xlink">
<g id="graph0" class="graph" transform="scale(1 1) rotate(0) translate(4 59.5)">
<title>DisplayManager::initialize</title>
<!-- Node1 -->
<g id="Node000001" class="node">
<title>Node1</title>
<g id="a_Node000001"><a xlink:title="Initializes the OLED display.">
<polygon fill="#999999" stroke="#666666" points="127,-36.5 0,-36.5 0,-18 127,-18 127,-36.5"/>
<text text-anchor="middle" x="63.5" y="-23" font-family="Helvetica,sans-Serif" font-size="10.00">DisplayManager::initialize</text>
</a>
</g>
</g>
<!-- Node2 -->
<g id="Node000002" class="node">
<title>Node2</title>
<g id="a_Node000002"><a xlink:href="classLogger.html#ac862952b8ffa9de295a496af0108785c" target="_top" xlink:title="Logs an error message.">
<polygon fill="white" stroke="#666666" points="233.75,-55.5 163,-55.5 163,-37 233.75,-37 233.75,-55.5"/>
<text text-anchor="middle" x="198.38" y="-42" font-family="Helvetica,sans-Serif" font-size="10.00">Logger::error</text>
</a>
</g>
</g>
<!-- Node1&#45;&gt;Node2 -->
<g id="edge1_Node000001_Node000002" class="edge">
<title>Node1&#45;&gt;Node2</title>
<g id="a_edge1_Node000001_Node000002"><a xlink:title=" ">
<path fill="none" stroke="#63b8ff" d="M127.44,-36.25C135.45,-37.4 143.54,-38.55 151.23,-39.65"/>
<polygon fill="#63b8ff" stroke="#63b8ff" points="150.63,-43.1 161.02,-41.05 151.62,-36.17 150.63,-43.1"/>
</a>
</g>
</g>
<!-- Node4 -->
<g id="Node000004" class="node">
<title>Node4</title>
<g id="a_Node000004"><a xlink:href="classLogger.html#a0c5851d03ba2e560bfd57aeb713267b3" target="_top" xlink:title="Logs an informational message.">
<polygon fill="white" stroke="#666666" points="231.88,-18.5 164.88,-18.5 164.88,0 231.88,0 231.88,-18.5"/>
<text text-anchor="middle" x="198.38" y="-5" font-family="Helvetica,sans-Serif" font-size="10.00">Logger::info</text>
</a>
</g>
</g>
<!-- Node1&#45;&gt;Node4 -->
<g id="edge3_Node000001_Node000004" class="edge">
<title>Node1&#45;&gt;Node4</title>
<g id="a_edge3_Node000001_Node000004"><a xlink:title=" ">
<path fill="none" stroke="#63b8ff" d="M127.44,-18.72C136.19,-17.54 145.02,-16.34 153.33,-15.22"/>
<polygon fill="#63b8ff" stroke="#63b8ff" points="153.72,-18.7 163.16,-13.89 152.78,-11.76 153.72,-18.7"/>
</a>
</g>
</g>
<!-- Node3 -->
<g id="Node000003" class="node">
<title>Node3</title>
<g id="a_Node000003"><a xlink:href="classLogger.html#af0dc4ff68b6d37026b9f6c7a51da6aaa" target="_top" xlink:title="Logs a message if it meets the current log level.">
<polygon fill="white" stroke="#666666" points="333.75,-36.5 269.75,-36.5 269.75,-18 333.75,-18 333.75,-36.5"/>
<text text-anchor="middle" x="301.75" y="-23" font-family="Helvetica,sans-Serif" font-size="10.00">Logger::log</text>
</a>
</g>
</g>
<!-- Node2&#45;&gt;Node3 -->
<g id="edge2_Node000002_Node000003" class="edge">
<title>Node2&#45;&gt;Node3</title>
<g id="a_edge2_Node000002_Node000003"><a xlink:title=" ">
<path fill="none" stroke="#63b8ff" d="M233.98,-39.76C241.78,-38.3 250.14,-36.74 258.22,-35.22"/>
<polygon fill="#63b8ff" stroke="#63b8ff" points="258.69,-38.69 267.88,-33.41 257.4,-31.81 258.69,-38.69"/>
</a>
</g>
</g>
<!-- Node4&#45;&gt;Node3 -->
<g id="edge4_Node000004_Node000003" class="edge">
<title>Node4&#45;&gt;Node3</title>
<g id="a_edge4_Node000004_Node000003"><a xlink:title=" ">
<path fill="none" stroke="#63b8ff" d="M232.29,-15.09C240.57,-16.56 249.58,-18.16 258.25,-19.7"/>
<polygon fill="#63b8ff" stroke="#63b8ff" points="257.43,-23.11 267.89,-21.42 258.66,-16.22 257.43,-23.11"/>
</a>
</g>
</g>
</g>
</svg>
