<?xml version="1.0" encoding="UTF-8" standalone="no"?>
<!DOCTYPE svg PUBLIC "-//W3C//DTD SVG 1.1//EN"
 "http://www.w3.org/Graphics/SVG/1.1/DTD/svg11.dtd">
<!-- Generated by graphviz version 12.1.2 (0)
 -->
<!-- Title: SensorManager::checkAndCalibrateSCD30 Pages: 1 -->
<svg width="550pt" height="69pt"
 viewBox="0.00 0.00 549.75 68.75" xmlns="http://www.w3.org/2000/svg" xmlns:xlink="http://www.w3.org/1999/xlink">
<g id="graph0" class="graph" transform="scale(1 1) rotate(0) translate(4 64.75)">
<title>SensorManager::checkAndCalibrateSCD30</title>
<!-- Node1 -->
<g id="Node000001" class="node">
<title>Node1</title>
<g id="a_Node000001"><a xlink:title="Checks if the SCD30 sensor needs calibration and performs calibration if necessary.">
<polygon fill="#999999" stroke="#666666" points="172,-38.75 0,-38.75 0,-9.75 172,-9.75 172,-38.75"/>
<text text-anchor="start" x="8" y="-25.25" font-family="Helvetica,sans-Serif" font-size="10.00">SensorManager::checkAndCalibrate</text>
<text text-anchor="middle" x="86" y="-14.75" font-family="Helvetica,sans-Serif" font-size="10.00">SCD30</text>
</a>
</g>
</g>
<!-- Node2 -->
<g id="Node000002" class="node">
<title>Node2</title>
<g id="a_Node000002"><a xlink:href="classSensorManager.html#a3608ee33385f64e74410127d59c2638e" target="_top" xlink:title="Calibrates the SCD30 sensor using the forced recalibration factor.">
<polygon fill="white" stroke="#666666" points="335,-60.75 208,-60.75 208,-31.75 335,-31.75 335,-60.75"/>
<text text-anchor="start" x="216" y="-47.25" font-family="Helvetica,sans-Serif" font-size="10.00">SensorManager::calibrate</text>
<text text-anchor="middle" x="271.5" y="-36.75" font-family="Helvetica,sans-Serif" font-size="10.00">SCD30</text>
</a>
</g>
</g>
<!-- Node1&#45;&gt;Node2 -->
<g id="edge1_Node000001_Node000002" class="edge">
<title>Node1&#45;&gt;Node2</title>
<g id="a_edge1_Node000001_Node000002"><a xlink:title=" ">
<path fill="none" stroke="#63b8ff" d="M172.3,-34.48C180.29,-35.43 188.34,-36.4 196.21,-37.34"/>
<polygon fill="#63b8ff" stroke="#63b8ff" points="195.75,-40.81 206.09,-38.53 196.58,-33.86 195.75,-40.81"/>
</a>
</g>
</g>
<!-- Node5 -->
<g id="Node000005" class="node">
<title>Node5</title>
<g id="a_Node000005"><a xlink:href="classLogger.html#a0c5851d03ba2e560bfd57aeb713267b3" target="_top" xlink:title="Logs an informational message.">
<polygon fill="white" stroke="#666666" points="439.88,-18.5 372.88,-18.5 372.88,0 439.88,0 439.88,-18.5"/>
<text text-anchor="middle" x="406.38" y="-5" font-family="Helvetica,sans-Serif" font-size="10.00">Logger::info</text>
</a>
</g>
</g>
<!-- Node1&#45;&gt;Node5 -->
<g id="edge6_Node000001_Node000005" class="edge">
<title>Node1&#45;&gt;Node5</title>
<g id="a_edge6_Node000001_Node000005"><a xlink:title=" ">
<path fill="none" stroke="#63b8ff" d="M172.32,-20.23C233.24,-17.36 312.7,-13.62 361.33,-11.33"/>
<polygon fill="#63b8ff" stroke="#63b8ff" points="361.37,-14.83 371.19,-10.86 361.04,-7.84 361.37,-14.83"/>
</a>
</g>
</g>
<!-- Node3 -->
<g id="Node000003" class="node">
<title>Node3</title>
<g id="a_Node000003"><a xlink:href="classLogger.html#ac862952b8ffa9de295a496af0108785c" target="_top" xlink:title="Logs an error message.">
<polygon fill="white" stroke="#666666" points="441.75,-55.5 371,-55.5 371,-37 441.75,-37 441.75,-55.5"/>
<text text-anchor="middle" x="406.38" y="-42" font-family="Helvetica,sans-Serif" font-size="10.00">Logger::error</text>
</a>
</g>
</g>
<!-- Node2&#45;&gt;Node3 -->
<g id="edge2_Node000002_Node000003" class="edge">
<title>Node2&#45;&gt;Node3</title>
<g id="a_edge2_Node000002_Node000003"><a xlink:title=" ">
<path fill="none" stroke="#63b8ff" d="M335.44,-46.25C343.45,-46.25 351.54,-46.25 359.23,-46.25"/>
<polygon fill="#63b8ff" stroke="#63b8ff" points="359.01,-49.75 369.01,-46.25 359.01,-42.75 359.01,-49.75"/>
</a>
</g>
</g>
<!-- Node2&#45;&gt;Node5 -->
<g id="edge4_Node000002_Node000005" class="edge">
<title>Node2&#45;&gt;Node5</title>
<g id="a_edge4_Node000002_Node000005"><a xlink:title=" ">
<path fill="none" stroke="#63b8ff" d="M326.16,-31.31C337.94,-28.03 350.27,-24.59 361.6,-21.44"/>
<polygon fill="#63b8ff" stroke="#63b8ff" points="362.39,-24.85 371.09,-18.8 360.52,-18.11 362.39,-24.85"/>
</a>
</g>
</g>
<!-- Node4 -->
<g id="Node000004" class="node">
<title>Node4</title>
<g id="a_Node000004"><a xlink:href="classLogger.html#af0dc4ff68b6d37026b9f6c7a51da6aaa" target="_top" xlink:title="Logs a message if it meets the current log level.">
<polygon fill="white" stroke="#666666" points="541.75,-36.5 477.75,-36.5 477.75,-18 541.75,-18 541.75,-36.5"/>
<text text-anchor="middle" x="509.75" y="-23" font-family="Helvetica,sans-Serif" font-size="10.00">Logger::log</text>
</a>
</g>
</g>
<!-- Node3&#45;&gt;Node4 -->
<g id="edge3_Node000003_Node000004" class="edge">
<title>Node3&#45;&gt;Node4</title>
<g id="a_edge3_Node000003_Node000004"><a xlink:title=" ">
<path fill="none" stroke="#63b8ff" d="M441.98,-39.76C449.78,-38.3 458.14,-36.74 466.22,-35.22"/>
<polygon fill="#63b8ff" stroke="#63b8ff" points="466.69,-38.69 475.88,-33.41 465.4,-31.81 466.69,-38.69"/>
</a>
</g>
</g>
<!-- Node5&#45;&gt;Node4 -->
<g id="edge5_Node000005_Node000004" class="edge">
<title>Node5&#45;&gt;Node4</title>
<g id="a_edge5_Node000005_Node000004"><a xlink:title=" ">
<path fill="none" stroke="#63b8ff" d="M440.29,-15.09C448.57,-16.56 457.58,-18.16 466.25,-19.7"/>
<polygon fill="#63b8ff" stroke="#63b8ff" points="465.43,-23.11 475.89,-21.42 466.66,-16.22 465.43,-23.11"/>
</a>
</g>
</g>
</g>
</svg>
