<?xml version="1.0" encoding="UTF-8" standalone="no"?>
<!DOCTYPE svg PUBLIC "-//W3C//DTD SVG 1.1//EN"
 "http://www.w3.org/Graphics/SVG/1.1/DTD/svg11.dtd">
<!-- Generated by graphviz version 12.1.2 (0)
 -->
<!-- Title: DisplayManager Pages: 1 -->
<svg width="140pt" height="138pt"
 viewBox="0.00 0.00 140.00 138.00" xmlns="http://www.w3.org/2000/svg" xmlns:xlink="http://www.w3.org/1999/xlink">
<g id="graph0" class="graph" transform="scale(1 1) rotate(0) translate(4 134)">
<title>DisplayManager</title>
<!-- Node1 -->
<g id="Node000001" class="node">
<title>Node1</title>
<g id="a_Node000001"><a xlink:title="Manages the OLED display for showing messages, warnings, and sensor readings.">
<polygon fill="#999999" stroke="none" points="132,-130 0,-130 0,0 132,0 132,-130"/>
<text text-anchor="start" x="30.75" y="-116.5" font-family="Helvetica,sans-Serif" font-size="10.00">DisplayManager</text>
<text text-anchor="start" x="64.5" y="-102.5" font-family="Helvetica,sans-Serif" font-size="10.00"> </text>
<text text-anchor="start" x="4" y="-88.5" font-family="Helvetica,sans-Serif" font-size="10.00">+</text>
<text text-anchor="start" x="14" y="-88.5" font-family="Helvetica,sans-Serif" font-size="10.00">DisplayManager()</text>
<text text-anchor="start" x="4" y="-74.5" font-family="Helvetica,sans-Serif" font-size="10.00">+</text>
<text text-anchor="start" x="14" y="-74.5" font-family="Helvetica,sans-Serif" font-size="10.00">initialize()</text>
<text text-anchor="start" x="4" y="-60.5" font-family="Helvetica,sans-Serif" font-size="10.00">+</text>
<text text-anchor="start" x="14" y="-60.5" font-family="Helvetica,sans-Serif" font-size="10.00">runDisplayCheck()</text>
<text text-anchor="start" x="4" y="-46.5" font-family="Helvetica,sans-Serif" font-size="10.00">+</text>
<text text-anchor="start" x="14" y="-46.5" font-family="Helvetica,sans-Serif" font-size="10.00">showBlinkingWarning()</text>
<text text-anchor="start" x="4" y="-32.5" font-family="Helvetica,sans-Serif" font-size="10.00">+</text>
<text text-anchor="start" x="14" y="-32.5" font-family="Helvetica,sans-Serif" font-size="10.00">showCalibrationMessage()</text>
<text text-anchor="start" x="4" y="-18.5" font-family="Helvetica,sans-Serif" font-size="10.00">+</text>
<text text-anchor="start" x="14" y="-18.5" font-family="Helvetica,sans-Serif" font-size="10.00">showNormalScreen()</text>
<text text-anchor="start" x="4" y="-4.5" font-family="Helvetica,sans-Serif" font-size="10.00">+</text>
<text text-anchor="start" x="14" y="-4.5" font-family="Helvetica,sans-Serif" font-size="10.00">splashScreen()</text>
<polygon fill="#666666" stroke="#666666" points="0,-114 0,-114 132,-114 132,-114 0,-114"/>
<polygon fill="#666666" stroke="#666666" points="0,-100 0,-100 132,-100 132,-100 0,-100"/>
<polygon fill="none" stroke="#666666" points="0,0 0,-130 132,-130 132,0 0,0"/>
</a>
</g>
</g>
</g>
</svg>
