<?xml version="1.0" encoding="UTF-8" standalone="no"?>
<!DOCTYPE svg PUBLIC "-//W3C//DTD SVG 1.1//EN"
 "http://www.w3.org/Graphics/SVG/1.1/DTD/svg11.dtd">
<!-- Generated by graphviz version 12.1.2 (0)
 -->
<!-- Title: SensorManager::initializeSensors Pages: 1 -->
<svg width="340pt" height="64pt"
 viewBox="0.00 0.00 339.50 63.50" xmlns="http://www.w3.org/2000/svg" xmlns:xlink="http://www.w3.org/1999/xlink">
<g id="graph0" class="graph" transform="scale(1 1) rotate(0) translate(4 59.5)">
<title>SensorManager::initializeSensors</title>
<!-- Node1 -->
<g id="Node000001" class="node">
<title>Node1</title>
<g id="a_Node000001"><a xlink:title="Initializes the SCD30 and BMP280 sensors.">
<polygon fill="#999999" stroke="#666666" points="124.75,-41.75 0,-41.75 0,-12.75 124.75,-12.75 124.75,-41.75"/>
<text text-anchor="start" x="8" y="-28.25" font-family="Helvetica,sans-Serif" font-size="10.00">SensorManager::initialize</text>
<text text-anchor="middle" x="62.38" y="-17.75" font-family="Helvetica,sans-Serif" font-size="10.00">Sensors</text>
</a>
</g>
</g>
<!-- Node2 -->
<g id="Node000002" class="node">
<title>Node2</title>
<g id="a_Node000002"><a xlink:href="classLogger.html#ac862952b8ffa9de295a496af0108785c" target="_top" xlink:title="Logs an error message.">
<polygon fill="white" stroke="#666666" points="231.5,-55.5 160.75,-55.5 160.75,-37 231.5,-37 231.5,-55.5"/>
<text text-anchor="middle" x="196.12" y="-42" font-family="Helvetica,sans-Serif" font-size="10.00">Logger::error</text>
</a>
</g>
</g>
<!-- Node1&#45;&gt;Node2 -->
<g id="edge1_Node000001_Node000002" class="edge">
<title>Node1&#45;&gt;Node2</title>
<g id="a_edge1_Node000001_Node000002"><a xlink:title=" ">
<path fill="none" stroke="#63b8ff" d="M125.01,-36.14C133.2,-37.32 141.47,-38.51 149.33,-39.65"/>
<polygon fill="#63b8ff" stroke="#63b8ff" points="148.58,-43.07 158.98,-41.04 149.58,-36.15 148.58,-43.07"/>
</a>
</g>
</g>
<!-- Node4 -->
<g id="Node000004" class="node">
<title>Node4</title>
<g id="a_Node000004"><a xlink:href="classLogger.html#a0c5851d03ba2e560bfd57aeb713267b3" target="_top" xlink:title="Logs an informational message.">
<polygon fill="white" stroke="#666666" points="229.62,-18.5 162.62,-18.5 162.62,0 229.62,0 229.62,-18.5"/>
<text text-anchor="middle" x="196.12" y="-5" font-family="Helvetica,sans-Serif" font-size="10.00">Logger::info</text>
</a>
</g>
</g>
<!-- Node1&#45;&gt;Node4 -->
<g id="edge3_Node000001_Node000004" class="edge">
<title>Node1&#45;&gt;Node4</title>
<g id="a_edge3_Node000001_Node000004"><a xlink:title=" ">
<path fill="none" stroke="#63b8ff" d="M125.01,-18.83C133.75,-17.64 142.59,-16.43 150.91,-15.29"/>
<polygon fill="#63b8ff" stroke="#63b8ff" points="151.33,-18.77 160.76,-13.94 150.38,-11.83 151.33,-18.77"/>
</a>
</g>
</g>
<!-- Node3 -->
<g id="Node000003" class="node">
<title>Node3</title>
<g id="a_Node000003"><a xlink:href="classLogger.html#af0dc4ff68b6d37026b9f6c7a51da6aaa" target="_top" xlink:title="Logs a message if it meets the current log level.">
<polygon fill="white" stroke="#666666" points="331.5,-36.5 267.5,-36.5 267.5,-18 331.5,-18 331.5,-36.5"/>
<text text-anchor="middle" x="299.5" y="-23" font-family="Helvetica,sans-Serif" font-size="10.00">Logger::log</text>
</a>
</g>
</g>
<!-- Node2&#45;&gt;Node3 -->
<g id="edge2_Node000002_Node000003" class="edge">
<title>Node2&#45;&gt;Node3</title>
<g id="a_edge2_Node000002_Node000003"><a xlink:title=" ">
<path fill="none" stroke="#63b8ff" d="M231.73,-39.76C239.53,-38.3 247.89,-36.74 255.97,-35.22"/>
<polygon fill="#63b8ff" stroke="#63b8ff" points="256.44,-38.69 265.63,-33.41 255.15,-31.81 256.44,-38.69"/>
</a>
</g>
</g>
<!-- Node4&#45;&gt;Node3 -->
<g id="edge4_Node000004_Node000003" class="edge">
<title>Node4&#45;&gt;Node3</title>
<g id="a_edge4_Node000004_Node000003"><a xlink:title=" ">
<path fill="none" stroke="#63b8ff" d="M230.04,-15.09C238.32,-16.56 247.33,-18.16 256,-19.7"/>
<polygon fill="#63b8ff" stroke="#63b8ff" points="255.18,-23.11 265.64,-21.42 256.41,-16.22 255.18,-23.11"/>
</a>
</g>
</g>
</g>
</svg>
