<?xml version="1.0" encoding="UTF-8" standalone="no"?>
<!DOCTYPE svg PUBLIC "-//W3C//DTD SVG 1.1//EN"
 "http://www.w3.org/Graphics/SVG/1.1/DTD/svg11.dtd">
<!-- Generated by graphviz version 12.1.2 (0)
 -->
<!-- Title: SensorManager::resetCalibrationFlag Pages: 1 -->
<svg width="398pt" height="64pt"
 viewBox="0.00 0.00 398.00 63.50" xmlns="http://www.w3.org/2000/svg" xmlns:xlink="http://www.w3.org/1999/xlink">
<g id="graph0" class="graph" transform="scale(1 1) rotate(0) translate(4 59.5)">
<title>SensorManager::resetCalibrationFlag</title>
<!-- Node1 -->
<g id="Node000001" class="node">
<title>Node1</title>
<g id="a_Node000001"><a xlink:title="Resets the calibration flag stored in EEPROM.">
<polygon fill="#999999" stroke="#666666" points="176.5,-36.5 0,-36.5 0,-18 176.5,-18 176.5,-36.5"/>
<text text-anchor="middle" x="88.25" y="-23" font-family="Helvetica,sans-Serif" font-size="10.00">SensorManager::resetCalibrationFlag</text>
</a>
</g>
</g>
<!-- Node2 -->
<g id="Node000002" class="node">
<title>Node2</title>
<g id="a_Node000002"><a xlink:href="classLogger.html#abeffd58a6beace1b1c01a5324227fd83" target="_top" xlink:title="Logs a debug message.">
<polygon fill="white" stroke="#666666" points="290,-55.5 212.5,-55.5 212.5,-37 290,-37 290,-55.5"/>
<text text-anchor="middle" x="251.25" y="-42" font-family="Helvetica,sans-Serif" font-size="10.00">Logger::debug</text>
</a>
</g>
</g>
<!-- Node1&#45;&gt;Node2 -->
<g id="edge1_Node000001_Node000002" class="edge">
<title>Node1&#45;&gt;Node2</title>
<g id="a_edge1_Node000001_Node000002"><a xlink:title=" ">
<path fill="none" stroke="#63b8ff" d="M171.64,-36.97C181.65,-38.15 191.62,-39.33 200.93,-40.43"/>
<polygon fill="#63b8ff" stroke="#63b8ff" points="200.48,-43.9 210.82,-41.6 201.3,-36.95 200.48,-43.9"/>
</a>
</g>
</g>
<!-- Node4 -->
<g id="Node000004" class="node">
<title>Node4</title>
<g id="a_Node000004"><a xlink:href="classLogger.html#ac862952b8ffa9de295a496af0108785c" target="_top" xlink:title="Logs an error message.">
<polygon fill="white" stroke="#666666" points="286.62,-18.5 215.88,-18.5 215.88,0 286.62,0 286.62,-18.5"/>
<text text-anchor="middle" x="251.25" y="-5" font-family="Helvetica,sans-Serif" font-size="10.00">Logger::error</text>
</a>
</g>
</g>
<!-- Node1&#45;&gt;Node4 -->
<g id="edge3_Node000001_Node000004" class="edge">
<title>Node1&#45;&gt;Node4</title>
<g id="a_edge3_Node000001_Node000004"><a xlink:title=" ">
<path fill="none" stroke="#63b8ff" d="M176.35,-17.51C186.03,-16.43 195.59,-15.36 204.45,-14.37"/>
<polygon fill="#63b8ff" stroke="#63b8ff" points="204.6,-17.88 214.15,-13.29 203.82,-10.92 204.6,-17.88"/>
</a>
</g>
</g>
<!-- Node3 -->
<g id="Node000003" class="node">
<title>Node3</title>
<g id="a_Node000003"><a xlink:href="classLogger.html#af0dc4ff68b6d37026b9f6c7a51da6aaa" target="_top" xlink:title="Logs a message if it meets the current log level.">
<polygon fill="white" stroke="#666666" points="390,-36.5 326,-36.5 326,-18 390,-18 390,-36.5"/>
<text text-anchor="middle" x="358" y="-23" font-family="Helvetica,sans-Serif" font-size="10.00">Logger::log</text>
</a>
</g>
</g>
<!-- Node2&#45;&gt;Node3 -->
<g id="edge2_Node000002_Node000003" class="edge">
<title>Node2&#45;&gt;Node3</title>
<g id="a_edge2_Node000002_Node000003"><a xlink:title=" ">
<path fill="none" stroke="#63b8ff" d="M290.36,-39.34C298.15,-37.93 306.38,-36.43 314.31,-34.99"/>
<polygon fill="#63b8ff" stroke="#63b8ff" points="314.92,-38.44 324.13,-33.21 313.67,-31.55 314.92,-38.44"/>
</a>
</g>
</g>
<!-- Node4&#45;&gt;Node3 -->
<g id="edge4_Node000004_Node000003" class="edge">
<title>Node4&#45;&gt;Node3</title>
<g id="a_edge4_Node000004_Node000003"><a xlink:title=" ">
<path fill="none" stroke="#63b8ff" d="M286.84,-15.19C295.64,-16.71 305.2,-18.35 314.35,-19.92"/>
<polygon fill="#63b8ff" stroke="#63b8ff" points="313.69,-23.36 324.14,-21.6 314.87,-16.46 313.69,-23.36"/>
</a>
</g>
</g>
</g>
</svg>
