<?xml version="1.0" encoding="UTF-8" standalone="no"?>
<!DOCTYPE svg PUBLIC "-//W3C//DTD SVG 1.1//EN"
 "http://www.w3.org/Graphics/SVG/1.1/DTD/svg11.dtd">
<!-- Generated by graphviz version 12.1.2 (0)
 -->
<!-- Title: Logger::info Pages: 1 -->
<svg width="522pt" height="300pt"
 viewBox="0.00 0.00 522.00 299.75" xmlns="http://www.w3.org/2000/svg" xmlns:xlink="http://www.w3.org/1999/xlink">
<g id="graph0" class="graph" transform="scale(1 1) rotate(0) translate(4 295.75)">
<title>Logger::info</title>
<!-- Node1 -->
<g id="Node000001" class="node">
<title>Node1</title>
<g id="a_Node000001"><a xlink:title="Logs an informational message.">
<polygon fill="#999999" stroke="#666666" points="514,-148.5 447,-148.5 447,-130 514,-130 514,-148.5"/>
<text text-anchor="middle" x="480.5" y="-135" font-family="Helvetica,sans-Serif" font-size="10.00">Logger::info</text>
</a>
</g>
</g>
<!-- Node2 -->
<g id="Node000002" class="node">
<title>Node2</title>
<g id="a_Node000002"><a xlink:href="classSensorManager.html#a3608ee33385f64e74410127d59c2638e" target="_top" xlink:title="Calibrates the SCD30 sensor using the forced recalibration factor.">
<polygon fill="white" stroke="#666666" points="411,-291.75 284,-291.75 284,-262.75 411,-262.75 411,-291.75"/>
<text text-anchor="start" x="292" y="-278.25" font-family="Helvetica,sans-Serif" font-size="10.00">SensorManager::calibrate</text>
<text text-anchor="middle" x="347.5" y="-267.75" font-family="Helvetica,sans-Serif" font-size="10.00">SCD30</text>
</a>
</g>
</g>
<!-- Node1&#45;&gt;Node2 -->
<g id="edge1_Node000001_Node000002" class="edge">
<title>Node1&#45;&gt;Node2</title>
<g id="a_edge1_Node000001_Node000002"><a xlink:title=" ">
<path fill="none" stroke="#63b8ff" d="M471.19,-159.32C460.4,-183.24 439.54,-223.11 411,-248.25 404.72,-253.78 397.2,-258.46 389.59,-262.33"/>
<polygon fill="#63b8ff" stroke="#63b8ff" points="474.29,-160.95 475.06,-150.38 467.87,-158.17 474.29,-160.95"/>
</a>
</g>
</g>
<!-- Node3 -->
<g id="Node000003" class="node">
<title>Node3</title>
<g id="a_Node000003"><a xlink:href="classSensorManager.html#a9daa366f758f7419ab22fb3c243801fe" target="_top" xlink:title="Checks if the SCD30 sensor needs calibration and performs calibration if necessary.">
<polygon fill="white" stroke="#666666" points="248,-253.75 76,-253.75 76,-224.75 248,-224.75 248,-253.75"/>
<text text-anchor="start" x="84" y="-240.25" font-family="Helvetica,sans-Serif" font-size="10.00">SensorManager::checkAndCalibrate</text>
<text text-anchor="middle" x="162" y="-229.75" font-family="Helvetica,sans-Serif" font-size="10.00">SCD30</text>
</a>
</g>
</g>
<!-- Node1&#45;&gt;Node3 -->
<g id="edge4_Node000001_Node000003" class="edge">
<title>Node1&#45;&gt;Node3</title>
<g id="a_edge4_Node000001_Node000003"><a xlink:title=" ">
<path fill="none" stroke="#63b8ff" d="M467,-158.23C454.85,-174.97 434.77,-198.48 411,-210.25 360.79,-235.12 298.07,-242.27 248.26,-243.25"/>
<polygon fill="#63b8ff" stroke="#63b8ff" points="469.82,-160.3 472.65,-150.09 464.07,-156.31 469.82,-160.3"/>
</a>
</g>
</g>
<!-- Node4 -->
<g id="Node000004" class="node">
<title>Node4</title>
<g id="a_Node000004"><a xlink:href="main_8cpp.html#a4fc01d736fe50cf5b977f755b675f11d" target="_top" xlink:title="Initializes the system, including the display, sensors, and logger.">
<polygon fill="white" stroke="#666666" points="40,-146.5 0,-146.5 0,-128 40,-128 40,-146.5"/>
<text text-anchor="middle" x="20" y="-133" font-family="Helvetica,sans-Serif" font-size="10.00">setup</text>
</a>
</g>
</g>
<!-- Node1&#45;&gt;Node4 -->
<g id="edge14_Node000001_Node000004" class="edge">
<title>Node1&#45;&gt;Node4</title>
<g id="a_edge14_Node000001_Node000004"><a xlink:title=" ">
<path fill="none" stroke="#63b8ff" d="M441.37,-152.47C368.49,-175.64 205.16,-217.39 76,-176.25 57.93,-170.49 40.71,-156.41 30.49,-146.84"/>
<polygon fill="#63b8ff" stroke="#63b8ff" points="442.4,-155.81 450.83,-149.39 440.24,-149.16 442.4,-155.81"/>
</a>
</g>
</g>
<!-- Node5 -->
<g id="Node000005" class="node">
<title>Node5</title>
<g id="a_Node000005"><a xlink:href="classDisplayManager.html#aeb1c8224403ea2595f202e5d93380609" target="_top" xlink:title="Initializes the OLED display.">
<polygon fill="white" stroke="#666666" points="225.5,-167.5 98.5,-167.5 98.5,-149 225.5,-149 225.5,-167.5"/>
<text text-anchor="middle" x="162" y="-154" font-family="Helvetica,sans-Serif" font-size="10.00">DisplayManager::initialize</text>
</a>
</g>
</g>
<!-- Node1&#45;&gt;Node5 -->
<g id="edge5_Node000001_Node000005" class="edge">
<title>Node1&#45;&gt;Node5</title>
<g id="a_edge5_Node000001_Node000005"><a xlink:title=" ">
<path fill="none" stroke="#63b8ff" d="M435.17,-141.91C380.63,-145.19 287.68,-150.77 225.81,-154.48"/>
<polygon fill="#63b8ff" stroke="#63b8ff" points="435.24,-145.41 445.01,-141.32 434.82,-138.43 435.24,-145.41"/>
</a>
</g>
</g>
<!-- Node6 -->
<g id="Node000006" class="node">
<title>Node6</title>
<g id="a_Node000006"><a xlink:href="classSensorManager.html#aded8aff6d741a64d0c34668a0694dd3d" target="_top" xlink:title="Initializes the SCD30 and BMP280 sensors.">
<polygon fill="white" stroke="#666666" points="224.38,-130.75 99.62,-130.75 99.62,-101.75 224.38,-101.75 224.38,-130.75"/>
<text text-anchor="start" x="107.62" y="-117.25" font-family="Helvetica,sans-Serif" font-size="10.00">SensorManager::initialize</text>
<text text-anchor="middle" x="162" y="-106.75" font-family="Helvetica,sans-Serif" font-size="10.00">Sensors</text>
</a>
</g>
</g>
<!-- Node1&#45;&gt;Node6 -->
<g id="edge7_Node000001_Node000006" class="edge">
<title>Node1&#45;&gt;Node6</title>
<g id="a_edge7_Node000001_Node000006"><a xlink:title=" ">
<path fill="none" stroke="#63b8ff" d="M435.09,-136.02C380.19,-132.03 286.44,-125.22 224.6,-120.73"/>
<polygon fill="#63b8ff" stroke="#63b8ff" points="434.79,-139.51 445.02,-136.74 435.3,-132.53 434.79,-139.51"/>
</a>
</g>
</g>
<!-- Node7 -->
<g id="Node000007" class="node">
<title>Node7</title>
<g id="a_Node000007"><a xlink:href="main_8cpp.html#afe461d27b9c48d5921c00d521181f12f" target="_top" xlink:title="Main loop for retrieving sensor data and updating the display.">
<polygon fill="white" stroke="#666666" points="364.5,-92.5 330.5,-92.5 330.5,-74 364.5,-74 364.5,-92.5"/>
<text text-anchor="middle" x="347.5" y="-79" font-family="Helvetica,sans-Serif" font-size="10.00">loop</text>
</a>
</g>
</g>
<!-- Node1&#45;&gt;Node7 -->
<g id="edge9_Node000001_Node000007" class="edge">
<title>Node1&#45;&gt;Node7</title>
<g id="a_edge9_Node000001_Node000007"><a xlink:title=" ">
<path fill="none" stroke="#63b8ff" d="M450.54,-124.54C438.44,-118.59 424.16,-111.83 411,-106.25 395.56,-99.71 377.56,-93.2 364.85,-88.78"/>
<polygon fill="#63b8ff" stroke="#63b8ff" points="448.67,-127.51 459.18,-128.83 451.78,-121.24 448.67,-127.51"/>
</a>
</g>
</g>
<!-- Node8 -->
<g id="Node000008" class="node">
<title>Node8</title>
<g id="a_Node000008"><a xlink:href="classDisplayManager.html#a2d6f5efef5cb7e03c820ab14c4adc217" target="_top" xlink:title="Runs a display check to verify the OLED functionality.">
<polygon fill="white" stroke="#666666" points="231.5,-79.75 92.5,-79.75 92.5,-50.75 231.5,-50.75 231.5,-79.75"/>
<text text-anchor="start" x="100.5" y="-66.25" font-family="Helvetica,sans-Serif" font-size="10.00">DisplayManager::runDisplay</text>
<text text-anchor="middle" x="162" y="-55.75" font-family="Helvetica,sans-Serif" font-size="10.00">Check</text>
</a>
</g>
</g>
<!-- Node1&#45;&gt;Node8 -->
<g id="edge10_Node000001_Node000008" class="edge">
<title>Node1&#45;&gt;Node8</title>
<g id="a_edge10_Node000001_Node000008"><a xlink:title=" ">
<path fill="none" stroke="#63b8ff" d="M468.23,-119.92C456.52,-101.95 436.36,-76.33 411,-65.25 354.39,-40.51 283.32,-43.51 231.79,-50.92"/>
<polygon fill="#63b8ff" stroke="#63b8ff" points="465.24,-121.73 473.47,-128.4 471.19,-118.05 465.24,-121.73"/>
</a>
</g>
</g>
<!-- Node9 -->
<g id="Node000009" class="node">
<title>Node9</title>
<g id="a_Node000009"><a xlink:href="classI2CScanner.html#ad3b7b4bc25e6c1e8b89e702862a56af5" target="_top" xlink:title="Scans the I2C bus for connected devices.">
<polygon fill="white" stroke="#666666" points="394.5,-18.5 300.5,-18.5 300.5,0 394.5,0 394.5,-18.5"/>
<text text-anchor="middle" x="347.5" y="-5" font-family="Helvetica,sans-Serif" font-size="10.00">I2CScanner::scan</text>
</a>
</g>
</g>
<!-- Node1&#45;&gt;Node9 -->
<g id="edge12_Node000001_Node000009" class="edge">
<title>Node1&#45;&gt;Node9</title>
<g id="a_edge12_Node000001_Node000009"><a xlink:title=" ">
<path fill="none" stroke="#63b8ff" d="M471.44,-119.19C460.9,-95.33 440.27,-55.77 411,-32.25 403.97,-26.6 395.42,-22.26 386.93,-18.95"/>
<polygon fill="#63b8ff" stroke="#63b8ff" points="468.21,-120.54 475.32,-128.39 474.66,-117.82 468.21,-120.54"/>
</a>
</g>
</g>
<!-- Node2&#45;&gt;Node3 -->
<g id="edge2_Node000002_Node000003" class="edge">
<title>Node2&#45;&gt;Node3</title>
<g id="a_edge2_Node000002_Node000003"><a xlink:title=" ">
<path fill="none" stroke="#63b8ff" d="M272.49,-261.92C260.22,-259.38 247.51,-256.75 235.28,-254.22"/>
<polygon fill="#63b8ff" stroke="#63b8ff" points="271.62,-265.32 282.12,-263.92 273.04,-258.46 271.62,-265.32"/>
</a>
</g>
</g>
<!-- Node3&#45;&gt;Node4 -->
<g id="edge3_Node000003_Node000004" class="edge">
<title>Node3&#45;&gt;Node4</title>
<g id="a_edge3_Node000003_Node000004"><a xlink:title=" ">
<path fill="none" stroke="#63b8ff" d="M91.82,-219.7C86.25,-216.93 80.89,-213.79 76,-210.25 52.1,-192.93 33.89,-162.24 25.73,-146.76"/>
<polygon fill="#63b8ff" stroke="#63b8ff" points="90.09,-222.76 100.65,-223.68 92.97,-216.38 90.09,-222.76"/>
</a>
</g>
</g>
<!-- Node5&#45;&gt;Node4 -->
<g id="edge6_Node000005_Node000004" class="edge">
<title>Node5&#45;&gt;Node4</title>
<g id="a_edge6_Node000005_Node000004"><a xlink:title=" ">
<path fill="none" stroke="#63b8ff" d="M87.03,-147.15C69.77,-144.56 52.83,-142.02 40.43,-140.16"/>
<polygon fill="#63b8ff" stroke="#63b8ff" points="86.47,-150.61 96.87,-148.63 87.5,-143.69 86.47,-150.61"/>
</a>
</g>
</g>
<!-- Node6&#45;&gt;Node4 -->
<g id="edge8_Node000006_Node000004" class="edge">
<title>Node6&#45;&gt;Node4</title>
<g id="a_edge8_Node000006_Node000004"><a xlink:title=" ">
<path fill="none" stroke="#63b8ff" d="M87.93,-127.21C70.33,-129.85 52.99,-132.45 40.37,-134.34"/>
<polygon fill="#63b8ff" stroke="#63b8ff" points="88.32,-130.69 97.69,-125.75 87.28,-123.77 88.32,-130.69"/>
</a>
</g>
</g>
<!-- Node8&#45;&gt;Node4 -->
<g id="edge11_Node000008_Node000004" class="edge">
<title>Node8&#45;&gt;Node4</title>
<g id="a_edge11_Node000008_Node000004"><a xlink:title=" ">
<path fill="none" stroke="#63b8ff" d="M95.32,-84.24C88.65,-86.95 82.1,-89.95 76,-93.25 58.58,-102.69 41.18,-117.8 30.76,-127.63"/>
<polygon fill="#63b8ff" stroke="#63b8ff" points="96.32,-87.6 104.42,-80.77 93.83,-81.06 96.32,-87.6"/>
</a>
</g>
</g>
<!-- Node9&#45;&gt;Node4 -->
<g id="edge13_Node000009_Node000004" class="edge">
<title>Node9&#45;&gt;Node4</title>
<g id="a_edge13_Node000009_Node000004"><a xlink:title=" ">
<path fill="none" stroke="#63b8ff" d="M288.92,-2.19C230.44,1.96 139.66,-0.21 76,-42.25 44.67,-62.94 28.99,-108.04 23.43,-127.73"/>
<polygon fill="#63b8ff" stroke="#63b8ff" points="288.42,-5.66 298.66,-2.97 288.98,1.32 288.42,-5.66"/>
</a>
</g>
</g>
</g>
</svg>
