<?xml version="1.0" encoding="UTF-8" standalone="no"?>
<!DOCTYPE svg PUBLIC "-//W3C//DTD SVG 1.1//EN"
 "http://www.w3.org/Graphics/SVG/1.1/DTD/svg11.dtd">
<!-- Generated by graphviz version 12.1.2 (0)
 -->
<!-- Title: Logger::warning Pages: 1 -->
<svg width="298pt" height="83pt"
 viewBox="0.00 0.00 298.25 82.50" xmlns="http://www.w3.org/2000/svg" xmlns:xlink="http://www.w3.org/1999/xlink">
<g id="graph0" class="graph" transform="scale(1 1) rotate(0) translate(4 78.5)">
<title>Logger::warning</title>
<!-- Node1 -->
<g id="Node000001" class="node">
<title>Node1</title>
<g id="a_Node000001"><a xlink:title="Logs a warning message.">
<polygon fill="#999999" stroke="#666666" points="290.25,-37.5 206,-37.5 206,-19 290.25,-19 290.25,-37.5"/>
<text text-anchor="middle" x="248.12" y="-24" font-family="Helvetica,sans-Serif" font-size="10.00">Logger::warning</text>
</a>
</g>
</g>
<!-- Node2 -->
<g id="Node000002" class="node">
<title>Node2</title>
<g id="a_Node000002"><a xlink:href="main_8cpp.html#afe461d27b9c48d5921c00d521181f12f" target="_top" xlink:title="Main loop for retrieving sensor data and updating the display.">
<polygon fill="white" stroke="#666666" points="140,-74.5 106,-74.5 106,-56 140,-56 140,-74.5"/>
<text text-anchor="middle" x="123" y="-61" font-family="Helvetica,sans-Serif" font-size="10.00">loop</text>
</a>
</g>
</g>
<!-- Node1&#45;&gt;Node2 -->
<g id="edge1_Node000001_Node000002" class="edge">
<title>Node1&#45;&gt;Node2</title>
<g id="a_edge1_Node000001_Node000002"><a xlink:title=" ">
<path fill="none" stroke="#63b8ff" d="M203.98,-41.22C181.96,-47.83 156.49,-55.49 140.32,-60.35"/>
<polygon fill="#63b8ff" stroke="#63b8ff" points="204.76,-44.64 213.33,-38.41 202.74,-37.93 204.76,-44.64"/>
</a>
</g>
</g>
<!-- Node3 -->
<g id="Node000003" class="node">
<title>Node3</title>
<g id="a_Node000003"><a xlink:href="classI2CScanner.html#ad3b7b4bc25e6c1e8b89e702862a56af5" target="_top" xlink:title="Scans the I2C bus for connected devices.">
<polygon fill="white" stroke="#666666" points="170,-37.5 76,-37.5 76,-19 170,-19 170,-37.5"/>
<text text-anchor="middle" x="123" y="-24" font-family="Helvetica,sans-Serif" font-size="10.00">I2CScanner::scan</text>
</a>
</g>
</g>
<!-- Node1&#45;&gt;Node3 -->
<g id="edge2_Node000001_Node000003" class="edge">
<title>Node1&#45;&gt;Node3</title>
<g id="a_edge2_Node000001_Node000003"><a xlink:title=" ">
<path fill="none" stroke="#63b8ff" d="M194.51,-28.25C186.39,-28.25 178.07,-28.25 170.11,-28.25"/>
<polygon fill="#63b8ff" stroke="#63b8ff" points="194.27,-31.75 204.27,-28.25 194.27,-24.75 194.27,-31.75"/>
</a>
</g>
</g>
<!-- Node4 -->
<g id="Node000004" class="node">
<title>Node4</title>
<g id="a_Node000004"><a xlink:href="main_8cpp.html#a4fc01d736fe50cf5b977f755b675f11d" target="_top" xlink:title="Initializes the system, including the display, sensors, and logger.">
<polygon fill="white" stroke="#666666" points="40,-18.5 0,-18.5 0,0 40,0 40,-18.5"/>
<text text-anchor="middle" x="20" y="-5" font-family="Helvetica,sans-Serif" font-size="10.00">setup</text>
</a>
</g>
</g>
<!-- Node1&#45;&gt;Node4 -->
<g id="edge4_Node000001_Node000004" class="edge">
<title>Node1&#45;&gt;Node4</title>
<g id="a_edge4_Node000001_Node000004"><a xlink:title=" ">
<path fill="none" stroke="#63b8ff" d="M201.9,-15.93C191.5,-13.59 180.43,-11.49 170,-10.25 123.76,-4.77 68.88,-6.5 40.37,-8.01"/>
<polygon fill="#63b8ff" stroke="#63b8ff" points="200.85,-19.27 211.39,-18.18 202.47,-12.46 200.85,-19.27"/>
</a>
</g>
</g>
<!-- Node3&#45;&gt;Node4 -->
<g id="edge3_Node000003_Node000004" class="edge">
<title>Node3&#45;&gt;Node4</title>
<g id="a_edge3_Node000003_Node000004"><a xlink:title=" ">
<path fill="none" stroke="#63b8ff" d="M64.54,-17.44C55.84,-15.8 47.42,-14.22 40.34,-12.89"/>
<polygon fill="#63b8ff" stroke="#63b8ff" points="63.68,-20.84 74.15,-19.25 64.97,-13.96 63.68,-20.84"/>
</a>
</g>
</g>
</g>
</svg>
