<?xml version="1.0" encoding="UTF-8" standalone="no"?>
<!DOCTYPE svg PUBLIC "-//W3C//DTD SVG 1.1//EN"
 "http://www.w3.org/Graphics/SVG/1.1/DTD/svg11.dtd">
<!-- Generated by graphviz version 12.1.2 (0)
 -->
<!-- Title: Logger::error Pages: 1 -->
<svg width="575pt" height="188pt"
 viewBox="0.00 0.00 575.25 187.75" xmlns="http://www.w3.org/2000/svg" xmlns:xlink="http://www.w3.org/1999/xlink">
<g id="graph0" class="graph" transform="scale(1 1) rotate(0) translate(4 183.75)">
<title>Logger::error</title>
<!-- Node1 -->
<g id="Node000001" class="node">
<title>Node1</title>
<g id="a_Node000001"><a xlink:title="Logs an error message.">
<polygon fill="#999999" stroke="#666666" points="567.25,-93.5 496.5,-93.5 496.5,-75 567.25,-75 567.25,-93.5"/>
<text text-anchor="middle" x="531.88" y="-80" font-family="Helvetica,sans-Serif" font-size="10.00">Logger::error</text>
</a>
</g>
</g>
<!-- Node2 -->
<g id="Node000002" class="node">
<title>Node2</title>
<g id="a_Node000002"><a xlink:href="classSensorManager.html#a3608ee33385f64e74410127d59c2638e" target="_top" xlink:title="Calibrates the SCD30 sensor using the forced recalibration factor.">
<polygon fill="white" stroke="#666666" points="435.75,-179.75 308.75,-179.75 308.75,-150.75 435.75,-150.75 435.75,-179.75"/>
<text text-anchor="start" x="316.75" y="-166.25" font-family="Helvetica,sans-Serif" font-size="10.00">SensorManager::calibrate</text>
<text text-anchor="middle" x="372.25" y="-155.75" font-family="Helvetica,sans-Serif" font-size="10.00">SCD30</text>
</a>
</g>
</g>
<!-- Node1&#45;&gt;Node2 -->
<g id="edge1_Node000001_Node000002" class="edge">
<title>Node1&#45;&gt;Node2</title>
<g id="a_edge1_Node000001_Node000002"><a xlink:title=" ">
<path fill="none" stroke="#63b8ff" d="M511.7,-101.02C498.14,-112.21 479.13,-126.59 460.5,-136.25 450.02,-141.69 438.3,-146.41 426.95,-150.37"/>
<polygon fill="#63b8ff" stroke="#63b8ff" points="513.61,-103.99 518.99,-94.86 509.09,-98.65 513.61,-103.99"/>
</a>
</g>
</g>
<!-- Node4 -->
<g id="Node000004" class="node">
<title>Node4</title>
<g id="a_Node000004"><a xlink:href="main_8cpp.html#a4fc01d736fe50cf5b977f755b675f11d" target="_top" xlink:title="Initializes the system, including the display, sensors, and logger.">
<polygon fill="white" stroke="#666666" points="40,-112.5 0,-112.5 0,-94 40,-94 40,-112.5"/>
<text text-anchor="middle" x="20" y="-99" font-family="Helvetica,sans-Serif" font-size="10.00">setup</text>
</a>
</g>
</g>
<!-- Node1&#45;&gt;Node4 -->
<g id="edge9_Node000001_Node000004" class="edge">
<title>Node1&#45;&gt;Node4</title>
<g id="a_edge9_Node000001_Node000004"><a xlink:title=" ">
<path fill="none" stroke="#63b8ff" d="M485.08,-94.55C476.93,-96.04 468.5,-97.37 460.5,-98.25 298.95,-116.08 101.97,-107.7 40.36,-104.38"/>
<polygon fill="#63b8ff" stroke="#63b8ff" points="485.71,-97.99 494.85,-92.65 484.37,-91.12 485.71,-97.99"/>
</a>
</g>
</g>
<!-- Node5 -->
<g id="Node000005" class="node">
<title>Node5</title>
<g id="a_Node000005"><a xlink:href="classDisplayManager.html#aeb1c8224403ea2595f202e5d93380609" target="_top" xlink:title="Initializes the OLED display.">
<polygon fill="white" stroke="#666666" points="225.5,-94.5 98.5,-94.5 98.5,-76 225.5,-76 225.5,-94.5"/>
<text text-anchor="middle" x="162" y="-81" font-family="Helvetica,sans-Serif" font-size="10.00">DisplayManager::initialize</text>
</a>
</g>
</g>
<!-- Node1&#45;&gt;Node5 -->
<g id="edge4_Node000001_Node000005" class="edge">
<title>Node1&#45;&gt;Node5</title>
<g id="a_edge4_Node000001_Node000005"><a xlink:title=" ">
<path fill="none" stroke="#63b8ff" d="M485.11,-84.37C419.77,-84.55 299.52,-84.88 225.86,-85.08"/>
<polygon fill="#63b8ff" stroke="#63b8ff" points="484.76,-87.88 494.75,-84.35 484.74,-80.88 484.76,-87.88"/>
</a>
</g>
</g>
<!-- Node6 -->
<g id="Node000006" class="node">
<title>Node6</title>
<g id="a_Node000006"><a xlink:href="classSensorManager.html#aded8aff6d741a64d0c34668a0694dd3d" target="_top" xlink:title="Initializes the SCD30 and BMP280 sensors.">
<polygon fill="white" stroke="#666666" points="224.38,-57.75 99.62,-57.75 99.62,-28.75 224.38,-28.75 224.38,-57.75"/>
<text text-anchor="start" x="107.62" y="-44.25" font-family="Helvetica,sans-Serif" font-size="10.00">SensorManager::initialize</text>
<text text-anchor="middle" x="162" y="-33.75" font-family="Helvetica,sans-Serif" font-size="10.00">Sensors</text>
</a>
</g>
</g>
<!-- Node1&#45;&gt;Node6 -->
<g id="edge6_Node000001_Node000006" class="edge">
<title>Node1&#45;&gt;Node6</title>
<g id="a_edge6_Node000001_Node000006"><a xlink:title=" ">
<path fill="none" stroke="#63b8ff" d="M485.06,-79.14C419.41,-71.83 298.39,-58.34 224.85,-50.14"/>
<polygon fill="#63b8ff" stroke="#63b8ff" points="484.44,-82.6 494.76,-80.23 485.21,-75.64 484.44,-82.6"/>
</a>
</g>
</g>
<!-- Node7 -->
<g id="Node000007" class="node">
<title>Node7</title>
<g id="a_Node000007"><a xlink:href="classSensorManager.html#ad6448faa4a1a1e9647682ee4a7005d80" target="_top" xlink:title="Resets the calibration flag stored in EEPROM.">
<polygon fill="white" stroke="#666666" points="460.5,-18.5 284,-18.5 284,0 460.5,0 460.5,-18.5"/>
<text text-anchor="middle" x="372.25" y="-5" font-family="Helvetica,sans-Serif" font-size="10.00">SensorManager::resetCalibrationFlag</text>
</a>
</g>
</g>
<!-- Node1&#45;&gt;Node7 -->
<g id="edge8_Node000001_Node000007" class="edge">
<title>Node1&#45;&gt;Node7</title>
<g id="a_edge8_Node000001_Node000007"><a xlink:title=" ">
<path fill="none" stroke="#63b8ff" d="M512.36,-67.5C498.86,-56.08 479.64,-41.43 460.5,-32.25 448.92,-26.7 435.8,-22.34 423.33,-18.99"/>
<polygon fill="#63b8ff" stroke="#63b8ff" points="509.74,-69.86 519.58,-73.78 514.34,-64.58 509.74,-69.86"/>
</a>
</g>
</g>
<!-- Node3 -->
<g id="Node000003" class="node">
<title>Node3</title>
<g id="a_Node000003"><a xlink:href="classSensorManager.html#a9daa366f758f7419ab22fb3c243801fe" target="_top" xlink:title="Checks if the SCD30 sensor needs calibration and performs calibration if necessary.">
<polygon fill="white" stroke="#666666" points="248,-179.75 76,-179.75 76,-150.75 248,-150.75 248,-179.75"/>
<text text-anchor="start" x="84" y="-166.25" font-family="Helvetica,sans-Serif" font-size="10.00">SensorManager::checkAndCalibrate</text>
<text text-anchor="middle" x="162" y="-155.75" font-family="Helvetica,sans-Serif" font-size="10.00">SCD30</text>
</a>
</g>
</g>
<!-- Node2&#45;&gt;Node3 -->
<g id="edge2_Node000002_Node000003" class="edge">
<title>Node2&#45;&gt;Node3</title>
<g id="a_edge2_Node000002_Node000003"><a xlink:title=" ">
<path fill="none" stroke="#63b8ff" d="M297.17,-165.25C281.36,-165.25 264.53,-165.25 248.34,-165.25"/>
<polygon fill="#63b8ff" stroke="#63b8ff" points="296.97,-168.75 306.97,-165.25 296.97,-161.75 296.97,-168.75"/>
</a>
</g>
</g>
<!-- Node3&#45;&gt;Node4 -->
<g id="edge3_Node000003_Node000004" class="edge">
<title>Node3&#45;&gt;Node4</title>
<g id="a_edge3_Node000003_Node000004"><a xlink:title=" ">
<path fill="none" stroke="#63b8ff" d="M100.72,-146.46C92.3,-143.33 83.86,-139.9 76,-136.25 61.46,-129.5 45.87,-119.9 35.02,-112.8"/>
<polygon fill="#63b8ff" stroke="#63b8ff" points="99.29,-149.67 109.89,-149.76 101.66,-143.08 99.29,-149.67"/>
</a>
</g>
</g>
<!-- Node5&#45;&gt;Node4 -->
<g id="edge5_Node000005_Node000004" class="edge">
<title>Node5&#45;&gt;Node4</title>
<g id="a_edge5_Node000005_Node000004"><a xlink:title=" ">
<path fill="none" stroke="#63b8ff" d="M87.03,-94.76C69.77,-96.98 52.83,-99.16 40.43,-100.75"/>
<polygon fill="#63b8ff" stroke="#63b8ff" points="87.4,-98.24 96.87,-93.5 86.5,-91.3 87.4,-98.24"/>
</a>
</g>
</g>
<!-- Node6&#45;&gt;Node4 -->
<g id="edge7_Node000006_Node000004" class="edge">
<title>Node6&#45;&gt;Node4</title>
<g id="a_edge7_Node000006_Node000004"><a xlink:title=" ">
<path fill="none" stroke="#63b8ff" d="M88.56,-62.05C84.26,-63.68 80.04,-65.41 76,-67.25 60.21,-74.44 43.78,-85.78 33.04,-93.81"/>
<polygon fill="#63b8ff" stroke="#63b8ff" points="89.68,-65.37 97.95,-58.74 87.35,-58.77 89.68,-65.37"/>
</a>
</g>
</g>
</g>
</svg>
