<?xml version="1.0" encoding="UTF-8" standalone="no"?>
<!DOCTYPE svg PUBLIC "-//W3C//DTD SVG 1.1//EN"
 "http://www.w3.org/Graphics/SVG/1.1/DTD/svg11.dtd">
<!-- Generated by graphviz version 12.1.2 (0)
 -->
<!-- Title: SensorManager::calibrateSCD30 Pages: 1 -->
<svg width="419pt" height="37pt"
 viewBox="0.00 0.00 419.00 37.00" xmlns="http://www.w3.org/2000/svg" xmlns:xlink="http://www.w3.org/1999/xlink">
<g id="graph0" class="graph" transform="scale(1 1) rotate(0) translate(4 33)">
<title>SensorManager::calibrateSCD30</title>
<!-- Node1 -->
<g id="Node000001" class="node">
<title>Node1</title>
<g id="a_Node000001"><a xlink:title="Calibrates the SCD30 sensor using the forced recalibration factor.">
<polygon fill="#999999" stroke="#666666" points="411,-29 284,-29 284,0 411,0 411,-29"/>
<text text-anchor="start" x="292" y="-15.5" font-family="Helvetica,sans-Serif" font-size="10.00">SensorManager::calibrate</text>
<text text-anchor="middle" x="347.5" y="-5" font-family="Helvetica,sans-Serif" font-size="10.00">SCD30</text>
</a>
</g>
</g>
<!-- Node2 -->
<g id="Node000002" class="node">
<title>Node2</title>
<g id="a_Node000002"><a xlink:href="classSensorManager.html#a9daa366f758f7419ab22fb3c243801fe" target="_top" xlink:title="Checks if the SCD30 sensor needs calibration and performs calibration if necessary.">
<polygon fill="white" stroke="#666666" points="248,-29 76,-29 76,0 248,0 248,-29"/>
<text text-anchor="start" x="84" y="-15.5" font-family="Helvetica,sans-Serif" font-size="10.00">SensorManager::checkAndCalibrate</text>
<text text-anchor="middle" x="162" y="-5" font-family="Helvetica,sans-Serif" font-size="10.00">SCD30</text>
</a>
</g>
</g>
<!-- Node1&#45;&gt;Node2 -->
<g id="edge1_Node000001_Node000002" class="edge">
<title>Node1&#45;&gt;Node2</title>
<g id="a_edge1_Node000001_Node000002"><a xlink:title=" ">
<path fill="none" stroke="#63b8ff" d="M272.19,-14.5C264.29,-14.5 256.2,-14.5 248.19,-14.5"/>
<polygon fill="#63b8ff" stroke="#63b8ff" points="272.09,-18 282.09,-14.5 272.09,-11 272.09,-18"/>
</a>
</g>
</g>
<!-- Node3 -->
<g id="Node000003" class="node">
<title>Node3</title>
<g id="a_Node000003"><a xlink:href="main_8cpp.html#a4fc01d736fe50cf5b977f755b675f11d" target="_top" xlink:title="Initializes the system, including the display, sensors, and logger.">
<polygon fill="white" stroke="#666666" points="40,-23.75 0,-23.75 0,-5.25 40,-5.25 40,-23.75"/>
<text text-anchor="middle" x="20" y="-10.25" font-family="Helvetica,sans-Serif" font-size="10.00">setup</text>
</a>
</g>
</g>
<!-- Node2&#45;&gt;Node3 -->
<g id="edge2_Node000002_Node000003" class="edge">
<title>Node2&#45;&gt;Node3</title>
<g id="a_edge2_Node000002_Node000003"><a xlink:title=" ">
<path fill="none" stroke="#63b8ff" d="M64.12,-14.5C55.35,-14.5 47.25,-14.5 40.49,-14.5"/>
<polygon fill="#63b8ff" stroke="#63b8ff" points="64.02,-18 74.01,-14.5 64.01,-11 64.02,-18"/>
</a>
</g>
</g>
</g>
</svg>
