<?xml version="1.0" encoding="UTF-8" standalone="no"?>
<!DOCTYPE svg PUBLIC "-//W3C//DTD SVG 1.1//EN"
 "http://www.w3.org/Graphics/SVG/1.1/DTD/svg11.dtd">
<!-- Generated by graphviz version 12.1.2 (0)
 -->
<!-- Title: DisplayManager::showNormalScreen Pages: 1 -->
<svg width="412pt" height="58pt"
 viewBox="0.00 0.00 411.50 58.00" xmlns="http://www.w3.org/2000/svg" xmlns:xlink="http://www.w3.org/1999/xlink">
<g id="graph0" class="graph" transform="scale(1 1) rotate(0) translate(4 54)">
<title>DisplayManager::showNormalScreen</title>
<!-- Node1 -->
<g id="Node000001" class="node">
<title>Node1</title>
<g id="a_Node000001"><a xlink:title="Displays the normal screen with sensor readings.">
<polygon fill="#999999" stroke="#666666" points="403.5,-50 256.25,-50 256.25,-21 403.5,-21 403.5,-50"/>
<text text-anchor="start" x="264.25" y="-36.5" font-family="Helvetica,sans-Serif" font-size="10.00">DisplayManager::showNormal</text>
<text text-anchor="middle" x="329.88" y="-26" font-family="Helvetica,sans-Serif" font-size="10.00">Screen</text>
</a>
</g>
</g>
<!-- Node2 -->
<g id="Node000002" class="node">
<title>Node2</title>
<g id="a_Node000002"><a xlink:href="main_8cpp.html#afe461d27b9c48d5921c00d521181f12f" target="_top" xlink:title="Main loop for retrieving sensor data and updating the display.">
<polygon fill="white" stroke="#666666" points="34,-44.75 0,-44.75 0,-26.25 34,-26.25 34,-44.75"/>
<text text-anchor="middle" x="17" y="-31.25" font-family="Helvetica,sans-Serif" font-size="10.00">loop</text>
</a>
</g>
</g>
<!-- Node1&#45;&gt;Node2 -->
<g id="edge1_Node000001_Node000002" class="edge">
<title>Node1&#45;&gt;Node2</title>
<g id="a_edge1_Node000001_Node000002"><a xlink:title=" ">
<path fill="none" stroke="#63b8ff" d="M244.56,-38.2C193.94,-39.39 128.27,-40.18 70,-38.5 58.07,-38.16 44.62,-37.37 34.38,-36.69"/>
<polygon fill="#63b8ff" stroke="#63b8ff" points="244.35,-41.7 254.26,-37.96 244.18,-34.71 244.35,-41.7"/>
</a>
</g>
</g>
<!-- Node3 -->
<g id="Node000003" class="node">
<title>Node3</title>
<g id="a_Node000003"><a xlink:href="classDisplayManager.html#af8a5a8ee843f0ccc7bf50dc94ff2d529" target="_top" xlink:title="Displays a blinking warning message on the screen.">
<polygon fill="white" stroke="#666666" points="220.25,-29 70,-29 70,0 220.25,0 220.25,-29"/>
<text text-anchor="start" x="78" y="-15.5" font-family="Helvetica,sans-Serif" font-size="10.00">DisplayManager::showBlinking</text>
<text text-anchor="middle" x="145.12" y="-5" font-family="Helvetica,sans-Serif" font-size="10.00">Warning</text>
</a>
</g>
</g>
<!-- Node1&#45;&gt;Node3 -->
<g id="edge2_Node000001_Node000003" class="edge">
<title>Node1&#45;&gt;Node3</title>
<g id="a_edge2_Node000001_Node000003"><a xlink:title=" ">
<path fill="none" stroke="#63b8ff" d="M244.58,-25.81C236.55,-24.89 228.45,-23.96 220.52,-23.05"/>
<polygon fill="#63b8ff" stroke="#63b8ff" points="244.02,-29.27 254.36,-26.94 244.82,-22.32 244.02,-29.27"/>
</a>
</g>
</g>
<!-- Node3&#45;&gt;Node2 -->
<g id="edge3_Node000003_Node000002" class="edge">
<title>Node3&#45;&gt;Node2</title>
<g id="a_edge3_Node000003_Node000002"><a xlink:title=" ">
<path fill="none" stroke="#63b8ff" d="M58.43,-28.77C49.45,-30.26 41.18,-31.64 34.49,-32.75"/>
<polygon fill="#63b8ff" stroke="#63b8ff" points="58.88,-32.24 68.17,-27.15 57.73,-25.34 58.88,-32.24"/>
</a>
</g>
</g>
</g>
</svg>
