<?xml version="1.0" encoding="UTF-8" standalone="no"?>
<!DOCTYPE svg PUBLIC "-//W3C//DTD SVG 1.1//EN"
 "http://www.w3.org/Graphics/SVG/1.1/DTD/svg11.dtd">
<!-- Generated by graphviz version 12.1.2 (0)
 -->
<!-- Title: I2CScanner::scan Pages: 1 -->
<svg width="322pt" height="64pt"
 viewBox="0.00 0.00 322.25 63.50" xmlns="http://www.w3.org/2000/svg" xmlns:xlink="http://www.w3.org/1999/xlink">
<g id="graph0" class="graph" transform="scale(1 1) rotate(0) translate(4 59.5)">
<title>I2CScanner::scan</title>
<!-- Node1 -->
<g id="Node000001" class="node">
<title>Node1</title>
<g id="a_Node000001"><a xlink:title="Scans the I2C bus for connected devices.">
<polygon fill="#999999" stroke="#666666" points="94,-36.5 0,-36.5 0,-18 94,-18 94,-36.5"/>
<text text-anchor="middle" x="47" y="-23" font-family="Helvetica,sans-Serif" font-size="10.00">I2CScanner::scan</text>
</a>
</g>
</g>
<!-- Node2 -->
<g id="Node000002" class="node">
<title>Node2</title>
<g id="a_Node000002"><a xlink:href="classLogger.html#a0c5851d03ba2e560bfd57aeb713267b3" target="_top" xlink:title="Logs an informational message.">
<polygon fill="white" stroke="#666666" points="205.62,-55.5 138.62,-55.5 138.62,-37 205.62,-37 205.62,-55.5"/>
<text text-anchor="middle" x="172.12" y="-42" font-family="Helvetica,sans-Serif" font-size="10.00">Logger::info</text>
</a>
</g>
</g>
<!-- Node1&#45;&gt;Node2 -->
<g id="edge1_Node000001_Node000002" class="edge">
<title>Node1&#45;&gt;Node2</title>
<g id="a_edge1_Node000001_Node000002"><a xlink:title=" ">
<path fill="none" stroke="#63b8ff" d="M94.2,-34.38C105.02,-36.05 116.52,-37.82 127.24,-39.48"/>
<polygon fill="#63b8ff" stroke="#63b8ff" points="126.59,-42.92 137,-40.98 127.65,-36 126.59,-42.92"/>
</a>
</g>
</g>
<!-- Node4 -->
<g id="Node000004" class="node">
<title>Node4</title>
<g id="a_Node000004"><a xlink:href="classLogger.html#a4d229b17ee039e273686455c74382ec6" target="_top" xlink:title="Logs a warning message.">
<polygon fill="white" stroke="#666666" points="214.25,-18.5 130,-18.5 130,0 214.25,0 214.25,-18.5"/>
<text text-anchor="middle" x="172.12" y="-5" font-family="Helvetica,sans-Serif" font-size="10.00">Logger::warning</text>
</a>
</g>
</g>
<!-- Node1&#45;&gt;Node4 -->
<g id="edge3_Node000001_Node000004" class="edge">
<title>Node1&#45;&gt;Node4</title>
<g id="a_edge3_Node000001_Node000004"><a xlink:title=" ">
<path fill="none" stroke="#63b8ff" d="M94.2,-20.5C102.08,-19.34 110.33,-18.14 118.37,-16.96"/>
<polygon fill="#63b8ff" stroke="#63b8ff" points="118.65,-20.46 128.04,-15.55 117.64,-13.53 118.65,-20.46"/>
</a>
</g>
</g>
<!-- Node3 -->
<g id="Node000003" class="node">
<title>Node3</title>
<g id="a_Node000003"><a xlink:href="classLogger.html#af0dc4ff68b6d37026b9f6c7a51da6aaa" target="_top" xlink:title="Logs a message if it meets the current log level.">
<polygon fill="white" stroke="#666666" points="314.25,-36.5 250.25,-36.5 250.25,-18 314.25,-18 314.25,-36.5"/>
<text text-anchor="middle" x="282.25" y="-23" font-family="Helvetica,sans-Serif" font-size="10.00">Logger::log</text>
</a>
</g>
</g>
<!-- Node2&#45;&gt;Node3 -->
<g id="edge2_Node000002_Node000003" class="edge">
<title>Node2&#45;&gt;Node3</title>
<g id="a_edge2_Node000002_Node000003"><a xlink:title=" ">
<path fill="none" stroke="#63b8ff" d="M205.86,-40.5C216.29,-38.67 227.97,-36.61 238.97,-34.68"/>
<polygon fill="#63b8ff" stroke="#63b8ff" points="239.37,-38.16 248.62,-32.98 238.16,-31.27 239.37,-38.16"/>
</a>
</g>
</g>
<!-- Node4&#45;&gt;Node3 -->
<g id="edge4_Node000004_Node000003" class="edge">
<title>Node4&#45;&gt;Node3</title>
<g id="a_edge4_Node000004_Node000003"><a xlink:title=" ">
<path fill="none" stroke="#63b8ff" d="M214.62,-16.16C222.46,-17.46 230.68,-18.83 238.56,-20.14"/>
<polygon fill="#63b8ff" stroke="#63b8ff" points="237.84,-23.57 248.28,-21.76 238.99,-16.67 237.84,-23.57"/>
</a>
</g>
</g>
</g>
</svg>
