<?xml version="1.0" encoding="UTF-8" standalone="no"?>
<!DOCTYPE svg PUBLIC "-//W3C//DTD SVG 1.1//EN"
 "http://www.w3.org/Graphics/SVG/1.1/DTD/svg11.dtd">
<!-- Generated by graphviz version 12.1.2 (0)
 -->
<!-- Title: SensorManager::getPressure Pages: 1 -->
<svg width="364pt" height="27pt"
 viewBox="0.00 0.00 364.25 26.50" xmlns="http://www.w3.org/2000/svg" xmlns:xlink="http://www.w3.org/1999/xlink">
<g id="graph0" class="graph" transform="scale(1 1) rotate(0) translate(4 22.5)">
<title>SensorManager::getPressure</title>
<!-- Node1 -->
<g id="Node000001" class="node">
<title>Node1</title>
<g id="a_Node000001"><a xlink:title="Retrieves the current pressure reading from the BMP280 sensor.">
<polygon fill="#999999" stroke="#666666" points="142.75,-18.5 0,-18.5 0,0 142.75,0 142.75,-18.5"/>
<text text-anchor="middle" x="71.38" y="-5" font-family="Helvetica,sans-Serif" font-size="10.00">SensorManager::getPressure</text>
</a>
</g>
</g>
<!-- Node2 -->
<g id="Node000002" class="node">
<title>Node2</title>
<g id="a_Node000002"><a xlink:href="classLogger.html#abeffd58a6beace1b1c01a5324227fd83" target="_top" xlink:title="Logs a debug message.">
<polygon fill="white" stroke="#666666" points="256.25,-18.5 178.75,-18.5 178.75,0 256.25,0 256.25,-18.5"/>
<text text-anchor="middle" x="217.5" y="-5" font-family="Helvetica,sans-Serif" font-size="10.00">Logger::debug</text>
</a>
</g>
</g>
<!-- Node1&#45;&gt;Node2 -->
<g id="edge1_Node000001_Node000002" class="edge">
<title>Node1&#45;&gt;Node2</title>
<g id="a_edge1_Node000001_Node000002"><a xlink:title=" ">
<path fill="none" stroke="#63b8ff" d="M143.17,-9.25C151.21,-9.25 159.26,-9.25 166.94,-9.25"/>
<polygon fill="#63b8ff" stroke="#63b8ff" points="166.74,-12.75 176.74,-9.25 166.74,-5.75 166.74,-12.75"/>
</a>
</g>
</g>
<!-- Node3 -->
<g id="Node000003" class="node">
<title>Node3</title>
<g id="a_Node000003"><a xlink:href="classLogger.html#af0dc4ff68b6d37026b9f6c7a51da6aaa" target="_top" xlink:title="Logs a message if it meets the current log level.">
<polygon fill="white" stroke="#666666" points="356.25,-18.5 292.25,-18.5 292.25,0 356.25,0 356.25,-18.5"/>
<text text-anchor="middle" x="324.25" y="-5" font-family="Helvetica,sans-Serif" font-size="10.00">Logger::log</text>
</a>
</g>
</g>
<!-- Node2&#45;&gt;Node3 -->
<g id="edge2_Node000002_Node000003" class="edge">
<title>Node2&#45;&gt;Node3</title>
<g id="a_edge2_Node000002_Node000003"><a xlink:title=" ">
<path fill="none" stroke="#63b8ff" d="M256.61,-9.25C264.4,-9.25 272.63,-9.25 280.56,-9.25"/>
<polygon fill="#63b8ff" stroke="#63b8ff" points="280.36,-12.75 290.36,-9.25 280.36,-5.75 280.36,-12.75"/>
</a>
</g>
</g>
</g>
</svg>
