<?xml version="1.0" encoding="UTF-8" standalone="no"?>
<!DOCTYPE svg PUBLIC "-//W3C//DTD SVG 1.1//EN"
 "http://www.w3.org/Graphics/SVG/1.1/DTD/svg11.dtd">
<!-- Generated by graphviz version 12.1.2 (0)
 -->
<!-- Title: Logger::debug Pages: 1 -->
<svg width="371pt" height="212pt"
 viewBox="0.00 0.00 371.00 211.50" xmlns="http://www.w3.org/2000/svg" xmlns:xlink="http://www.w3.org/1999/xlink">
<g id="graph0" class="graph" transform="scale(1 1) rotate(0) translate(4 207.5)">
<title>Logger::debug</title>
<!-- Node1 -->
<g id="Node000001" class="node">
<title>Node1</title>
<g id="a_Node000001"><a xlink:title="Logs a debug message.">
<polygon fill="#999999" stroke="#666666" points="363,-110.5 285.5,-110.5 285.5,-92 363,-92 363,-110.5"/>
<text text-anchor="middle" x="324.25" y="-97" font-family="Helvetica,sans-Serif" font-size="10.00">Logger::debug</text>
</a>
</g>
</g>
<!-- Node2 -->
<g id="Node000002" class="node">
<title>Node2</title>
<g id="a_Node000002"><a xlink:href="classSensorManager.html#ab621f498c240f93c0d9a7e47cbb669c6" target="_top" xlink:title="Retrieves the current pressure reading from the BMP280 sensor.">
<polygon fill="white" stroke="#666666" points="231.12,-203.5 88.38,-203.5 88.38,-185 231.12,-185 231.12,-203.5"/>
<text text-anchor="middle" x="159.75" y="-190" font-family="Helvetica,sans-Serif" font-size="10.00">SensorManager::getPressure</text>
</a>
</g>
</g>
<!-- Node1&#45;&gt;Node2 -->
<g id="edge1_Node000001_Node000002" class="edge">
<title>Node1&#45;&gt;Node2</title>
<g id="a_edge1_Node000001_Node000002"><a xlink:title=" ">
<path fill="none" stroke="#63b8ff" d="M309.17,-118.99C295.55,-134.97 273.5,-157.94 249.5,-171.25 239.2,-176.96 227.44,-181.3 215.92,-184.57"/>
<polygon fill="#63b8ff" stroke="#63b8ff" points="311.54,-121.62 315.2,-111.68 306.14,-117.17 311.54,-121.62"/>
</a>
</g>
</g>
<!-- Node3 -->
<g id="Node000003" class="node">
<title>Node3</title>
<g id="a_Node000003"><a xlink:href="main_8cpp.html#afe461d27b9c48d5921c00d521181f12f" target="_top" xlink:title="Main loop for retrieving sensor data and updating the display.">
<polygon fill="white" stroke="#666666" points="34,-147.5 0,-147.5 0,-129 34,-129 34,-147.5"/>
<text text-anchor="middle" x="17" y="-134" font-family="Helvetica,sans-Serif" font-size="10.00">loop</text>
</a>
</g>
</g>
<!-- Node1&#45;&gt;Node3 -->
<g id="edge7_Node000001_Node000003" class="edge">
<title>Node1&#45;&gt;Node3</title>
<g id="a_edge7_Node000001_Node000003"><a xlink:title=" ">
<path fill="none" stroke="#63b8ff" d="M299.33,-116.83C285.41,-124.96 267.16,-134.07 249.5,-138.25 170.69,-156.91 72.52,-146.2 34.29,-140.79"/>
<polygon fill="#63b8ff" stroke="#63b8ff" points="301.05,-119.88 307.76,-111.69 297.4,-113.91 301.05,-119.88"/>
</a>
</g>
</g>
<!-- Node4 -->
<g id="Node000004" class="node">
<title>Node4</title>
<g id="a_Node000004"><a xlink:href="classSensorManager.html#aa4207d6b919d2deac9d8b95c6a36f8b9" target="_top" xlink:title="Retrieves the current temperature reading from the BMP280 sensor.">
<polygon fill="white" stroke="#666666" points="249.5,-129.5 70,-129.5 70,-111 249.5,-111 249.5,-129.5"/>
<text text-anchor="middle" x="159.75" y="-116" font-family="Helvetica,sans-Serif" font-size="10.00">SensorManager::getTemperatureBMP</text>
</a>
</g>
</g>
<!-- Node1&#45;&gt;Node4 -->
<g id="edge3_Node000001_Node000004" class="edge">
<title>Node1&#45;&gt;Node4</title>
<g id="a_edge3_Node000001_Node000004"><a xlink:title=" ">
<path fill="none" stroke="#63b8ff" d="M273.9,-107.02C264.35,-108.14 254.1,-109.33 243.82,-110.54"/>
<polygon fill="#63b8ff" stroke="#63b8ff" points="274.12,-110.52 283.65,-105.88 273.31,-103.57 274.12,-110.52"/>
</a>
</g>
</g>
<!-- Node5 -->
<g id="Node000005" class="node">
<title>Node5</title>
<g id="a_Node000005"><a xlink:href="classSensorManager.html#a4fa7cbb9b36b933c0ca03553ba4db966" target="_top" xlink:title="Checks if new data is available from the sensors.">
<polygon fill="white" stroke="#666666" points="237.88,-92.5 81.62,-92.5 81.62,-74 237.88,-74 237.88,-92.5"/>
<text text-anchor="middle" x="159.75" y="-79" font-family="Helvetica,sans-Serif" font-size="10.00">SensorManager::isDataAvailable</text>
</a>
</g>
</g>
<!-- Node1&#45;&gt;Node5 -->
<g id="edge5_Node000001_Node000005" class="edge">
<title>Node1&#45;&gt;Node5</title>
<g id="a_edge5_Node000001_Node000005"><a xlink:title=" ">
<path fill="none" stroke="#63b8ff" d="M273.83,-95.78C262.58,-94.53 250.37,-93.18 238.27,-91.84"/>
<polygon fill="#63b8ff" stroke="#63b8ff" points="273.32,-99.24 283.65,-96.86 274.09,-92.28 273.32,-99.24"/>
</a>
</g>
</g>
<!-- Node6 -->
<g id="Node000006" class="node">
<title>Node6</title>
<g id="a_Node000006"><a xlink:href="classSensorManager.html#ad6448faa4a1a1e9647682ee4a7005d80" target="_top" xlink:title="Resets the calibration flag stored in EEPROM.">
<polygon fill="white" stroke="#666666" points="248,-55.5 71.5,-55.5 71.5,-37 248,-37 248,-55.5"/>
<text text-anchor="middle" x="159.75" y="-42" font-family="Helvetica,sans-Serif" font-size="10.00">SensorManager::resetCalibrationFlag</text>
</a>
</g>
</g>
<!-- Node1&#45;&gt;Node6 -->
<g id="edge8_Node000001_Node000006" class="edge">
<title>Node1&#45;&gt;Node6</title>
<g id="a_edge8_Node000001_Node000006"><a xlink:title=" ">
<path fill="none" stroke="#63b8ff" d="M296.72,-86.35C282.97,-79.13 265.71,-70.85 249.5,-65.25 238.93,-61.6 227.39,-58.51 216.24,-55.96"/>
<polygon fill="#63b8ff" stroke="#63b8ff" points="294.67,-89.22 305.14,-90.88 297.99,-83.06 294.67,-89.22"/>
</a>
</g>
</g>
<!-- Node7 -->
<g id="Node000007" class="node">
<title>Node7</title>
<g id="a_Node000007"><a xlink:href="main_8cpp.html#a4fc01d736fe50cf5b977f755b675f11d" target="_top" xlink:title="Initializes the system, including the display, sensors, and logger.">
<polygon fill="white" stroke="#666666" points="179.75,-18.5 139.75,-18.5 139.75,0 179.75,0 179.75,-18.5"/>
<text text-anchor="middle" x="159.75" y="-5" font-family="Helvetica,sans-Serif" font-size="10.00">setup</text>
</a>
</g>
</g>
<!-- Node1&#45;&gt;Node7 -->
<g id="edge9_Node000001_Node000007" class="edge">
<title>Node1&#45;&gt;Node7</title>
<g id="a_edge9_Node000001_Node000007"><a xlink:title=" ">
<path fill="none" stroke="#63b8ff" d="M309.68,-82.76C296.29,-65.9 274.27,-41.64 249.5,-28.25 227.6,-16.41 198.93,-11.95 180.18,-10.27"/>
<polygon fill="#63b8ff" stroke="#63b8ff" points="306.74,-84.68 315.6,-90.49 312.3,-80.42 306.74,-84.68"/>
</a>
</g>
</g>
<!-- Node2&#45;&gt;Node3 -->
<g id="edge2_Node000002_Node000003" class="edge">
<title>Node2&#45;&gt;Node3</title>
<g id="a_edge2_Node000002_Node000003"><a xlink:title=" ">
<path fill="none" stroke="#63b8ff" d="M98.92,-181.48C89.08,-178.61 79.12,-175.21 70,-171.25 55.68,-165.03 40.78,-155.17 30.62,-147.85"/>
<polygon fill="#63b8ff" stroke="#63b8ff" points="97.9,-184.83 108.47,-184.1 99.75,-178.08 97.9,-184.83"/>
</a>
</g>
</g>
<!-- Node4&#45;&gt;Node3 -->
<g id="edge4_Node000004_Node000003" class="edge">
<title>Node4&#45;&gt;Node3</title>
<g id="a_edge4_Node000004_Node000003"><a xlink:title=" ">
<path fill="none" stroke="#63b8ff" d="M71.58,-131.4C57.36,-133.22 44.11,-134.91 34.34,-136.16"/>
<polygon fill="#63b8ff" stroke="#63b8ff" points="71.63,-134.92 81.11,-130.18 70.74,-127.98 71.63,-134.92"/>
</a>
</g>
</g>
<!-- Node5&#45;&gt;Node3 -->
<g id="edge6_Node000005_Node000003" class="edge">
<title>Node5&#45;&gt;Node3</title>
<g id="a_edge6_Node000005_Node000003"><a xlink:title=" ">
<path fill="none" stroke="#63b8ff" d="M87.3,-95.93C81.35,-97.77 75.51,-99.87 70,-102.25 54.68,-108.88 39.22,-120.32 29.19,-128.53"/>
<polygon fill="#63b8ff" stroke="#63b8ff" points="87.94,-99.38 96.62,-93.3 86.04,-92.65 87.94,-99.38"/>
</a>
</g>
</g>
</g>
</svg>
