<?xml version="1.0" encoding="UTF-8" standalone="no"?>
<!DOCTYPE svg PUBLIC "-//W3C//DTD SVG 1.1//EN"
 "http://www.w3.org/Graphics/SVG/1.1/DTD/svg11.dtd">
<!-- Generated by graphviz version 12.1.2 (0)
 -->
<!-- Title: SensorManager::getTemperatureBMP Pages: 1 -->
<svg width="401pt" height="27pt"
 viewBox="0.00 0.00 401.00 26.50" xmlns="http://www.w3.org/2000/svg" xmlns:xlink="http://www.w3.org/1999/xlink">
<g id="graph0" class="graph" transform="scale(1 1) rotate(0) translate(4 22.5)">
<title>SensorManager::getTemperatureBMP</title>
<!-- Node1 -->
<g id="Node000001" class="node">
<title>Node1</title>
<g id="a_Node000001"><a xlink:title="Retrieves the current temperature reading from the BMP280 sensor.">
<polygon fill="#999999" stroke="#666666" points="179.5,-18.5 0,-18.5 0,0 179.5,0 179.5,-18.5"/>
<text text-anchor="middle" x="89.75" y="-5" font-family="Helvetica,sans-Serif" font-size="10.00">SensorManager::getTemperatureBMP</text>
</a>
</g>
</g>
<!-- Node2 -->
<g id="Node000002" class="node">
<title>Node2</title>
<g id="a_Node000002"><a xlink:href="classLogger.html#abeffd58a6beace1b1c01a5324227fd83" target="_top" xlink:title="Logs a debug message.">
<polygon fill="white" stroke="#666666" points="293,-18.5 215.5,-18.5 215.5,0 293,0 293,-18.5"/>
<text text-anchor="middle" x="254.25" y="-5" font-family="Helvetica,sans-Serif" font-size="10.00">Logger::debug</text>
</a>
</g>
</g>
<!-- Node1&#45;&gt;Node2 -->
<g id="edge1_Node000001_Node000002" class="edge">
<title>Node1&#45;&gt;Node2</title>
<g id="a_edge1_Node000001_Node000002"><a xlink:title=" ">
<path fill="none" stroke="#63b8ff" d="M179.61,-9.25C187.87,-9.25 196.03,-9.25 203.74,-9.25"/>
<polygon fill="#63b8ff" stroke="#63b8ff" points="203.53,-12.75 213.53,-9.25 203.53,-5.75 203.53,-12.75"/>
</a>
</g>
</g>
<!-- Node3 -->
<g id="Node000003" class="node">
<title>Node3</title>
<g id="a_Node000003"><a xlink:href="classLogger.html#af0dc4ff68b6d37026b9f6c7a51da6aaa" target="_top" xlink:title="Logs a message if it meets the current log level.">
<polygon fill="white" stroke="#666666" points="393,-18.5 329,-18.5 329,0 393,0 393,-18.5"/>
<text text-anchor="middle" x="361" y="-5" font-family="Helvetica,sans-Serif" font-size="10.00">Logger::log</text>
</a>
</g>
</g>
<!-- Node2&#45;&gt;Node3 -->
<g id="edge2_Node000002_Node000003" class="edge">
<title>Node2&#45;&gt;Node3</title>
<g id="a_edge2_Node000002_Node000003"><a xlink:title=" ">
<path fill="none" stroke="#63b8ff" d="M293.36,-9.25C301.15,-9.25 309.38,-9.25 317.31,-9.25"/>
<polygon fill="#63b8ff" stroke="#63b8ff" points="317.11,-12.75 327.11,-9.25 317.11,-5.75 317.11,-12.75"/>
</a>
</g>
</g>
</g>
</svg>
