<?xml version="1.0" encoding="UTF-8" standalone="no"?>
<!DOCTYPE svg PUBLIC "-//W3C//DTD SVG 1.1//EN"
 "http://www.w3.org/Graphics/SVG/1.1/DTD/svg11.dtd">
<!-- Generated by graphviz version 12.1.2 (0)
 -->
<!-- Title: include/I2CScanner.h Pages: 1 -->
<svg width="126pt" height="136pt"
 viewBox="0.00 0.00 125.88 135.50" xmlns="http://www.w3.org/2000/svg" xmlns:xlink="http://www.w3.org/1999/xlink">
<g id="graph0" class="graph" transform="scale(1 1) rotate(0) translate(4 131.5)">
<title>include/I2CScanner.h</title>
<!-- Node1 -->
<g id="Node000001" class="node">
<title>Node1</title>
<g id="a_Node000001"><a xlink:title="Provides functionality to scan the I2C bus for connected devices.">
<polygon fill="#999999" stroke="#666666" points="109.75,-127.5 0.75,-127.5 0.75,-109 109.75,-109 109.75,-127.5"/>
<text text-anchor="middle" x="55.25" y="-114" font-family="Helvetica,sans-Serif" font-size="10.00">include/I2CScanner.h</text>
</a>
</g>
</g>
<!-- Node2 -->
<g id="Node000002" class="node">
<title>Node2</title>
<g id="a_Node000002"><a xlink:title=" ">
<polygon fill="#e0e0e0" stroke="#999999" points="44.5,-73 0,-73 0,-54.5 44.5,-54.5 44.5,-73"/>
<text text-anchor="middle" x="22.25" y="-59.5" font-family="Helvetica,sans-Serif" font-size="10.00">Wire.h</text>
</a>
</g>
</g>
<!-- Node1&#45;&gt;Node2 -->
<g id="edge1_Node000001_Node000002" class="edge">
<title>Node1&#45;&gt;Node2</title>
<g id="a_edge1_Node000001_Node000002"><a xlink:title=" ">
<path fill="none" stroke="#63b8ff" d="M49.8,-108.58C45.43,-101.62 39.14,-91.62 33.67,-82.92"/>
<polygon fill="#63b8ff" stroke="#63b8ff" points="36.69,-81.14 28.4,-74.54 30.76,-84.87 36.69,-81.14"/>
</a>
</g>
</g>
<!-- Node3 -->
<g id="Node000003" class="node">
<title>Node3</title>
<g id="a_Node000003"><a xlink:href="Logger_8h.html" target="_top" xlink:title="Provides logging functionality with different log levels for debugging and monitoring.">
<polygon fill="white" stroke="#666666" points="116,-73 62.5,-73 62.5,-54.5 116,-54.5 116,-73"/>
<text text-anchor="middle" x="89.25" y="-59.5" font-family="Helvetica,sans-Serif" font-size="10.00">Logger.h</text>
</a>
</g>
</g>
<!-- Node1&#45;&gt;Node3 -->
<g id="edge2_Node000001_Node000003" class="edge">
<title>Node1&#45;&gt;Node3</title>
<g id="a_edge2_Node000001_Node000003"><a xlink:title=" ">
<path fill="none" stroke="#63b8ff" d="M60.86,-108.58C65.37,-101.62 71.85,-91.62 77.48,-82.92"/>
<polygon fill="#63b8ff" stroke="#63b8ff" points="80.42,-84.82 82.92,-74.53 74.54,-81.02 80.42,-84.82"/>
</a>
</g>
</g>
<!-- Node4 -->
<g id="Node000004" class="node">
<title>Node4</title>
<g id="a_Node000004"><a xlink:title=" ">
<polygon fill="#e0e0e0" stroke="#999999" points="117.88,-18.5 60.62,-18.5 60.62,0 117.88,0 117.88,-18.5"/>
<text text-anchor="middle" x="89.25" y="-5" font-family="Helvetica,sans-Serif" font-size="10.00">Arduino.h</text>
</a>
</g>
</g>
<!-- Node3&#45;&gt;Node4 -->
<g id="edge3_Node000003_Node000004" class="edge">
<title>Node3&#45;&gt;Node4</title>
<g id="a_edge3_Node000003_Node000004"><a xlink:title=" ">
<path fill="none" stroke="#63b8ff" d="M89.25,-54.08C89.25,-47.58 89.25,-38.42 89.25,-30.16"/>
<polygon fill="#63b8ff" stroke="#63b8ff" points="92.75,-30.27 89.25,-20.27 85.75,-30.27 92.75,-30.27"/>
</a>
</g>
</g>
</g>
</svg>
