<?xml version="1.0" encoding="UTF-8" standalone="no"?>
<!DOCTYPE svg PUBLIC "-//W3C//DTD SVG 1.1//EN"
 "http://www.w3.org/Graphics/SVG/1.1/DTD/svg11.dtd">
<!-- Generated by graphviz version 12.1.2 (0)
 -->
<!-- Title: include/I2CScanner.h Pages: 1 -->
<svg width="200pt" height="81pt"
 viewBox="0.00 0.00 200.25 81.00" xmlns="http://www.w3.org/2000/svg" xmlns:xlink="http://www.w3.org/1999/xlink">
<g id="graph0" class="graph" transform="scale(1 1) rotate(0) translate(4 77)">
<title>include/I2CScanner.h</title>
<!-- Node1 -->
<g id="Node000001" class="node">
<title>Node1</title>
<g id="a_Node000001"><a xlink:title="Provides functionality to scan the I2C bus for connected devices.">
<polygon fill="#999999" stroke="#666666" points="157.62,-73 48.62,-73 48.62,-54.5 157.62,-54.5 157.62,-73"/>
<text text-anchor="middle" x="103.12" y="-59.5" font-family="Helvetica,sans-Serif" font-size="10.00">include/I2CScanner.h</text>
</a>
</g>
</g>
<!-- Node2 -->
<g id="Node000002" class="node">
<title>Node2</title>
<g id="a_Node000002"><a xlink:href="I2CScanner_8cpp_source.html" target="_top" xlink:title=" ">
<polygon fill="white" stroke="#666666" points="102.25,-18.5 0,-18.5 0,0 102.25,0 102.25,-18.5"/>
<text text-anchor="middle" x="51.12" y="-5" font-family="Helvetica,sans-Serif" font-size="10.00">src/I2CScanner.cpp</text>
</a>
</g>
</g>
<!-- Node1&#45;&gt;Node2 -->
<g id="edge1_Node000001_Node000002" class="edge">
<title>Node1&#45;&gt;Node2</title>
<g id="a_edge1_Node000001_Node000002"><a xlink:title=" ">
<path fill="none" stroke="#63b8ff" d="M86.62,-46.08C77.61,-36.99 66.85,-26.12 59.55,-18.76"/>
<polygon fill="#63b8ff" stroke="#63b8ff" points="83.95,-48.36 93.47,-53.01 88.92,-43.44 83.95,-48.36"/>
</a>
</g>
</g>
<!-- Node3 -->
<g id="Node000003" class="node">
<title>Node3</title>
<g id="a_Node000003"><a xlink:href="main_8cpp.html" target="_top" xlink:title="Main entry point for the CO2 Meter application.">
<polygon fill="white" stroke="#666666" points="192.25,-18.5 120,-18.5 120,0 192.25,0 192.25,-18.5"/>
<text text-anchor="middle" x="156.12" y="-5" font-family="Helvetica,sans-Serif" font-size="10.00">src/main.cpp</text>
</a>
</g>
</g>
<!-- Node1&#45;&gt;Node3 -->
<g id="edge2_Node000001_Node000003" class="edge">
<title>Node1&#45;&gt;Node3</title>
<g id="a_edge2_Node000001_Node000003"><a xlink:title=" ">
<path fill="none" stroke="#63b8ff" d="M119.95,-46.08C129.13,-36.99 140.1,-26.12 147.54,-18.76"/>
<polygon fill="#63b8ff" stroke="#63b8ff" points="117.59,-43.49 112.95,-53.02 122.52,-48.46 117.59,-43.49"/>
</a>
</g>
</g>
</g>
</svg>
