<?xml version="1.0" encoding="UTF-8" standalone="no"?>
<!DOCTYPE svg PUBLIC "-//W3C//DTD SVG 1.1//EN"
 "http://www.w3.org/Graphics/SVG/1.1/DTD/svg11.dtd">
<!-- Generated by graphviz version 12.1.2 (0)
 -->
<!-- Title: src/Logger.cpp Pages: 1 -->
<svg width="168pt" height="136pt"
 viewBox="0.00 0.00 168.00 135.50" xmlns="http://www.w3.org/2000/svg" xmlns:xlink="http://www.w3.org/1999/xlink">
<g id="graph0" class="graph" transform="scale(1 1) rotate(0) translate(4 131.5)">
<title>src/Logger.cpp</title>
<!-- Node1 -->
<g id="Node000001" class="node">
<title>Node1</title>
<g id="a_Node000001"><a xlink:title="Implements logging functionality with different log levels for debugging and monitoring.">
<polygon fill="#999999" stroke="#666666" points="122,-127.5 41.5,-127.5 41.5,-109 122,-109 122,-127.5"/>
<text text-anchor="middle" x="81.75" y="-114" font-family="Helvetica,sans-Serif" font-size="10.00">src/Logger.cpp</text>
</a>
</g>
</g>
<!-- Node2 -->
<g id="Node000002" class="node">
<title>Node2</title>
<g id="a_Node000002"><a xlink:href="Logger_8h.html" target="_top" xlink:title="Provides logging functionality with different log levels for debugging and monitoring.">
<polygon fill="white" stroke="#666666" points="53.5,-73 0,-73 0,-54.5 53.5,-54.5 53.5,-73"/>
<text text-anchor="middle" x="26.75" y="-59.5" font-family="Helvetica,sans-Serif" font-size="10.00">Logger.h</text>
</a>
</g>
</g>
<!-- Node1&#45;&gt;Node2 -->
<g id="edge1_Node000001_Node000002" class="edge">
<title>Node1&#45;&gt;Node2</title>
<g id="a_edge1_Node000001_Node000002"><a xlink:title=" ">
<path fill="none" stroke="#63b8ff" d="M72.67,-108.58C64.82,-101.09 53.27,-90.06 43.71,-80.94"/>
<polygon fill="#63b8ff" stroke="#63b8ff" points="46.41,-78.68 36.76,-74.3 41.57,-83.74 46.41,-78.68"/>
</a>
</g>
</g>
<!-- Node3 -->
<g id="Node000003" class="node">
<title>Node3</title>
<g id="a_Node000003"><a xlink:title=" ">
<polygon fill="#e0e0e0" stroke="#999999" points="82.38,-18.5 25.12,-18.5 25.12,0 82.38,0 82.38,-18.5"/>
<text text-anchor="middle" x="53.75" y="-5" font-family="Helvetica,sans-Serif" font-size="10.00">Arduino.h</text>
</a>
</g>
</g>
<!-- Node1&#45;&gt;Node3 -->
<g id="edge3_Node000001_Node000003" class="edge">
<title>Node1&#45;&gt;Node3</title>
<g id="a_edge3_Node000001_Node000003"><a xlink:title=" ">
<path fill="none" stroke="#63b8ff" d="M79.55,-108.85C75.14,-91.98 65.09,-53.57 58.91,-29.98"/>
<polygon fill="#63b8ff" stroke="#63b8ff" points="62.32,-29.16 56.4,-20.37 55.54,-30.93 62.32,-29.16"/>
</a>
</g>
</g>
<!-- Node4 -->
<g id="Node000004" class="node">
<title>Node4</title>
<g id="a_Node000004"><a xlink:href="config_8h_source.html" target="_top" xlink:title=" ">
<polygon fill="white" stroke="#666666" points="160,-73 109.5,-73 109.5,-54.5 160,-54.5 160,-73"/>
<text text-anchor="middle" x="134.75" y="-59.5" font-family="Helvetica,sans-Serif" font-size="10.00">config.h</text>
</a>
</g>
</g>
<!-- Node1&#45;&gt;Node4 -->
<g id="edge4_Node000001_Node000004" class="edge">
<title>Node1&#45;&gt;Node4</title>
<g id="a_edge4_Node000001_Node000004"><a xlink:title=" ">
<path fill="none" stroke="#63b8ff" d="M90.5,-108.58C97.99,-101.17 108.97,-90.28 118.12,-81.22"/>
<polygon fill="#63b8ff" stroke="#63b8ff" points="120.44,-83.85 125.09,-74.32 115.52,-78.87 120.44,-83.85"/>
</a>
</g>
</g>
<!-- Node2&#45;&gt;Node3 -->
<g id="edge2_Node000002_Node000003" class="edge">
<title>Node2&#45;&gt;Node3</title>
<g id="a_edge2_Node000002_Node000003"><a xlink:title=" ">
<path fill="none" stroke="#63b8ff" d="M31.21,-54.08C34.75,-47.2 39.82,-37.34 44.26,-28.71"/>
<polygon fill="#63b8ff" stroke="#63b8ff" points="47.22,-30.6 48.68,-20.1 41,-27.4 47.22,-30.6"/>
</a>
</g>
</g>
</g>
</svg>
