<?xml version="1.0" encoding="UTF-8" standalone="no"?>
<!DOCTYPE svg PUBLIC "-//W3C//DTD SVG 1.1//EN"
 "http://www.w3.org/Graphics/SVG/1.1/DTD/svg11.dtd">
<!-- Generated by graphviz version 12.1.2 (0)
 -->
<!-- Title: include/Logger.h Pages: 1 -->
<svg width="636pt" height="136pt"
 viewBox="0.00 0.00 636.12 135.50" xmlns="http://www.w3.org/2000/svg" xmlns:xlink="http://www.w3.org/1999/xlink">
<g id="graph0" class="graph" transform="scale(1 1) rotate(0) translate(4 131.5)">
<title>include/Logger.h</title>
<!-- Node1 -->
<g id="Node000001" class="node">
<title>Node1</title>
<g id="a_Node000001"><a xlink:title="Provides logging functionality with different log levels for debugging and monitoring.">
<polygon fill="#999999" stroke="#666666" points="336.5,-127.5 249.25,-127.5 249.25,-109 336.5,-109 336.5,-127.5"/>
<text text-anchor="middle" x="292.88" y="-114" font-family="Helvetica,sans-Serif" font-size="10.00">include/Logger.h</text>
</a>
</g>
</g>
<!-- Node2 -->
<g id="Node000002" class="node">
<title>Node2</title>
<g id="a_Node000002"><a xlink:href="DisplayManager_8h_source.html" target="_top" xlink:title=" ">
<polygon fill="white" stroke="#666666" points="182.12,-73 53.62,-73 53.62,-54.5 182.12,-54.5 182.12,-73"/>
<text text-anchor="middle" x="117.88" y="-59.5" font-family="Helvetica,sans-Serif" font-size="10.00">include/DisplayManager.h</text>
</a>
</g>
</g>
<!-- Node1&#45;&gt;Node2 -->
<g id="edge1_Node000001_Node000002" class="edge">
<title>Node1&#45;&gt;Node2</title>
<g id="a_edge1_Node000001_Node000002"><a xlink:title=" ">
<path fill="none" stroke="#63b8ff" d="M253.1,-105.32C220.74,-95.61 175.84,-82.14 146.82,-73.43"/>
<polygon fill="#63b8ff" stroke="#63b8ff" points="251.94,-108.62 262.53,-108.15 253.96,-101.92 251.94,-108.62"/>
</a>
</g>
</g>
<!-- Node3 -->
<g id="Node000003" class="node">
<title>Node3</title>
<g id="a_Node000003"><a xlink:href="DisplayManager_8cpp_source.html" target="_top" xlink:title=" ">
<polygon fill="white" stroke="#666666" points="121.75,-18.5 0,-18.5 0,0 121.75,0 121.75,-18.5"/>
<text text-anchor="middle" x="60.88" y="-5" font-family="Helvetica,sans-Serif" font-size="10.00">src/DisplayManager.cpp</text>
</a>
</g>
</g>
<!-- Node1&#45;&gt;Node3 -->
<g id="edge10_Node000001_Node000003" class="edge">
<title>Node1&#45;&gt;Node3</title>
<g id="a_edge10_Node000001_Node000003"><a xlink:title=" ">
<path fill="none" stroke="#63b8ff" d="M237.47,-115.36C172.02,-111.84 68.95,-101.75 44.88,-73 31.59,-57.14 45.67,-31.66 54.64,-18.59"/>
<polygon fill="#63b8ff" stroke="#63b8ff" points="237.16,-118.85 247.32,-115.86 237.5,-111.86 237.16,-118.85"/>
</a>
</g>
</g>
<!-- Node4 -->
<g id="Node000004" class="node">
<title>Node4</title>
<g id="a_Node000004"><a xlink:href="main_8cpp.html" target="_top" xlink:title="Main entry point for the CO2 Meter application.">
<polygon fill="white" stroke="#666666" points="246,-18.5 173.75,-18.5 173.75,0 246,0 246,-18.5"/>
<text text-anchor="middle" x="209.88" y="-5" font-family="Helvetica,sans-Serif" font-size="10.00">src/main.cpp</text>
</a>
</g>
</g>
<!-- Node1&#45;&gt;Node4 -->
<g id="edge13_Node000001_Node000004" class="edge">
<title>Node1&#45;&gt;Node4</title>
<g id="a_edge13_Node000001_Node000004"><a xlink:title=" ">
<path fill="none" stroke="#63b8ff" d="M264.82,-103.01C252.57,-95.55 238.96,-85.37 229.88,-73 217.56,-56.23 212.64,-31.59 210.83,-18.74"/>
<polygon fill="#63b8ff" stroke="#63b8ff" points="262.93,-105.96 273.35,-107.88 266.4,-99.88 262.93,-105.96"/>
</a>
</g>
</g>
<!-- Node5 -->
<g id="Node000005" class="node">
<title>Node5</title>
<g id="a_Node000005"><a xlink:href="I2CScanner_8h.html" target="_top" xlink:title="Provides functionality to scan the I2C bus for connected devices.">
<polygon fill="white" stroke="#666666" points="347.38,-73 238.38,-73 238.38,-54.5 347.38,-54.5 347.38,-73"/>
<text text-anchor="middle" x="292.88" y="-59.5" font-family="Helvetica,sans-Serif" font-size="10.00">include/I2CScanner.h</text>
</a>
</g>
</g>
<!-- Node1&#45;&gt;Node5 -->
<g id="edge4_Node000001_Node000005" class="edge">
<title>Node1&#45;&gt;Node5</title>
<g id="a_edge4_Node000001_Node000005"><a xlink:title=" ">
<path fill="none" stroke="#63b8ff" d="M292.88,-97.14C292.88,-88.86 292.88,-79.71 292.88,-73.26"/>
<polygon fill="#63b8ff" stroke="#63b8ff" points="289.38,-97.07 292.88,-107.07 296.38,-97.07 289.38,-97.07"/>
</a>
</g>
</g>
<!-- Node7 -->
<g id="Node000007" class="node">
<title>Node7</title>
<g id="a_Node000007"><a xlink:href="SensorManager_8h.html" target="_top" xlink:title="Manages the initialization, calibration, and data retrieval from sensors.">
<polygon fill="white" stroke="#666666" points="492,-73 365.75,-73 365.75,-54.5 492,-54.5 492,-73"/>
<text text-anchor="middle" x="428.88" y="-59.5" font-family="Helvetica,sans-Serif" font-size="10.00">include/SensorManager.h</text>
</a>
</g>
</g>
<!-- Node1&#45;&gt;Node7 -->
<g id="edge7_Node000001_Node000007" class="edge">
<title>Node1&#45;&gt;Node7</title>
<g id="a_edge7_Node000001_Node000007"><a xlink:title=" ">
<path fill="none" stroke="#63b8ff" d="M325.78,-104.55C350.75,-94.91 384.42,-81.91 406.38,-73.43"/>
<polygon fill="#63b8ff" stroke="#63b8ff" points="324.81,-101.17 316.74,-108.04 327.33,-107.7 324.81,-101.17"/>
</a>
</g>
</g>
<!-- Node8 -->
<g id="Node000008" class="node">
<title>Node8</title>
<g id="a_Node000008"><a xlink:href="SensorManager_8cpp.html" target="_top" xlink:title="Implements the functionality for managing the SCD30 and BMP280 sensors.">
<polygon fill="white" stroke="#666666" points="541.62,-18.5 422.12,-18.5 422.12,0 541.62,0 541.62,-18.5"/>
<text text-anchor="middle" x="481.88" y="-5" font-family="Helvetica,sans-Serif" font-size="10.00">src/SensorManager.cpp</text>
</a>
</g>
</g>
<!-- Node1&#45;&gt;Node8 -->
<g id="edge12_Node000001_Node000008" class="edge">
<title>Node1&#45;&gt;Node8</title>
<g id="a_edge12_Node000001_Node000008"><a xlink:title=" ">
<path fill="none" stroke="#63b8ff" d="M347.87,-113.22C402.88,-107.92 481.95,-96.37 500.88,-73 513.91,-56.9 498.81,-31.98 488.99,-18.91"/>
<polygon fill="#63b8ff" stroke="#63b8ff" points="347.68,-109.73 338.04,-114.13 348.32,-116.7 347.68,-109.73"/>
</a>
</g>
</g>
<!-- Node9 -->
<g id="Node000009" class="node">
<title>Node9</title>
<g id="a_Node000009"><a xlink:href="Logger_8cpp.html" target="_top" xlink:title="Implements logging functionality with different log levels for debugging and monitoring.">
<polygon fill="white" stroke="#666666" points="628.12,-73 547.62,-73 547.62,-54.5 628.12,-54.5 628.12,-73"/>
<text text-anchor="middle" x="587.88" y="-59.5" font-family="Helvetica,sans-Serif" font-size="10.00">src/Logger.cpp</text>
</a>
</g>
</g>
<!-- Node1&#45;&gt;Node9 -->
<g id="edge11_Node000001_Node000009" class="edge">
<title>Node1&#45;&gt;Node9</title>
<g id="a_edge11_Node000001_Node000009"><a xlink:title=" ">
<path fill="none" stroke="#63b8ff" d="M347.87,-107.46C405.87,-97.14 495.86,-81.13 547.58,-71.92"/>
<polygon fill="#63b8ff" stroke="#63b8ff" points="347.44,-103.98 338.21,-109.18 348.67,-110.88 347.44,-103.98"/>
</a>
</g>
</g>
<!-- Node2&#45;&gt;Node3 -->
<g id="edge2_Node000002_Node000003" class="edge">
<title>Node2&#45;&gt;Node3</title>
<g id="a_edge2_Node000002_Node000003"><a xlink:title=" ">
<path fill="none" stroke="#63b8ff" d="M100.08,-46.36C90.15,-37.22 78.19,-26.2 70.11,-18.76"/>
<polygon fill="#63b8ff" stroke="#63b8ff" points="97.62,-48.85 107.35,-53.06 102.37,-43.71 97.62,-48.85"/>
</a>
</g>
</g>
<!-- Node2&#45;&gt;Node4 -->
<g id="edge3_Node000002_Node000004" class="edge">
<title>Node2&#45;&gt;Node4</title>
<g id="a_edge3_Node000002_Node000004"><a xlink:title=" ">
<path fill="none" stroke="#63b8ff" d="M142.68,-48.6C159.26,-39.14 180.54,-26.99 194.66,-18.93"/>
<polygon fill="#63b8ff" stroke="#63b8ff" points="141.33,-45.33 134.38,-53.33 144.8,-51.41 141.33,-45.33"/>
</a>
</g>
</g>
<!-- Node5&#45;&gt;Node4 -->
<g id="edge6_Node000005_Node000004" class="edge">
<title>Node5&#45;&gt;Node4</title>
<g id="a_edge6_Node000005_Node000004"><a xlink:title=" ">
<path fill="none" stroke="#63b8ff" d="M269.65,-48.06C254.82,-38.68 236.1,-26.84 223.6,-18.93"/>
<polygon fill="#63b8ff" stroke="#63b8ff" points="267.57,-50.88 277.89,-53.27 271.31,-44.97 267.57,-50.88"/>
</a>
</g>
</g>
<!-- Node6 -->
<g id="Node000006" class="node">
<title>Node6</title>
<g id="a_Node000006"><a xlink:href="I2CScanner_8cpp_source.html" target="_top" xlink:title=" ">
<polygon fill="white" stroke="#666666" points="366,-18.5 263.75,-18.5 263.75,0 366,0 366,-18.5"/>
<text text-anchor="middle" x="314.88" y="-5" font-family="Helvetica,sans-Serif" font-size="10.00">src/I2CScanner.cpp</text>
</a>
</g>
</g>
<!-- Node5&#45;&gt;Node6 -->
<g id="edge5_Node000005_Node000006" class="edge">
<title>Node5&#45;&gt;Node6</title>
<g id="a_edge5_Node000005_Node000006"><a xlink:title=" ">
<path fill="none" stroke="#63b8ff" d="M300.94,-43.51C304.5,-35 308.51,-25.44 311.31,-18.76"/>
<polygon fill="#63b8ff" stroke="#63b8ff" points="297.73,-42.11 297.09,-52.68 304.19,-44.81 297.73,-42.11"/>
</a>
</g>
</g>
<!-- Node7&#45;&gt;Node4 -->
<g id="edge9_Node000007_Node000004" class="edge">
<title>Node7&#45;&gt;Node4</title>
<g id="a_edge9_Node000007_Node000004"><a xlink:title=" ">
<path fill="none" stroke="#63b8ff" d="M381.73,-51.45C341.07,-41.7 283.2,-27.83 246.09,-18.93"/>
<polygon fill="#63b8ff" stroke="#63b8ff" points="380.7,-54.8 391.24,-53.73 382.33,-47.99 380.7,-54.8"/>
</a>
</g>
</g>
<!-- Node7&#45;&gt;Node8 -->
<g id="edge8_Node000007_Node000008" class="edge">
<title>Node7&#45;&gt;Node8</title>
<g id="a_edge8_Node000007_Node000008"><a xlink:title=" ">
<path fill="none" stroke="#63b8ff" d="M445.7,-46.08C454.88,-36.99 465.85,-26.12 473.29,-18.76"/>
<polygon fill="#63b8ff" stroke="#63b8ff" points="443.34,-43.49 438.7,-53.02 448.27,-48.46 443.34,-43.49"/>
</a>
</g>
</g>
</g>
</svg>
