<?xml version="1.0" encoding="UTF-8" standalone="no"?>
<!DOCTYPE svg PUBLIC "-//W3C//DTD SVG 1.1//EN"
 "http://www.w3.org/Graphics/SVG/1.1/DTD/svg11.dtd">
<!-- Generated by graphviz version 12.1.2 (0)
 -->
<!-- Title: setup Pages: 1 -->
<svg width="645pt" height="444pt"
 viewBox="0.00 0.00 644.50 444.29" xmlns="http://www.w3.org/2000/svg" xmlns:xlink="http://www.w3.org/1999/xlink">
<g id="graph0" class="graph" transform="scale(1 1) rotate(0) translate(4 440.29)">
<title>setup</title>
<!-- Node1 -->
<g id="Node000001" class="node">
<title>Node1</title>
<g id="a_Node000001"><a xlink:title="Initializes the system, including the display, sensors, and logger.">
<polygon fill="#999999" stroke="#666666" points="40,-195.5 0,-195.5 0,-177 40,-177 40,-195.5"/>
<text text-anchor="middle" x="20" y="-182" font-family="Helvetica,sans-Serif" font-size="10.00">setup</text>
</a>
</g>
</g>
<!-- Node2 -->
<g id="Node000002" class="node">
<title>Node2</title>
<g id="a_Node000002"><a xlink:href="classSensorManager.html#a9daa366f758f7419ab22fb3c243801fe" target="_top" xlink:title="Checks if the SCD30 sensor needs calibration and performs calibration if necessary.">
<polygon fill="white" stroke="#666666" points="248,-263.75 76,-263.75 76,-234.75 248,-234.75 248,-263.75"/>
<text text-anchor="start" x="84" y="-250.25" font-family="Helvetica,sans-Serif" font-size="10.00">SensorManager::checkAndCalibrate</text>
<text text-anchor="middle" x="162" y="-239.75" font-family="Helvetica,sans-Serif" font-size="10.00">SCD30</text>
</a>
</g>
</g>
<!-- Node1&#45;&gt;Node2 -->
<g id="edge1_Node000001_Node000002" class="edge">
<title>Node1&#45;&gt;Node2</title>
<g id="a_edge1_Node000001_Node000002"><a xlink:title=" ">
<path fill="none" stroke="#63b8ff" d="M34.53,-195.81C45.38,-203.18 61.18,-213.25 76,-220.25 83.83,-223.95 92.27,-227.41 100.67,-230.56"/>
<polygon fill="#63b8ff" stroke="#63b8ff" points="99.24,-233.76 109.84,-233.86 101.62,-227.18 99.24,-233.76"/>
</a>
</g>
</g>
<!-- Node4 -->
<g id="Node000004" class="node">
<title>Node4</title>
<g id="a_Node000004"><a xlink:href="classLogger.html#ac862952b8ffa9de295a496af0108785c" target="_top" xlink:title="Logs an error message.">
<polygon fill="white" stroke="#666666" points="533.12,-338.5 462.38,-338.5 462.38,-320 533.12,-320 533.12,-338.5"/>
<text text-anchor="middle" x="497.75" y="-325" font-family="Helvetica,sans-Serif" font-size="10.00">Logger::error</text>
</a>
</g>
</g>
<!-- Node1&#45;&gt;Node4 -->
<g id="edge10_Node000001_Node000004" class="edge">
<title>Node1&#45;&gt;Node4</title>
<g id="a_edge10_Node000001_Node000004"><a xlink:title=" ">
<path fill="none" stroke="#63b8ff" d="M20.91,-195.8C21.2,-224.99 26.3,-313.65 76,-357.25 192.62,-459.57 278.08,-450.63 423,-395.25 447.96,-385.71 469.8,-363.41 483.11,-347.37"/>
<polygon fill="#63b8ff" stroke="#63b8ff" points="485.5,-349.99 488.98,-339.98 480.02,-345.64 485.5,-349.99"/>
</a>
</g>
</g>
<!-- Node6 -->
<g id="Node000006" class="node">
<title>Node6</title>
<g id="a_Node000006"><a xlink:href="classLogger.html#a0c5851d03ba2e560bfd57aeb713267b3" target="_top" xlink:title="Logs an informational message.">
<polygon fill="white" stroke="#666666" points="531.25,-234.5 464.25,-234.5 464.25,-216 531.25,-216 531.25,-234.5"/>
<text text-anchor="middle" x="497.75" y="-221" font-family="Helvetica,sans-Serif" font-size="10.00">Logger::info</text>
</a>
</g>
</g>
<!-- Node1&#45;&gt;Node6 -->
<g id="edge11_Node000001_Node000006" class="edge">
<title>Node1&#45;&gt;Node6</title>
<g id="a_edge11_Node000001_Node000006"><a xlink:title=" ">
<path fill="none" stroke="#63b8ff" d="M40.24,-187.83C110.22,-193.56 352.37,-213.41 452.69,-221.64"/>
<polygon fill="#63b8ff" stroke="#63b8ff" points="452.16,-225.11 462.41,-222.43 452.73,-218.13 452.16,-225.11"/>
</a>
</g>
</g>
<!-- Node7 -->
<g id="Node000007" class="node">
<title>Node7</title>
<g id="a_Node000007"><a xlink:href="classLogger.html#abeffd58a6beace1b1c01a5324227fd83" target="_top" xlink:title="Logs a debug message.">
<polygon fill="white" stroke="#666666" points="536.5,-96.5 459,-96.5 459,-78 536.5,-78 536.5,-96.5"/>
<text text-anchor="middle" x="497.75" y="-83" font-family="Helvetica,sans-Serif" font-size="10.00">Logger::debug</text>
</a>
</g>
</g>
<!-- Node1&#45;&gt;Node7 -->
<g id="edge8_Node000001_Node000007" class="edge">
<title>Node1&#45;&gt;Node7</title>
<g id="a_edge8_Node000001_Node000007"><a xlink:title=" ">
<path fill="none" stroke="#63b8ff" d="M21.94,-176.81C24.88,-153.05 36.23,-90.86 76,-65.25 140.83,-23.5 346.7,-54.11 423,-65.25 435.32,-67.05 448.45,-70.45 460.16,-74.06"/>
<polygon fill="#63b8ff" stroke="#63b8ff" points="458.85,-77.31 469.44,-77.06 461.01,-70.65 458.85,-77.31"/>
</a>
</g>
</g>
<!-- Node8 -->
<g id="Node000008" class="node">
<title>Node8</title>
<g id="a_Node000008"><a xlink:href="classDisplayManager.html#aeb1c8224403ea2595f202e5d93380609" target="_top" xlink:title="Initializes the OLED display.">
<polygon fill="white" stroke="#666666" points="417,-338.5 290,-338.5 290,-320 417,-320 417,-338.5"/>
<text text-anchor="middle" x="353.5" y="-325" font-family="Helvetica,sans-Serif" font-size="10.00">DisplayManager::initialize</text>
</a>
</g>
</g>
<!-- Node1&#45;&gt;Node8 -->
<g id="edge12_Node000001_Node000008" class="edge">
<title>Node1&#45;&gt;Node8</title>
<g id="a_edge12_Node000001_Node000008"><a xlink:title=" ">
<path fill="none" stroke="#63b8ff" d="M24.19,-195.91C30.76,-214.17 47.6,-253.68 76,-273.25 135.77,-314.44 219,-326.71 278.5,-329.73"/>
<polygon fill="#63b8ff" stroke="#63b8ff" points="278.04,-333.22 288.18,-330.15 278.34,-326.22 278.04,-333.22"/>
</a>
</g>
</g>
<!-- Node9 -->
<g id="Node000009" class="node">
<title>Node9</title>
<g id="a_Node000009"><a xlink:href="classSensorManager.html#aded8aff6d741a64d0c34668a0694dd3d" target="_top" xlink:title="Initializes the SCD30 and BMP280 sensors.">
<polygon fill="white" stroke="#666666" points="415.88,-385.75 291.12,-385.75 291.12,-356.75 415.88,-356.75 415.88,-385.75"/>
<text text-anchor="start" x="299.12" y="-372.25" font-family="Helvetica,sans-Serif" font-size="10.00">SensorManager::initialize</text>
<text text-anchor="middle" x="353.5" y="-361.75" font-family="Helvetica,sans-Serif" font-size="10.00">Sensors</text>
</a>
</g>
</g>
<!-- Node1&#45;&gt;Node9 -->
<g id="edge15_Node000001_Node000009" class="edge">
<title>Node1&#45;&gt;Node9</title>
<g id="a_edge15_Node000001_Node000009"><a xlink:title=" ">
<path fill="none" stroke="#63b8ff" d="M22.1,-195.74C25.42,-219.68 37.57,-282.91 76,-314.25 133.09,-360.81 218.47,-372.35 279.23,-373.93"/>
<polygon fill="#63b8ff" stroke="#63b8ff" points="279.08,-377.43 289.14,-374.1 279.2,-370.43 279.08,-377.43"/>
</a>
</g>
</g>
<!-- Node10 -->
<g id="Node000010" class="node">
<title>Node10</title>
<g id="a_Node000010"><a xlink:href="classDisplayManager.html#a2d6f5efef5cb7e03c820ab14c4adc217" target="_top" xlink:title="Runs a display check to verify the OLED functionality.">
<polygon fill="white" stroke="#666666" points="423,-177.75 284,-177.75 284,-148.75 423,-148.75 423,-177.75"/>
<text text-anchor="start" x="292" y="-164.25" font-family="Helvetica,sans-Serif" font-size="10.00">DisplayManager::runDisplay</text>
<text text-anchor="middle" x="353.5" y="-153.75" font-family="Helvetica,sans-Serif" font-size="10.00">Check</text>
</a>
</g>
</g>
<!-- Node1&#45;&gt;Node10 -->
<g id="edge18_Node000001_Node000010" class="edge">
<title>Node1&#45;&gt;Node10</title>
<g id="a_edge18_Node000001_Node000010"><a xlink:title=" ">
<path fill="none" stroke="#63b8ff" d="M40.26,-184.91C84.51,-181.84 195.56,-174.14 272.54,-168.8"/>
<polygon fill="#63b8ff" stroke="#63b8ff" points="272.39,-172.32 282.13,-168.13 271.91,-165.33 272.39,-172.32"/>
</a>
</g>
</g>
<!-- Node11 -->
<g id="Node000011" class="node">
<title>Node11</title>
<g id="a_Node000011"><a xlink:href="classI2CScanner.html#ad3b7b4bc25e6c1e8b89e702862a56af5" target="_top" xlink:title="Scans the I2C bus for connected devices.">
<polygon fill="white" stroke="#666666" points="209,-130.5 115,-130.5 115,-112 209,-112 209,-130.5"/>
<text text-anchor="middle" x="162" y="-117" font-family="Helvetica,sans-Serif" font-size="10.00">I2CScanner::scan</text>
</a>
</g>
</g>
<!-- Node1&#45;&gt;Node11 -->
<g id="edge20_Node000001_Node000011" class="edge">
<title>Node1&#45;&gt;Node11</title>
<g id="a_edge20_Node000001_Node000011"><a xlink:title=" ">
<path fill="none" stroke="#63b8ff" d="M34.07,-176.73C44.91,-169.13 60.94,-158.58 76,-151.25 89.1,-144.87 103.92,-139.17 117.47,-134.49"/>
<polygon fill="#63b8ff" stroke="#63b8ff" points="118.2,-137.93 126.57,-131.44 115.97,-131.29 118.2,-137.93"/>
</a>
</g>
</g>
<!-- Node12 -->
<g id="Node000012" class="node">
<title>Node12</title>
<g id="a_Node000012"><a xlink:href="classLogger.html#a4d229b17ee039e273686455c74382ec6" target="_top" xlink:title="Logs a warning message.">
<polygon fill="white" stroke="#666666" points="395.62,-92.5 311.38,-92.5 311.38,-74 395.62,-74 395.62,-92.5"/>
<text text-anchor="middle" x="353.5" y="-79" font-family="Helvetica,sans-Serif" font-size="10.00">Logger::warning</text>
</a>
</g>
</g>
<!-- Node1&#45;&gt;Node12 -->
<g id="edge25_Node000001_Node000012" class="edge">
<title>Node1&#45;&gt;Node12</title>
<g id="a_edge25_Node000001_Node000012"><a xlink:title=" ">
<path fill="none" stroke="#63b8ff" d="M24.12,-176.7C30.56,-158.71 47.2,-120.08 76,-103.25 145.15,-62.84 241.23,-66.51 300.01,-74.04"/>
<polygon fill="#63b8ff" stroke="#63b8ff" points="299.37,-77.48 309.75,-75.37 300.32,-70.54 299.37,-77.48"/>
</a>
</g>
</g>
<!-- Node13 -->
<g id="Node000013" class="node">
<title>Node13</title>
<g id="a_Node000013"><a xlink:href="classDisplayManager.html#af6b3073649e2e7d9f4a8ce768ac51b3d" target="_top" xlink:title="Displays a splash screen with a centered message.">
<polygon fill="white" stroke="#666666" points="237.88,-18.5 86.12,-18.5 86.12,0 237.88,0 237.88,-18.5"/>
<text text-anchor="middle" x="162" y="-5" font-family="Helvetica,sans-Serif" font-size="10.00">DisplayManager::splashScreen</text>
</a>
</g>
</g>
<!-- Node1&#45;&gt;Node13 -->
<g id="edge24_Node000001_Node000013" class="edge">
<title>Node1&#45;&gt;Node13</title>
<g id="a_edge24_Node000001_Node000013"><a xlink:title=" ">
<path fill="none" stroke="#63b8ff" d="M21.47,-176.66C23.34,-149.68 32.42,-72.52 76,-32.25 79.47,-29.04 83.35,-26.27 87.48,-23.88"/>
<polygon fill="#63b8ff" stroke="#63b8ff" points="88.71,-27.18 96.15,-19.63 85.63,-20.89 88.71,-27.18"/>
</a>
</g>
</g>
<!-- Node3 -->
<g id="Node000003" class="node">
<title>Node3</title>
<g id="a_Node000003"><a xlink:href="classSensorManager.html#a3608ee33385f64e74410127d59c2638e" target="_top" xlink:title="Calibrates the SCD30 sensor using the forced recalibration factor.">
<polygon fill="white" stroke="#666666" points="417,-301.75 290,-301.75 290,-272.75 417,-272.75 417,-301.75"/>
<text text-anchor="start" x="298" y="-288.25" font-family="Helvetica,sans-Serif" font-size="10.00">SensorManager::calibrate</text>
<text text-anchor="middle" x="353.5" y="-277.75" font-family="Helvetica,sans-Serif" font-size="10.00">SCD30</text>
</a>
</g>
</g>
<!-- Node2&#45;&gt;Node3 -->
<g id="edge2_Node000002_Node000003" class="edge">
<title>Node2&#45;&gt;Node3</title>
<g id="a_edge2_Node000002_Node000003"><a xlink:title=" ">
<path fill="none" stroke="#63b8ff" d="M237.62,-264.21C251.06,-266.91 265.05,-269.71 278.47,-272.4"/>
<polygon fill="#63b8ff" stroke="#63b8ff" points="277.6,-275.8 288.09,-274.33 278.97,-268.94 277.6,-275.8"/>
</a>
</g>
</g>
<!-- Node2&#45;&gt;Node6 -->
<g id="edge7_Node000002_Node000006" class="edge">
<title>Node2&#45;&gt;Node6</title>
<g id="a_edge7_Node000002_Node000006"><a xlink:title=" ">
<path fill="none" stroke="#63b8ff" d="M248.08,-243.13C313.3,-238.44 400.66,-232.16 452.59,-228.43"/>
<polygon fill="#63b8ff" stroke="#63b8ff" points="452.82,-231.92 462.54,-227.71 452.32,-224.94 452.82,-231.92"/>
</a>
</g>
</g>
<!-- Node3&#45;&gt;Node4 -->
<g id="edge3_Node000003_Node000004" class="edge">
<title>Node3&#45;&gt;Node4</title>
<g id="a_edge3_Node000003_Node000004"><a xlink:title=" ">
<path fill="none" stroke="#63b8ff" d="M405.05,-302.18C420.86,-306.84 438.15,-311.95 453.42,-316.46"/>
<polygon fill="#63b8ff" stroke="#63b8ff" points="452.09,-319.71 462.67,-319.19 454.07,-313 452.09,-319.71"/>
</a>
</g>
</g>
<!-- Node3&#45;&gt;Node6 -->
<g id="edge5_Node000003_Node000006" class="edge">
<title>Node3&#45;&gt;Node6</title>
<g id="a_edge5_Node000003_Node000006"><a xlink:title=" ">
<path fill="none" stroke="#63b8ff" d="M390.11,-272.33C400.71,-267.85 412.34,-262.89 423,-258.25 436.87,-252.21 452.13,-245.41 465.16,-239.55"/>
<polygon fill="#63b8ff" stroke="#63b8ff" points="466.44,-242.82 474.12,-235.52 463.57,-236.43 466.44,-242.82"/>
</a>
</g>
</g>
<!-- Node5 -->
<g id="Node000005" class="node">
<title>Node5</title>
<g id="a_Node000005"><a xlink:href="classLogger.html#af0dc4ff68b6d37026b9f6c7a51da6aaa" target="_top" xlink:title="Logs a message if it meets the current log level.">
<polygon fill="white" stroke="#666666" points="636.5,-194.5 572.5,-194.5 572.5,-176 636.5,-176 636.5,-194.5"/>
<text text-anchor="middle" x="604.5" y="-181" font-family="Helvetica,sans-Serif" font-size="10.00">Logger::log</text>
</a>
</g>
</g>
<!-- Node4&#45;&gt;Node5 -->
<g id="edge4_Node000004_Node000005" class="edge">
<title>Node4&#45;&gt;Node5</title>
<g id="a_edge4_Node000004_Node000005"><a xlink:title=" ">
<path fill="none" stroke="#63b8ff" d="M505.62,-319.8C522.71,-296.31 567.35,-234.94 589.96,-203.86"/>
<polygon fill="#63b8ff" stroke="#63b8ff" points="592.52,-206.29 595.57,-196.15 586.86,-202.17 592.52,-206.29"/>
</a>
</g>
</g>
<!-- Node6&#45;&gt;Node5 -->
<g id="edge6_Node000006_Node000005" class="edge">
<title>Node6&#45;&gt;Node5</title>
<g id="a_edge6_Node000006_Node000005"><a xlink:title=" ">
<path fill="none" stroke="#63b8ff" d="M524.11,-215.57C537.13,-210.59 553.23,-204.45 567.52,-198.99"/>
<polygon fill="#63b8ff" stroke="#63b8ff" points="568.51,-202.36 576.6,-195.52 566.01,-195.82 568.51,-202.36"/>
</a>
</g>
</g>
<!-- Node7&#45;&gt;Node5 -->
<g id="edge9_Node000007_Node000005" class="edge">
<title>Node7&#45;&gt;Node5</title>
<g id="a_edge9_Node000007_Node000005"><a xlink:title=" ">
<path fill="none" stroke="#63b8ff" d="M508.79,-96.65C526.35,-113.07 562.84,-147.21 585.05,-167.99"/>
<polygon fill="#63b8ff" stroke="#63b8ff" points="582.53,-170.43 592.23,-174.7 587.32,-165.32 582.53,-170.43"/>
</a>
</g>
</g>
<!-- Node8&#45;&gt;Node4 -->
<g id="edge13_Node000008_Node000004" class="edge">
<title>Node8&#45;&gt;Node4</title>
<g id="a_edge13_Node000008_Node000004"><a xlink:title=" ">
<path fill="none" stroke="#63b8ff" d="M417.31,-329.25C428.57,-329.25 440.11,-329.25 450.78,-329.25"/>
<polygon fill="#63b8ff" stroke="#63b8ff" points="450.46,-332.75 460.46,-329.25 450.46,-325.75 450.46,-332.75"/>
</a>
</g>
</g>
<!-- Node8&#45;&gt;Node6 -->
<g id="edge14_Node000008_Node000006" class="edge">
<title>Node8&#45;&gt;Node6</title>
<g id="a_edge14_Node000008_Node000006"><a xlink:title=" ">
<path fill="none" stroke="#63b8ff" d="M405.7,-319.51C411.77,-317.29 417.69,-314.58 423,-311.25 450.01,-294.34 472.37,-264.39 485.15,-244.68"/>
<polygon fill="#63b8ff" stroke="#63b8ff" points="488.1,-246.55 490.43,-236.21 482.16,-242.85 488.1,-246.55"/>
</a>
</g>
</g>
<!-- Node9&#45;&gt;Node4 -->
<g id="edge16_Node000009_Node000004" class="edge">
<title>Node9&#45;&gt;Node4</title>
<g id="a_edge16_Node000009_Node000004"><a xlink:title=" ">
<path fill="none" stroke="#63b8ff" d="M405.05,-356.32C420.86,-351.66 438.15,-346.55 453.42,-342.04"/>
<polygon fill="#63b8ff" stroke="#63b8ff" points="454.07,-345.5 462.67,-339.31 452.09,-338.79 454.07,-345.5"/>
</a>
</g>
</g>
<!-- Node9&#45;&gt;Node6 -->
<g id="edge17_Node000009_Node000006" class="edge">
<title>Node9&#45;&gt;Node6</title>
<g id="a_edge17_Node000009_Node000006"><a xlink:title=" ">
<path fill="none" stroke="#63b8ff" d="M408.77,-356.32C413.85,-353.75 418.7,-350.75 423,-347.25 456.82,-319.79 479,-272.4 489.56,-245.48"/>
<polygon fill="#63b8ff" stroke="#63b8ff" points="492.84,-246.71 493.06,-236.12 486.28,-244.26 492.84,-246.71"/>
</a>
</g>
</g>
<!-- Node10&#45;&gt;Node6 -->
<g id="edge19_Node000010_Node000006" class="edge">
<title>Node10&#45;&gt;Node6</title>
<g id="a_edge19_Node000010_Node000006"><a xlink:title=" ">
<path fill="none" stroke="#63b8ff" d="M390.11,-178.17C400.71,-182.65 412.34,-187.61 423,-192.25 436.87,-198.29 452.13,-205.09 465.16,-210.95"/>
<polygon fill="#63b8ff" stroke="#63b8ff" points="463.57,-214.07 474.12,-214.98 466.44,-207.68 463.57,-214.07"/>
</a>
</g>
</g>
<!-- Node11&#45;&gt;Node6 -->
<g id="edge21_Node000011_Node000006" class="edge">
<title>Node11&#45;&gt;Node6</title>
<g id="a_edge21_Node000011_Node000006"><a xlink:title=" ">
<path fill="none" stroke="#63b8ff" d="M209.46,-114.42C263.75,-108.66 354.82,-106.08 423,-140.25 451.72,-154.64 473.98,-185.62 486.22,-205.93"/>
<polygon fill="#63b8ff" stroke="#63b8ff" points="483.06,-207.46 491.08,-214.38 489.13,-203.97 483.06,-207.46"/>
</a>
</g>
</g>
<!-- Node11&#45;&gt;Node12 -->
<g id="edge22_Node000011_Node000012" class="edge">
<title>Node11&#45;&gt;Node12</title>
<g id="a_edge22_Node000011_Node000012"><a xlink:title=" ">
<path fill="none" stroke="#63b8ff" d="M209.36,-111.95C236.83,-106.45 271.72,-99.45 300.18,-93.74"/>
<polygon fill="#63b8ff" stroke="#63b8ff" points="300.54,-97.24 309.65,-91.84 299.16,-90.38 300.54,-97.24"/>
</a>
</g>
</g>
<!-- Node12&#45;&gt;Node5 -->
<g id="edge23_Node000012_Node000005" class="edge">
<title>Node12&#45;&gt;Node5</title>
<g id="a_edge23_Node000012_Node000005"><a xlink:title=" ">
<path fill="none" stroke="#63b8ff" d="M385.4,-92.98C397.24,-96.88 410.83,-101.55 423,-106.25 476.36,-126.84 537.02,-154.23 572.68,-170.76"/>
<polygon fill="#63b8ff" stroke="#63b8ff" points="570.99,-173.84 581.53,-174.88 573.94,-167.49 570.99,-173.84"/>
</a>
</g>
</g>
</g>
</svg>
