<?xml version="1.0" encoding="UTF-8" standalone="no"?>
<!DOCTYPE svg PUBLIC "-//W3C//DTD SVG 1.1//EN"
 "http://www.w3.org/Graphics/SVG/1.1/DTD/svg11.dtd">
<!-- Generated by graphviz version 12.1.2 (0)
 -->
<!-- Title: loop Pages: 1 -->
<svg width="541pt" height="419pt"
 viewBox="0.00 0.00 540.75 419.05" xmlns="http://www.w3.org/2000/svg" xmlns:xlink="http://www.w3.org/1999/xlink">
<g id="graph0" class="graph" transform="scale(1 1) rotate(0) translate(4 415.05)">
<title>loop</title>
<!-- Node1 -->
<g id="Node000001" class="node">
<title>Node1</title>
<g id="a_Node000001"><a xlink:title="Main loop for retrieving sensor data and updating the display.">
<polygon fill="#999999" stroke="#666666" points="34,-223.54 0,-223.54 0,-205.04 34,-205.04 34,-223.54"/>
<text text-anchor="middle" x="17" y="-210.04" font-family="Helvetica,sans-Serif" font-size="10.00">loop</text>
</a>
</g>
</g>
<!-- Node2 -->
<g id="Node000002" class="node">
<title>Node2</title>
<g id="a_Node000002"><a xlink:href="classLogger.html#abeffd58a6beace1b1c01a5324227fd83" target="_top" xlink:title="Logs a debug message.">
<polygon fill="white" stroke="#666666" points="397.88,-260.54 320.38,-260.54 320.38,-242.04 397.88,-242.04 397.88,-260.54"/>
<text text-anchor="middle" x="359.12" y="-247.04" font-family="Helvetica,sans-Serif" font-size="10.00">Logger::debug</text>
</a>
</g>
</g>
<!-- Node1&#45;&gt;Node2 -->
<g id="edge1_Node000001_Node000002" class="edge">
<title>Node1&#45;&gt;Node2</title>
<g id="a_edge1_Node000001_Node000002"><a xlink:title=" ">
<path fill="none" stroke="#63b8ff" d="M17.51,-223.96C16.6,-253.42 18.4,-342.39 70,-380.29 134.29,-427.53 177.17,-413.95 249.5,-380.29 298.23,-357.62 332.92,-301.15 348.66,-270.99"/>
<polygon fill="#63b8ff" stroke="#63b8ff" points="351.71,-272.71 353.07,-262.2 345.45,-269.57 351.71,-272.71"/>
</a>
</g>
</g>
<!-- Node4 -->
<g id="Node000004" class="node">
<title>Node4</title>
<g id="a_Node000004"><a xlink:href="classSensorManager.html#ad588608b06513ea5515ea42fac68582a" target="_top" xlink:title="Retrieves the current CO2 reading from the SCD30 sensor.">
<polygon fill="white" stroke="#666666" points="221.75,-371.54 97.75,-371.54 97.75,-353.04 221.75,-353.04 221.75,-371.54"/>
<text text-anchor="middle" x="159.75" y="-358.04" font-family="Helvetica,sans-Serif" font-size="10.00">SensorManager::getCO2</text>
</a>
</g>
</g>
<!-- Node1&#45;&gt;Node4 -->
<g id="edge3_Node000001_Node000004" class="edge">
<title>Node1&#45;&gt;Node4</title>
<g id="a_edge3_Node000001_Node000004"><a xlink:title=" ">
<path fill="none" stroke="#63b8ff" d="M18.86,-223.82C21.56,-247.88 32.12,-311.43 70,-343.29 75.02,-347.52 80.76,-350.87 86.84,-353.52"/>
<polygon fill="#63b8ff" stroke="#63b8ff" points="85.33,-356.7 95.93,-356.84 87.73,-350.12 85.33,-356.7"/>
</a>
</g>
</g>
<!-- Node5 -->
<g id="Node000005" class="node">
<title>Node5</title>
<g id="a_Node000005"><a xlink:href="classSensorManager.html#a9c953b446464788eaaceea974145cd1c" target="_top" xlink:title="Retrieves the current humidity reading from the SCD30 sensor.">
<polygon fill="white" stroke="#666666" points="231.12,-334.54 88.38,-334.54 88.38,-316.04 231.12,-316.04 231.12,-334.54"/>
<text text-anchor="middle" x="159.75" y="-321.04" font-family="Helvetica,sans-Serif" font-size="10.00">SensorManager::getHumidity</text>
</a>
</g>
</g>
<!-- Node1&#45;&gt;Node5 -->
<g id="edge4_Node000001_Node000005" class="edge">
<title>Node1&#45;&gt;Node5</title>
<g id="a_edge4_Node000001_Node000005"><a xlink:title=" ">
<path fill="none" stroke="#63b8ff" d="M20.54,-223.87C26.09,-242.82 41.17,-285.11 70,-306.29 72.47,-308.11 75.09,-309.76 77.8,-311.26"/>
<polygon fill="#63b8ff" stroke="#63b8ff" points="76.1,-314.33 86.64,-315.41 79.07,-307.99 76.1,-314.33"/>
</a>
</g>
</g>
<!-- Node6 -->
<g id="Node000006" class="node">
<title>Node6</title>
<g id="a_Node000006"><a xlink:href="classSensorManager.html#ab621f498c240f93c0d9a7e47cbb669c6" target="_top" xlink:title="Retrieves the current pressure reading from the BMP280 sensor.">
<polygon fill="white" stroke="#666666" points="231.12,-297.54 88.38,-297.54 88.38,-279.04 231.12,-279.04 231.12,-297.54"/>
<text text-anchor="middle" x="159.75" y="-284.04" font-family="Helvetica,sans-Serif" font-size="10.00">SensorManager::getPressure</text>
</a>
</g>
</g>
<!-- Node1&#45;&gt;Node6 -->
<g id="edge5_Node000001_Node000006" class="edge">
<title>Node1&#45;&gt;Node6</title>
<g id="a_edge5_Node000001_Node000006"><a xlink:title=" ">
<path fill="none" stroke="#63b8ff" d="M24.15,-223.73C32.82,-236.21 49.84,-257.96 70,-269.29 73.65,-271.34 77.5,-273.17 81.46,-274.81"/>
<polygon fill="#63b8ff" stroke="#63b8ff" points="80.16,-278.06 90.75,-278.17 82.54,-271.48 80.16,-278.06"/>
</a>
</g>
</g>
<!-- Node7 -->
<g id="Node000007" class="node">
<title>Node7</title>
<g id="a_Node000007"><a xlink:href="classSensorManager.html#aa4207d6b919d2deac9d8b95c6a36f8b9" target="_top" xlink:title="Retrieves the current temperature reading from the BMP280 sensor.">
<polygon fill="white" stroke="#666666" points="249.5,-260.54 70,-260.54 70,-242.04 249.5,-242.04 249.5,-260.54"/>
<text text-anchor="middle" x="159.75" y="-247.04" font-family="Helvetica,sans-Serif" font-size="10.00">SensorManager::getTemperatureBMP</text>
</a>
</g>
</g>
<!-- Node1&#45;&gt;Node7 -->
<g id="edge7_Node000001_Node000007" class="edge">
<title>Node1&#45;&gt;Node7</title>
<g id="a_edge7_Node000001_Node000007"><a xlink:title=" ">
<path fill="none" stroke="#63b8ff" d="M34.23,-220.49C44.41,-224.22 57.85,-228.9 70,-232.29 78.74,-234.73 88.04,-237.03 97.2,-239.14"/>
<polygon fill="#63b8ff" stroke="#63b8ff" points="96.27,-242.52 106.79,-241.27 97.79,-235.68 96.27,-242.52"/>
</a>
</g>
</g>
<!-- Node8 -->
<g id="Node000008" class="node">
<title>Node8</title>
<g id="a_Node000008"><a xlink:href="classSensorManager.html#af817648616e888ab2e88c9eaee153da3" target="_top" xlink:title="Retrieves the current temperature reading from the SCD30 sensor.">
<polygon fill="white" stroke="#666666" points="249.12,-223.54 70.38,-223.54 70.38,-205.04 249.12,-205.04 249.12,-223.54"/>
<text text-anchor="middle" x="159.75" y="-210.04" font-family="Helvetica,sans-Serif" font-size="10.00">SensorManager::getTemperatureSCD</text>
</a>
</g>
</g>
<!-- Node1&#45;&gt;Node8 -->
<g id="edge9_Node000001_Node000008" class="edge">
<title>Node1&#45;&gt;Node8</title>
<g id="a_edge9_Node000001_Node000008"><a xlink:title=" ">
<path fill="none" stroke="#63b8ff" d="M34.42,-214.29C41.2,-214.29 49.64,-214.29 58.92,-214.29"/>
<polygon fill="#63b8ff" stroke="#63b8ff" points="58.63,-217.79 68.63,-214.29 58.63,-210.79 58.63,-217.79"/>
</a>
</g>
</g>
<!-- Node9 -->
<g id="Node000009" class="node">
<title>Node9</title>
<g id="a_Node000009"><a xlink:href="classLogger.html#a0c5851d03ba2e560bfd57aeb713267b3" target="_top" xlink:title="Logs an informational message.">
<polygon fill="white" stroke="#666666" points="392.62,-149.54 325.62,-149.54 325.62,-131.04 392.62,-131.04 392.62,-149.54"/>
<text text-anchor="middle" x="359.12" y="-136.04" font-family="Helvetica,sans-Serif" font-size="10.00">Logger::info</text>
</a>
</g>
</g>
<!-- Node1&#45;&gt;Node9 -->
<g id="edge10_Node000001_Node000009" class="edge">
<title>Node1&#45;&gt;Node9</title>
<g id="a_edge10_Node000001_Node000009"><a xlink:title=" ">
<path fill="none" stroke="#63b8ff" d="M23.65,-204.86C31.96,-191.95 48.83,-169.25 70,-159.29 149.74,-121.79 255.82,-126.83 314.47,-133.67"/>
<polygon fill="#63b8ff" stroke="#63b8ff" points="313.69,-137.1 324.04,-134.87 314.55,-130.16 313.69,-137.1"/>
</a>
</g>
</g>
<!-- Node10 -->
<g id="Node000010" class="node">
<title>Node10</title>
<g id="a_Node000010"><a xlink:href="classSensorManager.html#a4fa7cbb9b36b933c0ca03553ba4db966" target="_top" xlink:title="Checks if new data is available from the sensors.">
<polygon fill="white" stroke="#666666" points="237.88,-186.54 81.62,-186.54 81.62,-168.04 237.88,-168.04 237.88,-186.54"/>
<text text-anchor="middle" x="159.75" y="-173.04" font-family="Helvetica,sans-Serif" font-size="10.00">SensorManager::isDataAvailable</text>
</a>
</g>
</g>
<!-- Node1&#45;&gt;Node10 -->
<g id="edge12_Node000001_Node000010" class="edge">
<title>Node1&#45;&gt;Node10</title>
<g id="a_edge12_Node000001_Node000010"><a xlink:title=" ">
<path fill="none" stroke="#63b8ff" d="M34.23,-208.1C44.41,-204.36 57.85,-199.68 70,-196.29 78.74,-193.85 88.04,-191.55 97.2,-189.45"/>
<polygon fill="#63b8ff" stroke="#63b8ff" points="97.79,-192.9 106.79,-187.31 96.27,-186.07 97.79,-192.9"/>
</a>
</g>
</g>
<!-- Node11 -->
<g id="Node000011" class="node">
<title>Node11</title>
<g id="a_Node000011"><a xlink:href="classDisplayManager.html#af8a5a8ee843f0ccc7bf50dc94ff2d529" target="_top" xlink:title="Displays a blinking warning message on the screen.">
<polygon fill="white" stroke="#666666" points="234.88,-111.79 84.62,-111.79 84.62,-82.79 234.88,-82.79 234.88,-111.79"/>
<text text-anchor="start" x="92.62" y="-98.29" font-family="Helvetica,sans-Serif" font-size="10.00">DisplayManager::showBlinking</text>
<text text-anchor="middle" x="159.75" y="-87.79" font-family="Helvetica,sans-Serif" font-size="10.00">Warning</text>
</a>
</g>
</g>
<!-- Node1&#45;&gt;Node11 -->
<g id="edge14_Node000001_Node000011" class="edge">
<title>Node1&#45;&gt;Node11</title>
<g id="a_edge14_Node000001_Node000011"><a xlink:title=" ">
<path fill="none" stroke="#63b8ff" d="M21.05,-204.82C27.3,-186.86 43.29,-147.73 70,-126.29 74.39,-122.77 79.22,-119.67 84.3,-116.94"/>
<polygon fill="#63b8ff" stroke="#63b8ff" points="85.44,-120.27 92.94,-112.79 82.41,-113.96 85.44,-120.27"/>
</a>
</g>
</g>
<!-- Node12 -->
<g id="Node000012" class="node">
<title>Node12</title>
<g id="a_Node000012"><a xlink:href="classDisplayManager.html#a430456b5a894ff7d63b62324007cb3ce" target="_top" xlink:title="Displays the normal screen with sensor readings.">
<polygon fill="white" stroke="#666666" points="432.75,-92.79 285.5,-92.79 285.5,-63.79 432.75,-63.79 432.75,-92.79"/>
<text text-anchor="start" x="293.5" y="-79.29" font-family="Helvetica,sans-Serif" font-size="10.00">DisplayManager::showNormal</text>
<text text-anchor="middle" x="359.12" y="-68.79" font-family="Helvetica,sans-Serif" font-size="10.00">Screen</text>
</a>
</g>
</g>
<!-- Node1&#45;&gt;Node12 -->
<g id="edge16_Node000001_Node000012" class="edge">
<title>Node1&#45;&gt;Node12</title>
<g id="a_edge16_Node000001_Node000012"><a xlink:title=" ">
<path fill="none" stroke="#63b8ff" d="M18.13,-204.62C19.07,-178.26 25.72,-105.08 70,-74.29 139.07,-26.27 241.71,-43.06 304.03,-60.24"/>
<polygon fill="#63b8ff" stroke="#63b8ff" points="302.77,-63.52 313.34,-62.91 304.69,-56.79 302.77,-63.52"/>
</a>
</g>
</g>
<!-- Node13 -->
<g id="Node000013" class="node">
<title>Node13</title>
<g id="a_Node000013"><a xlink:href="classLogger.html#a4d229b17ee039e273686455c74382ec6" target="_top" xlink:title="Logs a warning message.">
<polygon fill="white" stroke="#666666" points="401.25,-35.54 317,-35.54 317,-17.04 401.25,-17.04 401.25,-35.54"/>
<text text-anchor="middle" x="359.12" y="-22.04" font-family="Helvetica,sans-Serif" font-size="10.00">Logger::warning</text>
</a>
</g>
</g>
<!-- Node1&#45;&gt;Node13 -->
<g id="edge17_Node000001_Node000013" class="edge">
<title>Node1&#45;&gt;Node13</title>
<g id="a_edge17_Node000001_Node000013"><a xlink:title=" ">
<path fill="none" stroke="#63b8ff" d="M17.41,-204.66C16.13,-174.41 16.81,-80.87 70,-39.29 140.37,15.72 252.58,0.38 314.15,-13.99"/>
<polygon fill="#63b8ff" stroke="#63b8ff" points="313.02,-17.31 323.56,-16.28 314.68,-10.51 313.02,-17.31"/>
</a>
</g>
</g>
<!-- Node3 -->
<g id="Node000003" class="node">
<title>Node3</title>
<g id="a_Node000003"><a xlink:href="classLogger.html#af0dc4ff68b6d37026b9f6c7a51da6aaa" target="_top" xlink:title="Logs a message if it meets the current log level.">
<polygon fill="white" stroke="#666666" points="532.75,-149.54 468.75,-149.54 468.75,-131.04 532.75,-131.04 532.75,-149.54"/>
<text text-anchor="middle" x="500.75" y="-136.04" font-family="Helvetica,sans-Serif" font-size="10.00">Logger::log</text>
</a>
</g>
</g>
<!-- Node2&#45;&gt;Node3 -->
<g id="edge2_Node000002_Node000003" class="edge">
<title>Node2&#45;&gt;Node3</title>
<g id="a_edge2_Node000002_Node000003"><a xlink:title=" ">
<path fill="none" stroke="#63b8ff" d="M372.03,-241.83C395.83,-222.91 449.55,-180.2 479.17,-156.65"/>
<polygon fill="#63b8ff" stroke="#63b8ff" points="481.04,-159.64 486.69,-150.67 476.69,-154.16 481.04,-159.64"/>
</a>
</g>
</g>
<!-- Node6&#45;&gt;Node2 -->
<g id="edge6_Node000006_Node000002" class="edge">
<title>Node6&#45;&gt;Node2</title>
<g id="a_edge6_Node000006_Node000002"><a xlink:title=" ">
<path fill="none" stroke="#63b8ff" d="M212.61,-278.57C242.35,-273 279.49,-266.03 308.8,-260.54"/>
<polygon fill="#63b8ff" stroke="#63b8ff" points="309.35,-264 318.53,-258.71 308.06,-257.12 309.35,-264"/>
</a>
</g>
</g>
<!-- Node7&#45;&gt;Node2 -->
<g id="edge8_Node000007_Node000002" class="edge">
<title>Node7&#45;&gt;Node2</title>
<g id="a_edge8_Node000007_Node000002"><a xlink:title=" ">
<path fill="none" stroke="#63b8ff" d="M249.91,-251.29C270.19,-251.29 291.01,-251.29 308.91,-251.29"/>
<polygon fill="#63b8ff" stroke="#63b8ff" points="308.7,-254.79 318.7,-251.29 308.7,-247.79 308.7,-254.79"/>
</a>
</g>
</g>
<!-- Node9&#45;&gt;Node3 -->
<g id="edge11_Node000009_Node000003" class="edge">
<title>Node9&#45;&gt;Node3</title>
<g id="a_edge11_Node000009_Node000003"><a xlink:title=" ">
<path fill="none" stroke="#63b8ff" d="M392.86,-140.29C412.09,-140.29 436.6,-140.29 457.29,-140.29"/>
<polygon fill="#63b8ff" stroke="#63b8ff" points="457.14,-143.79 467.14,-140.29 457.14,-136.79 457.14,-143.79"/>
</a>
</g>
</g>
<!-- Node10&#45;&gt;Node2 -->
<g id="edge13_Node000010_Node000002" class="edge">
<title>Node10&#45;&gt;Node2</title>
<g id="a_edge13_Node000010_Node000002"><a xlink:title=" ">
<path fill="none" stroke="#63b8ff" d="M216.75,-186.99C227.75,-189.53 239.1,-192.62 249.5,-196.29 279.17,-206.78 311.06,-223.67 332.56,-235.96"/>
<polygon fill="#63b8ff" stroke="#63b8ff" points="330.79,-238.99 341.2,-240.99 334.31,-232.94 330.79,-238.99"/>
</a>
</g>
</g>
<!-- Node11&#45;&gt;Node12 -->
<g id="edge15_Node000011_Node000012" class="edge">
<title>Node11&#45;&gt;Node12</title>
<g id="a_edge15_Node000011_Node000012"><a xlink:title=" ">
<path fill="none" stroke="#63b8ff" d="M235.37,-90.11C247.95,-88.9 261.09,-87.63 273.89,-86.4"/>
<polygon fill="#63b8ff" stroke="#63b8ff" points="273.91,-89.92 283.53,-85.47 273.24,-82.95 273.91,-89.92"/>
</a>
</g>
</g>
<!-- Node13&#45;&gt;Node3 -->
<g id="edge18_Node000013_Node000003" class="edge">
<title>Node13&#45;&gt;Node3</title>
<g id="a_edge18_Node000013_Node000003"><a xlink:title=" ">
<path fill="none" stroke="#63b8ff" d="M394.94,-36.02C407.6,-40.59 421.55,-46.92 432.75,-55.29 456.9,-73.33 477.09,-102.14 488.8,-121.13"/>
<polygon fill="#63b8ff" stroke="#63b8ff" points="485.65,-122.68 493.77,-129.49 491.67,-119.11 485.65,-122.68"/>
</a>
</g>
</g>
</g>
</svg>
