<?xml version="1.0" encoding="UTF-8" standalone="no"?>
<!DOCTYPE svg PUBLIC "-//W3C//DTD SVG 1.1//EN"
 "http://www.w3.org/Graphics/SVG/1.1/DTD/svg11.dtd">
<!-- Generated by graphviz version 12.1.2 (0)
 -->
<!-- Title: src/main.cpp Pages: 1 -->
<svg width="858pt" height="201pt"
 viewBox="0.00 0.00 857.50 200.50" xmlns="http://www.w3.org/2000/svg" xmlns:xlink="http://www.w3.org/1999/xlink">
<g id="graph0" class="graph" transform="scale(1 1) rotate(0) translate(4 196.5)">
<title>src/main.cpp</title>
<!-- Node1 -->
<g id="Node000001" class="node">
<title>Node1</title>
<g id="a_Node000001"><a xlink:title="Main entry point for the CO2 Meter application.">
<polygon fill="#999999" stroke="#666666" points="468.5,-192.5 396.25,-192.5 396.25,-174 468.5,-174 468.5,-192.5"/>
<text text-anchor="middle" x="432.38" y="-179" font-family="Helvetica,sans-Serif" font-size="10.00">src/main.cpp</text>
</a>
</g>
</g>
<!-- Node2 -->
<g id="Node000002" class="node">
<title>Node2</title>
<g id="a_Node000002"><a xlink:title=" ">
<polygon fill="#e0e0e0" stroke="#999999" points="383.62,-78.25 339.12,-78.25 339.12,-59.75 383.62,-59.75 383.62,-78.25"/>
<text text-anchor="middle" x="361.38" y="-64.75" font-family="Helvetica,sans-Serif" font-size="10.00">Wire.h</text>
</a>
</g>
</g>
<!-- Node1&#45;&gt;Node2 -->
<g id="edge1_Node000001_Node000002" class="edge">
<title>Node1&#45;&gt;Node2</title>
<g id="a_edge1_Node000001_Node000002"><a xlink:title=" ">
<path fill="none" stroke="#63b8ff" d="M400.93,-173.56C383.32,-166.91 362.86,-155.77 352.38,-138 343.68,-123.25 347.59,-103.63 352.69,-89.25"/>
<polygon fill="#63b8ff" stroke="#63b8ff" points="355.91,-90.62 356.43,-80.03 349.42,-87.98 355.91,-90.62"/>
</a>
</g>
</g>
<!-- Node3 -->
<g id="Node000003" class="node">
<title>Node3</title>
<g id="a_Node000003"><a xlink:title=" ">
<polygon fill="#e0e0e0" stroke="#999999" points="765.12,-138 681.62,-138 681.62,-119.5 765.12,-119.5 765.12,-138"/>
<text text-anchor="middle" x="723.38" y="-124.5" font-family="Helvetica,sans-Serif" font-size="10.00">Adafruit_GFX.h</text>
</a>
</g>
</g>
<!-- Node1&#45;&gt;Node3 -->
<g id="edge2_Node000001_Node000003" class="edge">
<title>Node1&#45;&gt;Node3</title>
<g id="a_edge2_Node000001_Node000003"><a xlink:title=" ">
<path fill="none" stroke="#63b8ff" d="M468.94,-175.65C519.74,-166.49 612,-149.84 670.36,-139.31"/>
<polygon fill="#63b8ff" stroke="#63b8ff" points="670.85,-142.78 680.07,-137.56 669.61,-135.89 670.85,-142.78"/>
</a>
</g>
</g>
<!-- Node4 -->
<g id="Node000004" class="node">
<title>Node4</title>
<g id="a_Node000004"><a xlink:title=" ">
<polygon fill="#e0e0e0" stroke="#999999" points="620,-78.25 514.75,-78.25 514.75,-59.75 620,-59.75 620,-78.25"/>
<text text-anchor="middle" x="567.38" y="-64.75" font-family="Helvetica,sans-Serif" font-size="10.00">Adafruit_SSD1306.h</text>
</a>
</g>
</g>
<!-- Node1&#45;&gt;Node4 -->
<g id="edge3_Node000001_Node000004" class="edge">
<title>Node1&#45;&gt;Node4</title>
<g id="a_edge3_Node000001_Node000004"><a xlink:title=" ">
<path fill="none" stroke="#63b8ff" d="M468.78,-177.59C512.22,-171.19 580.95,-158.13 596.38,-138 608.15,-122.62 595.96,-101.74 583.97,-87.19"/>
<polygon fill="#63b8ff" stroke="#63b8ff" points="586.65,-84.93 577.38,-79.79 581.42,-89.59 586.65,-84.93"/>
</a>
</g>
</g>
<!-- Node5 -->
<g id="Node000005" class="node">
<title>Node5</title>
<g id="a_Node000005"><a xlink:title=" ">
<polygon fill="#e0e0e0" stroke="#999999" points="100.75,-78.25 0,-78.25 0,-59.75 100.75,-59.75 100.75,-78.25"/>
<text text-anchor="middle" x="50.38" y="-64.75" font-family="Helvetica,sans-Serif" font-size="10.00">Adafruit_BMP280.h</text>
</a>
</g>
</g>
<!-- Node1&#45;&gt;Node5 -->
<g id="edge4_Node000001_Node000005" class="edge">
<title>Node1&#45;&gt;Node5</title>
<g id="a_edge4_Node000001_Node000005"><a xlink:title=" ">
<path fill="none" stroke="#63b8ff" d="M395.87,-181.13C341.85,-178.43 238.21,-169.24 156.38,-138 123.37,-125.4 89.81,-101.62 69.53,-85.79"/>
<polygon fill="#63b8ff" stroke="#63b8ff" points="71.89,-83.19 61.89,-79.69 67.52,-88.66 71.89,-83.19"/>
</a>
</g>
</g>
<!-- Node6 -->
<g id="Node000006" class="node">
<title>Node6</title>
<g id="a_Node000006"><a xlink:title=" ">
<polygon fill="#e0e0e0" stroke="#999999" points="252.25,-83.5 118.5,-83.5 118.5,-54.5 252.25,-54.5 252.25,-83.5"/>
<text text-anchor="start" x="126.5" y="-70" font-family="Helvetica,sans-Serif" font-size="10.00">SparkFun_SCD30_Arduino</text>
<text text-anchor="middle" x="185.38" y="-59.5" font-family="Helvetica,sans-Serif" font-size="10.00">_Library.h</text>
</a>
</g>
</g>
<!-- Node1&#45;&gt;Node6 -->
<g id="edge5_Node000001_Node000006" class="edge">
<title>Node1&#45;&gt;Node6</title>
<g id="a_edge5_Node000001_Node000006"><a xlink:title=" ">
<path fill="none" stroke="#63b8ff" d="M396,-181.76C330.18,-180.01 195.39,-172.24 166.38,-138 155.85,-125.58 161.36,-107.75 169.09,-93.47"/>
<polygon fill="#63b8ff" stroke="#63b8ff" points="171.96,-95.48 174.14,-85.11 165.97,-91.86 171.96,-95.48"/>
</a>
</g>
</g>
<!-- Node7 -->
<g id="Node000007" class="node">
<title>Node7</title>
<g id="a_Node000007"><a xlink:title=" ">
<polygon fill="#e0e0e0" stroke="#999999" points="849.5,-138 783.25,-138 783.25,-119.5 849.5,-119.5 849.5,-138"/>
<text text-anchor="middle" x="816.38" y="-124.5" font-family="Helvetica,sans-Serif" font-size="10.00">EEPROM.h</text>
</a>
</g>
</g>
<!-- Node1&#45;&gt;Node7 -->
<g id="edge6_Node000001_Node000007" class="edge">
<title>Node1&#45;&gt;Node7</title>
<g id="a_edge6_Node000001_Node000007"><a xlink:title=" ">
<path fill="none" stroke="#63b8ff" d="M468.93,-178.31C529.66,-171.6 655.4,-156.98 771.72,-138.34"/>
<polygon fill="#63b8ff" stroke="#63b8ff" points="772.13,-141.82 781.45,-136.76 771.01,-134.91 772.13,-141.82"/>
</a>
</g>
</g>
<!-- Node8 -->
<g id="Node000008" class="node">
<title>Node8</title>
<g id="a_Node000008"><a xlink:href="config_8h_source.html" target="_top" xlink:title=" ">
<polygon fill="white" stroke="#666666" points="320.62,-78.25 270.12,-78.25 270.12,-59.75 320.62,-59.75 320.62,-78.25"/>
<text text-anchor="middle" x="295.38" y="-64.75" font-family="Helvetica,sans-Serif" font-size="10.00">config.h</text>
</a>
</g>
</g>
<!-- Node1&#45;&gt;Node8 -->
<g id="edge7_Node000001_Node000008" class="edge">
<title>Node1&#45;&gt;Node8</title>
<g id="a_edge7_Node000001_Node000008"><a xlink:title=" ">
<path fill="none" stroke="#63b8ff" d="M407.01,-173.54C388.04,-166.15 362.24,-154.17 343.38,-138 327.11,-124.06 313.59,-103.47 305.09,-88.6"/>
<polygon fill="#63b8ff" stroke="#63b8ff" points="308.19,-86.98 300.33,-79.88 302.05,-90.33 308.19,-86.98"/>
</a>
</g>
</g>
<!-- Node9 -->
<g id="Node000009" class="node">
<title>Node9</title>
<g id="a_Node000009"><a xlink:href="DisplayManager_8h_source.html" target="_top" xlink:title=" ">
<polygon fill="white" stroke="#666666" points="587.75,-138 493,-138 493,-119.5 587.75,-119.5 587.75,-138"/>
<text text-anchor="middle" x="540.38" y="-124.5" font-family="Helvetica,sans-Serif" font-size="10.00">DisplayManager.h</text>
</a>
</g>
</g>
<!-- Node1&#45;&gt;Node9 -->
<g id="edge8_Node000001_Node000009" class="edge">
<title>Node1&#45;&gt;Node9</title>
<g id="a_edge8_Node000001_Node000009"><a xlink:title=" ">
<path fill="none" stroke="#63b8ff" d="M450.21,-173.58C467.09,-165.37 492.71,-152.92 512.33,-143.39"/>
<polygon fill="#63b8ff" stroke="#63b8ff" points="513.69,-146.61 521.15,-139.09 510.63,-140.32 513.69,-146.61"/>
</a>
</g>
</g>
<!-- Node10 -->
<g id="Node000010" class="node">
<title>Node10</title>
<g id="a_Node000010"><a xlink:href="Logger_8h.html" target="_top" xlink:title="Provides logging functionality with different log levels for debugging and monitoring.">
<polygon fill="white" stroke="#666666" points="492.12,-78.25 438.62,-78.25 438.62,-59.75 492.12,-59.75 492.12,-78.25"/>
<text text-anchor="middle" x="465.38" y="-64.75" font-family="Helvetica,sans-Serif" font-size="10.00">Logger.h</text>
</a>
</g>
</g>
<!-- Node1&#45;&gt;Node10 -->
<g id="edge18_Node000001_Node000010" class="edge">
<title>Node1&#45;&gt;Node10</title>
<g id="a_edge18_Node000001_Node000010"><a xlink:title=" ">
<path fill="none" stroke="#63b8ff" d="M435.14,-173.79C438.03,-164.91 442.65,-150.51 446.38,-138 451.25,-121.63 456.45,-102.93 460.17,-89.29"/>
<polygon fill="#63b8ff" stroke="#63b8ff" points="463.49,-90.43 462.73,-79.86 456.73,-88.6 463.49,-90.43"/>
</a>
</g>
</g>
<!-- Node11 -->
<g id="Node000011" class="node">
<title>Node11</title>
<g id="a_Node000011"><a xlink:title=" ">
<polygon fill="#e0e0e0" stroke="#999999" points="588,-18.5 530.75,-18.5 530.75,0 588,0 588,-18.5"/>
<text text-anchor="middle" x="559.38" y="-5" font-family="Helvetica,sans-Serif" font-size="10.00">Arduino.h</text>
</a>
</g>
</g>
<!-- Node1&#45;&gt;Node11 -->
<g id="edge19_Node000001_Node000011" class="edge">
<title>Node1&#45;&gt;Node11</title>
<g id="a_edge19_Node000001_Node000011"><a xlink:title=" ">
<path fill="none" stroke="#63b8ff" d="M468.87,-177.56C515.28,-170.89 591.86,-157.29 612.38,-138 639.96,-112.05 647.65,-87.67 629.38,-54.5 621.8,-40.75 607.96,-30.68 594.57,-23.65"/>
<polygon fill="#63b8ff" stroke="#63b8ff" points="596.43,-20.66 585.89,-19.51 593.41,-26.98 596.43,-20.66"/>
</a>
</g>
</g>
<!-- Node12 -->
<g id="Node000012" class="node">
<title>Node12</title>
<g id="a_Node000012"><a xlink:href="SensorManager_8h.html" target="_top" xlink:title="Manages the initialization, calibration, and data retrieval from sensors.">
<polygon fill="white" stroke="#666666" points="267.62,-138 175.12,-138 175.12,-119.5 267.62,-119.5 267.62,-138"/>
<text text-anchor="middle" x="221.38" y="-124.5" font-family="Helvetica,sans-Serif" font-size="10.00">SensorManager.h</text>
</a>
</g>
</g>
<!-- Node1&#45;&gt;Node12 -->
<g id="edge12_Node000001_Node000012" class="edge">
<title>Node1&#45;&gt;Node12</title>
<g id="a_edge12_Node000001_Node000012"><a xlink:title=" ">
<path fill="none" stroke="#63b8ff" d="M397.53,-173.58C361.95,-164.73 306.52,-150.94 267.36,-141.19"/>
<polygon fill="#63b8ff" stroke="#63b8ff" points="268.29,-137.82 257.74,-138.8 266.6,-144.61 268.29,-137.82"/>
</a>
</g>
</g>
<!-- Node13 -->
<g id="Node000013" class="node">
<title>Node13</title>
<g id="a_Node000013"><a xlink:href="I2CScanner_8h.html" target="_top" xlink:title="Provides functionality to scan the I2C bus for connected devices.">
<polygon fill="white" stroke="#666666" points="437,-138 361.75,-138 361.75,-119.5 437,-119.5 437,-138"/>
<text text-anchor="middle" x="399.38" y="-124.5" font-family="Helvetica,sans-Serif" font-size="10.00">I2CScanner.h</text>
</a>
</g>
</g>
<!-- Node1&#45;&gt;Node13 -->
<g id="edge20_Node000001_Node000013" class="edge">
<title>Node1&#45;&gt;Node13</title>
<g id="a_edge20_Node000001_Node000013"><a xlink:title=" ">
<path fill="none" stroke="#63b8ff" d="M426.93,-173.58C422.55,-166.62 416.26,-156.62 410.8,-147.92"/>
<polygon fill="#63b8ff" stroke="#63b8ff" points="413.81,-146.14 405.53,-139.54 407.89,-149.87 413.81,-146.14"/>
</a>
</g>
</g>
<!-- Node9&#45;&gt;Node4 -->
<g id="edge9_Node000009_Node000004" class="edge">
<title>Node9&#45;&gt;Node4</title>
<g id="a_edge9_Node000009_Node000004"><a xlink:title=" ">
<path fill="none" stroke="#63b8ff" d="M544.36,-119.23C548.07,-111.3 553.73,-99.19 558.5,-88.97"/>
<polygon fill="#63b8ff" stroke="#63b8ff" points="561.67,-90.47 562.73,-79.93 555.33,-87.5 561.67,-90.47"/>
</a>
</g>
</g>
<!-- Node9&#45;&gt;Node10 -->
<g id="edge10_Node000009_Node000010" class="edge">
<title>Node9&#45;&gt;Node10</title>
<g id="a_edge10_Node000009_Node000010"><a xlink:title=" ">
<path fill="none" stroke="#63b8ff" d="M529.31,-119.23C517.79,-110.36 499.49,-96.27 485.42,-85.43"/>
<polygon fill="#63b8ff" stroke="#63b8ff" points="487.74,-82.81 477.69,-79.48 483.47,-88.35 487.74,-82.81"/>
</a>
</g>
</g>
<!-- Node10&#45;&gt;Node11 -->
<g id="edge11_Node000010_Node000011" class="edge">
<title>Node10&#45;&gt;Node11</title>
<g id="a_edge11_Node000010_Node000011"><a xlink:title=" ">
<path fill="none" stroke="#63b8ff" d="M479.25,-59.48C494.02,-50.4 517.67,-35.87 535.46,-24.94"/>
<polygon fill="#63b8ff" stroke="#63b8ff" points="537.16,-28 543.85,-19.79 533.5,-22.04 537.16,-28"/>
</a>
</g>
</g>
<!-- Node12&#45;&gt;Node2 -->
<g id="edge16_Node000012_Node000002" class="edge">
<title>Node12&#45;&gt;Node2</title>
<g id="a_edge16_Node000012_Node000002"><a xlink:title=" ">
<path fill="none" stroke="#63b8ff" d="M242.92,-119C264.74,-110.12 299.44,-95.95 329.38,-83.5 329.72,-83.36 330.07,-83.21 330.41,-83.07"/>
<polygon fill="#63b8ff" stroke="#63b8ff" points="331.46,-86.42 339.34,-79.33 328.76,-79.97 331.46,-86.42"/>
</a>
</g>
</g>
<!-- Node12&#45;&gt;Node5 -->
<g id="edge15_Node000012_Node000005" class="edge">
<title>Node12&#45;&gt;Node5</title>
<g id="a_edge15_Node000012_Node000005"><a xlink:title=" ">
<path fill="none" stroke="#63b8ff" d="M195.77,-119.1C166.81,-109.32 119.42,-93.32 86.65,-82.25"/>
<polygon fill="#63b8ff" stroke="#63b8ff" points="88.18,-79.07 77.58,-79.19 85.94,-85.7 88.18,-79.07"/>
</a>
</g>
</g>
<!-- Node12&#45;&gt;Node6 -->
<g id="edge14_Node000012_Node000006" class="edge">
<title>Node12&#45;&gt;Node6</title>
<g id="a_edge14_Node000012_Node000006"><a xlink:title=" ">
<path fill="none" stroke="#63b8ff" d="M216.06,-119.23C211.86,-112.48 205.77,-102.72 200.12,-93.66"/>
<polygon fill="#63b8ff" stroke="#63b8ff" points="203.12,-91.85 194.86,-85.22 197.18,-95.56 203.12,-91.85"/>
</a>
</g>
</g>
<!-- Node12&#45;&gt;Node8 -->
<g id="edge17_Node000012_Node000008" class="edge">
<title>Node12&#45;&gt;Node8</title>
<g id="a_edge17_Node000012_Node000008"><a xlink:title=" ">
<path fill="none" stroke="#63b8ff" d="M232.29,-119.23C243.66,-110.36 261.71,-96.27 275.6,-85.43"/>
<polygon fill="#63b8ff" stroke="#63b8ff" points="277.49,-88.4 283.22,-79.49 273.18,-82.88 277.49,-88.4"/>
</a>
</g>
</g>
<!-- Node12&#45;&gt;Node10 -->
<g id="edge13_Node000012_Node000010" class="edge">
<title>Node12&#45;&gt;Node10</title>
<g id="a_edge13_Node000012_Node000010"><a xlink:title=" ">
<path fill="none" stroke="#63b8ff" d="M258.17,-119.04C303.82,-108.24 381.28,-89.9 427.45,-78.98"/>
<polygon fill="#63b8ff" stroke="#63b8ff" points="428.08,-82.42 437.01,-76.71 426.47,-75.61 428.08,-82.42"/>
</a>
</g>
</g>
<!-- Node13&#45;&gt;Node2 -->
<g id="edge21_Node000013_Node000002" class="edge">
<title>Node13&#45;&gt;Node2</title>
<g id="a_edge21_Node000013_Node000002"><a xlink:title=" ">
<path fill="none" stroke="#63b8ff" d="M393.77,-119.23C388.38,-111.04 380.07,-98.41 373.21,-87.99"/>
<polygon fill="#63b8ff" stroke="#63b8ff" points="376.26,-86.25 367.84,-79.82 370.41,-90.1 376.26,-86.25"/>
</a>
</g>
</g>
<!-- Node13&#45;&gt;Node10 -->
<g id="edge22_Node000013_Node000010" class="edge">
<title>Node13&#45;&gt;Node10</title>
<g id="a_edge22_Node000013_Node000010"><a xlink:title=" ">
<path fill="none" stroke="#63b8ff" d="M409.11,-119.23C419.06,-110.53 434.73,-96.81 447.02,-86.06"/>
<polygon fill="#63b8ff" stroke="#63b8ff" points="449.24,-88.77 454.46,-79.55 444.63,-83.5 449.24,-88.77"/>
</a>
</g>
</g>
</g>
</svg>
