<?xml version="1.0" encoding="UTF-8" standalone="no"?>
<!DOCTYPE svg PUBLIC "-//W3C//DTD SVG 1.1//EN"
 "http://www.w3.org/Graphics/SVG/1.1/DTD/svg11.dtd">
<!-- Generated by graphviz version 12.1.2 (0)
 -->
<!-- Title: include/SensorManager.h Pages: 1 -->
<svg width="218pt" height="81pt"
 viewBox="0.00 0.00 217.88 81.00" xmlns="http://www.w3.org/2000/svg" xmlns:xlink="http://www.w3.org/1999/xlink">
<g id="graph0" class="graph" transform="scale(1 1) rotate(0) translate(4 77)">
<title>include/SensorManager.h</title>
<!-- Node1 -->
<g id="Node000001" class="node">
<title>Node1</title>
<g id="a_Node000001"><a xlink:title="Manages the initialization, calibration, and data retrieval from sensors.">
<polygon fill="#999999" stroke="#666666" points="179.88,-73 53.62,-73 53.62,-54.5 179.88,-54.5 179.88,-73"/>
<text text-anchor="middle" x="116.75" y="-59.5" font-family="Helvetica,sans-Serif" font-size="10.00">include/SensorManager.h</text>
</a>
</g>
</g>
<!-- Node2 -->
<g id="Node000002" class="node">
<title>Node2</title>
<g id="a_Node000002"><a xlink:href="SensorManager_8cpp.html" target="_top" xlink:title="Implements the functionality for managing the SCD30 and BMP280 sensors.">
<polygon fill="white" stroke="#666666" points="119.5,-18.5 0,-18.5 0,0 119.5,0 119.5,-18.5"/>
<text text-anchor="middle" x="59.75" y="-5" font-family="Helvetica,sans-Serif" font-size="10.00">src/SensorManager.cpp</text>
</a>
</g>
</g>
<!-- Node1&#45;&gt;Node2 -->
<g id="edge1_Node000001_Node000002" class="edge">
<title>Node1&#45;&gt;Node2</title>
<g id="a_edge1_Node000001_Node000002"><a xlink:title=" ">
<path fill="none" stroke="#63b8ff" d="M98.96,-46.36C89.03,-37.22 77.07,-26.2 68.99,-18.76"/>
<polygon fill="#63b8ff" stroke="#63b8ff" points="96.5,-48.85 106.22,-53.06 101.24,-43.71 96.5,-48.85"/>
</a>
</g>
</g>
<!-- Node3 -->
<g id="Node000003" class="node">
<title>Node3</title>
<g id="a_Node000003"><a xlink:href="main_8cpp.html" target="_top" xlink:title="Main entry point for the CO2 Meter application.">
<polygon fill="white" stroke="#666666" points="209.88,-18.5 137.62,-18.5 137.62,0 209.88,0 209.88,-18.5"/>
<text text-anchor="middle" x="173.75" y="-5" font-family="Helvetica,sans-Serif" font-size="10.00">src/main.cpp</text>
</a>
</g>
</g>
<!-- Node1&#45;&gt;Node3 -->
<g id="edge2_Node000001_Node000003" class="edge">
<title>Node1&#45;&gt;Node3</title>
<g id="a_edge2_Node000001_Node000003"><a xlink:title=" ">
<path fill="none" stroke="#63b8ff" d="M134.54,-46.36C144.47,-37.22 156.43,-26.2 164.51,-18.76"/>
<polygon fill="#63b8ff" stroke="#63b8ff" points="132.26,-43.71 127.28,-53.06 137,-48.85 132.26,-43.71"/>
</a>
</g>
</g>
</g>
</svg>
