<?xml version="1.0" encoding="UTF-8" standalone="no"?>
<!DOCTYPE svg PUBLIC "-//W3C//DTD SVG 1.1//EN"
 "http://www.w3.org/Graphics/SVG/1.1/DTD/svg11.dtd">
<!-- Generated by graphviz version 12.1.2 (0)
 -->
<!-- Title: src/SensorManager.cpp Pages: 1 -->
<svg width="497pt" height="201pt"
 viewBox="0.00 0.00 496.75 200.50" xmlns="http://www.w3.org/2000/svg" xmlns:xlink="http://www.w3.org/1999/xlink">
<g id="graph0" class="graph" transform="scale(1 1) rotate(0) translate(4 196.5)">
<title>src/SensorManager.cpp</title>
<!-- Node1 -->
<g id="Node000001" class="node">
<title>Node1</title>
<g id="a_Node000001"><a xlink:title="Implements the functionality for managing the SCD30 and BMP280 sensors.">
<polygon fill="#999999" stroke="#666666" points="416.38,-192.5 296.88,-192.5 296.88,-174 416.38,-174 416.38,-192.5"/>
<text text-anchor="middle" x="356.62" y="-179" font-family="Helvetica,sans-Serif" font-size="10.00">src/SensorManager.cpp</text>
</a>
</g>
</g>
<!-- Node2 -->
<g id="Node000002" class="node">
<title>Node2</title>
<g id="a_Node000002"><a xlink:href="SensorManager_8h.html" target="_top" xlink:title="Manages the initialization, calibration, and data retrieval from sensors.">
<polygon fill="white" stroke="#666666" points="312.88,-138 220.38,-138 220.38,-119.5 312.88,-119.5 312.88,-138"/>
<text text-anchor="middle" x="266.62" y="-124.5" font-family="Helvetica,sans-Serif" font-size="10.00">SensorManager.h</text>
</a>
</g>
</g>
<!-- Node1&#45;&gt;Node2 -->
<g id="edge1_Node000001_Node000002" class="edge">
<title>Node1&#45;&gt;Node2</title>
<g id="a_edge1_Node000001_Node000002"><a xlink:title=" ">
<path fill="none" stroke="#63b8ff" d="M341.76,-173.58C328.08,-165.6 307.53,-153.61 291.37,-144.19"/>
<polygon fill="#63b8ff" stroke="#63b8ff" points="293.22,-141.21 282.82,-139.19 289.69,-147.26 293.22,-141.21"/>
</a>
</g>
</g>
<!-- Node3 -->
<g id="Node000003" class="node">
<title>Node3</title>
<g id="a_Node000003"><a xlink:href="Logger_8h.html" target="_top" xlink:title="Provides logging functionality with different log levels for debugging and monitoring.">
<polygon fill="white" stroke="#666666" points="55.38,-78.25 1.87,-78.25 1.87,-59.75 55.38,-59.75 55.38,-78.25"/>
<text text-anchor="middle" x="28.62" y="-64.75" font-family="Helvetica,sans-Serif" font-size="10.00">Logger.h</text>
</a>
</g>
</g>
<!-- Node1&#45;&gt;Node3 -->
<g id="edge10_Node000001_Node000003" class="edge">
<title>Node1&#45;&gt;Node3</title>
<g id="a_edge10_Node000001_Node000003"><a xlink:title=" ">
<path fill="none" stroke="#63b8ff" d="M326.19,-173.53C296.73,-164.95 250.9,-151.26 211.62,-138 145.61,-115.71 129.91,-107.84 64.62,-83.5 63.85,-83.21 63.07,-82.92 62.28,-82.62"/>
<polygon fill="#63b8ff" stroke="#63b8ff" points="63.87,-79.48 53.28,-79.26 61.42,-86.04 63.87,-79.48"/>
</a>
</g>
</g>
<!-- Node7 -->
<g id="Node000007" class="node">
<title>Node7</title>
<g id="a_Node000007"><a xlink:title=" ">
<polygon fill="#e0e0e0" stroke="#999999" points="387.88,-78.25 343.38,-78.25 343.38,-59.75 387.88,-59.75 387.88,-78.25"/>
<text text-anchor="middle" x="365.62" y="-64.75" font-family="Helvetica,sans-Serif" font-size="10.00">Wire.h</text>
</a>
</g>
</g>
<!-- Node1&#45;&gt;Node7 -->
<g id="edge11_Node000001_Node000007" class="edge">
<title>Node1&#45;&gt;Node7</title>
<g id="a_edge11_Node000001_Node000007"><a xlink:title=" ">
<path fill="none" stroke="#63b8ff" d="M357.3,-173.81C358.72,-156.1 362.05,-114.62 364.04,-89.79"/>
<polygon fill="#63b8ff" stroke="#63b8ff" points="367.51,-90.29 364.82,-80.04 360.53,-89.73 367.51,-90.29"/>
</a>
</g>
</g>
<!-- Node8 -->
<g id="Node000008" class="node">
<title>Node8</title>
<g id="a_Node000008"><a xlink:href="config_8h_source.html" target="_top" xlink:title=" ">
<polygon fill="white" stroke="#666666" points="456.88,-78.25 406.38,-78.25 406.38,-59.75 456.88,-59.75 456.88,-78.25"/>
<text text-anchor="middle" x="431.62" y="-64.75" font-family="Helvetica,sans-Serif" font-size="10.00">config.h</text>
</a>
</g>
</g>
<!-- Node1&#45;&gt;Node8 -->
<g id="edge8_Node000001_Node000008" class="edge">
<title>Node1&#45;&gt;Node8</title>
<g id="a_edge8_Node000001_Node000008"><a xlink:title=" ">
<path fill="none" stroke="#63b8ff" d="M362.26,-173.81C374.37,-155.69 403.09,-112.71 419.53,-88.11"/>
<polygon fill="#63b8ff" stroke="#63b8ff" points="422.44,-90.05 425.08,-79.79 416.62,-86.16 422.44,-90.05"/>
</a>
</g>
</g>
<!-- Node9 -->
<g id="Node000009" class="node">
<title>Node9</title>
<g id="a_Node000009"><a xlink:title=" ">
<polygon fill="#e0e0e0" stroke="#999999" points="488.75,-138 422.5,-138 422.5,-119.5 488.75,-119.5 488.75,-138"/>
<text text-anchor="middle" x="455.62" y="-124.5" font-family="Helvetica,sans-Serif" font-size="10.00">EEPROM.h</text>
</a>
</g>
</g>
<!-- Node1&#45;&gt;Node9 -->
<g id="edge9_Node000001_Node000009" class="edge">
<title>Node1&#45;&gt;Node9</title>
<g id="a_edge9_Node000001_Node000009"><a xlink:title=" ">
<path fill="none" stroke="#63b8ff" d="M372.97,-173.58C388.23,-165.49 411.28,-153.27 429.16,-143.78"/>
<polygon fill="#63b8ff" stroke="#63b8ff" points="430.72,-146.92 437.92,-139.14 427.44,-140.73 430.72,-146.92"/>
</a>
</g>
</g>
<!-- Node2&#45;&gt;Node3 -->
<g id="edge2_Node000002_Node000003" class="edge">
<title>Node2&#45;&gt;Node3</title>
<g id="a_edge2_Node000002_Node000003"><a xlink:title=" ">
<path fill="none" stroke="#63b8ff" d="M220.02,-119.5C178.76,-111.74 117.13,-99.01 64.62,-83.5 63.44,-83.15 62.24,-82.78 61.03,-82.4"/>
<polygon fill="#63b8ff" stroke="#63b8ff" points="62.18,-79.09 51.59,-79.14 59.9,-85.71 62.18,-79.09"/>
</a>
</g>
</g>
<!-- Node5 -->
<g id="Node000005" class="node">
<title>Node5</title>
<g id="a_Node000005"><a xlink:title=" ">
<polygon fill="#e0e0e0" stroke="#999999" points="325.5,-83.5 191.75,-83.5 191.75,-54.5 325.5,-54.5 325.5,-83.5"/>
<text text-anchor="start" x="199.75" y="-70" font-family="Helvetica,sans-Serif" font-size="10.00">SparkFun_SCD30_Arduino</text>
<text text-anchor="middle" x="258.62" y="-59.5" font-family="Helvetica,sans-Serif" font-size="10.00">_Library.h</text>
</a>
</g>
</g>
<!-- Node2&#45;&gt;Node5 -->
<g id="edge4_Node000002_Node000005" class="edge">
<title>Node2&#45;&gt;Node5</title>
<g id="a_edge4_Node000002_Node000005"><a xlink:title=" ">
<path fill="none" stroke="#63b8ff" d="M265.44,-119.23C264.56,-112.84 263.3,-103.76 262.11,-95.13"/>
<polygon fill="#63b8ff" stroke="#63b8ff" points="265.6,-94.86 260.76,-85.43 258.67,-95.82 265.6,-94.86"/>
</a>
</g>
</g>
<!-- Node6 -->
<g id="Node000006" class="node">
<title>Node6</title>
<g id="a_Node000006"><a xlink:title=" ">
<polygon fill="#e0e0e0" stroke="#999999" points="174,-78.25 73.25,-78.25 73.25,-59.75 174,-59.75 174,-78.25"/>
<text text-anchor="middle" x="123.62" y="-64.75" font-family="Helvetica,sans-Serif" font-size="10.00">Adafruit_BMP280.h</text>
</a>
</g>
</g>
<!-- Node2&#45;&gt;Node6 -->
<g id="edge5_Node000002_Node000006" class="edge">
<title>Node2&#45;&gt;Node6</title>
<g id="a_edge5_Node000002_Node000006"><a xlink:title=" ">
<path fill="none" stroke="#63b8ff" d="M245.22,-119.1C221.52,-109.54 183.08,-94.01 155.77,-82.98"/>
<polygon fill="#63b8ff" stroke="#63b8ff" points="157.17,-79.77 146.58,-79.27 154.55,-86.26 157.17,-79.77"/>
</a>
</g>
</g>
<!-- Node2&#45;&gt;Node7 -->
<g id="edge6_Node000002_Node000007" class="edge">
<title>Node2&#45;&gt;Node7</title>
<g id="a_edge6_Node000002_Node000007"><a xlink:title=" ">
<path fill="none" stroke="#63b8ff" d="M281.23,-119.23C296.86,-110.11 321.93,-95.49 340.7,-84.54"/>
<polygon fill="#63b8ff" stroke="#63b8ff" points="342.45,-87.57 349.33,-79.51 338.92,-81.52 342.45,-87.57"/>
</a>
</g>
</g>
<!-- Node2&#45;&gt;Node8 -->
<g id="edge7_Node000002_Node000008" class="edge">
<title>Node2&#45;&gt;Node8</title>
<g id="a_edge7_Node000002_Node000008"><a xlink:title=" ">
<path fill="none" stroke="#63b8ff" d="M293.13,-119.07C319.47,-110.37 360.99,-96.43 396.62,-83.5 397.41,-83.22 398.2,-82.93 398.99,-82.64"/>
<polygon fill="#63b8ff" stroke="#63b8ff" points="399.91,-86.03 408.04,-79.24 397.45,-79.48 399.91,-86.03"/>
</a>
</g>
</g>
<!-- Node4 -->
<g id="Node000004" class="node">
<title>Node4</title>
<g id="a_Node000004"><a xlink:title=" ">
<polygon fill="#e0e0e0" stroke="#999999" points="57.25,-18.5 0,-18.5 0,0 57.25,0 57.25,-18.5"/>
<text text-anchor="middle" x="28.62" y="-5" font-family="Helvetica,sans-Serif" font-size="10.00">Arduino.h</text>
</a>
</g>
</g>
<!-- Node3&#45;&gt;Node4 -->
<g id="edge3_Node000003_Node000004" class="edge">
<title>Node3&#45;&gt;Node4</title>
<g id="a_edge3_Node000003_Node000004"><a xlink:title=" ">
<path fill="none" stroke="#63b8ff" d="M28.62,-59.48C28.62,-51.8 28.62,-40.22 28.62,-30.22"/>
<polygon fill="#63b8ff" stroke="#63b8ff" points="32.13,-30.32 28.63,-20.32 25.13,-30.32 32.13,-30.32"/>
</a>
</g>
</g>
</g>
</svg>
