<?xml version="1.0" encoding="UTF-8" standalone="no"?>
<!DOCTYPE svg PUBLIC "-//W3C//DTD SVG 1.1//EN"
 "http://www.w3.org/Graphics/SVG/1.1/DTD/svg11.dtd">
<!-- Generated by graphviz version 12.1.2 (0)
 -->
<!-- Title: include/SensorManager.h Pages: 1 -->
<svg width="466pt" height="146pt"
 viewBox="0.00 0.00 465.88 146.00" xmlns="http://www.w3.org/2000/svg" xmlns:xlink="http://www.w3.org/1999/xlink">
<g id="graph0" class="graph" transform="scale(1 1) rotate(0) translate(4 142)">
<title>include/SensorManager.h</title>
<!-- Node1 -->
<g id="Node000001" class="node">
<title>Node1</title>
<g id="a_Node000001"><a xlink:title="Manages the initialization, calibration, and data retrieval from sensors.">
<polygon fill="#999999" stroke="#666666" points="338.75,-138 212.5,-138 212.5,-119.5 338.75,-119.5 338.75,-138"/>
<text text-anchor="middle" x="275.62" y="-124.5" font-family="Helvetica,sans-Serif" font-size="10.00">include/SensorManager.h</text>
</a>
</g>
</g>
<!-- Node2 -->
<g id="Node000002" class="node">
<title>Node2</title>
<g id="a_Node000002"><a xlink:href="Logger_8h.html" target="_top" xlink:title="Provides logging functionality with different log levels for debugging and monitoring.">
<polygon fill="white" stroke="#666666" points="55.38,-78.25 1.88,-78.25 1.88,-59.75 55.38,-59.75 55.38,-78.25"/>
<text text-anchor="middle" x="28.63" y="-64.75" font-family="Helvetica,sans-Serif" font-size="10.00">Logger.h</text>
</a>
</g>
</g>
<!-- Node1&#45;&gt;Node2 -->
<g id="edge1_Node000001_Node000002" class="edge">
<title>Node1&#45;&gt;Node2</title>
<g id="a_edge1_Node000001_Node000002"><a xlink:title=" ">
<path fill="none" stroke="#63b8ff" d="M223.05,-119.02C180.03,-111.33 117.82,-98.95 64.62,-83.5 63.44,-83.16 62.24,-82.79 61.03,-82.41"/>
<polygon fill="#63b8ff" stroke="#63b8ff" points="62.17,-79.1 51.58,-79.17 59.9,-85.72 62.17,-79.1"/>
</a>
</g>
</g>
<!-- Node4 -->
<g id="Node000004" class="node">
<title>Node4</title>
<g id="a_Node000004"><a xlink:title=" ">
<polygon fill="#e0e0e0" stroke="#999999" points="207.5,-83.5 73.75,-83.5 73.75,-54.5 207.5,-54.5 207.5,-83.5"/>
<text text-anchor="start" x="81.75" y="-70" font-family="Helvetica,sans-Serif" font-size="10.00">SparkFun_SCD30_Arduino</text>
<text text-anchor="middle" x="140.62" y="-59.5" font-family="Helvetica,sans-Serif" font-size="10.00">_Library.h</text>
</a>
</g>
</g>
<!-- Node1&#45;&gt;Node4 -->
<g id="edge3_Node000001_Node000004" class="edge">
<title>Node1&#45;&gt;Node4</title>
<g id="a_edge3_Node000001_Node000004"><a xlink:title=" ">
<path fill="none" stroke="#63b8ff" d="M255.41,-119.1C236.51,-111.02 207.67,-98.68 183.62,-88.39"/>
<polygon fill="#63b8ff" stroke="#63b8ff" points="185.27,-85.29 174.7,-84.58 182.52,-91.73 185.27,-85.29"/>
</a>
</g>
</g>
<!-- Node5 -->
<g id="Node000005" class="node">
<title>Node5</title>
<g id="a_Node000005"><a xlink:title=" ">
<polygon fill="#e0e0e0" stroke="#999999" points="326,-78.25 225.25,-78.25 225.25,-59.75 326,-59.75 326,-78.25"/>
<text text-anchor="middle" x="275.62" y="-64.75" font-family="Helvetica,sans-Serif" font-size="10.00">Adafruit_BMP280.h</text>
</a>
</g>
</g>
<!-- Node1&#45;&gt;Node5 -->
<g id="edge4_Node000001_Node000005" class="edge">
<title>Node1&#45;&gt;Node5</title>
<g id="a_edge4_Node000001_Node000005"><a xlink:title=" ">
<path fill="none" stroke="#63b8ff" d="M275.62,-119.23C275.62,-111.55 275.62,-99.97 275.62,-89.97"/>
<polygon fill="#63b8ff" stroke="#63b8ff" points="279.13,-90.07 275.63,-80.07 272.13,-90.07 279.13,-90.07"/>
</a>
</g>
</g>
<!-- Node6 -->
<g id="Node000006" class="node">
<title>Node6</title>
<g id="a_Node000006"><a xlink:title=" ">
<polygon fill="#e0e0e0" stroke="#999999" points="388.88,-78.25 344.38,-78.25 344.38,-59.75 388.88,-59.75 388.88,-78.25"/>
<text text-anchor="middle" x="366.62" y="-64.75" font-family="Helvetica,sans-Serif" font-size="10.00">Wire.h</text>
</a>
</g>
</g>
<!-- Node1&#45;&gt;Node6 -->
<g id="edge5_Node000001_Node000006" class="edge">
<title>Node1&#45;&gt;Node6</title>
<g id="a_edge5_Node000001_Node000006"><a xlink:title=" ">
<path fill="none" stroke="#63b8ff" d="M289.05,-119.23C303.35,-110.15 326.25,-95.62 343.47,-84.69"/>
<polygon fill="#63b8ff" stroke="#63b8ff" points="345,-87.87 351.57,-79.56 341.25,-81.96 345,-87.87"/>
</a>
</g>
</g>
<!-- Node7 -->
<g id="Node000007" class="node">
<title>Node7</title>
<g id="a_Node000007"><a xlink:href="config_8h_source.html" target="_top" xlink:title=" ">
<polygon fill="white" stroke="#666666" points="457.88,-78.25 407.38,-78.25 407.38,-59.75 457.88,-59.75 457.88,-78.25"/>
<text text-anchor="middle" x="432.62" y="-64.75" font-family="Helvetica,sans-Serif" font-size="10.00">config.h</text>
</a>
</g>
</g>
<!-- Node1&#45;&gt;Node7 -->
<g id="edge6_Node000001_Node000007" class="edge">
<title>Node1&#45;&gt;Node7</title>
<g id="a_edge6_Node000001_Node000007"><a xlink:title=" ">
<path fill="none" stroke="#63b8ff" d="M299.98,-119.08C324.65,-110.26 363.86,-96.13 397.62,-83.5 398.4,-83.21 399.19,-82.91 399.98,-82.61"/>
<polygon fill="#63b8ff" stroke="#63b8ff" points="400.92,-86 409.02,-79.18 398.43,-79.46 400.92,-86"/>
</a>
</g>
</g>
<!-- Node3 -->
<g id="Node000003" class="node">
<title>Node3</title>
<g id="a_Node000003"><a xlink:title=" ">
<polygon fill="#e0e0e0" stroke="#999999" points="57.25,-18.5 0,-18.5 0,0 57.25,0 57.25,-18.5"/>
<text text-anchor="middle" x="28.63" y="-5" font-family="Helvetica,sans-Serif" font-size="10.00">Arduino.h</text>
</a>
</g>
</g>
<!-- Node2&#45;&gt;Node3 -->
<g id="edge2_Node000002_Node000003" class="edge">
<title>Node2&#45;&gt;Node3</title>
<g id="a_edge2_Node000002_Node000003"><a xlink:title=" ">
<path fill="none" stroke="#63b8ff" d="M28.63,-59.48C28.63,-51.8 28.63,-40.22 28.63,-30.22"/>
<polygon fill="#63b8ff" stroke="#63b8ff" points="32.13,-30.32 28.63,-20.32 25.13,-30.32 32.13,-30.32"/>
</a>
</g>
</g>
</g>
</svg>
