<?xml version="1.0" encoding="UTF-8" standalone="no"?>
<!DOCTYPE svg PUBLIC "-//W3C//DTD SVG 1.1//EN"
 "http://www.w3.org/Graphics/SVG/1.1/DTD/svg11.dtd">
<!-- Generated by graphviz version 12.2.1 (20241206.2353)
 -->
<!-- Title: src/Logger.cpp Pages: 1 -->
<svg width="168pt" height="140pt"
 viewBox="0.00 0.00 168.00 140.00" xmlns="http://www.w3.org/2000/svg" xmlns:xlink="http://www.w3.org/1999/xlink">
<g id="graph0" class="graph" transform="scale(1 1) rotate(0) translate(4 136)">
<title>src/Logger.cpp</title>
<!-- Node1 -->
<g id="Node000001" class="node">
<title>Node1</title>
<g id="a_Node000001"><a xlink:title="Implements logging functionality with different log levels for debugging and monitoring.">
<polygon fill="#999999" stroke="#666666" points="122,-132 41.5,-132 41.5,-112 122,-112 122,-132"/>
<text text-anchor="middle" x="81.75" y="-118.5" font-family="Helvetica,sans-Serif" font-size="10.00">src/Logger.cpp</text>
</a>
</g>
</g>
<!-- Node2 -->
<g id="Node000002" class="node">
<title>Node2</title>
<g id="a_Node000002"><a xlink:href="_logger_8h.html" target="_top" xlink:title="Provides logging functionality with different log levels for debugging and monitoring.">
<polygon fill="white" stroke="#666666" points="53.5,-76 0,-76 0,-56 53.5,-56 53.5,-76"/>
<text text-anchor="middle" x="26.75" y="-62.5" font-family="Helvetica,sans-Serif" font-size="10.00">Logger.h</text>
</a>
</g>
</g>
<!-- Node1&#45;&gt;Node2 -->
<g id="edge1_Node000001_Node000002" class="edge">
<title>Node1&#45;&gt;Node2</title>
<g id="a_edge1_Node000001_Node000002"><a xlink:title=" ">
<path fill="none" stroke="#63b8ff" d="M72.17,-111.59C64.52,-104.08 53.59,-93.35 44.37,-84.3"/>
<polygon fill="#63b8ff" stroke="#63b8ff" points="46.89,-81.87 37.3,-77.36 41.98,-86.86 46.89,-81.87"/>
</a>
</g>
</g>
<!-- Node3 -->
<g id="Node000003" class="node">
<title>Node3</title>
<g id="a_Node000003"><a xlink:title=" ">
<polygon fill="#e0e0e0" stroke="#999999" points="82.38,-20 25.13,-20 25.13,0 82.38,0 82.38,-20"/>
<text text-anchor="middle" x="53.75" y="-6.5" font-family="Helvetica,sans-Serif" font-size="10.00">Arduino.h</text>
</a>
</g>
</g>
<!-- Node1&#45;&gt;Node3 -->
<g id="edge3_Node000001_Node000003" class="edge">
<title>Node1&#45;&gt;Node3</title>
<g id="a_edge3_Node000001_Node000003"><a xlink:title=" ">
<path fill="none" stroke="#63b8ff" d="M79.36,-111.62C74.86,-93.92 65.01,-55.24 58.92,-31.32"/>
<polygon fill="#63b8ff" stroke="#63b8ff" points="62.36,-30.65 56.5,-21.82 55.58,-32.38 62.36,-30.65"/>
</a>
</g>
</g>
<!-- Node4 -->
<g id="Node000004" class="node">
<title>Node4</title>
<g id="a_Node000004"><a xlink:href="config_8h_source.html" target="_top" xlink:title=" ">
<polygon fill="white" stroke="#666666" points="160,-76 109.5,-76 109.5,-56 160,-56 160,-76"/>
<text text-anchor="middle" x="134.75" y="-62.5" font-family="Helvetica,sans-Serif" font-size="10.00">config.h</text>
</a>
</g>
</g>
<!-- Node1&#45;&gt;Node4 -->
<g id="edge4_Node000001_Node000004" class="edge">
<title>Node1&#45;&gt;Node4</title>
<g id="a_edge4_Node000001_Node000004"><a xlink:title=" ">
<path fill="none" stroke="#63b8ff" d="M90.98,-111.59C98.35,-104.08 108.88,-93.35 117.77,-84.3"/>
<polygon fill="#63b8ff" stroke="#63b8ff" points="120.06,-86.97 124.56,-77.38 115.06,-82.06 120.06,-86.97"/>
</a>
</g>
</g>
<!-- Node2&#45;&gt;Node3 -->
<g id="edge2_Node000002_Node000003" class="edge">
<title>Node2&#45;&gt;Node3</title>
<g id="a_edge2_Node000002_Node000003"><a xlink:title=" ">
<path fill="none" stroke="#63b8ff" d="M31.45,-55.59C34.9,-48.7 39.7,-39.1 43.96,-30.57"/>
<polygon fill="#63b8ff" stroke="#63b8ff" points="47.08,-32.16 48.42,-21.65 40.82,-29.03 47.08,-32.16"/>
</a>
</g>
</g>
</g>
</svg>
