<?xml version="1.0" encoding="UTF-8" standalone="no"?>
<!DOCTYPE svg PUBLIC "-//W3C//DTD SVG 1.1//EN"
 "http://www.w3.org/Graphics/SVG/1.1/DTD/svg11.dtd">
<!-- Generated by graphviz version 12.2.1 (20241206.2353)
 -->
<!-- Title: include/SensorManager.h Pages: 1 -->
<svg width="466pt" height="152pt"
 viewBox="0.00 0.00 465.88 152.00" xmlns="http://www.w3.org/2000/svg" xmlns:xlink="http://www.w3.org/1999/xlink">
<g id="graph0" class="graph" transform="scale(1 1) rotate(0) translate(4 148)">
<title>include/SensorManager.h</title>
<!-- Node1 -->
<g id="Node000001" class="node">
<title>Node1</title>
<g id="a_Node000001"><a xlink:title="Manages the initialization, calibration, and data retrieval from sensors.">
<polygon fill="#999999" stroke="#666666" points="338.75,-144 212.5,-144 212.5,-124 338.75,-124 338.75,-144"/>
<text text-anchor="middle" x="275.62" y="-130.5" font-family="Helvetica,sans-Serif" font-size="10.00">include/SensorManager.h</text>
</a>
</g>
</g>
<!-- Node2 -->
<g id="Node000002" class="node">
<title>Node2</title>
<g id="a_Node000002"><a xlink:href="$_logger_8h.html" xlink:title="Provides logging functionality with different log levels for debugging and monitoring.">
<polygon fill="white" stroke="#666666" points="55.38,-82 1.88,-82 1.88,-62 55.38,-62 55.38,-82"/>
<text text-anchor="middle" x="28.62" y="-68.5" font-family="Helvetica,sans-Serif" font-size="10.00">Logger.h</text>
</a>
</g>
</g>
<!-- Node1&#45;&gt;Node2 -->
<g id="edge1_Node000001_Node000002" class="edge">
<title>Node1&#45;&gt;Node2</title>
<g id="a_edge1_Node000001_Node000002"><a xlink:title=" ">
<path fill="none" stroke="#63b8ff" d="M217.12,-123.52C174.35,-115.87 115.22,-103.79 64.62,-88 63.05,-87.51 61.45,-86.97 59.84,-86.41"/>
<polygon fill="#63b8ff" stroke="#63b8ff" points="61.33,-83.23 50.74,-82.93 58.83,-89.77 61.33,-83.23"/>
</a>
</g>
</g>
<!-- Node4 -->
<g id="Node000004" class="node">
<title>Node4</title>
<g id="a_Node000004"><a xlink:title=" ">
<polygon fill="#e0e0e0" stroke="#999999" points="207.5,-88 73.75,-88 73.75,-56 207.5,-56 207.5,-88"/>
<text text-anchor="start" x="81.75" y="-74.5" font-family="Helvetica,sans-Serif" font-size="10.00">SparkFun_SCD30_Arduino</text>
<text text-anchor="middle" x="140.62" y="-62.5" font-family="Helvetica,sans-Serif" font-size="10.00">_Library.h</text>
</a>
</g>
</g>
<!-- Node1&#45;&gt;Node4 -->
<g id="edge3_Node000001_Node000004" class="edge">
<title>Node1&#45;&gt;Node4</title>
<g id="a_edge3_Node000001_Node000004"><a xlink:title=" ">
<path fill="none" stroke="#63b8ff" d="M254.53,-123.62C236.2,-115.48 209.03,-103.4 185.82,-93.09"/>
<polygon fill="#63b8ff" stroke="#63b8ff" points="187.42,-89.97 176.86,-89.11 184.58,-96.36 187.42,-89.97"/>
</a>
</g>
</g>
<!-- Node5 -->
<g id="Node000005" class="node">
<title>Node5</title>
<g id="a_Node000005"><a xlink:title=" ">
<polygon fill="#e0e0e0" stroke="#999999" points="326,-82 225.25,-82 225.25,-62 326,-62 326,-82"/>
<text text-anchor="middle" x="275.62" y="-68.5" font-family="Helvetica,sans-Serif" font-size="10.00">Adafruit_BMP280.h</text>
</a>
</g>
</g>
<!-- Node1&#45;&gt;Node5 -->
<g id="edge4_Node000001_Node000005" class="edge">
<title>Node1&#45;&gt;Node5</title>
<g id="a_edge4_Node000001_Node000005"><a xlink:title=" ">
<path fill="none" stroke="#63b8ff" d="M275.62,-123.62C275.62,-115.56 275.62,-103.65 275.62,-93.41"/>
<polygon fill="#63b8ff" stroke="#63b8ff" points="279.13,-93.63 275.63,-83.63 272.13,-93.63 279.13,-93.63"/>
</a>
</g>
</g>
<!-- Node6 -->
<g id="Node000006" class="node">
<title>Node6</title>
<g id="a_Node000006"><a xlink:title=" ">
<polygon fill="#e0e0e0" stroke="#999999" points="388.88,-82 344.38,-82 344.38,-62 388.88,-62 388.88,-82"/>
<text text-anchor="middle" x="366.62" y="-68.5" font-family="Helvetica,sans-Serif" font-size="10.00">Wire.h</text>
</a>
</g>
</g>
<!-- Node1&#45;&gt;Node6 -->
<g id="edge5_Node000001_Node000006" class="edge">
<title>Node1&#45;&gt;Node6</title>
<g id="a_edge5_Node000001_Node000006"><a xlink:title=" ">
<path fill="none" stroke="#63b8ff" d="M289.84,-123.62C304.13,-114.2 326.41,-99.52 343.29,-88.39"/>
<polygon fill="#63b8ff" stroke="#63b8ff" points="344.82,-91.57 351.24,-83.14 340.97,-85.72 344.82,-91.57"/>
</a>
</g>
</g>
<!-- Node7 -->
<g id="Node000007" class="node">
<title>Node7</title>
<g id="a_Node000007"><a xlink:href="$config_8h_source.html" xlink:title=" ">
<polygon fill="white" stroke="#666666" points="457.88,-82 407.38,-82 407.38,-62 457.88,-62 457.88,-82"/>
<text text-anchor="middle" x="432.62" y="-68.5" font-family="Helvetica,sans-Serif" font-size="10.00">config.h</text>
</a>
</g>
</g>
<!-- Node1&#45;&gt;Node7 -->
<g id="edge6_Node000001_Node000007" class="edge">
<title>Node1&#45;&gt;Node7</title>
<g id="a_edge6_Node000001_Node000007"><a xlink:title=" ">
<path fill="none" stroke="#63b8ff" d="M302.43,-123.56C327.25,-114.72 365.12,-100.95 397.62,-88 398.73,-87.56 399.85,-87.11 400.99,-86.65"/>
<polygon fill="#63b8ff" stroke="#63b8ff" points="401.95,-90.04 409.83,-82.96 399.25,-83.58 401.95,-90.04"/>
</a>
</g>
</g>
<!-- Node3 -->
<g id="Node000003" class="node">
<title>Node3</title>
<g id="a_Node000003"><a xlink:title=" ">
<polygon fill="#e0e0e0" stroke="#999999" points="57.25,-20 0,-20 0,0 57.25,0 57.25,-20"/>
<text text-anchor="middle" x="28.62" y="-6.5" font-family="Helvetica,sans-Serif" font-size="10.00">Arduino.h</text>
</a>
</g>
</g>
<!-- Node2&#45;&gt;Node3 -->
<g id="edge2_Node000002_Node000003" class="edge">
<title>Node2&#45;&gt;Node3</title>
<g id="a_edge2_Node000002_Node000003"><a xlink:title=" ">
<path fill="none" stroke="#63b8ff" d="M28.62,-61.62C28.62,-53.56 28.62,-41.65 28.62,-31.41"/>
<polygon fill="#63b8ff" stroke="#63b8ff" points="32.13,-31.63 28.63,-21.63 25.13,-31.63 32.13,-31.63"/>
</a>
</g>
</g>
</g>
</svg>
