<?xml version="1.0" encoding="UTF-8" standalone="no"?>
<!DOCTYPE svg PUBLIC "-//W3C//DTD SVG 1.1//EN"
 "http://www.w3.org/Graphics/SVG/1.1/DTD/svg11.dtd">
<!-- Generated by graphviz version 12.2.1 (20241206.2353)
 -->
<!-- Title: src/SensorManager.cpp Pages: 1 -->
<svg width="499pt" height="208pt"
 viewBox="0.00 0.00 498.50 208.00" xmlns="http://www.w3.org/2000/svg" xmlns:xlink="http://www.w3.org/1999/xlink">
<g id="graph0" class="graph" transform="scale(1 1) rotate(0) translate(4 204)">
<title>src/SensorManager.cpp</title>
<!-- Node1 -->
<g id="Node000001" class="node">
<title>Node1</title>
<g id="a_Node000001"><a xlink:title="Implements the functionality for managing the SCD30 and BMP280 sensors.">
<polygon fill="#999999" stroke="#666666" points="416.38,-200 296.88,-200 296.88,-180 416.38,-180 416.38,-200"/>
<text text-anchor="middle" x="356.62" y="-186.5" font-family="Helvetica,sans-Serif" font-size="10.00">src/SensorManager.cpp</text>
</a>
</g>
</g>
<!-- Node2 -->
<g id="Node000002" class="node">
<title>Node2</title>
<g id="a_Node000002"><a xlink:href="$_sensor_manager_8h.html" xlink:title="Manages the initialization, calibration, and data retrieval from sensors.">
<polygon fill="white" stroke="#666666" points="312.88,-144 220.38,-144 220.38,-124 312.88,-124 312.88,-144"/>
<text text-anchor="middle" x="266.62" y="-130.5" font-family="Helvetica,sans-Serif" font-size="10.00">SensorManager.h</text>
</a>
</g>
</g>
<!-- Node1&#45;&gt;Node2 -->
<g id="edge1_Node000001_Node000002" class="edge">
<title>Node1&#45;&gt;Node2</title>
<g id="a_edge1_Node000001_Node000002"><a xlink:title=" ">
<path fill="none" stroke="#63b8ff" d="M340.95,-179.59C327.48,-171.51 307.81,-159.71 292.08,-150.27"/>
<polygon fill="#63b8ff" stroke="#63b8ff" points="294.1,-147.4 283.72,-145.26 290.5,-153.4 294.1,-147.4"/>
</a>
</g>
</g>
<!-- Node3 -->
<g id="Node000003" class="node">
<title>Node3</title>
<g id="a_Node000003"><a xlink:href="$_logger_8h.html" xlink:title="Provides logging functionality with different log levels for debugging and monitoring.">
<polygon fill="white" stroke="#666666" points="55.38,-82 1.88,-82 1.88,-62 55.38,-62 55.38,-82"/>
<text text-anchor="middle" x="28.62" y="-68.5" font-family="Helvetica,sans-Serif" font-size="10.00">Logger.h</text>
</a>
</g>
</g>
<!-- Node1&#45;&gt;Node3 -->
<g id="edge10_Node000001_Node000003" class="edge">
<title>Node1&#45;&gt;Node3</title>
<g id="a_edge10_Node000001_Node000003"><a xlink:title=" ">
<path fill="none" stroke="#63b8ff" d="M324.18,-179.57C294.67,-170.84 249.99,-157.25 211.62,-144 145.54,-121.18 129.57,-113.89 64.62,-88 63.66,-87.62 62.69,-87.22 61.7,-86.83"/>
<polygon fill="#63b8ff" stroke="#63b8ff" points="63.03,-83.59 52.45,-83.04 60.38,-90.07 63.03,-83.59"/>
</a>
</g>
</g>
<!-- Node7 -->
<g id="Node000007" class="node">
<title>Node7</title>
<g id="a_Node000007"><a xlink:title=" ">
<polygon fill="#e0e0e0" stroke="#999999" points="387.88,-82 343.38,-82 343.38,-62 387.88,-62 387.88,-82"/>
<text text-anchor="middle" x="365.62" y="-68.5" font-family="Helvetica,sans-Serif" font-size="10.00">Wire.h</text>
</a>
</g>
</g>
<!-- Node1&#45;&gt;Node7 -->
<g id="edge11_Node000001_Node000007" class="edge">
<title>Node1&#45;&gt;Node7</title>
<g id="a_edge11_Node000001_Node000007"><a xlink:title=" ">
<path fill="none" stroke="#63b8ff" d="M357.36,-179.51C358.81,-160.81 362.07,-118.82 364.03,-93.51"/>
<polygon fill="#63b8ff" stroke="#63b8ff" points="367.5,-94.05 364.79,-83.81 360.52,-93.51 367.5,-94.05"/>
</a>
</g>
</g>
<!-- Node8 -->
<g id="Node000008" class="node">
<title>Node8</title>
<g id="a_Node000008"><a xlink:href="$config_8h_source.html" xlink:title=" ">
<polygon fill="white" stroke="#666666" points="456.88,-82 406.38,-82 406.38,-62 456.88,-62 456.88,-82"/>
<text text-anchor="middle" x="431.62" y="-68.5" font-family="Helvetica,sans-Serif" font-size="10.00">config.h</text>
</a>
</g>
</g>
<!-- Node1&#45;&gt;Node8 -->
<g id="edge8_Node000001_Node000008" class="edge">
<title>Node1&#45;&gt;Node8</title>
<g id="a_edge8_Node000001_Node000008"><a xlink:title=" ">
<path fill="none" stroke="#63b8ff" d="M362.76,-179.51C375.13,-160.38 403.25,-116.89 419.47,-91.8"/>
<polygon fill="#63b8ff" stroke="#63b8ff" points="422.3,-93.87 424.79,-83.57 416.42,-90.07 422.3,-93.87"/>
</a>
</g>
</g>
<!-- Node9 -->
<g id="Node000009" class="node">
<title>Node9</title>
<g id="a_Node000009"><a xlink:title=" ">
<polygon fill="#e0e0e0" stroke="#999999" points="490.5,-144 422.75,-144 422.75,-124 490.5,-124 490.5,-144"/>
<text text-anchor="middle" x="456.62" y="-130.5" font-family="Helvetica,sans-Serif" font-size="10.00">EEPROM.h</text>
</a>
</g>
</g>
<!-- Node1&#45;&gt;Node9 -->
<g id="edge9_Node000001_Node000009" class="edge">
<title>Node1&#45;&gt;Node9</title>
<g id="a_edge9_Node000001_Node000009"><a xlink:title=" ">
<path fill="none" stroke="#63b8ff" d="M374.04,-179.59C389.29,-171.36 411.7,-159.26 429.33,-149.74"/>
<polygon fill="#63b8ff" stroke="#63b8ff" points="430.6,-153.03 437.74,-145.2 427.28,-146.87 430.6,-153.03"/>
</a>
</g>
</g>
<!-- Node2&#45;&gt;Node3 -->
<g id="edge2_Node000002_Node000003" class="edge">
<title>Node2&#45;&gt;Node3</title>
<g id="a_edge2_Node000002_Node000003"><a xlink:title=" ">
<path fill="none" stroke="#63b8ff" d="M219.88,-125C178.54,-117.36 116.86,-104.56 64.62,-88 63.05,-87.5 61.45,-86.96 59.84,-86.39"/>
<polygon fill="#63b8ff" stroke="#63b8ff" points="61.34,-83.22 50.75,-82.9 58.83,-89.75 61.34,-83.22"/>
</a>
</g>
</g>
<!-- Node5 -->
<g id="Node000005" class="node">
<title>Node5</title>
<g id="a_Node000005"><a xlink:title=" ">
<polygon fill="#e0e0e0" stroke="#999999" points="325.5,-88 191.75,-88 191.75,-56 325.5,-56 325.5,-88"/>
<text text-anchor="start" x="199.75" y="-74.5" font-family="Helvetica,sans-Serif" font-size="10.00">SparkFun_SCD30_Arduino</text>
<text text-anchor="middle" x="258.62" y="-62.5" font-family="Helvetica,sans-Serif" font-size="10.00">_Library.h</text>
</a>
</g>
</g>
<!-- Node2&#45;&gt;Node5 -->
<g id="edge4_Node000002_Node000005" class="edge">
<title>Node2&#45;&gt;Node5</title>
<g id="a_edge4_Node000002_Node000005"><a xlink:title=" ">
<path fill="none" stroke="#63b8ff" d="M265.38,-123.62C264.5,-117.1 263.3,-108.05 262.15,-99.4"/>
<polygon fill="#63b8ff" stroke="#63b8ff" points="265.63,-99.09 260.84,-89.64 258.7,-100.02 265.63,-99.09"/>
</a>
</g>
</g>
<!-- Node6 -->
<g id="Node000006" class="node">
<title>Node6</title>
<g id="a_Node000006"><a xlink:title=" ">
<polygon fill="#e0e0e0" stroke="#999999" points="174,-82 73.25,-82 73.25,-62 174,-62 174,-82"/>
<text text-anchor="middle" x="123.62" y="-68.5" font-family="Helvetica,sans-Serif" font-size="10.00">Adafruit_BMP280.h</text>
</a>
</g>
</g>
<!-- Node2&#45;&gt;Node6 -->
<g id="edge5_Node000002_Node000006" class="edge">
<title>Node2&#45;&gt;Node6</title>
<g id="a_edge5_Node000002_Node000006"><a xlink:title=" ">
<path fill="none" stroke="#63b8ff" d="M244.28,-123.62C220.67,-113.72 183.2,-97.99 156.27,-86.7"/>
<polygon fill="#63b8ff" stroke="#63b8ff" points="157.78,-83.54 147.21,-82.89 155.07,-89.99 157.78,-83.54"/>
</a>
</g>
</g>
<!-- Node2&#45;&gt;Node7 -->
<g id="edge6_Node000002_Node000007" class="edge">
<title>Node2&#45;&gt;Node7</title>
<g id="a_edge6_Node000002_Node000007"><a xlink:title=" ">
<path fill="none" stroke="#63b8ff" d="M282.09,-123.62C297.71,-114.16 322.1,-99.38 340.49,-88.23"/>
<polygon fill="#63b8ff" stroke="#63b8ff" points="342.23,-91.27 348.97,-83.09 338.6,-85.28 342.23,-91.27"/>
</a>
</g>
</g>
<!-- Node2&#45;&gt;Node8 -->
<g id="edge7_Node000002_Node000008" class="edge">
<title>Node2&#45;&gt;Node8</title>
<g id="a_edge7_Node000002_Node000008"><a xlink:title=" ">
<path fill="none" stroke="#63b8ff" d="M295.76,-123.58C322.25,-114.86 362.32,-101.27 396.62,-88 397.73,-87.57 398.86,-87.13 400,-86.67"/>
<polygon fill="#63b8ff" stroke="#63b8ff" points="400.94,-90.07 408.85,-83.02 398.27,-83.6 400.94,-90.07"/>
</a>
</g>
</g>
<!-- Node4 -->
<g id="Node000004" class="node">
<title>Node4</title>
<g id="a_Node000004"><a xlink:title=" ">
<polygon fill="#e0e0e0" stroke="#999999" points="57.25,-20 0,-20 0,0 57.25,0 57.25,-20"/>
<text text-anchor="middle" x="28.62" y="-6.5" font-family="Helvetica,sans-Serif" font-size="10.00">Arduino.h</text>
</a>
</g>
</g>
<!-- Node3&#45;&gt;Node4 -->
<g id="edge3_Node000003_Node000004" class="edge">
<title>Node3&#45;&gt;Node4</title>
<g id="a_edge3_Node000003_Node000004"><a xlink:title=" ">
<path fill="none" stroke="#63b8ff" d="M28.62,-61.62C28.62,-53.56 28.62,-41.65 28.62,-31.41"/>
<polygon fill="#63b8ff" stroke="#63b8ff" points="32.13,-31.63 28.63,-21.63 25.13,-31.63 32.13,-31.63"/>
</a>
</g>
</g>
</g>
</svg>
