<?xml version="1.0" encoding="UTF-8" standalone="no"?>
<!DOCTYPE svg PUBLIC "-//W3C//DTD SVG 1.1//EN"
 "http://www.w3.org/Graphics/SVG/1.1/DTD/svg11.dtd">
<!-- Generated by graphviz version 12.2.1 (20241206.2353)
 -->
<!-- Title: PressureSensorInterface Pages: 1 -->
<svg width="146pt" height="108pt"
 viewBox="0.00 0.00 146.00 108.00" xmlns="http://www.w3.org/2000/svg" xmlns:xlink="http://www.w3.org/1999/xlink">
<g id="graph0" class="graph" transform="scale(1 1) rotate(0) translate(4 104)">
<title>PressureSensorInterface</title>
<!-- Node1 -->
<g id="Node000001" class="node">
<title>Node1</title>
<g id="a_Node000001"><a xlink:title=" ">
<polygon fill="#999999" stroke="none" points="138,-100 0,-100 0,0 138,0 138,-100"/>
<text text-anchor="start" x="15" y="-86.5" font-family="Helvetica,sans-Serif" font-size="10.00">PressureSensorInterface</text>
<text text-anchor="start" x="67.5" y="-70.5" font-family="Helvetica,sans-Serif" font-size="10.00"> </text>
<text text-anchor="start" x="4" y="-54.5" font-family="Helvetica,sans-Serif" font-size="10.00">+</text>
<text text-anchor="start" x="14" y="-54.5" font-family="Helvetica,sans-Serif" font-size="10.00">begin()</text>
<text text-anchor="start" x="4" y="-38.5" font-family="Helvetica,sans-Serif" font-size="10.00">+</text>
<text text-anchor="start" x="14" y="-38.5" font-family="Helvetica,sans-Serif" font-size="10.00">readPressure()</text>
<text text-anchor="start" x="4" y="-22.5" font-family="Helvetica,sans-Serif" font-size="10.00">+</text>
<text text-anchor="start" x="14" y="-22.5" font-family="Helvetica,sans-Serif" font-size="10.00">readTemperature()</text>
<text text-anchor="start" x="4" y="-6.5" font-family="Helvetica,sans-Serif" font-size="10.00">+</text>
<text text-anchor="start" x="14" y="-6.5" font-family="Helvetica,sans-Serif" font-size="10.00">~PressureSensorInterface()</text>
<polygon fill="#666666" stroke="#666666" points="0,-82 0,-82 138,-82 138,-82 0,-82"/>
<polygon fill="#666666" stroke="#666666" points="0,-66 0,-66 138,-66 138,-66 0,-66"/>
<polygon fill="none" stroke="#666666" points="0,0 0,-100 138,-100 138,0 0,0"/>
</a>
</g>
</g>
</g>
</svg>
