<?xml version="1.0" encoding="UTF-8" standalone="no"?>
<!DOCTYPE svg PUBLIC "-//W3C//DTD SVG 1.1//EN"
 "http://www.w3.org/Graphics/SVG/1.1/DTD/svg11.dtd">
<!-- Generated by graphviz version 12.2.1 (20241206.2353)
 -->
<!-- Title: SensorManager::calibrateSCD30 Pages: 1 -->
<svg width="342pt" height="66pt"
 viewBox="0.00 0.00 341.75 66.00" xmlns="http://www.w3.org/2000/svg" xmlns:xlink="http://www.w3.org/1999/xlink">
<g id="graph0" class="graph" transform="scale(1 1) rotate(0) translate(4 62)">
<title>SensorManager::calibrateSCD30</title>
<!-- Node1 -->
<g id="Node000001" class="node">
<title>Node1</title>
<g id="a_Node000001"><a xlink:title="Calibrates the SCD30 sensor using the forced recalibration factor.">
<polygon fill="#999999" stroke="#666666" points="127,-45 0,-45 0,-13 127,-13 127,-45"/>
<text text-anchor="start" x="8" y="-31.5" font-family="Helvetica,sans-Serif" font-size="10.00">SensorManager::calibrate</text>
<text text-anchor="middle" x="63.5" y="-19.5" font-family="Helvetica,sans-Serif" font-size="10.00">SCD30</text>
</a>
</g>
</g>
<!-- Node2 -->
<g id="Node000002" class="node">
<title>Node2</title>
<g id="a_Node000002"><a xlink:href="class_logger.html#ac862952b8ffa9de295a496af0108785c" target="_top" xlink:title="Logs an error message.">
<polygon fill="white" stroke="#666666" points="233.75,-58 163,-58 163,-38 233.75,-38 233.75,-58"/>
<text text-anchor="middle" x="198.38" y="-44.5" font-family="Helvetica,sans-Serif" font-size="10.00">Logger::error</text>
</a>
</g>
</g>
<!-- Node1&#45;&gt;Node2 -->
<g id="edge1_Node000001_Node000002" class="edge">
<title>Node1&#45;&gt;Node2</title>
<g id="a_edge1_Node000001_Node000002"><a xlink:title=" ">
<path fill="none" stroke="#63b8ff" d="M127.44,-38C135.45,-39.15 143.54,-40.3 151.23,-41.4"/>
<polygon fill="#63b8ff" stroke="#63b8ff" points="150.63,-44.85 161.02,-42.8 151.62,-37.92 150.63,-44.85"/>
</a>
</g>
</g>
<!-- Node4 -->
<g id="Node000004" class="node">
<title>Node4</title>
<g id="a_Node000004"><a xlink:href="class_logger.html#a0c5851d03ba2e560bfd57aeb713267b3" target="_top" xlink:title="Logs an informational message.">
<polygon fill="white" stroke="#666666" points="231.88,-20 164.88,-20 164.88,0 231.88,0 231.88,-20"/>
<text text-anchor="middle" x="198.38" y="-6.5" font-family="Helvetica,sans-Serif" font-size="10.00">Logger::info</text>
</a>
</g>
</g>
<!-- Node1&#45;&gt;Node4 -->
<g id="edge3_Node000001_Node000004" class="edge">
<title>Node1&#45;&gt;Node4</title>
<g id="a_edge3_Node000001_Node000004"><a xlink:title=" ">
<path fill="none" stroke="#63b8ff" d="M127.44,-20C136.19,-18.75 145.02,-17.49 153.33,-16.3"/>
<polygon fill="#63b8ff" stroke="#63b8ff" points="153.76,-19.77 163.16,-14.89 152.76,-12.84 153.76,-19.77"/>
</a>
</g>
</g>
<!-- Node3 -->
<g id="Node000003" class="node">
<title>Node3</title>
<g id="a_Node000003"><a xlink:href="class_logger.html#af0dc4ff68b6d37026b9f6c7a51da6aaa" target="_top" xlink:title="Logs a message if it meets the current log level.">
<polygon fill="white" stroke="#666666" points="333.75,-39 269.75,-39 269.75,-19 333.75,-19 333.75,-39"/>
<text text-anchor="middle" x="301.75" y="-25.5" font-family="Helvetica,sans-Serif" font-size="10.00">Logger::log</text>
</a>
</g>
</g>
<!-- Node2&#45;&gt;Node3 -->
<g id="edge2_Node000002_Node000003" class="edge">
<title>Node2&#45;&gt;Node3</title>
<g id="a_edge2_Node000002_Node000003"><a xlink:title=" ">
<path fill="none" stroke="#63b8ff" d="M233.98,-41.51C241.78,-40.05 250.14,-38.49 258.22,-36.97"/>
<polygon fill="#63b8ff" stroke="#63b8ff" points="258.69,-40.44 267.88,-35.16 257.4,-33.56 258.69,-40.44"/>
</a>
</g>
</g>
<!-- Node4&#45;&gt;Node3 -->
<g id="edge4_Node000004_Node000003" class="edge">
<title>Node4&#45;&gt;Node3</title>
<g id="a_edge4_Node000004_Node000003"><a xlink:title=" ">
<path fill="none" stroke="#63b8ff" d="M232.29,-16.17C240.57,-17.72 249.58,-19.41 258.25,-21.03"/>
<polygon fill="#63b8ff" stroke="#63b8ff" points="257.42,-24.44 267.89,-22.84 258.71,-17.56 257.42,-24.44"/>
</a>
</g>
</g>
</g>
</svg>
