<?xml version="1.0" encoding="UTF-8" standalone="no"?>
<!DOCTYPE svg PUBLIC "-//W3C//DTD SVG 1.1//EN"
 "http://www.w3.org/Graphics/SVG/1.1/DTD/svg11.dtd">
<!-- Generated by graphviz version 12.2.1 (20241206.2353)
 -->
<!-- Title: Logger::error Pages: 1 -->
<svg width="501pt" height="204pt"
 viewBox="0.00 0.00 500.75 204.00" xmlns="http://www.w3.org/2000/svg" xmlns:xlink="http://www.w3.org/1999/xlink">
<g id="graph0" class="graph" transform="scale(1 1) rotate(0) translate(4 200)">
<title>Logger::error</title>
<!-- Node1 -->
<g id="Node000001" class="node">
<title>Node1</title>
<g id="a_Node000001"><a xlink:title="Logs an error message.">
<polygon fill="#999999" stroke="#666666" points="492.75,-102 422,-102 422,-82 492.75,-82 492.75,-102"/>
<text text-anchor="middle" x="457.38" y="-88.5" font-family="Helvetica,sans-Serif" font-size="10.00">Logger::error</text>
</a>
</g>
</g>
<!-- Node2 -->
<g id="Node000002" class="node">
<title>Node2</title>
<g id="a_Node000002"><a xlink:href="class_sensor_manager.html#a3608ee33385f64e74410127d59c2638e" target="_top" xlink:title="Calibrates the SCD30 sensor using the forced recalibration factor.">
<polygon fill="white" stroke="#666666" points="360.88,-196 233.88,-196 233.88,-164 360.88,-164 360.88,-196"/>
<text text-anchor="start" x="241.88" y="-182.5" font-family="Helvetica,sans-Serif" font-size="10.00">SensorManager::calibrate</text>
<text text-anchor="middle" x="297.38" y="-170.5" font-family="Helvetica,sans-Serif" font-size="10.00">SCD30</text>
</a>
</g>
</g>
<!-- Node1&#45;&gt;Node2 -->
<g id="edge1_Node000001_Node000002" class="edge">
<title>Node1&#45;&gt;Node2</title>
<g id="a_edge1_Node000001_Node000002"><a xlink:title=" ">
<path fill="none" stroke="#63b8ff" d="M440.18,-110.49C426.91,-124.57 406.97,-143.44 386,-155 378.24,-159.28 369.69,-162.88 361.05,-165.9"/>
<polygon fill="#63b8ff" stroke="#63b8ff" points="442.7,-112.92 446.85,-103.17 437.53,-108.2 442.7,-112.92"/>
</a>
</g>
</g>
<!-- Node4 -->
<g id="Node000004" class="node">
<title>Node4</title>
<g id="a_Node000004"><a xlink:href="class_display_manager.html#aeb1c8224403ea2595f202e5d93380609" target="_top" xlink:title="Initializes the OLED display.">
<polygon fill="white" stroke="#666666" points="361.25,-146 233.5,-146 233.5,-126 361.25,-126 361.25,-146"/>
<text text-anchor="middle" x="297.38" y="-132.5" font-family="Helvetica,sans-Serif" font-size="10.00">DisplayManager::initialize</text>
</a>
</g>
</g>
<!-- Node1&#45;&gt;Node4 -->
<g id="edge3_Node000001_Node000004" class="edge">
<title>Node1&#45;&gt;Node4</title>
<g id="a_edge3_Node000001_Node000004"><a xlink:title=" ">
<path fill="none" stroke="#63b8ff" d="M418.98,-106.28C408.41,-110.05 396.83,-113.92 386,-117 375.07,-120.11 363.25,-122.99 351.93,-125.52"/>
<polygon fill="#63b8ff" stroke="#63b8ff" points="419.94,-109.66 428.14,-102.95 417.55,-103.08 419.94,-109.66"/>
</a>
</g>
</g>
<!-- Node5 -->
<g id="Node000005" class="node">
<title>Node5</title>
<g id="a_Node000005"><a xlink:href="class_sensor_manager.html#aded8aff6d741a64d0c34668a0694dd3d" target="_top" xlink:title="Initializes the SCD30 and BMP280 sensors.">
<polygon fill="white" stroke="#666666" points="360.12,-108 234.62,-108 234.62,-76 360.12,-76 360.12,-108"/>
<text text-anchor="start" x="242.62" y="-94.5" font-family="Helvetica,sans-Serif" font-size="10.00">SensorManager::initialize</text>
<text text-anchor="middle" x="297.38" y="-82.5" font-family="Helvetica,sans-Serif" font-size="10.00">Sensors</text>
</a>
</g>
</g>
<!-- Node1&#45;&gt;Node5 -->
<g id="edge4_Node000001_Node000005" class="edge">
<title>Node1&#45;&gt;Node5</title>
<g id="a_edge4_Node000001_Node000005"><a xlink:title=" ">
<path fill="none" stroke="#63b8ff" d="M410.23,-92C394.64,-92 376.96,-92 360.34,-92"/>
<polygon fill="#63b8ff" stroke="#63b8ff" points="410.19,-95.5 420.19,-92 410.19,-88.5 410.19,-95.5"/>
</a>
</g>
</g>
<!-- Node6 -->
<g id="Node000006" class="node">
<title>Node6</title>
<g id="a_Node000006"><a xlink:href="class_sensor_manager.html#ad6448faa4a1a1e9647682ee4a7005d80" target="_top" xlink:title="Resets the calibration flag stored in EEPROM.">
<polygon fill="white" stroke="#666666" points="386,-58 208.75,-58 208.75,-38 386,-38 386,-58"/>
<text text-anchor="middle" x="297.38" y="-44.5" font-family="Helvetica,sans-Serif" font-size="10.00">SensorManager::resetCalibrationFlag</text>
</a>
</g>
</g>
<!-- Node1&#45;&gt;Node6 -->
<g id="edge5_Node000001_Node000006" class="edge">
<title>Node1&#45;&gt;Node6</title>
<g id="a_edge5_Node000001_Node000006"><a xlink:title=" ">
<path fill="none" stroke="#63b8ff" d="M418.98,-77.72C408.41,-73.95 396.83,-70.08 386,-67 375.07,-63.89 363.25,-61.01 351.93,-58.48"/>
<polygon fill="#63b8ff" stroke="#63b8ff" points="417.55,-80.92 428.14,-81.05 419.94,-74.34 417.55,-80.92"/>
</a>
</g>
</g>
<!-- Node7 -->
<g id="Node000007" class="node">
<title>Node7</title>
<g id="a_Node000007"><a xlink:href="main_8cpp.html#a4fc01d736fe50cf5b977f755b675f11d" target="_top" xlink:title="Initializes the system, including the display, sensors, and logger.">
<polygon fill="white" stroke="#666666" points="317.38,-20 277.38,-20 277.38,0 317.38,0 317.38,-20"/>
<text text-anchor="middle" x="297.38" y="-6.5" font-family="Helvetica,sans-Serif" font-size="10.00">setup</text>
</a>
</g>
</g>
<!-- Node1&#45;&gt;Node7 -->
<g id="edge6_Node000001_Node000007" class="edge">
<title>Node1&#45;&gt;Node7</title>
<g id="a_edge6_Node000001_Node000007"><a xlink:title=" ">
<path fill="none" stroke="#63b8ff" d="M440.38,-73.13C427.22,-58.85 407.33,-39.88 386,-29 364.23,-17.89 336.21,-13.26 317.79,-11.34"/>
<polygon fill="#63b8ff" stroke="#63b8ff" points="437.74,-75.43 446.99,-80.58 442.97,-70.78 437.74,-75.43"/>
</a>
</g>
</g>
<!-- Node3 -->
<g id="Node000003" class="node">
<title>Node3</title>
<g id="a_Node000003"><a xlink:href="class_sensor_manager.html#a9daa366f758f7419ab22fb3c243801fe" target="_top" xlink:title="Checks if the SCD30 sensor needs calibration and performs calibration if necessary.">
<polygon fill="white" stroke="#666666" points="172.75,-196 0,-196 0,-164 172.75,-164 172.75,-196"/>
<text text-anchor="start" x="8" y="-182.5" font-family="Helvetica,sans-Serif" font-size="10.00">SensorManager::checkAndCalibrate</text>
<text text-anchor="middle" x="86.38" y="-170.5" font-family="Helvetica,sans-Serif" font-size="10.00">SCD30</text>
</a>
</g>
</g>
<!-- Node2&#45;&gt;Node3 -->
<g id="edge2_Node000002_Node000003" class="edge">
<title>Node2&#45;&gt;Node3</title>
<g id="a_edge2_Node000002_Node000003"><a xlink:title=" ">
<path fill="none" stroke="#63b8ff" d="M222.03,-180C206.16,-180 189.27,-180 173.02,-180"/>
<polygon fill="#63b8ff" stroke="#63b8ff" points="221.87,-183.5 231.87,-180 221.87,-176.5 221.87,-183.5"/>
</a>
</g>
</g>
</g>
</svg>
