<?xml version="1.0" encoding="UTF-8" standalone="no"?>
<!DOCTYPE svg PUBLIC "-//W3C//DTD SVG 1.1//EN"
 "http://www.w3.org/Graphics/SVG/1.1/DTD/svg11.dtd">
<!-- Generated by graphviz version 12.2.1 (20241206.2353)
 -->
<!-- Title: SensorManager::resetCalibrationFlag Pages: 1 -->
<svg width="399pt" height="66pt"
 viewBox="0.00 0.00 398.75 66.00" xmlns="http://www.w3.org/2000/svg" xmlns:xlink="http://www.w3.org/1999/xlink">
<g id="graph0" class="graph" transform="scale(1 1) rotate(0) translate(4 62)">
<title>SensorManager::resetCalibrationFlag</title>
<!-- Node1 -->
<g id="Node000001" class="node">
<title>Node1</title>
<g id="a_Node000001"><a xlink:title="Resets the calibration flag stored in EEPROM.">
<polygon fill="#999999" stroke="#666666" points="177.25,-39 0,-39 0,-19 177.25,-19 177.25,-39"/>
<text text-anchor="middle" x="88.62" y="-25.5" font-family="Helvetica,sans-Serif" font-size="10.00">SensorManager::resetCalibrationFlag</text>
</a>
</g>
</g>
<!-- Node2 -->
<g id="Node000002" class="node">
<title>Node2</title>
<g id="a_Node000002"><a xlink:href="class_logger.html#abeffd58a6beace1b1c01a5324227fd83" target="_top" xlink:title="Logs a debug message.">
<polygon fill="white" stroke="#666666" points="290.75,-58 213.25,-58 213.25,-38 290.75,-38 290.75,-58"/>
<text text-anchor="middle" x="252" y="-44.5" font-family="Helvetica,sans-Serif" font-size="10.00">Logger::debug</text>
</a>
</g>
</g>
<!-- Node1&#45;&gt;Node2 -->
<g id="edge1_Node000001_Node000002" class="edge">
<title>Node1&#45;&gt;Node2</title>
<g id="a_edge1_Node000001_Node000002"><a xlink:title=" ">
<path fill="none" stroke="#63b8ff" d="M177.4,-39.33C185.64,-40.31 193.79,-41.26 201.49,-42.17"/>
<polygon fill="#63b8ff" stroke="#63b8ff" points="200.94,-45.63 211.29,-43.32 201.76,-38.68 200.94,-45.63"/>
</a>
</g>
</g>
<!-- Node4 -->
<g id="Node000004" class="node">
<title>Node4</title>
<g id="a_Node000004"><a xlink:href="class_logger.html#ac862952b8ffa9de295a496af0108785c" target="_top" xlink:title="Logs an error message.">
<polygon fill="white" stroke="#666666" points="287.38,-20 216.62,-20 216.62,0 287.38,0 287.38,-20"/>
<text text-anchor="middle" x="252" y="-6.5" font-family="Helvetica,sans-Serif" font-size="10.00">Logger::error</text>
</a>
</g>
</g>
<!-- Node1&#45;&gt;Node4 -->
<g id="edge3_Node000001_Node000004" class="edge">
<title>Node1&#45;&gt;Node4</title>
<g id="a_edge3_Node000001_Node000004"><a xlink:title=" ">
<path fill="none" stroke="#63b8ff" d="M177.4,-18.67C186.85,-17.55 196.17,-16.46 204.84,-15.43"/>
<polygon fill="#63b8ff" stroke="#63b8ff" points="205.18,-18.92 214.7,-14.27 204.36,-11.97 205.18,-18.92"/>
</a>
</g>
</g>
<!-- Node3 -->
<g id="Node000003" class="node">
<title>Node3</title>
<g id="a_Node000003"><a xlink:href="class_logger.html#af0dc4ff68b6d37026b9f6c7a51da6aaa" target="_top" xlink:title="Logs a message if it meets the current log level.">
<polygon fill="white" stroke="#666666" points="390.75,-39 326.75,-39 326.75,-19 390.75,-19 390.75,-39"/>
<text text-anchor="middle" x="358.75" y="-25.5" font-family="Helvetica,sans-Serif" font-size="10.00">Logger::log</text>
</a>
</g>
</g>
<!-- Node2&#45;&gt;Node3 -->
<g id="edge2_Node000002_Node000003" class="edge">
<title>Node2&#45;&gt;Node3</title>
<g id="a_edge2_Node000002_Node000003"><a xlink:title=" ">
<path fill="none" stroke="#63b8ff" d="M291.11,-41.09C298.9,-39.68 307.13,-38.18 315.06,-36.74"/>
<polygon fill="#63b8ff" stroke="#63b8ff" points="315.67,-40.19 324.88,-34.96 314.42,-33.3 315.67,-40.19"/>
</a>
</g>
</g>
<!-- Node4&#45;&gt;Node3 -->
<g id="edge4_Node000004_Node000003" class="edge">
<title>Node4&#45;&gt;Node3</title>
<g id="a_edge4_Node000004_Node000003"><a xlink:title=" ">
<path fill="none" stroke="#63b8ff" d="M287.59,-16.27C296.39,-17.87 305.95,-19.6 315.1,-21.26"/>
<polygon fill="#63b8ff" stroke="#63b8ff" points="314.42,-24.7 324.89,-23.04 315.67,-17.81 314.42,-24.7"/>
</a>
</g>
</g>
</g>
</svg>
