<?xml version="1.0" encoding="UTF-8" standalone="no"?>
<!DOCTYPE svg PUBLIC "-//W3C//DTD SVG 1.1//EN"
 "http://www.w3.org/Graphics/SVG/1.1/DTD/svg11.dtd">
<!-- Generated by graphviz version 12.2.1 (20241206.2353)
 -->
<!-- Title: Logger::info Pages: 1 -->
<svg width="459pt" height="330pt"
 viewBox="0.00 0.00 458.75 330.00" xmlns="http://www.w3.org/2000/svg" xmlns:xlink="http://www.w3.org/1999/xlink">
<g id="graph0" class="graph" transform="scale(1 1) rotate(0) translate(4 326)">
<title>Logger::info</title>
<!-- Node1 -->
<g id="Node000001" class="node">
<title>Node1</title>
<g id="a_Node000001"><a xlink:title="Logs an informational message.">
<polygon fill="#999999" stroke="#666666" points="450.75,-168 383.75,-168 383.75,-148 450.75,-148 450.75,-168"/>
<text text-anchor="middle" x="417.25" y="-154.5" font-family="Helvetica,sans-Serif" font-size="10.00">Logger::info</text>
</a>
</g>
</g>
<!-- Node2 -->
<g id="Node000002" class="node">
<title>Node2</title>
<g id="a_Node000002"><a xlink:href="class_sensor_manager.html#a3608ee33385f64e74410127d59c2638e" target="_top" xlink:title="Calibrates the SCD30 sensor using the forced recalibration factor.">
<polygon fill="white" stroke="#666666" points="341.75,-322 214.75,-322 214.75,-290 341.75,-290 341.75,-322"/>
<text text-anchor="start" x="222.75" y="-308.5" font-family="Helvetica,sans-Serif" font-size="10.00">SensorManager::calibrate</text>
<text text-anchor="middle" x="278.25" y="-296.5" font-family="Helvetica,sans-Serif" font-size="10.00">SCD30</text>
</a>
</g>
</g>
<!-- Node1&#45;&gt;Node2 -->
<g id="edge1_Node000001_Node000002" class="edge">
<title>Node1&#45;&gt;Node2</title>
<g id="a_edge1_Node000001_Node000002"><a xlink:title=" ">
<path fill="none" stroke="#63b8ff" d="M408.88,-178.75C398.75,-204.63 378.24,-248.78 347.75,-276 341.75,-281.36 334.63,-285.88 327.3,-289.66"/>
<polygon fill="#63b8ff" stroke="#63b8ff" points="412.05,-180.29 412.27,-169.69 405.49,-177.83 412.05,-180.29"/>
</a>
</g>
</g>
<!-- Node3 -->
<g id="Node000003" class="node">
<title>Node3</title>
<g id="a_Node000003"><a xlink:href="class_sensor_manager.html#a9daa366f758f7419ab22fb3c243801fe" target="_top" xlink:title="Checks if the SCD30 sensor needs calibration and performs calibration if necessary.">
<polygon fill="white" stroke="#666666" points="172.75,-300 0,-300 0,-268 172.75,-268 172.75,-300"/>
<text text-anchor="start" x="8" y="-286.5" font-family="Helvetica,sans-Serif" font-size="10.00">SensorManager::checkAndCalibrate</text>
<text text-anchor="middle" x="86.38" y="-274.5" font-family="Helvetica,sans-Serif" font-size="10.00">SCD30</text>
</a>
</g>
</g>
<!-- Node1&#45;&gt;Node3 -->
<g id="edge3_Node000001_Node000003" class="edge">
<title>Node1&#45;&gt;Node3</title>
<g id="a_edge3_Node000001_Node000003"><a xlink:title=" ">
<path fill="none" stroke="#63b8ff" d="M405.72,-178.37C394.27,-198.3 374.05,-227.79 347.75,-243 318.63,-259.84 237.1,-270.86 172.95,-277.19"/>
<polygon fill="#63b8ff" stroke="#63b8ff" points="408.7,-180.22 410.43,-169.77 402.56,-176.86 408.7,-180.22"/>
</a>
</g>
</g>
<!-- Node4 -->
<g id="Node000004" class="node">
<title>Node4</title>
<g id="a_Node000004"><a xlink:href="class_display_manager.html#aeb1c8224403ea2595f202e5d93380609" target="_top" xlink:title="Initializes the OLED display.">
<polygon fill="white" stroke="#666666" points="342.12,-234 214.38,-234 214.38,-214 342.12,-214 342.12,-234"/>
<text text-anchor="middle" x="278.25" y="-220.5" font-family="Helvetica,sans-Serif" font-size="10.00">DisplayManager::initialize</text>
</a>
</g>
</g>
<!-- Node1&#45;&gt;Node4 -->
<g id="edge4_Node000001_Node000004" class="edge">
<title>Node1&#45;&gt;Node4</title>
<g id="a_edge4_Node000001_Node000004"><a xlink:title=" ">
<path fill="none" stroke="#63b8ff" d="M394.88,-175.4C381.9,-185.25 364.63,-197.14 347.75,-205 340.59,-208.34 332.73,-211.19 324.96,-213.6"/>
<polygon fill="#63b8ff" stroke="#63b8ff" points="396.97,-178.21 402.7,-169.3 392.66,-172.69 396.97,-178.21"/>
</a>
</g>
</g>
<!-- Node5 -->
<g id="Node000005" class="node">
<title>Node5</title>
<g id="a_Node000005"><a xlink:href="class_sensor_manager.html#aded8aff6d741a64d0c34668a0694dd3d" target="_top" xlink:title="Initializes the SCD30 and BMP280 sensors.">
<polygon fill="white" stroke="#666666" points="341,-196 215.5,-196 215.5,-164 341,-164 341,-196"/>
<text text-anchor="start" x="223.5" y="-182.5" font-family="Helvetica,sans-Serif" font-size="10.00">SensorManager::initialize</text>
<text text-anchor="middle" x="278.25" y="-170.5" font-family="Helvetica,sans-Serif" font-size="10.00">Sensors</text>
</a>
</g>
</g>
<!-- Node1&#45;&gt;Node5 -->
<g id="edge5_Node000001_Node000005" class="edge">
<title>Node1&#45;&gt;Node5</title>
<g id="a_edge5_Node000001_Node000005"><a xlink:title=" ">
<path fill="none" stroke="#63b8ff" d="M372.27,-165.06C362.41,-166.65 351.76,-168.36 341.31,-170.03"/>
<polygon fill="#63b8ff" stroke="#63b8ff" points="372.62,-168.55 381.94,-163.51 371.51,-161.64 372.62,-168.55"/>
</a>
</g>
</g>
<!-- Node6 -->
<g id="Node000006" class="node">
<title>Node6</title>
<g id="a_Node000006"><a xlink:href="main_8cpp.html#afe461d27b9c48d5921c00d521181f12f" target="_top" xlink:title="Main loop for retrieving sensor data and updating the display.">
<polygon fill="white" stroke="#666666" points="295.25,-146 261.25,-146 261.25,-126 295.25,-126 295.25,-146"/>
<text text-anchor="middle" x="278.25" y="-132.5" font-family="Helvetica,sans-Serif" font-size="10.00">loop</text>
</a>
</g>
</g>
<!-- Node1&#45;&gt;Node6 -->
<g id="edge6_Node000001_Node000006" class="edge">
<title>Node1&#45;&gt;Node6</title>
<g id="a_edge6_Node000001_Node000006"><a xlink:title=" ">
<path fill="none" stroke="#63b8ff" d="M372.24,-150.93C346.08,-146.73 314.43,-141.65 295.62,-138.63"/>
<polygon fill="#63b8ff" stroke="#63b8ff" points="371.51,-154.36 381.94,-152.49 372.62,-147.45 371.51,-154.36"/>
</a>
</g>
</g>
<!-- Node7 -->
<g id="Node000007" class="node">
<title>Node7</title>
<g id="a_Node000007"><a xlink:href="class_display_manager.html#a2d6f5efef5cb7e03c820ab14c4adc217" target="_top" xlink:title="Runs a display check to verify the OLED functionality.">
<polygon fill="white" stroke="#666666" points="347.75,-108 208.75,-108 208.75,-76 347.75,-76 347.75,-108"/>
<text text-anchor="start" x="216.75" y="-94.5" font-family="Helvetica,sans-Serif" font-size="10.00">DisplayManager::runDisplay</text>
<text text-anchor="middle" x="278.25" y="-82.5" font-family="Helvetica,sans-Serif" font-size="10.00">Check</text>
</a>
</g>
</g>
<!-- Node1&#45;&gt;Node7 -->
<g id="edge7_Node000001_Node000007" class="edge">
<title>Node1&#45;&gt;Node7</title>
<g id="a_edge7_Node000001_Node000007"><a xlink:title=" ">
<path fill="none" stroke="#63b8ff" d="M391.23,-141.47C378.53,-133.48 362.66,-124.1 347.75,-117 341.46,-114.01 334.72,-111.14 328,-108.5"/>
<polygon fill="#63b8ff" stroke="#63b8ff" points="389.08,-144.25 399.39,-146.69 392.86,-138.35 389.08,-144.25"/>
</a>
</g>
</g>
<!-- Node8 -->
<g id="Node000008" class="node">
<title>Node8</title>
<g id="a_Node000008"><a xlink:href="class_i2_c_scanner.html#ad3b7b4bc25e6c1e8b89e702862a56af5" target="_top" xlink:title="Scans the I2C bus for connected devices.">
<polygon fill="white" stroke="#666666" points="325.62,-58 230.88,-58 230.88,-38 325.62,-38 325.62,-58"/>
<text text-anchor="middle" x="278.25" y="-44.5" font-family="Helvetica,sans-Serif" font-size="10.00">I2CScanner::scan</text>
</a>
</g>
</g>
<!-- Node1&#45;&gt;Node8 -->
<g id="edge8_Node000001_Node000008" class="edge">
<title>Node1&#45;&gt;Node8</title>
<g id="a_edge8_Node000001_Node000008"><a xlink:title=" ">
<path fill="none" stroke="#63b8ff" d="M406.19,-137.79C394.81,-116.98 374.35,-85.12 347.75,-67 341.22,-62.55 333.68,-59.14 326.03,-56.53"/>
<polygon fill="#63b8ff" stroke="#63b8ff" points="402.99,-139.21 410.73,-146.45 409.19,-135.97 402.99,-139.21"/>
</a>
</g>
</g>
<!-- Node9 -->
<g id="Node000009" class="node">
<title>Node9</title>
<g id="a_Node000009"><a xlink:href="main_8cpp.html#a4fc01d736fe50cf5b977f755b675f11d" target="_top" xlink:title="Initializes the system, including the display, sensors, and logger.">
<polygon fill="white" stroke="#666666" points="298.25,-20 258.25,-20 258.25,0 298.25,0 298.25,-20"/>
<text text-anchor="middle" x="278.25" y="-6.5" font-family="Helvetica,sans-Serif" font-size="10.00">setup</text>
</a>
</g>
</g>
<!-- Node1&#45;&gt;Node9 -->
<g id="edge9_Node000001_Node000009" class="edge">
<title>Node1&#45;&gt;Node9</title>
<g id="a_edge9_Node000001_Node000009"><a xlink:title=" ">
<path fill="none" stroke="#63b8ff" d="M410.79,-137.06C402.23,-108.37 382.87,-57.2 347.75,-29 333.7,-17.72 313.4,-13.12 298.54,-11.26"/>
<polygon fill="#63b8ff" stroke="#63b8ff" points="407.34,-137.7 413.41,-146.39 414.08,-135.82 407.34,-137.7"/>
</a>
</g>
</g>
<!-- Node2&#45;&gt;Node3 -->
<g id="edge2_Node000002_Node000003" class="edge">
<title>Node2&#45;&gt;Node3</title>
<g id="a_edge2_Node000002_Node000003"><a xlink:title=" ">
<path fill="none" stroke="#63b8ff" d="M202.98,-297.39C193.21,-296.26 183.13,-295.09 173.18,-293.94"/>
<polygon fill="#63b8ff" stroke="#63b8ff" points="202.45,-300.86 212.78,-298.53 203.25,-293.9 202.45,-300.86"/>
</a>
</g>
</g>
</g>
</svg>
