<?xml version="1.0" encoding="UTF-8" standalone="no"?>
<!DOCTYPE svg PUBLIC "-//W3C//DTD SVG 1.1//EN"
 "http://www.w3.org/Graphics/SVG/1.1/DTD/svg11.dtd">
<!-- Generated by graphviz version 12.2.1 (20241206.2353)
 -->
<!-- Title: Logger::log Pages: 1 -->
<svg width="617pt" height="482pt"
 viewBox="0.00 0.00 617.25 482.00" xmlns="http://www.w3.org/2000/svg" xmlns:xlink="http://www.w3.org/1999/xlink">
<g id="graph0" class="graph" transform="scale(1 1) rotate(0) translate(4 478)">
<title>Logger::log</title>
<!-- Node1 -->
<g id="Node000001" class="node">
<title>Node1</title>
<g id="a_Node000001"><a xlink:title="Logs a message if it meets the current log level.">
<polygon fill="#999999" stroke="#666666" points="609.25,-263 545.25,-263 545.25,-243 609.25,-243 609.25,-263"/>
<text text-anchor="middle" x="577.25" y="-249.5" font-family="Helvetica,sans-Serif" font-size="10.00">Logger::log</text>
</a>
</g>
</g>
<!-- Node2 -->
<g id="Node000002" class="node">
<title>Node2</title>
<g id="a_Node000002"><a xlink:href="$class_logger.html#abeffd58a6beace1b1c01a5324227fd83" xlink:title="Logs a debug message.">
<polygon fill="white" stroke="#666666" points="505.5,-360 428,-360 428,-340 505.5,-340 505.5,-360"/>
<text text-anchor="middle" x="466.75" y="-346.5" font-family="Helvetica,sans-Serif" font-size="10.00">Logger::debug</text>
</a>
</g>
</g>
<!-- Node1&#45;&gt;Node2 -->
<g id="edge1_Node000001_Node000002" class="edge">
<title>Node1&#45;&gt;Node2</title>
<g id="a_edge1_Node000001_Node000002"><a xlink:title=" ">
<path fill="none" stroke="#63b8ff" d="M556.13,-270.99C533.52,-291.2 497.58,-323.33 479.28,-339.69"/>
<polygon fill="#63b8ff" stroke="#63b8ff" points="558.39,-273.66 563.51,-264.39 553.72,-268.45 558.39,-273.66"/>
</a>
</g>
</g>
<!-- Node9 -->
<g id="Node000009" class="node">
<title>Node9</title>
<g id="a_Node000009"><a xlink:href="$class_logger.html#ac862952b8ffa9de295a496af0108785c" xlink:title="Logs an error message.">
<polygon fill="white" stroke="#666666" points="502.12,-243 431.38,-243 431.38,-223 502.12,-223 502.12,-243"/>
<text text-anchor="middle" x="466.75" y="-229.5" font-family="Helvetica,sans-Serif" font-size="10.00">Logger::error</text>
</a>
</g>
</g>
<!-- Node1&#45;&gt;Node9 -->
<g id="edge8_Node000001_Node000009" class="edge">
<title>Node1&#45;&gt;Node9</title>
<g id="a_edge8_Node000001_Node000009"><a xlink:title=" ">
<path fill="none" stroke="#63b8ff" d="M533.57,-245.13C523.26,-243.23 512.38,-241.23 502.49,-239.4"/>
<polygon fill="#63b8ff" stroke="#63b8ff" points="532.91,-248.57 543.38,-246.94 534.18,-241.69 532.91,-248.57"/>
</a>
</g>
</g>
<!-- Node14 -->
<g id="Node000014" class="node">
<title>Node14</title>
<g id="a_Node000014"><a xlink:href="$class_logger.html#a0c5851d03ba2e560bfd57aeb713267b3" xlink:title="Logs an informational message.">
<polygon fill="white" stroke="#666666" points="500.25,-202 433.25,-202 433.25,-182 500.25,-182 500.25,-202"/>
<text text-anchor="middle" x="466.75" y="-188.5" font-family="Helvetica,sans-Serif" font-size="10.00">Logger::info</text>
</a>
</g>
</g>
<!-- Node1&#45;&gt;Node14 -->
<g id="edge15_Node000001_Node000014" class="edge">
<title>Node1&#45;&gt;Node14</title>
<g id="a_edge15_Node000001_Node000014"><a xlink:title=" ">
<path fill="none" stroke="#63b8ff" d="M549.17,-236.91C537.03,-229.78 522.48,-221.36 509.25,-214 502.26,-210.12 494.55,-205.98 487.68,-202.36"/>
<polygon fill="#63b8ff" stroke="#63b8ff" points="547.03,-239.71 557.42,-241.78 550.59,-233.68 547.03,-239.71"/>
</a>
</g>
</g>
<!-- Node17 -->
<g id="Node000017" class="node">
<title>Node17</title>
<g id="a_Node000017"><a xlink:href="$class_logger.html#a4d229b17ee039e273686455c74382ec6" xlink:title="Logs a warning message.">
<polygon fill="white" stroke="#666666" points="509.25,-283 424.25,-283 424.25,-263 509.25,-263 509.25,-283"/>
<text text-anchor="middle" x="466.75" y="-269.5" font-family="Helvetica,sans-Serif" font-size="10.00">Logger::warning</text>
</a>
</g>
</g>
<!-- Node1&#45;&gt;Node17 -->
<g id="edge24_Node000001_Node000017" class="edge">
<title>Node1&#45;&gt;Node17</title>
<g id="a_edge24_Node000001_Node000017"><a xlink:title=" ">
<path fill="none" stroke="#63b8ff" d="M533.61,-260.86C525.7,-262.32 517.45,-263.84 509.56,-265.29"/>
<polygon fill="#63b8ff" stroke="#63b8ff" points="534.18,-264.31 543.38,-259.06 532.91,-257.43 534.18,-264.31"/>
</a>
</g>
</g>
<!-- Node3 -->
<g id="Node000003" class="node">
<title>Node3</title>
<g id="a_Node000003"><a xlink:href="$class_sensor_manager.html#ab621f498c240f93c0d9a7e47cbb669c6" xlink:title="Retrieves the current pressure reading from the BMP280 sensor.">
<polygon fill="white" stroke="#666666" points="369.88,-474 227.12,-474 227.12,-454 369.88,-454 369.88,-474"/>
<text text-anchor="middle" x="298.5" y="-460.5" font-family="Helvetica,sans-Serif" font-size="10.00">SensorManager::getPressure</text>
</a>
</g>
</g>
<!-- Node2&#45;&gt;Node3 -->
<g id="edge2_Node000002_Node000003" class="edge">
<title>Node2&#45;&gt;Node3</title>
<g id="a_edge2_Node000002_Node000003"><a xlink:title=" ">
<path fill="none" stroke="#63b8ff" d="M454.92,-370.15C442.02,-392.11 418.39,-426.58 388.25,-445 382.6,-448.45 376.42,-451.28 370.03,-453.6"/>
<polygon fill="#63b8ff" stroke="#63b8ff" points="457.91,-371.98 459.77,-361.55 451.81,-368.54 457.91,-371.98"/>
</a>
</g>
</g>
<!-- Node4 -->
<g id="Node000004" class="node">
<title>Node4</title>
<g id="a_Node000004"><a xlink:href="$class_sensor_manager.html#aa4207d6b919d2deac9d8b95c6a36f8b9" xlink:title="Retrieves the current temperature reading from the BMP280 sensor.">
<polygon fill="white" stroke="#666666" points="388.25,-436 208.75,-436 208.75,-416 388.25,-416 388.25,-436"/>
<text text-anchor="middle" x="298.5" y="-422.5" font-family="Helvetica,sans-Serif" font-size="10.00">SensorManager::getTemperatureBMP</text>
</a>
</g>
</g>
<!-- Node2&#45;&gt;Node4 -->
<g id="edge3_Node000002_Node000004" class="edge">
<title>Node2&#45;&gt;Node4</title>
<g id="a_edge3_Node000002_Node000004"><a xlink:title=" ">
<path fill="none" stroke="#63b8ff" d="M446.85,-367.5C431.99,-380.31 410.2,-397.13 388.25,-407 380.63,-410.42 372.37,-413.25 364.04,-415.57"/>
<polygon fill="#63b8ff" stroke="#63b8ff" points="448.86,-370.39 454.02,-361.13 444.21,-365.16 448.86,-370.39"/>
</a>
</g>
</g>
<!-- Node5 -->
<g id="Node000005" class="node">
<title>Node5</title>
<g id="a_Node000005"><a xlink:href="$class_sensor_manager.html#a4fa7cbb9b36b933c0ca03553ba4db966" xlink:title="Checks if new data is available from the sensors.">
<polygon fill="white" stroke="#666666" points="377.75,-398 219.25,-398 219.25,-378 377.75,-378 377.75,-398"/>
<text text-anchor="middle" x="298.5" y="-384.5" font-family="Helvetica,sans-Serif" font-size="10.00">SensorManager::isDataAvailable</text>
</a>
</g>
</g>
<!-- Node2&#45;&gt;Node5 -->
<g id="edge4_Node000002_Node000005" class="edge">
<title>Node2&#45;&gt;Node5</title>
<g id="a_edge4_Node000002_Node000005"><a xlink:title=" ">
<path fill="none" stroke="#63b8ff" d="M416.41,-362.33C407.07,-364.6 397.37,-366.91 388.25,-369 375.81,-371.86 362.36,-374.81 349.78,-377.51"/>
<polygon fill="#63b8ff" stroke="#63b8ff" points="417.21,-365.73 426.1,-359.96 415.55,-358.93 417.21,-365.73"/>
</a>
</g>
</g>
<!-- Node6 -->
<g id="Node000006" class="node">
<title>Node6</title>
<g id="a_Node000006"><a xlink:href="$main_8cpp.html#afe461d27b9c48d5921c00d521181f12f" xlink:title="Main loop for retrieving sensor data and updating the display.">
<polygon fill="white" stroke="#666666" points="315.5,-322 281.5,-322 281.5,-302 315.5,-302 315.5,-322"/>
<text text-anchor="middle" x="298.5" y="-308.5" font-family="Helvetica,sans-Serif" font-size="10.00">loop</text>
</a>
</g>
</g>
<!-- Node2&#45;&gt;Node6 -->
<g id="edge5_Node000002_Node000006" class="edge">
<title>Node2&#45;&gt;Node6</title>
<g id="a_edge5_Node000002_Node000006"><a xlink:title=" ">
<path fill="none" stroke="#63b8ff" d="M416.41,-337.67C407.07,-335.4 397.37,-333.09 388.25,-331 363.06,-325.22 333.72,-319.05 315.89,-315.36"/>
<polygon fill="#63b8ff" stroke="#63b8ff" points="415.55,-341.07 426.1,-340.04 417.21,-334.27 415.55,-341.07"/>
</a>
</g>
</g>
<!-- Node7 -->
<g id="Node000007" class="node">
<title>Node7</title>
<g id="a_Node000007"><a xlink:href="$class_sensor_manager.html#ad6448faa4a1a1e9647682ee4a7005d80" xlink:title="Resets the calibration flag stored in EEPROM.">
<polygon fill="white" stroke="#666666" points="387.12,-360 209.88,-360 209.88,-340 387.12,-340 387.12,-360"/>
<text text-anchor="middle" x="298.5" y="-346.5" font-family="Helvetica,sans-Serif" font-size="10.00">SensorManager::resetCalibrationFlag</text>
</a>
</g>
</g>
<!-- Node2&#45;&gt;Node7 -->
<g id="edge6_Node000002_Node000007" class="edge">
<title>Node2&#45;&gt;Node7</title>
<g id="a_edge6_Node000002_Node000007"><a xlink:title=" ">
<path fill="none" stroke="#63b8ff" d="M416.11,-350C407.05,-350 397.35,-350 387.56,-350"/>
<polygon fill="#63b8ff" stroke="#63b8ff" points="416.1,-353.5 426.1,-350 416.1,-346.5 416.1,-353.5"/>
</a>
</g>
</g>
<!-- Node8 -->
<g id="Node000008" class="node">
<title>Node8</title>
<g id="a_Node000008"><a xlink:href="$main_8cpp.html#a4fc01d736fe50cf5b977f755b675f11d" xlink:title="Initializes the system, including the display, sensors, and logger.">
<polygon fill="white" stroke="#666666" points="318.5,-284 278.5,-284 278.5,-264 318.5,-264 318.5,-284"/>
<text text-anchor="middle" x="298.5" y="-270.5" font-family="Helvetica,sans-Serif" font-size="10.00">setup</text>
</a>
</g>
</g>
<!-- Node2&#45;&gt;Node8 -->
<g id="edge7_Node000002_Node000008" class="edge">
<title>Node2&#45;&gt;Node8</title>
<g id="a_edge7_Node000002_Node000008"><a xlink:title=" ">
<path fill="none" stroke="#63b8ff" d="M446.85,-332.5C431.99,-319.69 410.2,-302.87 388.25,-293 365.69,-282.86 337.42,-278.01 318.93,-275.78"/>
<polygon fill="#63b8ff" stroke="#63b8ff" points="444.21,-334.84 454.02,-338.87 448.86,-329.61 444.21,-334.84"/>
</a>
</g>
</g>
<!-- Node9&#45;&gt;Node7 -->
<g id="edge13_Node000009_Node000007" class="edge">
<title>Node9&#45;&gt;Node7</title>
<g id="a_edge13_Node000009_Node000007"><a xlink:title=" ">
<path fill="none" stroke="#63b8ff" d="M429.18,-249.59C427.43,-250.97 425.77,-252.43 424.25,-254 397.96,-281.13 417.81,-307.48 388.25,-331 383.93,-334.43 379.14,-337.28 374.08,-339.65"/>
<polygon fill="#63b8ff" stroke="#63b8ff" points="430.8,-252.71 437.26,-244.31 426.97,-246.85 430.8,-252.71"/>
</a>
</g>
</g>
<!-- Node9&#45;&gt;Node8 -->
<g id="edge14_Node000009_Node000008" class="edge">
<title>Node9&#45;&gt;Node8</title>
<g id="a_edge14_Node000009_Node000008"><a xlink:title=" ">
<path fill="none" stroke="#63b8ff" d="M420.14,-246.49C409.7,-249.42 398.62,-252.42 388.25,-255 364.55,-260.89 337.01,-266.62 318.97,-270.21"/>
<polygon fill="#63b8ff" stroke="#63b8ff" points="421.05,-249.87 429.7,-243.76 419.13,-243.14 421.05,-249.87"/>
</a>
</g>
</g>
<!-- Node10 -->
<g id="Node000010" class="node">
<title>Node10</title>
<g id="a_Node000010"><a xlink:href="$class_sensor_manager.html#a3608ee33385f64e74410127d59c2638e" xlink:title="Calibrates the SCD30 sensor using the forced recalibration factor.">
<polygon fill="white" stroke="#666666" points="362,-208 235,-208 235,-176 362,-176 362,-208"/>
<text text-anchor="start" x="243" y="-194.5" font-family="Helvetica,sans-Serif" font-size="10.00">SensorManager::calibrate</text>
<text text-anchor="middle" x="298.5" y="-182.5" font-family="Helvetica,sans-Serif" font-size="10.00">SCD30</text>
</a>
</g>
</g>
<!-- Node9&#45;&gt;Node10 -->
<g id="edge9_Node000009_Node000010" class="edge">
<title>Node9&#45;&gt;Node10</title>
<g id="a_edge9_Node000009_Node000010"><a xlink:title=" ">
<path fill="none" stroke="#63b8ff" d="M419.92,-221.7C402.09,-217.3 381.36,-212.19 362.18,-207.46"/>
<polygon fill="#63b8ff" stroke="#63b8ff" points="418.88,-225.05 429.43,-224.04 420.56,-218.25 418.88,-225.05"/>
</a>
</g>
</g>
<!-- Node12 -->
<g id="Node000012" class="node">
<title>Node12</title>
<g id="a_Node000012"><a xlink:href="$class_display_manager.html#aeb1c8224403ea2595f202e5d93380609" xlink:title="Initializes the OLED display.">
<polygon fill="white" stroke="#666666" points="362.38,-158 234.62,-158 234.62,-138 362.38,-138 362.38,-158"/>
<text text-anchor="middle" x="298.5" y="-144.5" font-family="Helvetica,sans-Serif" font-size="10.00">DisplayManager::initialize</text>
</a>
</g>
</g>
<!-- Node9&#45;&gt;Node12 -->
<g id="edge11_Node000009_Node000012" class="edge">
<title>Node9&#45;&gt;Node12</title>
<g id="a_edge11_Node000009_Node000012"><a xlink:title=" ">
<path fill="none" stroke="#63b8ff" d="M432.43,-216.9C429.56,-215.06 426.79,-213.08 424.25,-211 404.7,-194.99 409.82,-180.16 388.25,-167 380.45,-162.24 371.63,-158.66 362.65,-155.97"/>
<polygon fill="#63b8ff" stroke="#63b8ff" points="430.62,-219.9 441.02,-221.9 434.14,-213.85 430.62,-219.9"/>
</a>
</g>
</g>
<!-- Node13 -->
<g id="Node000013" class="node">
<title>Node13</title>
<g id="a_Node000013"><a xlink:href="$class_sensor_manager.html#aded8aff6d741a64d0c34668a0694dd3d" xlink:title="Initializes the SCD30 and BMP280 sensors.">
<polygon fill="white" stroke="#666666" points="361.25,-120 235.75,-120 235.75,-88 361.25,-88 361.25,-120"/>
<text text-anchor="start" x="243.75" y="-106.5" font-family="Helvetica,sans-Serif" font-size="10.00">SensorManager::initialize</text>
<text text-anchor="middle" x="298.5" y="-94.5" font-family="Helvetica,sans-Serif" font-size="10.00">Sensors</text>
</a>
</g>
</g>
<!-- Node9&#45;&gt;Node13 -->
<g id="edge12_Node000009_Node000013" class="edge">
<title>Node9&#45;&gt;Node13</title>
<g id="a_edge12_Node000009_Node000013"><a xlink:title=" ">
<path fill="none" stroke="#63b8ff" d="M430.53,-216.66C428.27,-214.93 426.14,-213.04 424.25,-211 397.16,-181.84 418.28,-155.12 388.25,-129 380.52,-122.28 371.11,-117.35 361.34,-113.75"/>
<polygon fill="#63b8ff" stroke="#63b8ff" points="428.18,-219.31 438.47,-221.82 431.99,-213.44 428.18,-219.31"/>
</a>
</g>
</g>
<!-- Node11 -->
<g id="Node000011" class="node">
<title>Node11</title>
<g id="a_Node000011"><a xlink:href="$class_sensor_manager.html#a9daa366f758f7419ab22fb3c243801fe" xlink:title="Checks if the SCD30 sensor needs calibration and performs calibration if necessary.">
<polygon fill="white" stroke="#666666" points="172.75,-142 0,-142 0,-110 172.75,-110 172.75,-142"/>
<text text-anchor="start" x="8" y="-128.5" font-family="Helvetica,sans-Serif" font-size="10.00">SensorManager::checkAndCalibrate</text>
<text text-anchor="middle" x="86.38" y="-116.5" font-family="Helvetica,sans-Serif" font-size="10.00">SCD30</text>
</a>
</g>
</g>
<!-- Node10&#45;&gt;Node11 -->
<g id="edge10_Node000010_Node000011" class="edge">
<title>Node10&#45;&gt;Node11</title>
<g id="a_edge10_Node000010_Node000011"><a xlink:title=" ">
<path fill="none" stroke="#63b8ff" d="M226.74,-172.42C220.64,-170.63 214.58,-168.8 208.75,-167 184,-159.34 156.64,-150.16 134.17,-142.43"/>
<polygon fill="#63b8ff" stroke="#63b8ff" points="225.67,-175.75 236.25,-175.18 227.62,-169.03 225.67,-175.75"/>
</a>
</g>
</g>
<!-- Node14&#45;&gt;Node6 -->
<g id="edge20_Node000014_Node000006" class="edge">
<title>Node14&#45;&gt;Node6</title>
<g id="a_edge20_Node000014_Node000006"><a xlink:title=" ">
<path fill="none" stroke="#63b8ff" d="M430.57,-208.37C428.29,-210.1 426.16,-211.97 424.25,-214 397.8,-242.09 418.32,-268.83 388.25,-293 367.37,-309.78 335.09,-312.65 315.75,-312.69"/>
<polygon fill="#63b8ff" stroke="#63b8ff" points="432.02,-211.59 438.51,-203.22 428.22,-205.72 432.02,-211.59"/>
</a>
</g>
</g>
<!-- Node14&#45;&gt;Node8 -->
<g id="edge23_Node000014_Node000008" class="edge">
<title>Node14&#45;&gt;Node8</title>
<g id="a_edge23_Node000014_Node000008"><a xlink:title=" ">
<path fill="none" stroke="#63b8ff" d="M432.51,-208.19C429.62,-210.02 426.83,-211.96 424.25,-214 405.23,-229.04 409.17,-242.73 388.25,-255 366.64,-267.68 337.64,-271.94 318.76,-273.34"/>
<polygon fill="#63b8ff" stroke="#63b8ff" points="434.21,-211.25 441.12,-203.22 430.71,-205.19 434.21,-211.25"/>
</a>
</g>
</g>
<!-- Node14&#45;&gt;Node10 -->
<g id="edge16_Node000014_Node000010" class="edge">
<title>Node14&#45;&gt;Node10</title>
<g id="a_edge16_Node000014_Node000010"><a xlink:title=" ">
<path fill="none" stroke="#63b8ff" d="M421.48,-192C403.31,-192 381.95,-192 362.23,-192"/>
<polygon fill="#63b8ff" stroke="#63b8ff" points="421.39,-195.5 431.39,-192 421.39,-188.5 421.39,-195.5"/>
</a>
</g>
</g>
<!-- Node14&#45;&gt;Node11 -->
<g id="edge17_Node000014_Node000011" class="edge">
<title>Node14&#45;&gt;Node11</title>
<g id="a_edge17_Node000014_Node000011"><a xlink:title=" ">
<path fill="none" stroke="#63b8ff" d="M458.46,-171.09C447.8,-144.13 425.1,-98.41 388.25,-79 298.67,-31.82 174.75,-81.52 117.99,-109.57"/>
<polygon fill="#63b8ff" stroke="#63b8ff" points="455.11,-172.12 461.88,-180.26 461.67,-169.67 455.11,-172.12"/>
</a>
</g>
</g>
<!-- Node14&#45;&gt;Node12 -->
<g id="edge18_Node000014_Node000012" class="edge">
<title>Node14&#45;&gt;Node12</title>
<g id="a_edge18_Node000014_Node000012"><a xlink:title=" ">
<path fill="none" stroke="#63b8ff" d="M424.92,-177.97C413.15,-174.17 400.26,-170.21 388.25,-167 376.83,-163.95 364.49,-161.05 352.74,-158.48"/>
<polygon fill="#63b8ff" stroke="#63b8ff" points="423.75,-181.27 434.34,-181.08 425.94,-174.63 423.75,-181.27"/>
</a>
</g>
</g>
<!-- Node14&#45;&gt;Node13 -->
<g id="edge19_Node000014_Node000013" class="edge">
<title>Node14&#45;&gt;Node13</title>
<g id="a_edge19_Node000014_Node000013"><a xlink:title=" ">
<path fill="none" stroke="#63b8ff" d="M447.49,-173.49C432.69,-159.45 410.68,-140.64 388.25,-129 379.87,-124.65 370.63,-120.98 361.39,-117.9"/>
<polygon fill="#63b8ff" stroke="#63b8ff" points="445.03,-175.97 454.63,-180.45 449.91,-170.96 445.03,-175.97"/>
</a>
</g>
</g>
<!-- Node15 -->
<g id="Node000015" class="node">
<title>Node15</title>
<g id="a_Node000015"><a xlink:href="$class_display_manager.html#a2d6f5efef5cb7e03c820ab14c4adc217" xlink:title="Runs a display check to verify the OLED functionality.">
<polygon fill="white" stroke="#666666" points="368,-32 229,-32 229,0 368,0 368,-32"/>
<text text-anchor="start" x="237" y="-18.5" font-family="Helvetica,sans-Serif" font-size="10.00">DisplayManager::runDisplay</text>
<text text-anchor="middle" x="298.5" y="-6.5" font-family="Helvetica,sans-Serif" font-size="10.00">Check</text>
</a>
</g>
</g>
<!-- Node14&#45;&gt;Node15 -->
<g id="edge21_Node000014_Node000015" class="edge">
<title>Node14&#45;&gt;Node15</title>
<g id="a_edge21_Node000014_Node000015"><a xlink:title=" ">
<path fill="none" stroke="#63b8ff" d="M460.02,-170.86C450.39,-139.25 428.02,-79.8 388.25,-46 381.81,-40.52 374.32,-36.03 366.47,-32.36"/>
<polygon fill="#63b8ff" stroke="#63b8ff" points="456.64,-171.76 462.77,-180.39 463.36,-169.82 456.64,-171.76"/>
</a>
</g>
</g>
<!-- Node16 -->
<g id="Node000016" class="node">
<title>Node16</title>
<g id="a_Node000016"><a xlink:href="$class_i2_c_scanner.html#ad3b7b4bc25e6c1e8b89e702862a56af5" xlink:title="Scans the I2C bus for connected devices.">
<polygon fill="white" stroke="#666666" points="345.88,-246 251.12,-246 251.12,-226 345.88,-226 345.88,-246"/>
<text text-anchor="middle" x="298.5" y="-232.5" font-family="Helvetica,sans-Serif" font-size="10.00">I2CScanner::scan</text>
</a>
</g>
</g>
<!-- Node14&#45;&gt;Node16 -->
<g id="edge22_Node000014_Node000016" class="edge">
<title>Node14&#45;&gt;Node16</title>
<g id="a_edge22_Node000014_Node000016"><a xlink:title=" ">
<path fill="none" stroke="#63b8ff" d="M424.92,-206.03C413.15,-209.83 400.26,-213.79 388.25,-217 374.7,-220.63 359.85,-224.03 346.23,-226.92"/>
<polygon fill="#63b8ff" stroke="#63b8ff" points="425.94,-209.37 434.34,-202.92 423.75,-202.73 425.94,-209.37"/>
</a>
</g>
</g>
<!-- Node17&#45;&gt;Node6 -->
<g id="edge25_Node000017_Node000006" class="edge">
<title>Node17&#45;&gt;Node6</title>
<g id="a_edge25_Node000017_Node000006"><a xlink:title=" ">
<path fill="none" stroke="#63b8ff" d="M415.25,-286.36C406.27,-288.64 397,-290.94 388.25,-293 363.1,-298.93 333.75,-305.06 315.9,-308.7"/>
<polygon fill="#63b8ff" stroke="#63b8ff" points="416.12,-289.75 424.94,-283.87 414.38,-282.97 416.12,-289.75"/>
</a>
</g>
</g>
<!-- Node17&#45;&gt;Node8 -->
<g id="edge27_Node000017_Node000008" class="edge">
<title>Node17&#45;&gt;Node8</title>
<g id="a_edge27_Node000017_Node000008"><a xlink:title=" ">
<path fill="none" stroke="#63b8ff" d="M412.36,-273.32C380.37,-273.51 341.61,-273.75 318.85,-273.88"/>
<polygon fill="#63b8ff" stroke="#63b8ff" points="412.31,-276.82 422.28,-273.26 412.26,-269.82 412.31,-276.82"/>
</a>
</g>
</g>
<!-- Node17&#45;&gt;Node16 -->
<g id="edge26_Node000017_Node000016" class="edge">
<title>Node17&#45;&gt;Node16</title>
<g id="a_edge26_Node000017_Node000016"><a xlink:title=" ">
<path fill="none" stroke="#63b8ff" d="M412.88,-260.59C404.64,-258.7 396.22,-256.78 388.25,-255 374.56,-251.95 359.67,-248.72 346.05,-245.81"/>
<polygon fill="#63b8ff" stroke="#63b8ff" points="411.94,-263.97 422.48,-262.81 413.52,-257.15 411.94,-263.97"/>
</a>
</g>
</g>
</g>
</svg>
