<?xml version="1.0" encoding="UTF-8" standalone="no"?>
<!DOCTYPE svg PUBLIC "-//W3C//DTD SVG 1.1//EN"
 "http://www.w3.org/Graphics/SVG/1.1/DTD/svg11.dtd">
<!-- Generated by graphviz version 12.2.1 (20241206.2353)
 -->
<!-- Title: setup Pages: 1 -->
<svg width="269pt" height="142pt"
 viewBox="0.00 0.00 269.00 142.00" xmlns="http://www.w3.org/2000/svg" xmlns:xlink="http://www.w3.org/1999/xlink">
<g id="graph0" class="graph" transform="scale(1 1) rotate(0) translate(4 138)">
<title>setup</title>
<!-- Node1 -->
<g id="Node000001" class="node">
<title>Node1</title>
<g id="a_Node000001"><a xlink:title="Initializes the system, including the display, sensors, and logger.">
<polygon fill="#999999" stroke="#666666" points="40,-77 0,-77 0,-57 40,-57 40,-77"/>
<text text-anchor="middle" x="20" y="-63.5" font-family="Helvetica,sans-Serif" font-size="10.00">setup</text>
</a>
</g>
</g>
<!-- Node2 -->
<g id="Node000002" class="node">
<title>Node2</title>
<g id="a_Node000002"><a xlink:href="class_logger.html#abeffd58a6beace1b1c01a5324227fd83" target="_top" xlink:title="Logs a debug message.">
<polygon fill="white" stroke="#666666" points="157.25,-134 79.75,-134 79.75,-114 157.25,-114 157.25,-134"/>
<text text-anchor="middle" x="118.5" y="-120.5" font-family="Helvetica,sans-Serif" font-size="10.00">Logger::debug</text>
</a>
</g>
</g>
<!-- Node1&#45;&gt;Node2 -->
<g id="edge1_Node000001_Node000002" class="edge">
<title>Node1&#45;&gt;Node2</title>
<g id="a_edge1_Node000001_Node000002"><a xlink:title=" ">
<path fill="none" stroke="#63b8ff" d="M34.58,-77.38C45.45,-85.44 61.27,-96.63 76,-105 78.18,-106.24 80.46,-107.47 82.78,-108.66"/>
<polygon fill="#63b8ff" stroke="#63b8ff" points="81.12,-111.75 91.64,-112.98 84.19,-105.45 81.12,-111.75"/>
</a>
</g>
</g>
<!-- Node4 -->
<g id="Node000004" class="node">
<title>Node4</title>
<g id="a_Node000004"><a xlink:href="class_logger.html#ac862952b8ffa9de295a496af0108785c" target="_top" xlink:title="Logs an error message.">
<polygon fill="white" stroke="#666666" points="153.88,-96 83.12,-96 83.12,-76 153.88,-76 153.88,-96"/>
<text text-anchor="middle" x="118.5" y="-82.5" font-family="Helvetica,sans-Serif" font-size="10.00">Logger::error</text>
</a>
</g>
</g>
<!-- Node1&#45;&gt;Node4 -->
<g id="edge3_Node000001_Node000004" class="edge">
<title>Node1&#45;&gt;Node4</title>
<g id="a_edge3_Node000001_Node000004"><a xlink:title=" ">
<path fill="none" stroke="#63b8ff" d="M40.07,-70.75C49.21,-72.55 60.6,-74.8 71.8,-77"/>
<polygon fill="#63b8ff" stroke="#63b8ff" points="70.88,-80.39 81.37,-78.89 72.23,-73.52 70.88,-80.39"/>
</a>
</g>
</g>
<!-- Node5 -->
<g id="Node000005" class="node">
<title>Node5</title>
<g id="a_Node000005"><a xlink:href="class_logger.html#a0c5851d03ba2e560bfd57aeb713267b3" target="_top" xlink:title="Logs an informational message.">
<polygon fill="white" stroke="#666666" points="152,-58 85,-58 85,-38 152,-38 152,-58"/>
<text text-anchor="middle" x="118.5" y="-44.5" font-family="Helvetica,sans-Serif" font-size="10.00">Logger::info</text>
</a>
</g>
</g>
<!-- Node1&#45;&gt;Node5 -->
<g id="edge5_Node000001_Node000005" class="edge">
<title>Node1&#45;&gt;Node5</title>
<g id="a_edge5_Node000001_Node000005"><a xlink:title=" ">
<path fill="none" stroke="#63b8ff" d="M40.07,-63.25C49.72,-61.34 61.88,-58.95 73.68,-56.63"/>
<polygon fill="#63b8ff" stroke="#63b8ff" points="74.17,-60.1 83.3,-54.73 72.81,-53.23 74.17,-60.1"/>
</a>
</g>
</g>
<!-- Node6 -->
<g id="Node000006" class="node">
<title>Node6</title>
<g id="a_Node000006"><a xlink:href="class_logger.html#a4d229b17ee039e273686455c74382ec6" target="_top" xlink:title="Logs a warning message.">
<polygon fill="white" stroke="#666666" points="161,-20 76,-20 76,0 161,0 161,-20"/>
<text text-anchor="middle" x="118.5" y="-6.5" font-family="Helvetica,sans-Serif" font-size="10.00">Logger::warning</text>
</a>
</g>
</g>
<!-- Node1&#45;&gt;Node6 -->
<g id="edge7_Node000001_Node000006" class="edge">
<title>Node1&#45;&gt;Node6</title>
<g id="a_edge7_Node000001_Node000006"><a xlink:title=" ">
<path fill="none" stroke="#63b8ff" d="M34.58,-56.62C45.45,-48.56 61.27,-37.37 76,-29 78.18,-27.76 80.46,-26.53 82.78,-25.34"/>
<polygon fill="#63b8ff" stroke="#63b8ff" points="84.19,-28.55 91.64,-21.02 81.12,-22.25 84.19,-28.55"/>
</a>
</g>
</g>
<!-- Node3 -->
<g id="Node000003" class="node">
<title>Node3</title>
<g id="a_Node000003"><a xlink:href="class_logger.html#af0dc4ff68b6d37026b9f6c7a51da6aaa" target="_top" xlink:title="Logs a message if it meets the current log level.">
<polygon fill="white" stroke="#666666" points="261,-77 197,-77 197,-57 261,-57 261,-77"/>
<text text-anchor="middle" x="229" y="-63.5" font-family="Helvetica,sans-Serif" font-size="10.00">Logger::log</text>
</a>
</g>
</g>
<!-- Node2&#45;&gt;Node3 -->
<g id="edge2_Node000002_Node000003" class="edge">
<title>Node2&#45;&gt;Node3</title>
<g id="a_edge2_Node000002_Node000003"><a xlink:title=" ">
<path fill="none" stroke="#63b8ff" d="M142.94,-113.7C148.88,-110.97 155.21,-107.96 161,-105 174.26,-98.22 188.66,-90.15 200.71,-83.19"/>
<polygon fill="#63b8ff" stroke="#63b8ff" points="202.41,-86.25 209.29,-78.18 198.88,-80.2 202.41,-86.25"/>
</a>
</g>
</g>
<!-- Node4&#45;&gt;Node3 -->
<g id="edge4_Node000004_Node000003" class="edge">
<title>Node4&#45;&gt;Node3</title>
<g id="a_edge4_Node000004_Node000003"><a xlink:title=" ">
<path fill="none" stroke="#63b8ff" d="M154.13,-79.94C164.04,-78.2 174.97,-76.29 185.3,-74.48"/>
<polygon fill="#63b8ff" stroke="#63b8ff" points="185.9,-77.93 195.15,-72.75 184.69,-71.03 185.9,-77.93"/>
</a>
</g>
</g>
<!-- Node5&#45;&gt;Node3 -->
<g id="edge6_Node000005_Node000003" class="edge">
<title>Node5&#45;&gt;Node3</title>
<g id="a_edge6_Node000005_Node000003"><a xlink:title=" ">
<path fill="none" stroke="#63b8ff" d="M152.35,-53.75C162.81,-55.58 174.54,-57.64 185.58,-59.57"/>
<polygon fill="#63b8ff" stroke="#63b8ff" points="184.81,-62.99 195.26,-61.27 186.01,-56.09 184.81,-62.99"/>
</a>
</g>
</g>
<!-- Node6&#45;&gt;Node3 -->
<g id="edge8_Node000006_Node000003" class="edge">
<title>Node6&#45;&gt;Node3</title>
<g id="a_edge8_Node000006_Node000003"><a xlink:title=" ">
<path fill="none" stroke="#63b8ff" d="M142.94,-20.3C148.88,-23.03 155.21,-26.04 161,-29 174.26,-35.78 188.66,-43.85 200.71,-50.81"/>
<polygon fill="#63b8ff" stroke="#63b8ff" points="198.88,-53.8 209.29,-55.82 202.41,-47.75 198.88,-53.8"/>
</a>
</g>
</g>
</g>
</svg>
