<?xml version="1.0" encoding="UTF-8" standalone="no"?>
<!DOCTYPE svg PUBLIC "-//W3C//DTD SVG 1.1//EN"
 "http://www.w3.org/Graphics/SVG/1.1/DTD/svg11.dtd">
<!-- Generated by graphviz version 12.2.1 (20241206.2353)
 -->
<!-- Title: src/main.cpp Pages: 1 -->
<svg width="859pt" height="208pt"
 viewBox="0.00 0.00 859.25 208.00" xmlns="http://www.w3.org/2000/svg" xmlns:xlink="http://www.w3.org/1999/xlink">
<g id="graph0" class="graph" transform="scale(1 1) rotate(0) translate(4 204)">
<title>src/main.cpp</title>
<!-- Node1 -->
<g id="Node000001" class="node">
<title>Node1</title>
<g id="a_Node000001"><a xlink:title="Main entry point for the CO2 Meter application.">
<polygon fill="#999999" stroke="#666666" points="468.5,-200 396.25,-200 396.25,-180 468.5,-180 468.5,-200"/>
<text text-anchor="middle" x="432.38" y="-186.5" font-family="Helvetica,sans-Serif" font-size="10.00">src/main.cpp</text>
</a>
</g>
</g>
<!-- Node2 -->
<g id="Node000002" class="node">
<title>Node2</title>
<g id="a_Node000002"><a xlink:title=" ">
<polygon fill="#e0e0e0" stroke="#999999" points="383.62,-82 339.12,-82 339.12,-62 383.62,-62 383.62,-82"/>
<text text-anchor="middle" x="361.38" y="-68.5" font-family="Helvetica,sans-Serif" font-size="10.00">Wire.h</text>
</a>
</g>
</g>
<!-- Node1&#45;&gt;Node2 -->
<g id="edge1_Node000001_Node000002" class="edge">
<title>Node1&#45;&gt;Node2</title>
<g id="a_edge1_Node000001_Node000002"><a xlink:title=" ">
<path fill="none" stroke="#63b8ff" d="M399.69,-179.54C382.36,-172.68 362.59,-161.47 352.38,-144 343.37,-128.6 347.3,-108.13 352.49,-93.13"/>
<polygon fill="#63b8ff" stroke="#63b8ff" points="355.72,-94.47 356.14,-83.88 349.21,-91.9 355.72,-94.47"/>
</a>
</g>
</g>
<!-- Node3 -->
<g id="Node000003" class="node">
<title>Node3</title>
<g id="a_Node000003"><a xlink:title=" ">
<polygon fill="#e0e0e0" stroke="#999999" points="765.12,-144 681.62,-144 681.62,-124 765.12,-124 765.12,-144"/>
<text text-anchor="middle" x="723.38" y="-130.5" font-family="Helvetica,sans-Serif" font-size="10.00">Adafruit_GFX.h</text>
</a>
</g>
</g>
<!-- Node1&#45;&gt;Node3 -->
<g id="edge2_Node000001_Node000003" class="edge">
<title>Node1&#45;&gt;Node3</title>
<g id="a_edge2_Node000001_Node000003"><a xlink:title=" ">
<path fill="none" stroke="#63b8ff" d="M468.94,-182.22C519.74,-172.79 612,-155.67 670.36,-144.84"/>
<polygon fill="#63b8ff" stroke="#63b8ff" points="670.88,-148.3 680.07,-143.04 669.6,-141.42 670.88,-148.3"/>
</a>
</g>
</g>
<!-- Node4 -->
<g id="Node000004" class="node">
<title>Node4</title>
<g id="a_Node000004"><a xlink:title=" ">
<polygon fill="#e0e0e0" stroke="#999999" points="620,-82 514.75,-82 514.75,-62 620,-62 620,-82"/>
<text text-anchor="middle" x="567.38" y="-68.5" font-family="Helvetica,sans-Serif" font-size="10.00">Adafruit_SSD1306.h</text>
</a>
</g>
</g>
<!-- Node1&#45;&gt;Node4 -->
<g id="edge3_Node000001_Node000004" class="edge">
<title>Node1&#45;&gt;Node4</title>
<g id="a_edge3_Node000001_Node000004"><a xlink:title=" ">
<path fill="none" stroke="#63b8ff" d="M468.79,-184.17C512.24,-177.56 580.98,-164.19 596.38,-144 608.68,-127.87 596.06,-105.79 583.83,-90.55"/>
<polygon fill="#63b8ff" stroke="#63b8ff" points="586.67,-88.49 577.48,-83.21 581.38,-93.06 586.67,-88.49"/>
</a>
</g>
</g>
<!-- Node5 -->
<g id="Node000005" class="node">
<title>Node5</title>
<g id="a_Node000005"><a xlink:title=" ">
<polygon fill="#e0e0e0" stroke="#999999" points="100.75,-82 0,-82 0,-62 100.75,-62 100.75,-82"/>
<text text-anchor="middle" x="50.38" y="-68.5" font-family="Helvetica,sans-Serif" font-size="10.00">Adafruit_BMP280.h</text>
</a>
</g>
</g>
<!-- Node1&#45;&gt;Node5 -->
<g id="edge4_Node000001_Node000005" class="edge">
<title>Node1&#45;&gt;Node5</title>
<g id="a_edge4_Node000001_Node000005"><a xlink:title=" ">
<path fill="none" stroke="#63b8ff" d="M395.79,-187.96C341.66,-185.35 237.89,-176.17 156.38,-144 123.27,-130.93 89.95,-106.29 69.74,-89.76"/>
<polygon fill="#63b8ff" stroke="#63b8ff" points="72,-87.09 62.09,-83.35 67.51,-92.45 72,-87.09"/>
</a>
</g>
</g>
<!-- Node6 -->
<g id="Node000006" class="node">
<title>Node6</title>
<g id="a_Node000006"><a xlink:title=" ">
<polygon fill="#e0e0e0" stroke="#999999" points="252.25,-88 118.5,-88 118.5,-56 252.25,-56 252.25,-88"/>
<text text-anchor="start" x="126.5" y="-74.5" font-family="Helvetica,sans-Serif" font-size="10.00">SparkFun_SCD30_Arduino</text>
<text text-anchor="middle" x="185.38" y="-62.5" font-family="Helvetica,sans-Serif" font-size="10.00">_Library.h</text>
</a>
</g>
</g>
<!-- Node1&#45;&gt;Node6 -->
<g id="edge5_Node000001_Node000006" class="edge">
<title>Node1&#45;&gt;Node6</title>
<g id="a_edge5_Node000001_Node000006"><a xlink:title=" ">
<path fill="none" stroke="#63b8ff" d="M396,-188.4C330.16,-186.46 195.36,-178.3 166.38,-144 155.53,-131.17 160.86,-112.77 168.6,-97.91"/>
<polygon fill="#63b8ff" stroke="#63b8ff" points="171.42,-100.02 173.42,-89.61 165.37,-96.5 171.42,-100.02"/>
</a>
</g>
</g>
<!-- Node7 -->
<g id="Node000007" class="node">
<title>Node7</title>
<g id="a_Node000007"><a xlink:title=" ">
<polygon fill="#e0e0e0" stroke="#999999" points="851.25,-144 783.5,-144 783.5,-124 851.25,-124 851.25,-144"/>
<text text-anchor="middle" x="817.38" y="-130.5" font-family="Helvetica,sans-Serif" font-size="10.00">EEPROM.h</text>
</a>
</g>
</g>
<!-- Node1&#45;&gt;Node7 -->
<g id="edge6_Node000001_Node000007" class="edge">
<title>Node1&#45;&gt;Node7</title>
<g id="a_edge6_Node000001_Node000007"><a xlink:title=" ">
<path fill="none" stroke="#63b8ff" d="M468.95,-185.11C529.71,-178.44 655.5,-163.79 771.92,-144.31"/>
<polygon fill="#63b8ff" stroke="#63b8ff" points="772.38,-147.78 781.66,-142.66 771.22,-140.88 772.38,-147.78"/>
</a>
</g>
</g>
<!-- Node8 -->
<g id="Node000008" class="node">
<title>Node8</title>
<g id="a_Node000008"><a xlink:href="config_8h_source.html" target="_top" xlink:title=" ">
<polygon fill="white" stroke="#666666" points="320.62,-82 270.12,-82 270.12,-62 320.62,-62 320.62,-82"/>
<text text-anchor="middle" x="295.38" y="-68.5" font-family="Helvetica,sans-Serif" font-size="10.00">config.h</text>
</a>
</g>
</g>
<!-- Node1&#45;&gt;Node8 -->
<g id="edge7_Node000001_Node000008" class="edge">
<title>Node1&#45;&gt;Node8</title>
<g id="a_edge7_Node000001_Node000008"><a xlink:title=" ">
<path fill="none" stroke="#63b8ff" d="M405.32,-179.52C386.48,-171.98 361.56,-160.02 343.38,-144 326.84,-129.44 313.38,-107.97 304.96,-92.46"/>
<polygon fill="#63b8ff" stroke="#63b8ff" points="308.16,-91.01 300.45,-83.74 301.94,-94.23 308.16,-91.01"/>
</a>
</g>
</g>
<!-- Node9 -->
<g id="Node000009" class="node">
<title>Node9</title>
<g id="a_Node000009"><a xlink:href="_display_manager_8h_source.html" target="_top" xlink:title=" ">
<polygon fill="white" stroke="#666666" points="587.75,-144 493,-144 493,-124 587.75,-124 587.75,-144"/>
<text text-anchor="middle" x="540.38" y="-130.5" font-family="Helvetica,sans-Serif" font-size="10.00">DisplayManager.h</text>
</a>
</g>
</g>
<!-- Node1&#45;&gt;Node9 -->
<g id="edge8_Node000001_Node000009" class="edge">
<title>Node1&#45;&gt;Node9</title>
<g id="a_edge8_Node000001_Node000009"><a xlink:title=" ">
<path fill="none" stroke="#63b8ff" d="M451.19,-179.59C467.73,-171.32 492.09,-159.14 511.17,-149.6"/>
<polygon fill="#63b8ff" stroke="#63b8ff" points="512.68,-152.76 520.06,-145.16 509.55,-146.5 512.68,-152.76"/>
</a>
</g>
</g>
<!-- Node10 -->
<g id="Node000010" class="node">
<title>Node10</title>
<g id="a_Node000010"><a xlink:href="_logger_8h.html" target="_top" xlink:title="Provides logging functionality with different log levels for debugging and monitoring.">
<polygon fill="white" stroke="#666666" points="492.12,-82 438.62,-82 438.62,-62 492.12,-62 492.12,-82"/>
<text text-anchor="middle" x="465.38" y="-68.5" font-family="Helvetica,sans-Serif" font-size="10.00">Logger.h</text>
</a>
</g>
</g>
<!-- Node1&#45;&gt;Node10 -->
<g id="edge18_Node000001_Node000010" class="edge">
<title>Node1&#45;&gt;Node10</title>
<g id="a_edge18_Node000001_Node000010"><a xlink:title=" ">
<path fill="none" stroke="#63b8ff" d="M435.38,-179.72C438.29,-170.65 442.78,-156.42 446.38,-144 451.31,-126.93 456.5,-107.43 460.2,-93.19"/>
<polygon fill="#63b8ff" stroke="#63b8ff" points="463.54,-94.25 462.65,-83.69 456.77,-92.5 463.54,-94.25"/>
</a>
</g>
</g>
<!-- Node11 -->
<g id="Node000011" class="node">
<title>Node11</title>
<g id="a_Node000011"><a xlink:title=" ">
<polygon fill="#e0e0e0" stroke="#999999" points="588,-20 530.75,-20 530.75,0 588,0 588,-20"/>
<text text-anchor="middle" x="559.38" y="-6.5" font-family="Helvetica,sans-Serif" font-size="10.00">Arduino.h</text>
</a>
</g>
</g>
<!-- Node1&#45;&gt;Node11 -->
<g id="edge19_Node000001_Node000011" class="edge">
<title>Node1&#45;&gt;Node11</title>
<g id="a_edge19_Node000001_Node000011"><a xlink:title=" ">
<path fill="none" stroke="#63b8ff" d="M468.75,-184.31C515.46,-177.56 592.94,-163.74 613.38,-144 641.97,-116.38 648.42,-90.89 629.38,-56 622.06,-42.59 608.84,-32.58 595.85,-25.45"/>
<polygon fill="#63b8ff" stroke="#63b8ff" points="597.46,-22.35 586.95,-21.02 594.34,-28.61 597.46,-22.35"/>
</a>
</g>
</g>
<!-- Node12 -->
<g id="Node000012" class="node">
<title>Node12</title>
<g id="a_Node000012"><a xlink:href="_sensor_manager_8h.html" target="_top" xlink:title="Manages the initialization, calibration, and data retrieval from sensors.">
<polygon fill="white" stroke="#666666" points="267.62,-144 175.12,-144 175.12,-124 267.62,-124 267.62,-144"/>
<text text-anchor="middle" x="221.38" y="-130.5" font-family="Helvetica,sans-Serif" font-size="10.00">SensorManager.h</text>
</a>
</g>
</g>
<!-- Node1&#45;&gt;Node12 -->
<g id="edge12_Node000001_Node000012" class="edge">
<title>Node1&#45;&gt;Node12</title>
<g id="a_edge12_Node000001_Node000012"><a xlink:title=" ">
<path fill="none" stroke="#63b8ff" d="M396.1,-179.72C361.03,-170.74 307.7,-157.09 269.18,-147.23"/>
<polygon fill="#63b8ff" stroke="#63b8ff" points="270.26,-143.9 259.7,-144.81 268.52,-150.68 270.26,-143.9"/>
</a>
</g>
</g>
<!-- Node13 -->
<g id="Node000013" class="node">
<title>Node13</title>
<g id="a_Node000013"><a xlink:href="_i2_c_scanner_8h.html" target="_top" xlink:title="Provides functionality to scan the I2C bus for connected devices.">
<polygon fill="white" stroke="#666666" points="437.38,-144 361.38,-144 361.38,-124 437.38,-124 437.38,-144"/>
<text text-anchor="middle" x="399.38" y="-130.5" font-family="Helvetica,sans-Serif" font-size="10.00">I2CScanner.h</text>
</a>
</g>
</g>
<!-- Node1&#45;&gt;Node13 -->
<g id="edge20_Node000001_Node000013" class="edge">
<title>Node1&#45;&gt;Node13</title>
<g id="a_edge20_Node000001_Node000013"><a xlink:title=" ">
<path fill="none" stroke="#63b8ff" d="M426.63,-179.59C422.32,-172.55 416.28,-162.67 410.99,-154"/>
<polygon fill="#63b8ff" stroke="#63b8ff" points="414.05,-152.3 405.85,-145.59 408.07,-155.95 414.05,-152.3"/>
</a>
</g>
</g>
<!-- Node9&#45;&gt;Node4 -->
<g id="edge9_Node000009_Node000004" class="edge">
<title>Node9&#45;&gt;Node4</title>
<g id="a_edge9_Node000009_Node000004"><a xlink:title=" ">
<path fill="none" stroke="#63b8ff" d="M544.59,-123.62C548.34,-115.3 553.94,-102.86 558.64,-92.4"/>
<polygon fill="#63b8ff" stroke="#63b8ff" points="561.74,-94.05 562.65,-83.49 555.36,-91.18 561.74,-94.05"/>
</a>
</g>
</g>
<!-- Node9&#45;&gt;Node10 -->
<g id="edge10_Node000009_Node000010" class="edge">
<title>Node9&#45;&gt;Node10</title>
<g id="a_edge10_Node000009_Node000010"><a xlink:title=" ">
<path fill="none" stroke="#63b8ff" d="M528.66,-123.62C517.14,-114.41 499.34,-100.17 485.55,-89.14"/>
<polygon fill="#63b8ff" stroke="#63b8ff" points="487.94,-86.57 477.95,-83.06 483.57,-92.04 487.94,-86.57"/>
</a>
</g>
</g>
<!-- Node10&#45;&gt;Node11 -->
<g id="edge11_Node000010_Node000011" class="edge">
<title>Node10&#45;&gt;Node11</title>
<g id="a_edge11_Node000010_Node000011"><a xlink:title=" ">
<path fill="none" stroke="#63b8ff" d="M480.06,-61.62C494.82,-52.2 517.83,-37.52 535.27,-26.39"/>
<polygon fill="#63b8ff" stroke="#63b8ff" points="536.97,-29.45 543.51,-21.12 533.2,-23.55 536.97,-29.45"/>
</a>
</g>
</g>
<!-- Node12&#45;&gt;Node2 -->
<g id="edge16_Node000012_Node000002" class="edge">
<title>Node12&#45;&gt;Node2</title>
<g id="a_edge16_Node000012_Node000002"><a xlink:title=" ">
<path fill="none" stroke="#63b8ff" d="M244.67,-123.63C266.63,-114.73 300.4,-100.82 329.38,-88 329.99,-87.73 330.61,-87.45 331.23,-87.17"/>
<polygon fill="#63b8ff" stroke="#63b8ff" points="332.45,-90.47 340.09,-83.13 329.54,-84.1 332.45,-90.47"/>
</a>
</g>
</g>
<!-- Node12&#45;&gt;Node5 -->
<g id="edge15_Node000012_Node000005" class="edge">
<title>Node12&#45;&gt;Node5</title>
<g id="a_edge15_Node000012_Node000005"><a xlink:title=" ">
<path fill="none" stroke="#63b8ff" d="M194.66,-123.62C166,-113.57 120.28,-97.53 88,-86.2"/>
<polygon fill="#63b8ff" stroke="#63b8ff" points="89.21,-82.92 78.62,-82.91 86.89,-89.52 89.21,-82.92"/>
</a>
</g>
</g>
<!-- Node12&#45;&gt;Node6 -->
<g id="edge14_Node000012_Node000006" class="edge">
<title>Node12&#45;&gt;Node6</title>
<g id="a_edge14_Node000012_Node000006"><a xlink:title=" ">
<path fill="none" stroke="#63b8ff" d="M215.75,-123.62C211.61,-116.73 205.78,-107.01 200.34,-97.93"/>
<polygon fill="#63b8ff" stroke="#63b8ff" points="203.38,-96.21 195.24,-89.44 197.38,-99.81 203.38,-96.21"/>
</a>
</g>
</g>
<!-- Node12&#45;&gt;Node8 -->
<g id="edge17_Node000012_Node000008" class="edge">
<title>Node12&#45;&gt;Node8</title>
<g id="a_edge17_Node000012_Node000008"><a xlink:title=" ">
<path fill="none" stroke="#63b8ff" d="M232.94,-123.62C244.3,-114.41 261.86,-100.17 275.47,-89.14"/>
<polygon fill="#63b8ff" stroke="#63b8ff" points="277.4,-92.08 282.96,-83.07 272.99,-86.65 277.4,-92.08"/>
</a>
</g>
</g>
<!-- Node12&#45;&gt;Node10 -->
<g id="edge13_Node000012_Node000010" class="edge">
<title>Node12&#45;&gt;Node10</title>
<g id="a_edge13_Node000012_Node000010"><a xlink:title=" ">
<path fill="none" stroke="#63b8ff" d="M259.77,-123.56C305.55,-112.3 381.58,-93.6 427.24,-82.38"/>
<polygon fill="#63b8ff" stroke="#63b8ff" points="427.82,-85.84 436.69,-80.05 426.14,-79.04 427.82,-85.84"/>
</a>
</g>
</g>
<!-- Node13&#45;&gt;Node2 -->
<g id="edge21_Node000013_Node000002" class="edge">
<title>Node13&#45;&gt;Node2</title>
<g id="a_edge21_Node000013_Node000002"><a xlink:title=" ">
<path fill="none" stroke="#63b8ff" d="M393.44,-123.62C388.05,-115.12 379.95,-102.33 373.24,-91.74"/>
<polygon fill="#63b8ff" stroke="#63b8ff" points="376.26,-89.97 367.96,-83.39 370.35,-93.71 376.26,-89.97"/>
</a>
</g>
</g>
<!-- Node13&#45;&gt;Node10 -->
<g id="edge22_Node000013_Node000010" class="edge">
<title>Node13&#45;&gt;Node10</title>
<g id="a_edge22_Node000013_Node000010"><a xlink:title=" ">
<path fill="none" stroke="#63b8ff" d="M409.69,-123.62C419.63,-114.59 434.89,-100.72 446.92,-89.78"/>
<polygon fill="#63b8ff" stroke="#63b8ff" points="449.19,-92.45 454.23,-83.13 444.48,-87.27 449.19,-92.45"/>
</a>
</g>
</g>
</g>
</svg>
