<?xml version="1.0" encoding="UTF-8" standalone="no"?>
<!DOCTYPE svg PUBLIC "-//W3C//DTD SVG 1.1//EN"
 "http://www.w3.org/Graphics/SVG/1.1/DTD/svg11.dtd">
<!-- Generated by graphviz version 12.2.1 (20241206.2353)
 -->
<!-- Title: loop Pages: 1 -->
<svg width="263pt" height="104pt"
 viewBox="0.00 0.00 263.00 104.00" xmlns="http://www.w3.org/2000/svg" xmlns:xlink="http://www.w3.org/1999/xlink">
<g id="graph0" class="graph" transform="scale(1 1) rotate(0) translate(4 100)">
<title>loop</title>
<!-- Node1 -->
<g id="Node000001" class="node">
<title>Node1</title>
<g id="a_Node000001"><a xlink:title="Main loop for retrieving sensor data and updating the display.">
<polygon fill="#999999" stroke="#666666" points="34,-58 0,-58 0,-38 34,-38 34,-58"/>
<text text-anchor="middle" x="17" y="-44.5" font-family="Helvetica,sans-Serif" font-size="10.00">loop</text>
</a>
</g>
</g>
<!-- Node2 -->
<g id="Node000002" class="node">
<title>Node2</title>
<g id="a_Node000002"><a xlink:href="class_logger.html#abeffd58a6beace1b1c01a5324227fd83" target="_top" xlink:title="Logs a debug message.">
<polygon fill="white" stroke="#666666" points="151.25,-96 73.75,-96 73.75,-76 151.25,-76 151.25,-96"/>
<text text-anchor="middle" x="112.5" y="-82.5" font-family="Helvetica,sans-Serif" font-size="10.00">Logger::debug</text>
</a>
</g>
</g>
<!-- Node1&#45;&gt;Node2 -->
<g id="edge1_Node000001_Node000002" class="edge">
<title>Node1&#45;&gt;Node2</title>
<g id="a_edge1_Node000001_Node000002"><a xlink:title=" ">
<path fill="none" stroke="#63b8ff" d="M34.29,-54.62C45.63,-59.23 61.2,-65.56 75.4,-71.33"/>
<polygon fill="#63b8ff" stroke="#63b8ff" points="73.9,-74.5 84.49,-75.02 76.54,-68.01 73.9,-74.5"/>
</a>
</g>
</g>
<!-- Node4 -->
<g id="Node000004" class="node">
<title>Node4</title>
<g id="a_Node000004"><a xlink:href="class_logger.html#a0c5851d03ba2e560bfd57aeb713267b3" target="_top" xlink:title="Logs an informational message.">
<polygon fill="white" stroke="#666666" points="146,-58 79,-58 79,-38 146,-38 146,-58"/>
<text text-anchor="middle" x="112.5" y="-44.5" font-family="Helvetica,sans-Serif" font-size="10.00">Logger::info</text>
</a>
</g>
</g>
<!-- Node1&#45;&gt;Node4 -->
<g id="edge3_Node000001_Node000004" class="edge">
<title>Node1&#45;&gt;Node4</title>
<g id="a_edge3_Node000001_Node000004"><a xlink:title=" ">
<path fill="none" stroke="#63b8ff" d="M34.29,-48C43.56,-48 55.68,-48 67.55,-48"/>
<polygon fill="#63b8ff" stroke="#63b8ff" points="67.24,-51.5 77.24,-48 67.24,-44.5 67.24,-51.5"/>
</a>
</g>
</g>
<!-- Node5 -->
<g id="Node000005" class="node">
<title>Node5</title>
<g id="a_Node000005"><a xlink:href="class_logger.html#a4d229b17ee039e273686455c74382ec6" target="_top" xlink:title="Logs a warning message.">
<polygon fill="white" stroke="#666666" points="155,-20 70,-20 70,0 155,0 155,-20"/>
<text text-anchor="middle" x="112.5" y="-6.5" font-family="Helvetica,sans-Serif" font-size="10.00">Logger::warning</text>
</a>
</g>
</g>
<!-- Node1&#45;&gt;Node5 -->
<g id="edge5_Node000001_Node000005" class="edge">
<title>Node1&#45;&gt;Node5</title>
<g id="a_edge5_Node000001_Node000005"><a xlink:title=" ">
<path fill="none" stroke="#63b8ff" d="M34.29,-41.38C45.63,-36.77 61.2,-30.44 75.4,-24.67"/>
<polygon fill="#63b8ff" stroke="#63b8ff" points="76.54,-27.99 84.49,-20.98 73.9,-21.5 76.54,-27.99"/>
</a>
</g>
</g>
<!-- Node3 -->
<g id="Node000003" class="node">
<title>Node3</title>
<g id="a_Node000003"><a xlink:href="class_logger.html#af0dc4ff68b6d37026b9f6c7a51da6aaa" target="_top" xlink:title="Logs a message if it meets the current log level.">
<polygon fill="white" stroke="#666666" points="255,-58 191,-58 191,-38 255,-38 255,-58"/>
<text text-anchor="middle" x="223" y="-44.5" font-family="Helvetica,sans-Serif" font-size="10.00">Logger::log</text>
</a>
</g>
</g>
<!-- Node2&#45;&gt;Node3 -->
<g id="edge2_Node000002_Node000003" class="edge">
<title>Node2&#45;&gt;Node3</title>
<g id="a_edge2_Node000002_Node000003"><a xlink:title=" ">
<path fill="none" stroke="#63b8ff" d="M143.44,-75.52C155.18,-71.4 168.83,-66.62 181.43,-62.21"/>
<polygon fill="#63b8ff" stroke="#63b8ff" points="182.45,-65.56 190.73,-58.95 180.14,-58.95 182.45,-65.56"/>
</a>
</g>
</g>
<!-- Node4&#45;&gt;Node3 -->
<g id="edge4_Node000004_Node000003" class="edge">
<title>Node4&#45;&gt;Node3</title>
<g id="a_edge4_Node000004_Node000003"><a xlink:title=" ">
<path fill="none" stroke="#63b8ff" d="M146.35,-48C156.81,-48 168.54,-48 179.58,-48"/>
<polygon fill="#63b8ff" stroke="#63b8ff" points="179.24,-51.5 189.24,-48 179.24,-44.5 179.24,-51.5"/>
</a>
</g>
</g>
<!-- Node5&#45;&gt;Node3 -->
<g id="edge6_Node000005_Node000003" class="edge">
<title>Node5&#45;&gt;Node3</title>
<g id="a_edge6_Node000005_Node000003"><a xlink:title=" ">
<path fill="none" stroke="#63b8ff" d="M143.44,-20.48C155.18,-24.6 168.83,-29.38 181.43,-33.79"/>
<polygon fill="#63b8ff" stroke="#63b8ff" points="180.14,-37.05 190.73,-37.05 182.45,-30.44 180.14,-37.05"/>
</a>
</g>
</g>
</g>
</svg>
