<?xml version="1.0" encoding="UTF-8" standalone="no"?>
<!DOCTYPE svg PUBLIC "-//W3C//DTD SVG 1.1//EN"
 "http://www.w3.org/Graphics/SVG/1.1/DTD/svg11.dtd">
<!-- Generated by graphviz version 12.2.1 (20241206.2353)
 -->
<!-- Title: include/I2CScanner.h Pages: 1 -->
<svg width="126pt" height="140pt"
 viewBox="0.00 0.00 125.88 140.00" xmlns="http://www.w3.org/2000/svg" xmlns:xlink="http://www.w3.org/1999/xlink">
<g id="graph0" class="graph" transform="scale(1 1) rotate(0) translate(4 136)">
<title>include/I2CScanner.h</title>
<!-- Node1 -->
<g id="Node000001" class="node">
<title>Node1</title>
<g id="a_Node000001"><a xlink:title="Provides functionality to scan the I2C bus for connected devices.">
<polygon fill="#999999" stroke="#666666" points="110.12,-132 0.38,-132 0.38,-112 110.12,-112 110.12,-132"/>
<text text-anchor="middle" x="55.25" y="-118.5" font-family="Helvetica,sans-Serif" font-size="10.00">include/I2CScanner.h</text>
</a>
</g>
</g>
<!-- Node2 -->
<g id="Node000002" class="node">
<title>Node2</title>
<g id="a_Node000002"><a xlink:title=" ">
<polygon fill="#e0e0e0" stroke="#999999" points="44.5,-76 0,-76 0,-56 44.5,-56 44.5,-76"/>
<text text-anchor="middle" x="22.25" y="-62.5" font-family="Helvetica,sans-Serif" font-size="10.00">Wire.h</text>
</a>
</g>
</g>
<!-- Node1&#45;&gt;Node2 -->
<g id="edge1_Node000001_Node000002" class="edge">
<title>Node1&#45;&gt;Node2</title>
<g id="a_edge1_Node000001_Node000002"><a xlink:title=" ">
<path fill="none" stroke="#63b8ff" d="M49.5,-111.59C45.2,-104.55 39.16,-94.67 33.86,-86"/>
<polygon fill="#63b8ff" stroke="#63b8ff" points="36.92,-84.3 28.72,-77.59 30.95,-87.95 36.92,-84.3"/>
</a>
</g>
</g>
<!-- Node3 -->
<g id="Node000003" class="node">
<title>Node3</title>
<g id="a_Node000003"><a xlink:href="_logger_8h.html" target="_top" xlink:title="Provides logging functionality with different log levels for debugging and monitoring.">
<polygon fill="white" stroke="#666666" points="116,-76 62.5,-76 62.5,-56 116,-56 116,-76"/>
<text text-anchor="middle" x="89.25" y="-62.5" font-family="Helvetica,sans-Serif" font-size="10.00">Logger.h</text>
</a>
</g>
</g>
<!-- Node1&#45;&gt;Node3 -->
<g id="edge2_Node000001_Node000003" class="edge">
<title>Node1&#45;&gt;Node3</title>
<g id="a_edge2_Node000001_Node000003"><a xlink:title=" ">
<path fill="none" stroke="#63b8ff" d="M61.17,-111.59C65.61,-104.55 71.83,-94.67 77.29,-86"/>
<polygon fill="#63b8ff" stroke="#63b8ff" points="80.22,-87.91 82.59,-77.58 74.3,-84.18 80.22,-87.91"/>
</a>
</g>
</g>
<!-- Node4 -->
<g id="Node000004" class="node">
<title>Node4</title>
<g id="a_Node000004"><a xlink:title=" ">
<polygon fill="#e0e0e0" stroke="#999999" points="117.88,-20 60.62,-20 60.62,0 117.88,0 117.88,-20"/>
<text text-anchor="middle" x="89.25" y="-6.5" font-family="Helvetica,sans-Serif" font-size="10.00">Arduino.h</text>
</a>
</g>
</g>
<!-- Node3&#45;&gt;Node4 -->
<g id="edge3_Node000003_Node000004" class="edge">
<title>Node3&#45;&gt;Node4</title>
<g id="a_edge3_Node000003_Node000004"><a xlink:title=" ">
<path fill="none" stroke="#63b8ff" d="M89.25,-55.59C89.25,-49.01 89.25,-39.96 89.25,-31.73"/>
<polygon fill="#63b8ff" stroke="#63b8ff" points="92.75,-31.81 89.25,-21.81 85.75,-31.81 92.75,-31.81"/>
</a>
</g>
</g>
</g>
</svg>
