<?xml version="1.0" encoding="UTF-8" standalone="no"?>
<!DOCTYPE svg PUBLIC "-//W3C//DTD SVG 1.1//EN"
 "http://www.w3.org/Graphics/SVG/1.1/DTD/svg11.dtd">
<!-- Generated by graphviz version 12.2.1 (20241206.2353)
 -->
<!-- Title: include/Logger.h Pages: 1 -->
<svg width="636pt" height="140pt"
 viewBox="0.00 0.00 636.12 140.00" xmlns="http://www.w3.org/2000/svg" xmlns:xlink="http://www.w3.org/1999/xlink">
<g id="graph0" class="graph" transform="scale(1 1) rotate(0) translate(4 136)">
<title>include/Logger.h</title>
<!-- Node1 -->
<g id="Node000001" class="node">
<title>Node1</title>
<g id="a_Node000001"><a xlink:title="Provides logging functionality with different log levels for debugging and monitoring.">
<polygon fill="#999999" stroke="#666666" points="336.5,-132 249.25,-132 249.25,-112 336.5,-112 336.5,-132"/>
<text text-anchor="middle" x="292.88" y="-118.5" font-family="Helvetica,sans-Serif" font-size="10.00">include/Logger.h</text>
</a>
</g>
</g>
<!-- Node2 -->
<g id="Node000002" class="node">
<title>Node2</title>
<g id="a_Node000002"><a xlink:href="_display_manager_8h_source.html" target="_top" xlink:title=" ">
<polygon fill="white" stroke="#666666" points="182.12,-76 53.62,-76 53.62,-56 182.12,-56 182.12,-76"/>
<text text-anchor="middle" x="117.88" y="-62.5" font-family="Helvetica,sans-Serif" font-size="10.00">include/DisplayManager.h</text>
</a>
</g>
</g>
<!-- Node1&#45;&gt;Node2 -->
<g id="edge1_Node000001_Node000002" class="edge">
<title>Node1&#45;&gt;Node2</title>
<g id="a_edge1_Node000001_Node000002"><a xlink:title=" ">
<path fill="none" stroke="#63b8ff" d="M251.73,-108.31C220.15,-98.56 177.23,-85.32 148.6,-76.48"/>
<polygon fill="#63b8ff" stroke="#63b8ff" points="250.36,-111.54 260.95,-111.15 252.42,-104.85 250.36,-111.54"/>
</a>
</g>
</g>
<!-- Node3 -->
<g id="Node000003" class="node">
<title>Node3</title>
<g id="a_Node000003"><a xlink:href="_display_manager_8cpp_source.html" target="_top" xlink:title=" ">
<polygon fill="white" stroke="#666666" points="121.75,-20 0,-20 0,0 121.75,0 121.75,-20"/>
<text text-anchor="middle" x="60.88" y="-6.5" font-family="Helvetica,sans-Serif" font-size="10.00">src/DisplayManager.cpp</text>
</a>
</g>
</g>
<!-- Node1&#45;&gt;Node3 -->
<g id="edge10_Node000001_Node000003" class="edge">
<title>Node1&#45;&gt;Node3</title>
<g id="a_edge10_Node000001_Node000003"><a xlink:title=" ">
<path fill="none" stroke="#63b8ff" d="M237.46,-118.94C172,-115.21 68.92,-104.8 44.88,-76 31.32,-59.76 45.13,-33.76 54.24,-20.08"/>
<polygon fill="#63b8ff" stroke="#63b8ff" points="237.14,-122.43 247.31,-119.46 237.51,-115.44 237.14,-122.43"/>
</a>
</g>
</g>
<!-- Node4 -->
<g id="Node000004" class="node">
<title>Node4</title>
<g id="a_Node000004"><a xlink:href="main_8cpp.html" target="_top" xlink:title="Main entry point for the CO2 Meter application.">
<polygon fill="white" stroke="#666666" points="246,-20 173.75,-20 173.75,0 246,0 246,-20"/>
<text text-anchor="middle" x="209.88" y="-6.5" font-family="Helvetica,sans-Serif" font-size="10.00">src/main.cpp</text>
</a>
</g>
</g>
<!-- Node1&#45;&gt;Node4 -->
<g id="edge13_Node000001_Node000004" class="edge">
<title>Node1&#45;&gt;Node4</title>
<g id="a_edge13_Node000001_Node000004"><a xlink:title=" ">
<path fill="none" stroke="#63b8ff" d="M262.96,-105.83C250.83,-98.34 237.64,-88.25 228.88,-76 216.56,-58.79 212.17,-33.65 210.65,-20.23"/>
<polygon fill="#63b8ff" stroke="#63b8ff" points="261.06,-108.78 271.47,-110.75 264.57,-102.72 261.06,-108.78"/>
</a>
</g>
</g>
<!-- Node5 -->
<g id="Node000005" class="node">
<title>Node5</title>
<g id="a_Node000005"><a xlink:href="_i2_c_scanner_8h.html" target="_top" xlink:title="Provides functionality to scan the I2C bus for connected devices.">
<polygon fill="white" stroke="#666666" points="347.75,-76 238,-76 238,-56 347.75,-56 347.75,-76"/>
<text text-anchor="middle" x="292.88" y="-62.5" font-family="Helvetica,sans-Serif" font-size="10.00">include/I2CScanner.h</text>
</a>
</g>
</g>
<!-- Node1&#45;&gt;Node5 -->
<g id="edge4_Node000001_Node000005" class="edge">
<title>Node1&#45;&gt;Node5</title>
<g id="a_edge4_Node000001_Node000005"><a xlink:title=" ">
<path fill="none" stroke="#63b8ff" d="M292.88,-100.13C292.88,-91.9 292.88,-82.85 292.88,-76.3"/>
<polygon fill="#63b8ff" stroke="#63b8ff" points="289.38,-100.08 292.88,-110.08 296.38,-100.08 289.38,-100.08"/>
</a>
</g>
</g>
<!-- Node7 -->
<g id="Node000007" class="node">
<title>Node7</title>
<g id="a_Node000007"><a xlink:href="_sensor_manager_8h.html" target="_top" xlink:title="Manages the initialization, calibration, and data retrieval from sensors.">
<polygon fill="white" stroke="#666666" points="492,-76 365.75,-76 365.75,-56 492,-56 492,-76"/>
<text text-anchor="middle" x="428.88" y="-62.5" font-family="Helvetica,sans-Serif" font-size="10.00">include/SensorManager.h</text>
</a>
</g>
</g>
<!-- Node1&#45;&gt;Node7 -->
<g id="edge7_Node000001_Node000007" class="edge">
<title>Node1&#45;&gt;Node7</title>
<g id="a_edge7_Node000001_Node000007"><a xlink:title=" ">
<path fill="none" stroke="#63b8ff" d="M327.12,-107.4C351.42,-97.75 383.43,-85.05 405,-76.48"/>
<polygon fill="#63b8ff" stroke="#63b8ff" points="325.97,-104.09 317.97,-111.04 328.56,-110.6 325.97,-104.09"/>
</a>
</g>
</g>
<!-- Node8 -->
<g id="Node000008" class="node">
<title>Node8</title>
<g id="a_Node000008"><a xlink:href="_sensor_manager_8cpp.html" target="_top" xlink:title="Implements the functionality for managing the SCD30 and BMP280 sensors.">
<polygon fill="white" stroke="#666666" points="541.62,-20 422.12,-20 422.12,0 541.62,0 541.62,-20"/>
<text text-anchor="middle" x="481.88" y="-6.5" font-family="Helvetica,sans-Serif" font-size="10.00">src/SensorManager.cpp</text>
</a>
</g>
</g>
<!-- Node1&#45;&gt;Node8 -->
<g id="edge12_Node000001_Node000008" class="edge">
<title>Node1&#45;&gt;Node8</title>
<g id="a_edge12_Node000001_Node000008"><a xlink:title=" ">
<path fill="none" stroke="#63b8ff" d="M347.89,-116.77C402.9,-111.26 481.98,-99.42 500.88,-76 514.16,-59.53 499.37,-34.09 489.42,-20.43"/>
<polygon fill="#63b8ff" stroke="#63b8ff" points="347.67,-113.27 338.05,-117.71 348.34,-120.24 347.67,-113.27"/>
</a>
</g>
</g>
<!-- Node9 -->
<g id="Node000009" class="node">
<title>Node9</title>
<g id="a_Node000009"><a xlink:href="_logger_8cpp.html" target="_top" xlink:title="Implements logging functionality with different log levels for debugging and monitoring.">
<polygon fill="white" stroke="#666666" points="628.12,-76 547.62,-76 547.62,-56 628.12,-56 628.12,-76"/>
<text text-anchor="middle" x="587.88" y="-62.5" font-family="Helvetica,sans-Serif" font-size="10.00">src/Logger.cpp</text>
</a>
</g>
</g>
<!-- Node1&#45;&gt;Node9 -->
<g id="edge11_Node000001_Node000009" class="edge">
<title>Node1&#45;&gt;Node9</title>
<g id="a_edge11_Node000001_Node000009"><a xlink:title=" ">
<path fill="none" stroke="#63b8ff" d="M347.87,-110.93C405.87,-100.32 495.86,-83.84 547.58,-74.38"/>
<polygon fill="#63b8ff" stroke="#63b8ff" points="347.42,-107.46 338.21,-112.7 348.68,-114.34 347.42,-107.46"/>
</a>
</g>
</g>
<!-- Node2&#45;&gt;Node3 -->
<g id="edge2_Node000002_Node000003" class="edge">
<title>Node2&#45;&gt;Node3</title>
<g id="a_edge2_Node000002_Node000003"><a xlink:title=" ">
<path fill="none" stroke="#63b8ff" d="M99.77,-47.85C90.14,-38.72 78.67,-27.86 70.69,-20.3"/>
<polygon fill="#63b8ff" stroke="#63b8ff" points="97.18,-50.22 106.85,-54.55 102,-45.13 97.18,-50.22"/>
</a>
</g>
</g>
<!-- Node2&#45;&gt;Node4 -->
<g id="edge3_Node000002_Node000004" class="edge">
<title>Node2&#45;&gt;Node4</title>
<g id="a_edge3_Node000002_Node000004"><a xlink:title=" ">
<path fill="none" stroke="#63b8ff" d="M143.75,-49.81C159.8,-40.39 179.92,-28.58 193.72,-20.48"/>
<polygon fill="#63b8ff" stroke="#63b8ff" points="142.06,-46.75 135.21,-54.83 145.6,-52.78 142.06,-46.75"/>
</a>
</g>
</g>
<!-- Node5&#45;&gt;Node4 -->
<g id="edge6_Node000005_Node000004" class="edge">
<title>Node5&#45;&gt;Node4</title>
<g id="a_edge6_Node000005_Node000004"><a xlink:title=" ">
<path fill="none" stroke="#63b8ff" d="M269.12,-49.54C254.71,-40.17 236.78,-28.51 224.45,-20.48"/>
<polygon fill="#63b8ff" stroke="#63b8ff" points="266.86,-52.25 277.15,-54.77 270.68,-46.38 266.86,-52.25"/>
</a>
</g>
</g>
<!-- Node6 -->
<g id="Node000006" class="node">
<title>Node6</title>
<g id="a_Node000006"><a xlink:href="_i2_c_scanner_8cpp_source.html" target="_top" xlink:title=" ">
<polygon fill="white" stroke="#666666" points="367.38,-20 264.38,-20 264.38,0 367.38,0 367.38,-20"/>
<text text-anchor="middle" x="315.88" y="-6.5" font-family="Helvetica,sans-Serif" font-size="10.00">src/I2CScanner.cpp</text>
</a>
</g>
</g>
<!-- Node5&#45;&gt;Node6 -->
<g id="edge5_Node000005_Node000006" class="edge">
<title>Node5&#45;&gt;Node6</title>
<g id="a_edge5_Node000005_Node000006"><a xlink:title=" ">
<path fill="none" stroke="#63b8ff" d="M301.39,-45C305,-36.54 309.02,-27.08 311.91,-20.3"/>
<polygon fill="#63b8ff" stroke="#63b8ff" points="298.17,-43.63 297.47,-54.2 304.61,-46.37 298.17,-43.63"/>
</a>
</g>
</g>
<!-- Node7&#45;&gt;Node4 -->
<g id="edge9_Node000007_Node000004" class="edge">
<title>Node7&#45;&gt;Node4</title>
<g id="a_edge9_Node000007_Node000004"><a xlink:title=" ">
<path fill="none" stroke="#63b8ff" d="M379.53,-52.83C339.12,-42.87 282.86,-29 246.4,-20.01"/>
<polygon fill="#63b8ff" stroke="#63b8ff" points="378.46,-56.17 389.01,-55.17 380.14,-49.38 378.46,-56.17"/>
</a>
</g>
</g>
<!-- Node7&#45;&gt;Node8 -->
<g id="edge8_Node000007_Node000008" class="edge">
<title>Node7&#45;&gt;Node8</title>
<g id="a_edge8_Node000007_Node000008"><a xlink:title=" ">
<path fill="none" stroke="#63b8ff" d="M445.99,-47.57C454.89,-38.5 465.41,-27.78 472.75,-20.3"/>
<polygon fill="#63b8ff" stroke="#63b8ff" points="443.67,-44.93 439.17,-54.51 448.67,-49.83 443.67,-44.93"/>
</a>
</g>
</g>
</g>
</svg>
