<?xml version="1.0" encoding="UTF-8" standalone="no"?>
<!DOCTYPE svg PUBLIC "-//W3C//DTD SVG 1.1//EN"
 "http://www.w3.org/Graphics/SVG/1.1/DTD/svg11.dtd">
<!-- Generated by graphviz version 12.2.1 (20241206.2353)
 -->
<!-- Title: include/SensorManager.h Pages: 1 -->
<svg width="218pt" height="84pt"
 viewBox="0.00 0.00 217.88 84.00" xmlns="http://www.w3.org/2000/svg" xmlns:xlink="http://www.w3.org/1999/xlink">
<g id="graph0" class="graph" transform="scale(1 1) rotate(0) translate(4 80)">
<title>include/SensorManager.h</title>
<!-- Node1 -->
<g id="Node000001" class="node">
<title>Node1</title>
<g id="a_Node000001"><a xlink:title="Manages the initialization, calibration, and data retrieval from sensors.">
<polygon fill="#999999" stroke="#666666" points="179.88,-76 53.62,-76 53.62,-56 179.88,-56 179.88,-76"/>
<text text-anchor="middle" x="116.75" y="-62.5" font-family="Helvetica,sans-Serif" font-size="10.00">include/SensorManager.h</text>
</a>
</g>
</g>
<!-- Node2 -->
<g id="Node000002" class="node">
<title>Node2</title>
<g id="a_Node000002"><a xlink:href="_sensor_manager_8cpp.html" target="_top" xlink:title="Implements the functionality for managing the SCD30 and BMP280 sensors.">
<polygon fill="white" stroke="#666666" points="119.5,-20 0,-20 0,0 119.5,0 119.5,-20"/>
<text text-anchor="middle" x="59.75" y="-6.5" font-family="Helvetica,sans-Serif" font-size="10.00">src/SensorManager.cpp</text>
</a>
</g>
</g>
<!-- Node1&#45;&gt;Node2 -->
<g id="edge1_Node000001_Node000002" class="edge">
<title>Node1&#45;&gt;Node2</title>
<g id="a_edge1_Node000001_Node000002"><a xlink:title=" ">
<path fill="none" stroke="#63b8ff" d="M98.64,-47.85C89.01,-38.72 77.54,-27.86 69.56,-20.3"/>
<polygon fill="#63b8ff" stroke="#63b8ff" points="96.06,-50.22 105.72,-54.55 100.87,-45.13 96.06,-50.22"/>
</a>
</g>
</g>
<!-- Node3 -->
<g id="Node000003" class="node">
<title>Node3</title>
<g id="a_Node000003"><a xlink:href="main_8cpp.html" target="_top" xlink:title="Main entry point for the CO2 Meter application.">
<polygon fill="white" stroke="#666666" points="209.88,-20 137.62,-20 137.62,0 209.88,0 209.88,-20"/>
<text text-anchor="middle" x="173.75" y="-6.5" font-family="Helvetica,sans-Serif" font-size="10.00">src/main.cpp</text>
</a>
</g>
</g>
<!-- Node1&#45;&gt;Node3 -->
<g id="edge2_Node000001_Node000003" class="edge">
<title>Node1&#45;&gt;Node3</title>
<g id="a_edge2_Node000001_Node000003"><a xlink:title=" ">
<path fill="none" stroke="#63b8ff" d="M134.86,-47.85C144.49,-38.72 155.96,-27.86 163.94,-20.3"/>
<polygon fill="#63b8ff" stroke="#63b8ff" points="132.63,-45.13 127.78,-54.55 137.44,-50.22 132.63,-45.13"/>
</a>
</g>
</g>
</g>
</svg>
