<?xml version="1.0" encoding="UTF-8" standalone="no"?>
<!DOCTYPE svg PUBLIC "-//W3C//DTD SVG 1.1//EN"
 "http://www.w3.org/Graphics/SVG/1.1/DTD/svg11.dtd">
<!-- Generated by graphviz version 12.2.1 (20241206.2353)
 -->
<!-- Title: Logger::debug Pages: 1 -->
<svg width="301pt" height="218pt"
 viewBox="0.00 0.00 301.00 218.00" xmlns="http://www.w3.org/2000/svg" xmlns:xlink="http://www.w3.org/1999/xlink">
<g id="graph0" class="graph" transform="scale(1 1) rotate(0) translate(4 214)">
<title>Logger::debug</title>
<!-- Node1 -->
<g id="Node000001" class="node">
<title>Node1</title>
<g id="a_Node000001"><a xlink:title="Logs a debug message.">
<polygon fill="#999999" stroke="#666666" points="293,-115 215.5,-115 215.5,-95 293,-95 293,-115"/>
<text text-anchor="middle" x="254.25" y="-101.5" font-family="Helvetica,sans-Serif" font-size="10.00">Logger::debug</text>
</a>
</g>
</g>
<!-- Node2 -->
<g id="Node000002" class="node">
<title>Node2</title>
<g id="a_Node000002"><a xlink:href="class_sensor_manager.html#ab621f498c240f93c0d9a7e47cbb669c6" target="_top" xlink:title="Retrieves the current pressure reading from the BMP280 sensor.">
<polygon fill="white" stroke="#666666" points="161.12,-210 18.38,-210 18.38,-190 161.12,-190 161.12,-210"/>
<text text-anchor="middle" x="89.75" y="-196.5" font-family="Helvetica,sans-Serif" font-size="10.00">SensorManager::getPressure</text>
</a>
</g>
</g>
<!-- Node1&#45;&gt;Node2 -->
<g id="edge1_Node000001_Node000002" class="edge">
<title>Node1&#45;&gt;Node2</title>
<g id="a_edge1_Node000001_Node000002"><a xlink:title=" ">
<path fill="none" stroke="#63b8ff" d="M239.79,-124.34C226.52,-141.89 204.61,-167.1 179.5,-181 173.3,-184.43 166.53,-187.25 159.59,-189.55"/>
<polygon fill="#63b8ff" stroke="#63b8ff" points="242.29,-126.86 245.35,-116.72 236.63,-122.73 242.29,-126.86"/>
</a>
</g>
</g>
<!-- Node3 -->
<g id="Node000003" class="node">
<title>Node3</title>
<g id="a_Node000003"><a xlink:href="class_sensor_manager.html#aa4207d6b919d2deac9d8b95c6a36f8b9" target="_top" xlink:title="Retrieves the current temperature reading from the BMP280 sensor.">
<polygon fill="white" stroke="#666666" points="179.5,-172 0,-172 0,-152 179.5,-152 179.5,-172"/>
<text text-anchor="middle" x="89.75" y="-158.5" font-family="Helvetica,sans-Serif" font-size="10.00">SensorManager::getTemperatureBMP</text>
</a>
</g>
</g>
<!-- Node1&#45;&gt;Node3 -->
<g id="edge2_Node000001_Node000003" class="edge">
<title>Node1&#45;&gt;Node3</title>
<g id="a_edge2_Node000001_Node000003"><a xlink:title=" ">
<path fill="none" stroke="#63b8ff" d="M226.54,-120.94C212.86,-128.54 195.71,-137.2 179.5,-143 170.15,-146.34 160.03,-149.19 150.08,-151.58"/>
<polygon fill="#63b8ff" stroke="#63b8ff" points="227.98,-124.15 234.94,-116.16 224.52,-118.07 227.98,-124.15"/>
</a>
</g>
</g>
<!-- Node4 -->
<g id="Node000004" class="node">
<title>Node4</title>
<g id="a_Node000004"><a xlink:href="class_sensor_manager.html#a4fa7cbb9b36b933c0ca03553ba4db966" target="_top" xlink:title="Checks if new data is available from the sensors.">
<polygon fill="white" stroke="#666666" points="169,-134 10.5,-134 10.5,-114 169,-114 169,-134"/>
<text text-anchor="middle" x="89.75" y="-120.5" font-family="Helvetica,sans-Serif" font-size="10.00">SensorManager::isDataAvailable</text>
</a>
</g>
</g>
<!-- Node1&#45;&gt;Node4 -->
<g id="edge3_Node000001_Node000004" class="edge">
<title>Node1&#45;&gt;Node4</title>
<g id="a_edge3_Node000001_Node000004"><a xlink:title=" ">
<path fill="none" stroke="#63b8ff" d="M204.06,-110.75C193.06,-112.04 181.11,-113.43 169.25,-114.82"/>
<polygon fill="#63b8ff" stroke="#63b8ff" points="204.12,-114.27 213.65,-109.63 203.31,-107.32 204.12,-114.27"/>
</a>
</g>
</g>
<!-- Node5 -->
<g id="Node000005" class="node">
<title>Node5</title>
<g id="a_Node000005"><a xlink:href="main_8cpp.html#afe461d27b9c48d5921c00d521181f12f" target="_top" xlink:title="Main loop for retrieving sensor data and updating the display.">
<polygon fill="white" stroke="#666666" points="106.75,-96 72.75,-96 72.75,-76 106.75,-76 106.75,-96"/>
<text text-anchor="middle" x="89.75" y="-82.5" font-family="Helvetica,sans-Serif" font-size="10.00">loop</text>
</a>
</g>
</g>
<!-- Node1&#45;&gt;Node5 -->
<g id="edge4_Node000001_Node000005" class="edge">
<title>Node1&#45;&gt;Node5</title>
<g id="a_edge4_Node000001_Node000005"><a xlink:title=" ">
<path fill="none" stroke="#63b8ff" d="M203.85,-99.22C170.78,-95.36 129.36,-90.51 106.95,-87.89"/>
<polygon fill="#63b8ff" stroke="#63b8ff" points="203.31,-102.68 213.65,-100.37 204.12,-95.73 203.31,-102.68"/>
</a>
</g>
</g>
<!-- Node6 -->
<g id="Node000006" class="node">
<title>Node6</title>
<g id="a_Node000006"><a xlink:href="class_sensor_manager.html#ad6448faa4a1a1e9647682ee4a7005d80" target="_top" xlink:title="Resets the calibration flag stored in EEPROM.">
<polygon fill="white" stroke="#666666" points="178.38,-58 1.12,-58 1.12,-38 178.38,-38 178.38,-58"/>
<text text-anchor="middle" x="89.75" y="-44.5" font-family="Helvetica,sans-Serif" font-size="10.00">SensorManager::resetCalibrationFlag</text>
</a>
</g>
</g>
<!-- Node1&#45;&gt;Node6 -->
<g id="edge5_Node000001_Node000006" class="edge">
<title>Node1&#45;&gt;Node6</title>
<g id="a_edge5_Node000001_Node000006"><a xlink:title=" ">
<path fill="none" stroke="#63b8ff" d="M226.54,-89.06C212.86,-81.46 195.71,-72.8 179.5,-67 170.15,-63.66 160.03,-60.81 150.08,-58.42"/>
<polygon fill="#63b8ff" stroke="#63b8ff" points="224.52,-91.93 234.94,-93.84 227.98,-85.85 224.52,-91.93"/>
</a>
</g>
</g>
<!-- Node7 -->
<g id="Node000007" class="node">
<title>Node7</title>
<g id="a_Node000007"><a xlink:href="main_8cpp.html#a4fc01d736fe50cf5b977f755b675f11d" target="_top" xlink:title="Initializes the system, including the display, sensors, and logger.">
<polygon fill="white" stroke="#666666" points="109.75,-20 69.75,-20 69.75,0 109.75,0 109.75,-20"/>
<text text-anchor="middle" x="89.75" y="-6.5" font-family="Helvetica,sans-Serif" font-size="10.00">setup</text>
</a>
</g>
</g>
<!-- Node1&#45;&gt;Node7 -->
<g id="edge6_Node000001_Node000007" class="edge">
<title>Node1&#45;&gt;Node7</title>
<g id="a_edge6_Node000001_Node000007"><a xlink:title=" ">
<path fill="none" stroke="#63b8ff" d="M239.79,-85.66C226.52,-68.11 204.61,-42.9 179.5,-29 157.72,-16.94 129.02,-12.53 110.23,-10.92"/>
<polygon fill="#63b8ff" stroke="#63b8ff" points="236.63,-87.27 245.35,-93.28 242.29,-83.14 236.63,-87.27"/>
</a>
</g>
</g>
</g>
</svg>
