<?xml version="1.0" encoding="UTF-8" standalone="no"?>
<!DOCTYPE svg PUBLIC "-//W3C//DTD SVG 1.1//EN"
 "http://www.w3.org/Graphics/SVG/1.1/DTD/svg11.dtd">
<!-- Generated by graphviz version 2.43.0 (0)
 -->
<!-- Title: Logger::log Pages: 1 -->
<svg width="740pt" height="617pt"
 viewBox="0.00 0.00 740.00 617.35" xmlns="http://www.w3.org/2000/svg" xmlns:xlink="http://www.w3.org/1999/xlink">
<g id="graph0" class="graph" transform="scale(1 1) rotate(0) translate(4 613.35)">
<title>Logger::log</title>
<!-- Node1 -->
<g id="Node000001" class="node">
<title>Node1</title>
<g id="a_Node000001"><a xlink:title="Logs a message if it meets the current log level.">
<polygon fill="#999999" stroke="#666666" points="732,-360.5 661,-360.5 661,-341.5 732,-341.5 732,-360.5"/>
<text text-anchor="middle" x="696.5" y="-348.5" font-family="Helvetica,sans-Serif" font-size="10.00">Logger::log</text>
</a>
</g>
</g>
<!-- Node2 -->
<g id="Node000002" class="node">
<title>Node2</title>
<g id="a_Node000002"><a xlink:href="classLogger.html#abeffd58a6beace1b1c01a5324227fd83" target="_top" xlink:title="Logs a debug message.">
<polygon fill="white" stroke="#666666" points="625,-502.5 539,-502.5 539,-483.5 625,-483.5 625,-502.5"/>
<text text-anchor="middle" x="582" y="-490.5" font-family="Helvetica,sans-Serif" font-size="10.00">Logger::debug</text>
</a>
</g>
</g>
<!-- Node1&#45;&gt;Node2 -->
<g id="edge1_Node000001_Node000002" class="edge">
<title>Node1&#45;&gt;Node2</title>
<g id="a_edge1_Node000001_Node000002"><a xlink:title=" ">
<path fill="none" stroke="#63b8ff" d="M681.43,-368.77C657.47,-399 609.55,-459.49 590.79,-483.17"/>
<polygon fill="#63b8ff" stroke="#63b8ff" points="684.3,-370.77 687.77,-360.76 678.81,-366.43 684.3,-370.77"/>
</a>
</g>
</g>
<!-- Node9 -->
<g id="Node000009" class="node">
<title>Node9</title>
<g id="a_Node000009"><a xlink:href="classLogger.html#ac862952b8ffa9de295a496af0108785c" target="_top" xlink:title="Logs an error message.">
<polygon fill="white" stroke="#666666" points="621.5,-320.5 542.5,-320.5 542.5,-301.5 621.5,-301.5 621.5,-320.5"/>
<text text-anchor="middle" x="582" y="-308.5" font-family="Helvetica,sans-Serif" font-size="10.00">Logger::error</text>
</a>
</g>
</g>
<!-- Node1&#45;&gt;Node9 -->
<g id="edge11_Node000001_Node000009" class="edge">
<title>Node1&#45;&gt;Node9</title>
<g id="a_edge11_Node000001_Node000009"><a xlink:title=" ">
<path fill="none" stroke="#63b8ff" d="M658.94,-338C642.91,-332.3 624.44,-325.73 609.73,-320.5"/>
<polygon fill="#63b8ff" stroke="#63b8ff" points="657.96,-341.37 668.55,-341.42 660.3,-334.77 657.96,-341.37"/>
</a>
</g>
</g>
<!-- Node14 -->
<g id="Node000014" class="node">
<title>Node14</title>
<g id="a_Node000014"><a xlink:href="classLogger.html#a0c5851d03ba2e560bfd57aeb713267b3" target="_top" xlink:title="Logs an informational message.">
<polygon fill="white" stroke="#666666" points="619,-181.5 545,-181.5 545,-162.5 619,-162.5 619,-181.5"/>
<text text-anchor="middle" x="582" y="-169.5" font-family="Helvetica,sans-Serif" font-size="10.00">Logger::info</text>
</a>
</g>
</g>
<!-- Node1&#45;&gt;Node14 -->
<g id="edge21_Node000001_Node000014" class="edge">
<title>Node1&#45;&gt;Node14</title>
<g id="a_edge21_Node000001_Node000014"><a xlink:title=" ">
<path fill="none" stroke="#63b8ff" d="M683.85,-332.46C660.15,-294.75 607.05,-210.26 589.08,-181.67"/>
<polygon fill="#63b8ff" stroke="#63b8ff" points="681.17,-334.77 689.45,-341.38 687.09,-331.05 681.17,-334.77"/>
</a>
</g>
</g>
<!-- Node17 -->
<g id="Node000017" class="node">
<title>Node17</title>
<g id="a_Node000017"><a xlink:href="classLogger.html#a4d229b17ee039e273686455c74382ec6" target="_top" xlink:title="Logs a warning message.">
<polygon fill="white" stroke="#666666" points="452,-391.5 357,-391.5 357,-372.5 452,-372.5 452,-391.5"/>
<text text-anchor="middle" x="404.5" y="-379.5" font-family="Helvetica,sans-Serif" font-size="10.00">Logger::warning</text>
</a>
</g>
</g>
<!-- Node1&#45;&gt;Node17 -->
<g id="edge32_Node000001_Node000017" class="edge">
<title>Node1&#45;&gt;Node17</title>
<g id="a_edge32_Node000001_Node000017"><a xlink:title=" ">
<path fill="none" stroke="#63b8ff" d="M650.53,-355.81C596.66,-361.57 506.84,-371.17 452.21,-377.01"/>
<polygon fill="#63b8ff" stroke="#63b8ff" points="651.24,-359.25 660.81,-354.71 650.49,-352.29 651.24,-359.25"/>
</a>
</g>
</g>
<!-- Node3 -->
<g id="Node000003" class="node">
<title>Node3</title>
<g id="a_Node000003"><a xlink:href="classSensorManager.html#ab621f498c240f93c0d9a7e47cbb669c6" target="_top" xlink:title="Retrieves the current pressure reading from the BMP280 sensor.">
<polygon fill="white" stroke="#666666" points="482.5,-502.5 326.5,-502.5 326.5,-483.5 482.5,-483.5 482.5,-502.5"/>
<text text-anchor="middle" x="404.5" y="-490.5" font-family="Helvetica,sans-Serif" font-size="10.00">SensorManager::getPressure</text>
</a>
</g>
</g>
<!-- Node2&#45;&gt;Node3 -->
<g id="edge2_Node000002_Node000003" class="edge">
<title>Node2&#45;&gt;Node3</title>
<g id="a_edge2_Node000002_Node000003"><a xlink:title=" ">
<path fill="none" stroke="#63b8ff" d="M528.71,-493C514.21,-493 498.16,-493 482.56,-493"/>
<polygon fill="#63b8ff" stroke="#63b8ff" points="528.96,-496.5 538.96,-493 528.96,-489.5 528.96,-496.5"/>
</a>
</g>
</g>
<!-- Node4 -->
<g id="Node000004" class="node">
<title>Node4</title>
<g id="a_Node000004"><a xlink:href="main_8cpp.html#afe461d27b9c48d5921c00d521181f12f" target="_top" xlink:title="Main loop for retrieving sensor data and updating the display.">
<polygon fill="white" stroke="#666666" points="194,-483.5 156,-483.5 156,-464.5 194,-464.5 194,-483.5"/>
<text text-anchor="middle" x="175" y="-471.5" font-family="Helvetica,sans-Serif" font-size="10.00">loop</text>
</a>
</g>
</g>
<!-- Node2&#45;&gt;Node4 -->
<g id="edge8_Node000002_Node000004" class="edge">
<title>Node2&#45;&gt;Node4</title>
<g id="a_edge8_Node000002_Node000004"><a xlink:title=" ">
<path fill="none" stroke="#63b8ff" d="M539.49,-505.06C527.79,-507.92 514.99,-510.56 503,-512 416.07,-522.44 392.67,-524.41 306,-512 265.03,-506.14 218.95,-490.37 194.15,-481.1"/>
<polygon fill="#63b8ff" stroke="#63b8ff" points="540.62,-508.38 549.44,-502.51 538.88,-501.6 540.62,-508.38"/>
</a>
</g>
</g>
<!-- Node5 -->
<g id="Node000005" class="node">
<title>Node5</title>
<g id="a_Node000005"><a xlink:href="classSensorManager.html#aa4207d6b919d2deac9d8b95c6a36f8b9" target="_top" xlink:title="Retrieves the current temperature reading from the BMP280 sensor.">
<polygon fill="white" stroke="#666666" points="503,-465.5 306,-465.5 306,-446.5 503,-446.5 503,-465.5"/>
<text text-anchor="middle" x="404.5" y="-453.5" font-family="Helvetica,sans-Serif" font-size="10.00">SensorManager::getTemperatureBMP</text>
</a>
</g>
</g>
<!-- Node2&#45;&gt;Node5 -->
<g id="edge4_Node000002_Node000005" class="edge">
<title>Node2&#45;&gt;Node5</title>
<g id="a_edge4_Node000002_Node000005"><a xlink:title=" ">
<path fill="none" stroke="#63b8ff" d="M531.05,-481.21C521.74,-479.08 512.08,-476.93 503,-475 487.82,-471.77 471.26,-468.46 456.17,-465.53"/>
<polygon fill="#63b8ff" stroke="#63b8ff" points="530.45,-484.66 540.98,-483.49 532.01,-477.84 530.45,-484.66"/>
</a>
</g>
</g>
<!-- Node6 -->
<g id="Node000006" class="node">
<title>Node6</title>
<g id="a_Node000006"><a xlink:href="classSensorManager.html#a4fa7cbb9b36b933c0ca03553ba4db966" target="_top" xlink:title="Checks if new data is available from the sensors.">
<polygon fill="white" stroke="#666666" points="492,-578.5 317,-578.5 317,-559.5 492,-559.5 492,-578.5"/>
<text text-anchor="middle" x="404.5" y="-566.5" font-family="Helvetica,sans-Serif" font-size="10.00">SensorManager::isDataAvailable</text>
</a>
</g>
</g>
<!-- Node2&#45;&gt;Node6 -->
<g id="edge6_Node000002_Node000006" class="edge">
<title>Node2&#45;&gt;Node6</title>
<g id="a_edge6_Node000002_Node000006"><a xlink:title=" ">
<path fill="none" stroke="#63b8ff" d="M561.26,-508.98C546.13,-520.51 524.29,-535.63 503,-545 489.04,-551.15 473.23,-555.89 458.47,-559.48"/>
<polygon fill="#63b8ff" stroke="#63b8ff" points="563.6,-511.59 569.34,-502.68 559.3,-506.07 563.6,-511.59"/>
</a>
</g>
</g>
<!-- Node7 -->
<g id="Node000007" class="node">
<title>Node7</title>
<g id="a_Node000007"><a xlink:href="classSensorManager.html#ad6448faa4a1a1e9647682ee4a7005d80" target="_top" xlink:title="Resets the calibration flag stored in EEPROM.">
<polygon fill="white" stroke="#666666" points="503,-428.5 306,-428.5 306,-409.5 503,-409.5 503,-428.5"/>
<text text-anchor="middle" x="404.5" y="-416.5" font-family="Helvetica,sans-Serif" font-size="10.00">SensorManager::resetCalibrationFlag</text>
</a>
</g>
</g>
<!-- Node2&#45;&gt;Node7 -->
<g id="edge9_Node000002_Node000007" class="edge">
<title>Node2&#45;&gt;Node7</title>
<g id="a_edge9_Node000002_Node000007"><a xlink:title=" ">
<path fill="none" stroke="#63b8ff" d="M562.33,-476.38C547.33,-463.92 525.17,-447.46 503,-438 493.88,-434.11 483.94,-431.01 474,-428.54"/>
<polygon fill="#63b8ff" stroke="#63b8ff" points="560.4,-479.34 570.28,-483.17 564.95,-474.01 560.4,-479.34"/>
</a>
</g>
</g>
<!-- Node8 -->
<g id="Node000008" class="node">
<title>Node8</title>
<g id="a_Node000008"><a xlink:href="main_8cpp.html#a4fc01d736fe50cf5b977f755b675f11d" target="_top" xlink:title="Initializes the system, including the display, sensors, and logger.">
<polygon fill="white" stroke="#666666" points="44,-277.5 0,-277.5 0,-258.5 44,-258.5 44,-277.5"/>
<text text-anchor="middle" x="22" y="-265.5" font-family="Helvetica,sans-Serif" font-size="10.00">setup</text>
</a>
</g>
</g>
<!-- Node2&#45;&gt;Node8 -->
<g id="edge10_Node000002_Node000008" class="edge">
<title>Node2&#45;&gt;Node8</title>
<g id="a_edge10_Node000002_Node000008"><a xlink:title=" ">
<path fill="none" stroke="#63b8ff" d="M572.14,-511.71C560.12,-534.61 536.27,-572.27 503,-588 423.85,-625.43 391.83,-605.31 306,-588 199.19,-566.46 151.06,-575.59 80,-493 23.23,-427.02 21.68,-312.2 22.58,-277.93"/>
<polygon fill="#63b8ff" stroke="#63b8ff" points="575.33,-513.15 576.69,-502.64 569.07,-510.01 575.33,-513.15"/>
</a>
</g>
</g>
<!-- Node3&#45;&gt;Node4 -->
<g id="edge3_Node000003_Node000004" class="edge">
<title>Node3&#45;&gt;Node4</title>
<g id="a_edge3_Node000003_Node000004"><a xlink:title=" ">
<path fill="none" stroke="#63b8ff" d="M316.4,-485.73C271.48,-481.97 220.68,-477.73 194.22,-475.52"/>
<polygon fill="#63b8ff" stroke="#63b8ff" points="316.22,-489.22 326.48,-486.57 316.8,-482.25 316.22,-489.22"/>
</a>
</g>
</g>
<!-- Node5&#45;&gt;Node4 -->
<g id="edge5_Node000005_Node000004" class="edge">
<title>Node5&#45;&gt;Node4</title>
<g id="a_edge5_Node000005_Node000004"><a xlink:title=" ">
<path fill="none" stroke="#63b8ff" d="M295.28,-464.56C256.28,-467.65 216.42,-470.8 194.08,-472.57"/>
<polygon fill="#63b8ff" stroke="#63b8ff" points="296.01,-468.02 305.7,-463.74 295.45,-461.04 296.01,-468.02"/>
</a>
</g>
</g>
<!-- Node6&#45;&gt;Node4 -->
<g id="edge7_Node000006_Node000004" class="edge">
<title>Node6&#45;&gt;Node4</title>
<g id="a_edge7_Node000006_Node000004"><a xlink:title=" ">
<path fill="none" stroke="#63b8ff" d="M344.05,-556.96C331.3,-553.67 318.05,-549.68 306,-545 261.9,-527.86 214.03,-498.68 190.6,-483.62"/>
<polygon fill="#63b8ff" stroke="#63b8ff" points="343.58,-560.45 354.13,-559.46 345.27,-553.66 343.58,-560.45"/>
</a>
</g>
</g>
<!-- Node9&#45;&gt;Node7 -->
<g id="edge19_Node000009_Node000007" class="edge">
<title>Node9&#45;&gt;Node7</title>
<g id="a_edge19_Node000009_Node000007"><a xlink:title=" ">
<path fill="none" stroke="#63b8ff" d="M570.43,-329.39C557.39,-350.29 533.19,-383.73 503,-401 497.02,-404.42 490.53,-407.21 483.84,-409.48"/>
<polygon fill="#63b8ff" stroke="#63b8ff" points="573.46,-331.15 575.62,-320.77 567.46,-327.54 573.46,-331.15"/>
</a>
</g>
</g>
<!-- Node9&#45;&gt;Node8 -->
<g id="edge20_Node000009_Node000008" class="edge">
<title>Node9&#45;&gt;Node8</title>
<g id="a_edge20_Node000009_Node000008"><a xlink:title=" ">
<path fill="none" stroke="#63b8ff" d="M532.58,-321.26C440.95,-338.45 237.28,-365.9 80,-309 61.43,-302.28 43.54,-287.65 32.9,-277.81"/>
<polygon fill="#63b8ff" stroke="#63b8ff" points="533.24,-324.7 542.41,-319.38 531.93,-317.82 533.24,-324.7"/>
</a>
</g>
</g>
<!-- Node10 -->
<g id="Node000010" class="node">
<title>Node10</title>
<g id="a_Node000010"><a xlink:href="classSensorManager.html#a3608ee33385f64e74410127d59c2638e" target="_top" xlink:title="Calibrates the SCD30 sensor using the forced recalibration factor.">
<polygon fill="white" stroke="#666666" points="475,-230 334,-230 334,-200 475,-200 475,-230"/>
<text text-anchor="start" x="342" y="-218" font-family="Helvetica,sans-Serif" font-size="10.00">SensorManager::calibrate</text>
<text text-anchor="middle" x="404.5" y="-207" font-family="Helvetica,sans-Serif" font-size="10.00">SCD30</text>
</a>
</g>
</g>
<!-- Node9&#45;&gt;Node10 -->
<g id="edge12_Node000009_Node000010" class="edge">
<title>Node9&#45;&gt;Node10</title>
<g id="a_edge12_Node000009_Node000010"><a xlink:title=" ">
<path fill="none" stroke="#63b8ff" d="M566.84,-293.61C552.46,-277.1 528.71,-252.82 503,-239 494.33,-234.34 484.73,-230.56 475.04,-227.51"/>
<polygon fill="#63b8ff" stroke="#63b8ff" points="564.33,-296.06 573.47,-301.44 569.68,-291.54 564.33,-296.06"/>
</a>
</g>
</g>
<!-- Node12 -->
<g id="Node000012" class="node">
<title>Node12</title>
<g id="a_Node000012"><a xlink:href="classDisplayManager.html#aeb1c8224403ea2595f202e5d93380609" target="_top" xlink:title="Initializes the OLED display.">
<polygon fill="white" stroke="#666666" points="476.5,-267.5 332.5,-267.5 332.5,-248.5 476.5,-248.5 476.5,-267.5"/>
<text text-anchor="middle" x="404.5" y="-255.5" font-family="Helvetica,sans-Serif" font-size="10.00">DisplayManager::initialize</text>
</a>
</g>
</g>
<!-- Node9&#45;&gt;Node12 -->
<g id="edge15_Node000009_Node000012" class="edge">
<title>Node9&#45;&gt;Node12</title>
<g id="a_edge15_Node000009_Node000012"><a xlink:title=" ">
<path fill="none" stroke="#63b8ff" d="M553.19,-297.11C538.55,-290.25 520.12,-282.33 503,-277 490.98,-273.26 477.89,-270.11 465.31,-267.51"/>
<polygon fill="#63b8ff" stroke="#63b8ff" points="551.68,-300.27 562.21,-301.42 554.7,-293.95 551.68,-300.27"/>
</a>
</g>
</g>
<!-- Node13 -->
<g id="Node000013" class="node">
<title>Node13</title>
<g id="a_Node000013"><a xlink:href="classSensorManager.html#aded8aff6d741a64d0c34668a0694dd3d" target="_top" xlink:title="Initializes the SCD30 and BMP280 sensors.">
<polygon fill="white" stroke="#666666" points="474.5,-316 334.5,-316 334.5,-286 474.5,-286 474.5,-316"/>
<text text-anchor="start" x="342.5" y="-304" font-family="Helvetica,sans-Serif" font-size="10.00">SensorManager::initialize</text>
<text text-anchor="middle" x="404.5" y="-293" font-family="Helvetica,sans-Serif" font-size="10.00">Sensors</text>
</a>
</g>
</g>
<!-- Node9&#45;&gt;Node13 -->
<g id="edge17_Node000009_Node000013" class="edge">
<title>Node9&#45;&gt;Node13</title>
<g id="a_edge17_Node000009_Node000013"><a xlink:title=" ">
<path fill="none" stroke="#63b8ff" d="M532.33,-308.23C514.5,-307.21 493.96,-306.04 474.68,-304.94"/>
<polygon fill="#63b8ff" stroke="#63b8ff" points="532.3,-311.73 542.49,-308.81 532.7,-304.74 532.3,-311.73"/>
</a>
</g>
</g>
<!-- Node11 -->
<g id="Node000011" class="node">
<title>Node11</title>
<g id="a_Node000011"><a xlink:href="classSensorManager.html#a9daa366f758f7419ab22fb3c243801fe" target="_top" xlink:title="Checks if the SCD30 sensor needs calibration and performs calibration if necessary.">
<polygon fill="white" stroke="#666666" points="270,-202 80,-202 80,-172 270,-172 270,-202"/>
<text text-anchor="start" x="88" y="-190" font-family="Helvetica,sans-Serif" font-size="10.00">SensorManager::checkAndCalibrate</text>
<text text-anchor="middle" x="175" y="-179" font-family="Helvetica,sans-Serif" font-size="10.00">SCD30</text>
</a>
</g>
</g>
<!-- Node10&#45;&gt;Node11 -->
<g id="edge13_Node000010_Node000011" class="edge">
<title>Node10&#45;&gt;Node11</title>
<g id="a_edge13_Node000010_Node000011"><a xlink:title=" ">
<path fill="none" stroke="#63b8ff" d="M323.7,-205.18C306.48,-203.06 288.11,-200.8 270.39,-198.62"/>
<polygon fill="#63b8ff" stroke="#63b8ff" points="323.34,-208.66 333.7,-206.41 324.2,-201.71 323.34,-208.66"/>
</a>
</g>
</g>
<!-- Node11&#45;&gt;Node8 -->
<g id="edge14_Node000011_Node000008" class="edge">
<title>Node11&#45;&gt;Node8</title>
<g id="a_edge14_Node000011_Node000008"><a xlink:title=" ">
<path fill="none" stroke="#63b8ff" d="M101.64,-205.71C94.13,-208.71 86.78,-212.13 80,-216 60.23,-227.3 41.58,-246.53 31.28,-258.16"/>
<polygon fill="#63b8ff" stroke="#63b8ff" points="103.06,-208.92 111.2,-202.14 100.6,-202.36 103.06,-208.92"/>
</a>
</g>
</g>
<!-- Node12&#45;&gt;Node8 -->
<g id="edge16_Node000012_Node000008" class="edge">
<title>Node12&#45;&gt;Node8</title>
<g id="a_edge16_Node000012_Node000008"><a xlink:title=" ">
<path fill="none" stroke="#63b8ff" d="M322.96,-247.41C257.17,-240.76 161.99,-235.69 80,-249 67.85,-250.97 54.79,-255.16 44.24,-259.11"/>
<polygon fill="#63b8ff" stroke="#63b8ff" points="322.95,-250.93 333.26,-248.49 323.68,-243.97 322.95,-250.93"/>
</a>
</g>
</g>
<!-- Node13&#45;&gt;Node8 -->
<g id="edge18_Node000013_Node000008" class="edge">
<title>Node13&#45;&gt;Node8</title>
<g id="a_edge18_Node000013_Node000008"><a xlink:title=" ">
<path fill="none" stroke="#63b8ff" d="M324.09,-303.68C258.17,-304.44 162.25,-302.18 80,-287 67.79,-284.75 54.62,-280.48 44.01,-276.56"/>
<polygon fill="#63b8ff" stroke="#63b8ff" points="324.46,-307.17 334.4,-303.53 324.36,-300.17 324.46,-307.17"/>
</a>
</g>
</g>
<!-- Node14&#45;&gt;Node4 -->
<g id="edge26_Node000014_Node000004" class="edge">
<title>Node14&#45;&gt;Node4</title>
<g id="a_edge26_Node000014_Node000004"><a xlink:title=" ">
<path fill="none" stroke="#63b8ff" d="M534.81,-169.35C466.04,-166.36 341.04,-164.89 306,-191 269.46,-218.23 288.26,-245.25 270,-287 239.57,-356.58 196.17,-437.19 181.26,-464.44"/>
<polygon fill="#63b8ff" stroke="#63b8ff" points="534.79,-172.85 544.94,-169.82 535.11,-165.86 534.79,-172.85"/>
</a>
</g>
</g>
<!-- Node14&#45;&gt;Node8 -->
<g id="edge31_Node000014_Node000008" class="edge">
<title>Node14&#45;&gt;Node8</title>
<g id="a_edge31_Node000014_Node000008"><a xlink:title=" ">
<path fill="none" stroke="#63b8ff" d="M568.21,-153.82C554.45,-136 530.76,-109.97 503,-99 421.57,-66.84 392.72,-86.96 306,-99 202.6,-113.36 161.52,-97.79 80,-163 47.93,-188.65 31.37,-237.44 25.51,-258.22"/>
<polygon fill="#63b8ff" stroke="#63b8ff" points="565.7,-156.31 574.47,-162.26 571.33,-152.14 565.7,-156.31"/>
</a>
</g>
</g>
<!-- Node14&#45;&gt;Node10 -->
<g id="edge22_Node000014_Node000010" class="edge">
<title>Node14&#45;&gt;Node10</title>
<g id="a_edge22_Node000014_Node000010"><a xlink:title=" ">
<path fill="none" stroke="#63b8ff" d="M534.81,-183.32C514.08,-188.4 489.32,-194.46 467.05,-199.92"/>
<polygon fill="#63b8ff" stroke="#63b8ff" points="535.76,-186.69 544.64,-180.91 534.09,-179.89 535.76,-186.69"/>
</a>
</g>
</g>
<!-- Node14&#45;&gt;Node11 -->
<g id="edge23_Node000014_Node000011" class="edge">
<title>Node14&#45;&gt;Node11</title>
<g id="a_edge23_Node000014_Node000011"><a xlink:title=" ">
<path fill="none" stroke="#63b8ff" d="M563.11,-155.55C548.26,-143.08 525.92,-126.94 503,-120 419.2,-94.63 391.09,-99.36 306,-120 264.79,-129.99 222.03,-155.46 197.27,-171.96"/>
<polygon fill="#63b8ff" stroke="#63b8ff" points="561.1,-158.44 570.94,-162.37 565.7,-153.16 561.1,-158.44"/>
</a>
</g>
</g>
<!-- Node14&#45;&gt;Node12 -->
<g id="edge24_Node000014_Node000012" class="edge">
<title>Node14&#45;&gt;Node12</title>
<g id="a_edge24_Node000014_Node000012"><a xlink:title=" ">
<path fill="none" stroke="#63b8ff" d="M565.86,-189.35C551.32,-204.85 527.94,-226.92 503,-239 494.77,-242.98 485.78,-246.13 476.68,-248.62"/>
<polygon fill="#63b8ff" stroke="#63b8ff" points="568.84,-191.27 572.98,-181.52 563.66,-186.56 568.84,-191.27"/>
</a>
</g>
</g>
<!-- Node14&#45;&gt;Node13 -->
<g id="edge25_Node000014_Node000013" class="edge">
<title>Node14&#45;&gt;Node13</title>
<g id="a_edge25_Node000014_Node000013"><a xlink:title=" ">
<path fill="none" stroke="#63b8ff" d="M572.01,-190.76C559.74,-214.32 535.51,-254.27 503,-276 494.43,-281.73 484.63,-286.14 474.62,-289.55"/>
<polygon fill="#63b8ff" stroke="#63b8ff" points="575.16,-192.28 576.52,-181.77 568.91,-189.14 575.16,-192.28"/>
</a>
</g>
</g>
<!-- Node15 -->
<g id="Node000015" class="node">
<title>Node15</title>
<g id="a_Node000015"><a xlink:href="classDisplayManager.html#a2d6f5efef5cb7e03c820ab14c4adc217" target="_top" xlink:title="Runs a display check to verify the OLED functionality.">
<polygon fill="white" stroke="#666666" points="252.5,-30 97.5,-30 97.5,0 252.5,0 252.5,-30"/>
<text text-anchor="start" x="105.5" y="-18" font-family="Helvetica,sans-Serif" font-size="10.00">DisplayManager::runDisplay</text>
<text text-anchor="middle" x="175" y="-7" font-family="Helvetica,sans-Serif" font-size="10.00">Check</text>
</a>
</g>
</g>
<!-- Node14&#45;&gt;Node15 -->
<g id="edge27_Node000014_Node000015" class="edge">
<title>Node14&#45;&gt;Node15</title>
<g id="a_edge27_Node000014_Node000015"><a xlink:title=" ">
<path fill="none" stroke="#63b8ff" d="M575.4,-152.68C565.84,-123.54 543.38,-69.09 503,-44 427.72,2.77 323.25,3.43 252.82,-3.27"/>
<polygon fill="#63b8ff" stroke="#63b8ff" points="572.14,-153.98 578.45,-162.5 578.83,-151.91 572.14,-153.98"/>
</a>
</g>
</g>
<!-- Node16 -->
<g id="Node000016" class="node">
<title>Node16</title>
<g id="a_Node000016"><a xlink:href="classI2CScanner.html#ad3b7b4bc25e6c1e8b89e702862a56af5" target="_top" xlink:title="Scans the I2C bus for connected devices.">
<polygon fill="white" stroke="#666666" points="225,-277.5 125,-277.5 125,-258.5 225,-258.5 225,-277.5"/>
<text text-anchor="middle" x="175" y="-265.5" font-family="Helvetica,sans-Serif" font-size="10.00">I2CScanner::scan</text>
</a>
</g>
</g>
<!-- Node14&#45;&gt;Node16 -->
<g id="edge29_Node000014_Node000016" class="edge">
<title>Node14&#45;&gt;Node16</title>
<g id="a_edge29_Node000014_Node000016"><a xlink:title=" ">
<path fill="none" stroke="#63b8ff" d="M545.62,-159.28C490.74,-141.83 383.35,-117.03 306,-158 280.84,-171.33 290.65,-191.39 270,-211 248.13,-231.77 217.45,-248.61 197.17,-258.47"/>
<polygon fill="#63b8ff" stroke="#63b8ff" points="544.65,-162.64 555.24,-162.43 546.83,-155.99 544.65,-162.64"/>
</a>
</g>
</g>
<!-- Node15&#45;&gt;Node8 -->
<g id="edge28_Node000015_Node000008" class="edge">
<title>Node15&#45;&gt;Node8</title>
<g id="a_edge28_Node000015_Node000008"><a xlink:title=" ">
<path fill="none" stroke="#63b8ff" d="M90.37,-35.2C86.62,-37.79 83.13,-40.71 80,-44 49.44,-76.13 29.16,-219.72 24.19,-258.39"/>
<polygon fill="#63b8ff" stroke="#63b8ff" points="92.18,-38.19 98.94,-30.04 88.57,-32.2 92.18,-38.19"/>
</a>
</g>
</g>
<!-- Node16&#45;&gt;Node8 -->
<g id="edge30_Node000016_Node000008" class="edge">
<title>Node16&#45;&gt;Node8</title>
<g id="a_edge30_Node000016_Node000008"><a xlink:title=" ">
<path fill="none" stroke="#63b8ff" d="M114.82,-268C89.84,-268 62.36,-268 44.03,-268"/>
<polygon fill="#63b8ff" stroke="#63b8ff" points="114.97,-271.5 124.97,-268 114.97,-264.5 114.97,-271.5"/>
</a>
</g>
</g>
<!-- Node17&#45;&gt;Node4 -->
<g id="edge33_Node000017_Node000004" class="edge">
<title>Node17&#45;&gt;Node4</title>
<g id="a_edge33_Node000017_Node000004"><a xlink:title=" ">
<path fill="none" stroke="#63b8ff" d="M346.41,-389.96C332.93,-392.7 318.77,-396.31 306,-401 260.81,-417.6 212.66,-448.62 189.71,-464.33"/>
<polygon fill="#63b8ff" stroke="#63b8ff" points="347.38,-393.34 356.55,-388.03 346.07,-386.46 347.38,-393.34"/>
</a>
</g>
</g>
<!-- Node17&#45;&gt;Node8 -->
<g id="edge35_Node000017_Node000008" class="edge">
<title>Node17&#45;&gt;Node8</title>
<g id="a_edge35_Node000017_Node000008"><a xlink:title=" ">
<path fill="none" stroke="#63b8ff" d="M346.62,-392.32C278.18,-401.65 162.24,-407.31 80,-358 49.07,-339.45 32.19,-296.94 25.9,-277.74"/>
<polygon fill="#63b8ff" stroke="#63b8ff" points="347.37,-395.75 356.77,-390.86 346.37,-388.82 347.37,-395.75"/>
</a>
</g>
</g>
<!-- Node17&#45;&gt;Node16 -->
<g id="edge34_Node000017_Node000016" class="edge">
<title>Node17&#45;&gt;Node16</title>
<g id="a_edge34_Node000017_Node000016"><a xlink:title=" ">
<path fill="none" stroke="#63b8ff" d="M375.49,-367.96C328.56,-344.45 235.27,-297.7 195.11,-277.58"/>
<polygon fill="#63b8ff" stroke="#63b8ff" points="373.99,-371.13 384.49,-372.48 377.12,-364.87 373.99,-371.13"/>
</a>
</g>
</g>
</g>
</svg>
