<?xml version="1.0" encoding="UTF-8" standalone="no"?>
<!DOCTYPE svg PUBLIC "-//W3C//DTD SVG 1.1//EN"
 "http://www.w3.org/Graphics/SVG/1.1/DTD/svg11.dtd">
<!-- Generated by graphviz version 2.43.0 (0)
 -->
<!-- Title: Logger::debug Pages: 1 -->
<svg width="401pt" height="214pt"
 viewBox="0.00 0.00 401.00 214.00" xmlns="http://www.w3.org/2000/svg" xmlns:xlink="http://www.w3.org/1999/xlink">
<g id="graph0" class="graph" transform="scale(1 1) rotate(0) translate(4 210)">
<title>Logger::debug</title>
<!-- Node1 -->
<g id="Node000001" class="node">
<title>Node1</title>
<g id="a_Node000001"><a xlink:title="Logs a debug message.">
<polygon fill="#999999" stroke="#666666" points="393,-111 307,-111 307,-92 393,-92 393,-111"/>
<text text-anchor="middle" x="350" y="-99" font-family="Helvetica,sans-Serif" font-size="10.00">Logger::debug</text>
</a>
</g>
</g>
<!-- Node2 -->
<g id="Node000002" class="node">
<title>Node2</title>
<g id="a_Node000002"><a xlink:href="classSensorManager.html#ab621f498c240f93c0d9a7e47cbb669c6" target="_top" xlink:title="Retrieves the current pressure reading from the BMP280 sensor.">
<polygon fill="white" stroke="#666666" points="250.5,-206 94.5,-206 94.5,-187 250.5,-187 250.5,-206"/>
<text text-anchor="middle" x="172.5" y="-194" font-family="Helvetica,sans-Serif" font-size="10.00">SensorManager::getPressure</text>
</a>
</g>
</g>
<!-- Node1&#45;&gt;Node2 -->
<g id="edge1_Node000001_Node000002" class="edge">
<title>Node1&#45;&gt;Node2</title>
<g id="a_edge1_Node000001_Node000002"><a xlink:title=" ">
<path fill="none" stroke="#63b8ff" d="M334.32,-119.17C319.86,-135.43 296.32,-159 271,-172.5 259.16,-178.82 245.62,-183.5 232.47,-186.97"/>
<polygon fill="#63b8ff" stroke="#63b8ff" points="337.12,-121.28 341.02,-111.43 331.83,-116.7 337.12,-121.28"/>
</a>
</g>
</g>
<!-- Node3 -->
<g id="Node000003" class="node">
<title>Node3</title>
<g id="a_Node000003"><a xlink:href="main_8cpp.html#afe461d27b9c48d5921c00d521181f12f" target="_top" xlink:title="Main loop for retrieving sensor data and updating the display.">
<polygon fill="white" stroke="#666666" points="38,-149 0,-149 0,-130 38,-130 38,-149"/>
<text text-anchor="middle" x="19" y="-137" font-family="Helvetica,sans-Serif" font-size="10.00">loop</text>
</a>
</g>
</g>
<!-- Node1&#45;&gt;Node3 -->
<g id="edge7_Node000001_Node000003" class="edge">
<title>Node1&#45;&gt;Node3</title>
<g id="a_edge7_Node000001_Node000003"><a xlink:title=" ">
<path fill="none" stroke="#63b8ff" d="M325.91,-116.21C310.91,-124.87 290.57,-134.99 271,-139.5 185.86,-159.14 80.12,-148.01 38.27,-142.27"/>
<polygon fill="#63b8ff" stroke="#63b8ff" points="327.73,-119.2 334.51,-111.06 324.13,-113.19 327.73,-119.2"/>
</a>
</g>
</g>
<!-- Node4 -->
<g id="Node000004" class="node">
<title>Node4</title>
<g id="a_Node000004"><a xlink:href="classSensorManager.html#aa4207d6b919d2deac9d8b95c6a36f8b9" target="_top" xlink:title="Retrieves the current temperature reading from the BMP280 sensor.">
<polygon fill="white" stroke="#666666" points="271,-130 74,-130 74,-111 271,-111 271,-130"/>
<text text-anchor="middle" x="172.5" y="-118" font-family="Helvetica,sans-Serif" font-size="10.00">SensorManager::getTemperatureBMP</text>
</a>
</g>
</g>
<!-- Node1&#45;&gt;Node4 -->
<g id="edge3_Node000001_Node000004" class="edge">
<title>Node1&#45;&gt;Node4</title>
<g id="a_edge3_Node000001_Node000004"><a xlink:title=" ">
<path fill="none" stroke="#63b8ff" d="M296.95,-107.14C285.73,-108.35 273.57,-109.67 261.4,-110.98"/>
<polygon fill="#63b8ff" stroke="#63b8ff" points="297.4,-110.61 306.96,-106.05 296.64,-103.65 297.4,-110.61"/>
</a>
</g>
</g>
<!-- Node5 -->
<g id="Node000005" class="node">
<title>Node5</title>
<g id="a_Node000005"><a xlink:href="classSensorManager.html#a4fa7cbb9b36b933c0ca03553ba4db966" target="_top" xlink:title="Checks if new data is available from the sensors.">
<polygon fill="white" stroke="#666666" points="260,-93 85,-93 85,-74 260,-74 260,-93"/>
<text text-anchor="middle" x="172.5" y="-81" font-family="Helvetica,sans-Serif" font-size="10.00">SensorManager::isDataAvailable</text>
</a>
</g>
</g>
<!-- Node1&#45;&gt;Node5 -->
<g id="edge5_Node000001_Node000005" class="edge">
<title>Node1&#45;&gt;Node5</title>
<g id="a_edge5_Node000001_Node000005"><a xlink:title=" ">
<path fill="none" stroke="#63b8ff" d="M297,-96.17C285.33,-94.97 272.65,-93.67 260,-92.37"/>
<polygon fill="#63b8ff" stroke="#63b8ff" points="296.66,-99.65 306.96,-97.19 297.37,-92.69 296.66,-99.65"/>
</a>
</g>
</g>
<!-- Node6 -->
<g id="Node000006" class="node">
<title>Node6</title>
<g id="a_Node000006"><a xlink:href="classSensorManager.html#ad6448faa4a1a1e9647682ee4a7005d80" target="_top" xlink:title="Resets the calibration flag stored in EEPROM.">
<polygon fill="white" stroke="#666666" points="271,-56 74,-56 74,-37 271,-37 271,-56"/>
<text text-anchor="middle" x="172.5" y="-44" font-family="Helvetica,sans-Serif" font-size="10.00">SensorManager::resetCalibrationFlag</text>
</a>
</g>
</g>
<!-- Node1&#45;&gt;Node6 -->
<g id="edge8_Node000001_Node000006" class="edge">
<title>Node1&#45;&gt;Node6</title>
<g id="a_edge8_Node000001_Node000006"><a xlink:title=" ">
<path fill="none" stroke="#63b8ff" d="M322.45,-87.31C307.66,-79.9 288.7,-71.22 271,-65.5 259.35,-61.74 246.66,-58.6 234.41,-56.03"/>
<polygon fill="#63b8ff" stroke="#63b8ff" points="321.02,-90.51 331.52,-91.95 324.21,-84.28 321.02,-90.51"/>
</a>
</g>
</g>
<!-- Node7 -->
<g id="Node000007" class="node">
<title>Node7</title>
<g id="a_Node000007"><a xlink:href="main_8cpp.html#a4fc01d736fe50cf5b977f755b675f11d" target="_top" xlink:title="Initializes the system, including the display, sensors, and logger.">
<polygon fill="white" stroke="#666666" points="194.5,-19 150.5,-19 150.5,0 194.5,0 194.5,-19"/>
<text text-anchor="middle" x="172.5" y="-7" font-family="Helvetica,sans-Serif" font-size="10.00">setup</text>
</a>
</g>
</g>
<!-- Node1&#45;&gt;Node7 -->
<g id="edge9_Node000001_Node000007" class="edge">
<title>Node1&#45;&gt;Node7</title>
<g id="a_edge9_Node000001_Node000007"><a xlink:title=" ">
<path fill="none" stroke="#63b8ff" d="M335.27,-83.86C321.06,-66.9 297.3,-41.94 271,-28.5 246.74,-16.1 215.28,-11.77 194.76,-10.27"/>
<polygon fill="#63b8ff" stroke="#63b8ff" points="332.77,-86.33 341.79,-91.89 338.2,-81.92 332.77,-86.33"/>
</a>
</g>
</g>
<!-- Node2&#45;&gt;Node3 -->
<g id="edge2_Node000002_Node000003" class="edge">
<title>Node2&#45;&gt;Node3</title>
<g id="a_edge2_Node000002_Node000003"><a xlink:title=" ">
<path fill="none" stroke="#63b8ff" d="M110.45,-184.53C98.16,-181.27 85.49,-177.29 74,-172.5 59.19,-166.33 43.71,-156.46 33.14,-149.12"/>
<polygon fill="#63b8ff" stroke="#63b8ff" points="109.65,-187.94 120.2,-186.99 111.36,-181.15 109.65,-187.94"/>
</a>
</g>
</g>
<!-- Node4&#45;&gt;Node3 -->
<g id="edge4_Node000004_Node000003" class="edge">
<title>Node4&#45;&gt;Node3</title>
<g id="a_edge4_Node000004_Node000003"><a xlink:title=" ">
<path fill="none" stroke="#63b8ff" d="M85.32,-131.31C67.44,-133.55 50.35,-135.69 38.14,-137.22"/>
<polygon fill="#63b8ff" stroke="#63b8ff" points="85.82,-134.77 95.31,-130.06 84.95,-127.83 85.82,-134.77"/>
</a>
</g>
</g>
<!-- Node5&#45;&gt;Node3 -->
<g id="edge6_Node000005_Node000003" class="edge">
<title>Node5&#45;&gt;Node3</title>
<g id="a_edge6_Node000005_Node000003"><a xlink:title=" ">
<path fill="none" stroke="#63b8ff" d="M93.63,-95.67C86.88,-97.62 80.25,-99.88 74,-102.5 57.86,-109.26 41.59,-121.28 31.2,-129.78"/>
<polygon fill="#63b8ff" stroke="#63b8ff" points="94.8,-98.98 103.56,-93.02 93,-92.21 94.8,-98.98"/>
</a>
</g>
</g>
</g>
</svg>
