<?xml version="1.0" encoding="UTF-8" standalone="no"?>
<!DOCTYPE svg PUBLIC "-//W3C//DTD SVG 1.1//EN"
 "http://www.w3.org/Graphics/SVG/1.1/DTD/svg11.dtd">
<!-- Generated by graphviz version 2.43.0 (0)
 -->
<!-- Title: DisplayManager::showNormalScreen Pages: 1 -->
<svg width="449pt" height="59pt"
 viewBox="0.00 0.00 449.00 59.00" xmlns="http://www.w3.org/2000/svg" xmlns:xlink="http://www.w3.org/1999/xlink">
<g id="graph0" class="graph" transform="scale(1 1) rotate(0) translate(4 55)">
<title>DisplayManager::showNormalScreen</title>
<!-- Node1 -->
<g id="Node000001" class="node">
<title>Node1</title>
<g id="a_Node000001"><a xlink:title="Displays the normal screen with sensor readings.">
<polygon fill="#999999" stroke="#666666" points="441,-51 277,-51 277,-21 441,-21 441,-51"/>
<text text-anchor="start" x="285" y="-39" font-family="Helvetica,sans-Serif" font-size="10.00">DisplayManager::showNormal</text>
<text text-anchor="middle" x="359" y="-28" font-family="Helvetica,sans-Serif" font-size="10.00">Screen</text>
</a>
</g>
</g>
<!-- Node2 -->
<g id="Node000002" class="node">
<title>Node2</title>
<g id="a_Node000002"><a xlink:href="main_8cpp.html#afe461d27b9c48d5921c00d521181f12f" target="_top" xlink:title="Main loop for retrieving sensor data and updating the display.">
<polygon fill="white" stroke="#666666" points="38,-45.5 0,-45.5 0,-26.5 38,-26.5 38,-45.5"/>
<text text-anchor="middle" x="19" y="-33.5" font-family="Helvetica,sans-Serif" font-size="10.00">loop</text>
</a>
</g>
</g>
<!-- Node1&#45;&gt;Node2 -->
<g id="edge1_Node000001_Node000002" class="edge">
<title>Node1&#45;&gt;Node2</title>
<g id="a_edge1_Node000001_Node000002"><a xlink:title=" ">
<path fill="none" stroke="#63b8ff" d="M266.69,-38.74C211,-39.97 138.38,-40.79 74,-39 62.17,-38.67 48.91,-37.94 38.48,-37.28"/>
<polygon fill="#63b8ff" stroke="#63b8ff" points="266.97,-42.23 276.88,-38.51 266.81,-35.24 266.97,-42.23"/>
</a>
</g>
</g>
<!-- Node3 -->
<g id="Node000003" class="node">
<title>Node3</title>
<g id="a_Node000003"><a xlink:href="classDisplayManager.html#af8a5a8ee843f0ccc7bf50dc94ff2d529" target="_top" xlink:title="Displays a blinking warning message on the screen.">
<polygon fill="white" stroke="#666666" points="241,-30 74,-30 74,0 241,0 241,-30"/>
<text text-anchor="start" x="82" y="-18" font-family="Helvetica,sans-Serif" font-size="10.00">DisplayManager::showBlinking</text>
<text text-anchor="middle" x="157.5" y="-7" font-family="Helvetica,sans-Serif" font-size="10.00">Warning</text>
</a>
</g>
</g>
<!-- Node1&#45;&gt;Node3 -->
<g id="edge2_Node000001_Node000003" class="edge">
<title>Node1&#45;&gt;Node3</title>
<g id="a_edge2_Node000001_Node000003"><a xlink:title=" ">
<path fill="none" stroke="#63b8ff" d="M266.86,-26.41C258.31,-25.51 249.67,-24.6 241.19,-23.7"/>
<polygon fill="#63b8ff" stroke="#63b8ff" points="266.54,-29.89 276.86,-27.46 267.28,-22.93 266.54,-29.89"/>
</a>
</g>
</g>
<!-- Node3&#45;&gt;Node2 -->
<g id="edge3_Node000003_Node000002" class="edge">
<title>Node3&#45;&gt;Node2</title>
<g id="a_edge3_Node000003_Node000002"><a xlink:title=" ">
<path fill="none" stroke="#63b8ff" d="M64.02,-29.23C54.31,-30.72 45.36,-32.1 38.09,-33.22"/>
<polygon fill="#63b8ff" stroke="#63b8ff" points="64.6,-32.68 73.95,-27.7 63.53,-25.76 64.6,-32.68"/>
</a>
</g>
</g>
</g>
</svg>
