<?xml version="1.0" encoding="UTF-8" standalone="no"?>
<!DOCTYPE svg PUBLIC "-//W3C//DTD SVG 1.1//EN"
 "http://www.w3.org/Graphics/SVG/1.1/DTD/svg11.dtd">
<!-- Generated by graphviz version 2.43.0 (0)
 -->
<!-- Title: Logger Pages: 1 -->
<svg width="96pt" height="207pt"
 viewBox="0.00 0.00 96.00 207.00" xmlns="http://www.w3.org/2000/svg" xmlns:xlink="http://www.w3.org/1999/xlink">
<g id="graph0" class="graph" transform="scale(1 1) rotate(0) translate(4 203)">
<title>Logger</title>
<!-- Node1 -->
<g id="Node000001" class="node">
<title>Node1</title>
<g id="a_Node000001"><a xlink:title="A utility class for logging messages at different log levels.">
<polygon fill="#999999" stroke="transparent" points="88,-199 0,-199 0,0 88,0 88,-199"/>
<text text-anchor="start" x="27" y="-186.5" font-family="Helvetica,sans-Serif" font-size="10.00">Logger</text>
<text text-anchor="start" x="4" y="-171.5" font-family="Helvetica,sans-Serif" font-size="10.00">+</text>
<text text-anchor="start" x="17" y="-171.5" font-family="Helvetica,sans-Serif" font-size="10.00">DBG</text>
<text text-anchor="start" x="4" y="-156.5" font-family="Helvetica,sans-Serif" font-size="10.00">+</text>
<text text-anchor="start" x="17" y="-156.5" font-family="Helvetica,sans-Serif" font-size="10.00">ERROR</text>
<text text-anchor="start" x="4" y="-141.5" font-family="Helvetica,sans-Serif" font-size="10.00">+</text>
<text text-anchor="start" x="17" y="-141.5" font-family="Helvetica,sans-Serif" font-size="10.00">INFO</text>
<text text-anchor="start" x="4" y="-126.5" font-family="Helvetica,sans-Serif" font-size="10.00">+</text>
<text text-anchor="start" x="17" y="-126.5" font-family="Helvetica,sans-Serif" font-size="10.00">NONE</text>
<text text-anchor="start" x="4" y="-111.5" font-family="Helvetica,sans-Serif" font-size="10.00">+</text>
<text text-anchor="start" x="17" y="-111.5" font-family="Helvetica,sans-Serif" font-size="10.00">WARNING</text>
<text text-anchor="start" x="4" y="-96.5" font-family="Helvetica,sans-Serif" font-size="10.00">+</text>
<text text-anchor="start" x="17" y="-96.5" font-family="Helvetica,sans-Serif" font-size="10.00">debug()</text>
<text text-anchor="start" x="4" y="-81.5" font-family="Helvetica,sans-Serif" font-size="10.00">+</text>
<text text-anchor="start" x="17" y="-81.5" font-family="Helvetica,sans-Serif" font-size="10.00">error()</text>
<text text-anchor="start" x="4" y="-66.5" font-family="Helvetica,sans-Serif" font-size="10.00">+</text>
<text text-anchor="start" x="17" y="-66.5" font-family="Helvetica,sans-Serif" font-size="10.00">getLogLevel()</text>
<text text-anchor="start" x="4" y="-51.5" font-family="Helvetica,sans-Serif" font-size="10.00">+</text>
<text text-anchor="start" x="17" y="-51.5" font-family="Helvetica,sans-Serif" font-size="10.00">info()</text>
<text text-anchor="start" x="4" y="-36.5" font-family="Helvetica,sans-Serif" font-size="10.00">+</text>
<text text-anchor="start" x="17" y="-36.5" font-family="Helvetica,sans-Serif" font-size="10.00">log()</text>
<text text-anchor="start" x="4" y="-21.5" font-family="Helvetica,sans-Serif" font-size="10.00">+</text>
<text text-anchor="start" x="17" y="-21.5" font-family="Helvetica,sans-Serif" font-size="10.00">setLogLevel()</text>
<text text-anchor="start" x="4" y="-6.5" font-family="Helvetica,sans-Serif" font-size="10.00">+</text>
<text text-anchor="start" x="17" y="-6.5" font-family="Helvetica,sans-Serif" font-size="10.00">warning()</text>
<polygon fill="#666666" stroke="#666666" points="0,-181.5 0,-181.5 88,-181.5 88,-181.5 0,-181.5"/>
<polygon fill="#666666" stroke="#666666" points="0,-106.5 0,-106.5 15,-106.5 15,-106.5 0,-106.5"/>
<polygon fill="#666666" stroke="#666666" points="15,-106.5 15,-106.5 88,-106.5 88,-106.5 15,-106.5"/>
<polygon fill="none" stroke="#666666" points="0,0 0,-199 88,-199 88,0 0,0"/>
</a>
</g>
</g>
</g>
</svg>
