<?xml version="1.0" encoding="UTF-8" standalone="no"?>
<!DOCTYPE svg PUBLIC "-//W3C//DTD SVG 1.1//EN"
 "http://www.w3.org/Graphics/SVG/1.1/DTD/svg11.dtd">
<!-- Generated by graphviz version 2.43.0 (0)
 -->
<!-- Title: Logger::info Pages: 1 -->
<svg width="565pt" height="305pt"
 viewBox="0.00 0.00 565.00 304.52" xmlns="http://www.w3.org/2000/svg" xmlns:xlink="http://www.w3.org/1999/xlink">
<g id="graph0" class="graph" transform="scale(1 1) rotate(0) translate(4 300.52)">
<title>Logger::info</title>
<!-- Node1 -->
<g id="Node000001" class="node">
<title>Node1</title>
<g id="a_Node000001"><a xlink:title="Logs an informational message.">
<polygon fill="#999999" stroke="#666666" points="557,-153.02 483,-153.02 483,-134.02 557,-134.02 557,-153.02"/>
<text text-anchor="middle" x="520" y="-141.02" font-family="Helvetica,sans-Serif" font-size="10.00">Logger::info</text>
</a>
</g>
</g>
<!-- Node2 -->
<g id="Node000002" class="node">
<title>Node2</title>
<g id="a_Node000002"><a xlink:href="classSensorManager.html#a3608ee33385f64e74410127d59c2638e" target="_top" xlink:title="Calibrates the SCD30 sensor using the forced recalibration factor.">
<polygon fill="white" stroke="#666666" points="447,-296.52 306,-296.52 306,-266.52 447,-266.52 447,-296.52"/>
<text text-anchor="start" x="314" y="-284.52" font-family="Helvetica,sans-Serif" font-size="10.00">SensorManager::calibrate</text>
<text text-anchor="middle" x="376.5" y="-273.52" font-family="Helvetica,sans-Serif" font-size="10.00">SCD30</text>
</a>
</g>
</g>
<!-- Node1&#45;&gt;Node2 -->
<g id="edge1_Node000001_Node000002" class="edge">
<title>Node1&#45;&gt;Node2</title>
<g id="a_edge1_Node000001_Node000002"><a xlink:title=" ">
<path fill="none" stroke="#63b8ff" d="M510.8,-162.43C499.57,-186.36 477.29,-227.46 447,-252.52 440.35,-258.02 432.51,-262.61 424.54,-266.4"/>
<polygon fill="#63b8ff" stroke="#63b8ff" points="514.12,-163.6 515.05,-153.04 507.74,-160.71 514.12,-163.6"/>
</a>
</g>
</g>
<!-- Node3 -->
<g id="Node000003" class="node">
<title>Node3</title>
<g id="a_Node000003"><a xlink:href="classSensorManager.html#a9daa366f758f7419ab22fb3c243801fe" target="_top" xlink:title="Checks if the SCD30 sensor needs calibration and performs calibration if necessary.">
<polygon fill="white" stroke="#666666" points="270,-258.52 80,-258.52 80,-228.52 270,-228.52 270,-258.52"/>
<text text-anchor="start" x="88" y="-246.52" font-family="Helvetica,sans-Serif" font-size="10.00">SensorManager::checkAndCalibrate</text>
<text text-anchor="middle" x="175" y="-235.52" font-family="Helvetica,sans-Serif" font-size="10.00">SCD30</text>
</a>
</g>
</g>
<!-- Node1&#45;&gt;Node3 -->
<g id="edge4_Node000001_Node000003" class="edge">
<title>Node1&#45;&gt;Node3</title>
<g id="a_edge4_Node000001_Node000003"><a xlink:title=" ">
<path fill="none" stroke="#63b8ff" d="M506.39,-161.61C493.56,-178.44 472.03,-202.66 447,-214.52 392.16,-240.5 324.25,-247.73 270.13,-248.47"/>
<polygon fill="#63b8ff" stroke="#63b8ff" points="509.51,-163.28 512.59,-153.15 503.86,-159.14 509.51,-163.28"/>
</a>
</g>
</g>
<!-- Node4 -->
<g id="Node000004" class="node">
<title>Node4</title>
<g id="a_Node000004"><a xlink:href="main_8cpp.html#a4fc01d736fe50cf5b977f755b675f11d" target="_top" xlink:title="Initializes the system, including the display, sensors, and logger.">
<polygon fill="white" stroke="#666666" points="44,-150.02 0,-150.02 0,-131.02 44,-131.02 44,-150.02"/>
<text text-anchor="middle" x="22" y="-138.02" font-family="Helvetica,sans-Serif" font-size="10.00">setup</text>
</a>
</g>
</g>
<!-- Node1&#45;&gt;Node4 -->
<g id="edge14_Node000001_Node000004" class="edge">
<title>Node1&#45;&gt;Node4</title>
<g id="a_edge14_Node000001_Node000004"><a xlink:title=" ">
<path fill="none" stroke="#63b8ff" d="M481.98,-156.22C405.03,-180.6 223.03,-227.61 80,-181.52 60.97,-175.38 42.93,-160.28 32.42,-150.22"/>
<polygon fill="#63b8ff" stroke="#63b8ff" points="483.26,-159.49 491.7,-153.08 481.11,-152.82 483.26,-159.49"/>
</a>
</g>
</g>
<!-- Node5 -->
<g id="Node000005" class="node">
<title>Node5</title>
<g id="a_Node000005"><a xlink:href="classDisplayManager.html#aeb1c8224403ea2595f202e5d93380609" target="_top" xlink:title="Initializes the OLED display.">
<polygon fill="white" stroke="#666666" points="247,-172.02 103,-172.02 103,-153.02 247,-153.02 247,-172.02"/>
<text text-anchor="middle" x="175" y="-160.02" font-family="Helvetica,sans-Serif" font-size="10.00">DisplayManager::initialize</text>
</a>
</g>
</g>
<!-- Node1&#45;&gt;Node5 -->
<g id="edge5_Node000001_Node000005" class="edge">
<title>Node1&#45;&gt;Node5</title>
<g id="a_edge5_Node000001_Node000005"><a xlink:title=" ">
<path fill="none" stroke="#63b8ff" d="M472.62,-146.09C414.67,-149.3 314.89,-154.82 247.22,-158.57"/>
<polygon fill="#63b8ff" stroke="#63b8ff" points="473.15,-149.56 482.94,-145.51 472.76,-142.57 473.15,-149.56"/>
</a>
</g>
</g>
<!-- Node6 -->
<g id="Node000006" class="node">
<title>Node6</title>
<g id="a_Node000006"><a xlink:href="classSensorManager.html#aded8aff6d741a64d0c34668a0694dd3d" target="_top" xlink:title="Initializes the SCD30 and BMP280 sensors.">
<polygon fill="white" stroke="#666666" points="245,-134.52 105,-134.52 105,-104.52 245,-104.52 245,-134.52"/>
<text text-anchor="start" x="113" y="-122.52" font-family="Helvetica,sans-Serif" font-size="10.00">SensorManager::initialize</text>
<text text-anchor="middle" x="175" y="-111.52" font-family="Helvetica,sans-Serif" font-size="10.00">Sensors</text>
</a>
</g>
</g>
<!-- Node1&#45;&gt;Node6 -->
<g id="edge7_Node000001_Node000006" class="edge">
<title>Node1&#45;&gt;Node6</title>
<g id="a_edge7_Node000001_Node000006"><a xlink:title=" ">
<path fill="none" stroke="#63b8ff" d="M472.89,-140.29C414.4,-136.2 313.02,-129.1 245.23,-124.36"/>
<polygon fill="#63b8ff" stroke="#63b8ff" points="472.72,-143.79 482.94,-140.99 473.21,-136.8 472.72,-143.79"/>
</a>
</g>
</g>
<!-- Node7 -->
<g id="Node000007" class="node">
<title>Node7</title>
<g id="a_Node000007"><a xlink:href="main_8cpp.html#afe461d27b9c48d5921c00d521181f12f" target="_top" xlink:title="Main loop for retrieving sensor data and updating the display.">
<polygon fill="white" stroke="#666666" points="395.5,-96.02 357.5,-96.02 357.5,-77.02 395.5,-77.02 395.5,-96.02"/>
<text text-anchor="middle" x="376.5" y="-84.02" font-family="Helvetica,sans-Serif" font-size="10.00">loop</text>
</a>
</g>
</g>
<!-- Node1&#45;&gt;Node7 -->
<g id="edge9_Node000001_Node000007" class="edge">
<title>Node1&#45;&gt;Node7</title>
<g id="a_edge9_Node000001_Node000007"><a xlink:title=" ">
<path fill="none" stroke="#63b8ff" d="M489.98,-129.44C476.96,-123.32 461.34,-116.26 447,-110.52 429.82,-103.63 409.8,-96.85 395.68,-92.26"/>
<polygon fill="#63b8ff" stroke="#63b8ff" points="488.83,-132.76 499.36,-133.89 491.83,-126.44 488.83,-132.76"/>
</a>
</g>
</g>
<!-- Node8 -->
<g id="Node000008" class="node">
<title>Node8</title>
<g id="a_Node000008"><a xlink:href="classDisplayManager.html#a2d6f5efef5cb7e03c820ab14c4adc217" target="_top" xlink:title="Runs a display check to verify the OLED functionality.">
<polygon fill="white" stroke="#666666" points="252.5,-82.52 97.5,-82.52 97.5,-52.52 252.5,-52.52 252.5,-82.52"/>
<text text-anchor="start" x="105.5" y="-70.52" font-family="Helvetica,sans-Serif" font-size="10.00">DisplayManager::runDisplay</text>
<text text-anchor="middle" x="175" y="-59.52" font-family="Helvetica,sans-Serif" font-size="10.00">Check</text>
</a>
</g>
</g>
<!-- Node1&#45;&gt;Node8 -->
<g id="edge10_Node000001_Node000008" class="edge">
<title>Node1&#45;&gt;Node8</title>
<g id="a_edge10_Node000001_Node000008"><a xlink:title=" ">
<path fill="none" stroke="#63b8ff" d="M507.83,-125.2C495.52,-106.94 473.84,-80.02 447,-68.52 385.05,-41.98 307.57,-44.83 251.35,-52.48"/>
<polygon fill="#63b8ff" stroke="#63b8ff" points="505.04,-127.32 513.4,-133.82 510.92,-123.52 505.04,-127.32"/>
</a>
</g>
</g>
<!-- Node9 -->
<g id="Node000009" class="node">
<title>Node9</title>
<g id="a_Node000009"><a xlink:href="classI2CScanner.html#ad3b7b4bc25e6c1e8b89e702862a56af5" target="_top" xlink:title="Scans the I2C bus for connected devices.">
<polygon fill="white" stroke="#666666" points="426.5,-20.02 326.5,-20.02 326.5,-1.02 426.5,-1.02 426.5,-20.02"/>
<text text-anchor="middle" x="376.5" y="-8.02" font-family="Helvetica,sans-Serif" font-size="10.00">I2CScanner::scan</text>
</a>
</g>
</g>
<!-- Node1&#45;&gt;Node9 -->
<g id="edge12_Node000001_Node000009" class="edge">
<title>Node1&#45;&gt;Node9</title>
<g id="a_edge12_Node000001_Node000009"><a xlink:title=" ">
<path fill="none" stroke="#63b8ff" d="M511.19,-124.63C500.27,-100.43 478.2,-58.72 447,-34.52 438.93,-28.26 429.12,-23.57 419.44,-20.07"/>
<polygon fill="#63b8ff" stroke="#63b8ff" points="507.99,-126.05 515.18,-133.83 514.41,-123.26 507.99,-126.05"/>
</a>
</g>
</g>
<!-- Node2&#45;&gt;Node3 -->
<g id="edge2_Node000002_Node000003" class="edge">
<title>Node2&#45;&gt;Node3</title>
<g id="a_edge2_Node000002_Node000003"><a xlink:title=" ">
<path fill="none" stroke="#63b8ff" d="M295.6,-266.3C282.2,-263.75 268.31,-261.1 254.95,-258.55"/>
<polygon fill="#63b8ff" stroke="#63b8ff" points="295.25,-269.79 305.72,-268.23 296.56,-262.92 295.25,-269.79"/>
</a>
</g>
</g>
<!-- Node3&#45;&gt;Node4 -->
<g id="edge3_Node000003_Node000004" class="edge">
<title>Node3&#45;&gt;Node4</title>
<g id="a_edge3_Node000003_Node000004"><a xlink:title=" ">
<path fill="none" stroke="#63b8ff" d="M97.66,-224.51C91.45,-221.62 85.47,-218.31 80,-214.52 55.22,-197.32 36.36,-166.05 27.9,-150.23"/>
<polygon fill="#63b8ff" stroke="#63b8ff" points="96.32,-227.75 106.89,-228.45 99.06,-221.31 96.32,-227.75"/>
</a>
</g>
</g>
<!-- Node5&#45;&gt;Node4 -->
<g id="edge6_Node000005_Node000004" class="edge">
<title>Node5&#45;&gt;Node4</title>
<g id="a_edge6_Node000005_Node000004"><a xlink:title=" ">
<path fill="none" stroke="#63b8ff" d="M98.57,-151.53C78.64,-148.62 58.69,-145.72 44.31,-143.62"/>
<polygon fill="#63b8ff" stroke="#63b8ff" points="98.25,-155.02 108.65,-153 99.26,-148.09 98.25,-155.02"/>
</a>
</g>
</g>
<!-- Node6&#45;&gt;Node4 -->
<g id="edge8_Node000006_Node000004" class="edge">
<title>Node6&#45;&gt;Node4</title>
<g id="a_edge8_Node000006_Node000004"><a xlink:title=" ">
<path fill="none" stroke="#63b8ff" d="M94.6,-130.56C75.9,-133.16 57.53,-135.72 44.07,-137.59"/>
<polygon fill="#63b8ff" stroke="#63b8ff" points="95.26,-134 104.69,-129.16 94.3,-127.07 95.26,-134"/>
</a>
</g>
</g>
<!-- Node8&#45;&gt;Node4 -->
<g id="edge11_Node000008_Node000004" class="edge">
<title>Node8&#45;&gt;Node4</title>
<g id="a_edge11_Node000008_Node000004"><a xlink:title=" ">
<path fill="none" stroke="#63b8ff" d="M101.55,-86.03C94.11,-88.83 86.8,-91.99 80,-95.52 61.65,-105.04 43.42,-120.83 32.68,-130.95"/>
<polygon fill="#63b8ff" stroke="#63b8ff" points="102.76,-89.31 111.01,-82.67 100.41,-82.72 102.76,-89.31"/>
</a>
</g>
</g>
<!-- Node9&#45;&gt;Node4 -->
<g id="edge13_Node000009_Node000004" class="edge">
<title>Node9&#45;&gt;Node4</title>
<g id="a_edge13_Node000009_Node000004"><a xlink:title=" ">
<path fill="none" stroke="#63b8ff" d="M316.09,-2.4C252.47,3.14 151.08,2.58 80,-43.52 47.72,-64.45 31.37,-110.61 25.54,-130.77"/>
<polygon fill="#63b8ff" stroke="#63b8ff" points="316.07,-5.92 326.35,-3.38 316.73,1.05 316.07,-5.92"/>
</a>
</g>
</g>
</g>
</svg>
