<?xml version="1.0" encoding="UTF-8" standalone="no"?>
<!DOCTYPE svg PUBLIC "-//W3C//DTD SVG 1.1//EN"
 "http://www.w3.org/Graphics/SVG/1.1/DTD/svg11.dtd">
<!-- Generated by graphviz version 2.43.0 (0)
 -->
<!-- Title: SensorManager::calibrateSCD30 Pages: 1 -->
<svg width="371pt" height="64pt"
 viewBox="0.00 0.00 371.00 64.00" xmlns="http://www.w3.org/2000/svg" xmlns:xlink="http://www.w3.org/1999/xlink">
<g id="graph0" class="graph" transform="scale(1 1) rotate(0) translate(4 60)">
<title>SensorManager::calibrateSCD30</title>
<!-- Node1 -->
<g id="Node000001" class="node">
<title>Node1</title>
<g id="a_Node000001"><a xlink:title="Calibrates the SCD30 sensor using the forced recalibration factor.">
<polygon fill="#999999" stroke="#666666" points="141,-42.5 0,-42.5 0,-12.5 141,-12.5 141,-42.5"/>
<text text-anchor="start" x="8" y="-30.5" font-family="Helvetica,sans-Serif" font-size="10.00">SensorManager::calibrate</text>
<text text-anchor="middle" x="70.5" y="-19.5" font-family="Helvetica,sans-Serif" font-size="10.00">SCD30</text>
</a>
</g>
</g>
<!-- Node2 -->
<g id="Node000002" class="node">
<title>Node2</title>
<g id="a_Node000002"><a xlink:href="classLogger.html#ac862952b8ffa9de295a496af0108785c" target="_top" xlink:title="Logs an error message.">
<polygon fill="white" stroke="#666666" points="256,-56 177,-56 177,-37 256,-37 256,-56"/>
<text text-anchor="middle" x="216.5" y="-44" font-family="Helvetica,sans-Serif" font-size="10.00">Logger::error</text>
</a>
</g>
</g>
<!-- Node1&#45;&gt;Node2 -->
<g id="edge1_Node000001_Node000002" class="edge">
<title>Node1&#45;&gt;Node2</title>
<g id="a_edge1_Node000001_Node000002"><a xlink:title=" ">
<path fill="none" stroke="#63b8ff" d="M141.39,-36.72C149.96,-37.85 158.56,-38.99 166.72,-40.06"/>
<polygon fill="#63b8ff" stroke="#63b8ff" points="166.41,-43.55 176.78,-41.39 167.33,-36.61 166.41,-43.55"/>
</a>
</g>
</g>
<!-- Node4 -->
<g id="Node000004" class="node">
<title>Node4</title>
<g id="a_Node000004"><a xlink:href="classLogger.html#a0c5851d03ba2e560bfd57aeb713267b3" target="_top" xlink:title="Logs an informational message.">
<polygon fill="white" stroke="#666666" points="253.5,-19 179.5,-19 179.5,0 253.5,0 253.5,-19"/>
<text text-anchor="middle" x="216.5" y="-7" font-family="Helvetica,sans-Serif" font-size="10.00">Logger::info</text>
</a>
</g>
</g>
<!-- Node1&#45;&gt;Node4 -->
<g id="edge3_Node000001_Node000004" class="edge">
<title>Node1&#45;&gt;Node4</title>
<g id="a_edge3_Node000001_Node000004"><a xlink:title=" ">
<path fill="none" stroke="#63b8ff" d="M141.39,-18.76C150.87,-17.58 160.39,-16.39 169.31,-15.27"/>
<polygon fill="#63b8ff" stroke="#63b8ff" points="169.97,-18.72 179.46,-14.01 169.1,-11.77 169.97,-18.72"/>
</a>
</g>
</g>
<!-- Node3 -->
<g id="Node000003" class="node">
<title>Node3</title>
<g id="a_Node000003"><a xlink:href="classLogger.html#af0dc4ff68b6d37026b9f6c7a51da6aaa" target="_top" xlink:title="Logs a message if it meets the current log level.">
<polygon fill="white" stroke="#666666" points="363,-37 292,-37 292,-18 363,-18 363,-37"/>
<text text-anchor="middle" x="327.5" y="-25" font-family="Helvetica,sans-Serif" font-size="10.00">Logger::log</text>
</a>
</g>
</g>
<!-- Node2&#45;&gt;Node3 -->
<g id="edge2_Node000002_Node000003" class="edge">
<title>Node2&#45;&gt;Node3</title>
<g id="a_edge2_Node000002_Node000003"><a xlink:title=" ">
<path fill="none" stroke="#63b8ff" d="M256.24,-39.75C264.5,-38.31 273.3,-36.77 281.77,-35.3"/>
<polygon fill="#63b8ff" stroke="#63b8ff" points="282.63,-38.7 291.88,-33.53 281.43,-31.8 282.63,-38.7"/>
</a>
</g>
</g>
<!-- Node4&#45;&gt;Node3 -->
<g id="edge4_Node000004_Node000003" class="edge">
<title>Node4&#45;&gt;Node3</title>
<g id="a_edge4_Node000004_Node000003"><a xlink:title=" ">
<path fill="none" stroke="#63b8ff" d="M253.8,-15.49C262.8,-16.98 272.55,-18.59 281.91,-20.14"/>
<polygon fill="#63b8ff" stroke="#63b8ff" points="281.4,-23.6 291.84,-21.78 282.54,-16.69 281.4,-23.6"/>
</a>
</g>
</g>
</g>
</svg>
