<?xml version="1.0" encoding="UTF-8" standalone="no"?>
<!DOCTYPE svg PUBLIC "-//W3C//DTD SVG 1.1//EN"
 "http://www.w3.org/Graphics/SVG/1.1/DTD/svg11.dtd">
<!-- Generated by graphviz version 2.43.0 (0)
 -->
<!-- Title: DisplayManager::initialize Pages: 1 -->
<svg width="374pt" height="64pt"
 viewBox="0.00 0.00 374.00 64.00" xmlns="http://www.w3.org/2000/svg" xmlns:xlink="http://www.w3.org/1999/xlink">
<g id="graph0" class="graph" transform="scale(1 1) rotate(0) translate(4 60)">
<title>DisplayManager::initialize</title>
<!-- Node1 -->
<g id="Node000001" class="node">
<title>Node1</title>
<g id="a_Node000001"><a xlink:title="Initializes the OLED display.">
<polygon fill="#999999" stroke="#666666" points="144,-37 0,-37 0,-18 144,-18 144,-37"/>
<text text-anchor="middle" x="72" y="-25" font-family="Helvetica,sans-Serif" font-size="10.00">DisplayManager::initialize</text>
</a>
</g>
</g>
<!-- Node2 -->
<g id="Node000002" class="node">
<title>Node2</title>
<g id="a_Node000002"><a xlink:href="classLogger.html#ac862952b8ffa9de295a496af0108785c" target="_top" xlink:title="Logs an error message.">
<polygon fill="white" stroke="#666666" points="259,-56 180,-56 180,-37 259,-37 259,-56"/>
<text text-anchor="middle" x="219.5" y="-44" font-family="Helvetica,sans-Serif" font-size="10.00">Logger::error</text>
</a>
</g>
</g>
<!-- Node1&#45;&gt;Node2 -->
<g id="edge1_Node000001_Node000002" class="edge">
<title>Node1&#45;&gt;Node2</title>
<g id="a_edge1_Node000001_Node000002"><a xlink:title=" ">
<path fill="none" stroke="#63b8ff" d="M144.05,-36.78C152.67,-37.9 161.32,-39.03 169.52,-40.1"/>
<polygon fill="#63b8ff" stroke="#63b8ff" points="169.27,-43.6 179.63,-41.42 170.17,-36.66 169.27,-43.6"/>
</a>
</g>
</g>
<!-- Node4 -->
<g id="Node000004" class="node">
<title>Node4</title>
<g id="a_Node000004"><a xlink:href="classLogger.html#a0c5851d03ba2e560bfd57aeb713267b3" target="_top" xlink:title="Logs an informational message.">
<polygon fill="white" stroke="#666666" points="256.5,-19 182.5,-19 182.5,0 256.5,0 256.5,-19"/>
<text text-anchor="middle" x="219.5" y="-7" font-family="Helvetica,sans-Serif" font-size="10.00">Logger::info</text>
</a>
</g>
</g>
<!-- Node1&#45;&gt;Node4 -->
<g id="edge3_Node000001_Node000004" class="edge">
<title>Node1&#45;&gt;Node4</title>
<g id="a_edge3_Node000001_Node000004"><a xlink:title=" ">
<path fill="none" stroke="#63b8ff" d="M144.05,-18.71C153.59,-17.53 163.16,-16.35 172.13,-15.24"/>
<polygon fill="#63b8ff" stroke="#63b8ff" points="172.83,-18.68 182.32,-13.98 171.97,-11.73 172.83,-18.68"/>
</a>
</g>
</g>
<!-- Node3 -->
<g id="Node000003" class="node">
<title>Node3</title>
<g id="a_Node000003"><a xlink:href="classLogger.html#af0dc4ff68b6d37026b9f6c7a51da6aaa" target="_top" xlink:title="Logs a message if it meets the current log level.">
<polygon fill="white" stroke="#666666" points="366,-37 295,-37 295,-18 366,-18 366,-37"/>
<text text-anchor="middle" x="330.5" y="-25" font-family="Helvetica,sans-Serif" font-size="10.00">Logger::log</text>
</a>
</g>
</g>
<!-- Node2&#45;&gt;Node3 -->
<g id="edge2_Node000002_Node000003" class="edge">
<title>Node2&#45;&gt;Node3</title>
<g id="a_edge2_Node000002_Node000003"><a xlink:title=" ">
<path fill="none" stroke="#63b8ff" d="M259.24,-39.75C267.5,-38.31 276.3,-36.77 284.77,-35.3"/>
<polygon fill="#63b8ff" stroke="#63b8ff" points="285.63,-38.7 294.88,-33.53 284.43,-31.8 285.63,-38.7"/>
</a>
</g>
</g>
<!-- Node4&#45;&gt;Node3 -->
<g id="edge4_Node000004_Node000003" class="edge">
<title>Node4&#45;&gt;Node3</title>
<g id="a_edge4_Node000004_Node000003"><a xlink:title=" ">
<path fill="none" stroke="#63b8ff" d="M256.8,-15.49C265.8,-16.98 275.55,-18.59 284.91,-20.14"/>
<polygon fill="#63b8ff" stroke="#63b8ff" points="284.4,-23.6 294.84,-21.78 285.54,-16.69 284.4,-23.6"/>
</a>
</g>
</g>
</g>
</svg>
