<?xml version="1.0" encoding="UTF-8" standalone="no"?>
<!DOCTYPE svg PUBLIC "-//W3C//DTD SVG 1.1//EN"
 "http://www.w3.org/Graphics/SVG/1.1/DTD/svg11.dtd">
<!-- Generated by graphviz version 2.43.0 (0)
 -->
<!-- Title: DisplayManager::runDisplayCheck Pages: 1 -->
<svg width="380pt" height="38pt"
 viewBox="0.00 0.00 380.00 38.00" xmlns="http://www.w3.org/2000/svg" xmlns:xlink="http://www.w3.org/1999/xlink">
<g id="graph0" class="graph" transform="scale(1 1) rotate(0) translate(4 34)">
<title>DisplayManager::runDisplayCheck</title>
<!-- Node1 -->
<g id="Node000001" class="node">
<title>Node1</title>
<g id="a_Node000001"><a xlink:title="Runs a display check to verify the OLED functionality.">
<polygon fill="#999999" stroke="#666666" points="155,-30 0,-30 0,0 155,0 155,-30"/>
<text text-anchor="start" x="8" y="-18" font-family="Helvetica,sans-Serif" font-size="10.00">DisplayManager::runDisplay</text>
<text text-anchor="middle" x="77.5" y="-7" font-family="Helvetica,sans-Serif" font-size="10.00">Check</text>
</a>
</g>
</g>
<!-- Node2 -->
<g id="Node000002" class="node">
<title>Node2</title>
<g id="a_Node000002"><a xlink:href="classLogger.html#a0c5851d03ba2e560bfd57aeb713267b3" target="_top" xlink:title="Logs an informational message.">
<polygon fill="white" stroke="#666666" points="265,-24.5 191,-24.5 191,-5.5 265,-5.5 265,-24.5"/>
<text text-anchor="middle" x="228" y="-12.5" font-family="Helvetica,sans-Serif" font-size="10.00">Logger::info</text>
</a>
</g>
</g>
<!-- Node1&#45;&gt;Node2 -->
<g id="edge1_Node000001_Node000002" class="edge">
<title>Node1&#45;&gt;Node2</title>
<g id="a_edge1_Node000001_Node000002"><a xlink:title=" ">
<path fill="none" stroke="#63b8ff" d="M155.36,-15C163.92,-15 172.44,-15 180.45,-15"/>
<polygon fill="#63b8ff" stroke="#63b8ff" points="180.66,-18.5 190.66,-15 180.66,-11.5 180.66,-18.5"/>
</a>
</g>
</g>
<!-- Node3 -->
<g id="Node000003" class="node">
<title>Node3</title>
<g id="a_Node000003"><a xlink:href="classLogger.html#af0dc4ff68b6d37026b9f6c7a51da6aaa" target="_top" xlink:title="Logs a message if it meets the current log level.">
<polygon fill="white" stroke="#666666" points="372,-24.5 301,-24.5 301,-5.5 372,-5.5 372,-24.5"/>
<text text-anchor="middle" x="336.5" y="-12.5" font-family="Helvetica,sans-Serif" font-size="10.00">Logger::log</text>
</a>
</g>
</g>
<!-- Node2&#45;&gt;Node3 -->
<g id="edge2_Node000002_Node000003" class="edge">
<title>Node2&#45;&gt;Node3</title>
<g id="a_edge2_Node000002_Node000003"><a xlink:title=" ">
<path fill="none" stroke="#63b8ff" d="M265.06,-15C273.29,-15 282.15,-15 290.7,-15"/>
<polygon fill="#63b8ff" stroke="#63b8ff" points="290.92,-18.5 300.92,-15 290.92,-11.5 290.92,-18.5"/>
</a>
</g>
</g>
</g>
</svg>
