<?xml version="1.0" encoding="UTF-8" standalone="no"?>
<!DOCTYPE svg PUBLIC "-//W3C//DTD SVG 1.1//EN"
 "http://www.w3.org/Graphics/SVG/1.1/DTD/svg11.dtd">
<!-- Generated by graphviz version 2.43.0 (0)
 -->
<!-- Title: Logger::warning Pages: 1 -->
<svg width="319pt" height="83pt"
 viewBox="0.00 0.00 319.00 83.00" xmlns="http://www.w3.org/2000/svg" xmlns:xlink="http://www.w3.org/1999/xlink">
<g id="graph0" class="graph" transform="scale(1 1) rotate(0) translate(4 79)">
<title>Logger::warning</title>
<!-- Node1 -->
<g id="Node000001" class="node">
<title>Node1</title>
<g id="a_Node000001"><a xlink:title="Logs a warning message.">
<polygon fill="#999999" stroke="#666666" points="311,-38 216,-38 216,-19 311,-19 311,-38"/>
<text text-anchor="middle" x="263.5" y="-26" font-family="Helvetica,sans-Serif" font-size="10.00">Logger::warning</text>
</a>
</g>
</g>
<!-- Node2 -->
<g id="Node000002" class="node">
<title>Node2</title>
<g id="a_Node000002"><a xlink:href="main_8cpp.html#afe461d27b9c48d5921c00d521181f12f" target="_top" xlink:title="Main loop for retrieving sensor data and updating the display.">
<polygon fill="white" stroke="#666666" points="149,-75 111,-75 111,-56 149,-56 149,-75"/>
<text text-anchor="middle" x="130" y="-63" font-family="Helvetica,sans-Serif" font-size="10.00">loop</text>
</a>
</g>
</g>
<!-- Node1&#45;&gt;Node2 -->
<g id="edge1_Node000001_Node000002" class="edge">
<title>Node1&#45;&gt;Node2</title>
<g id="a_edge1_Node000001_Node000002"><a xlink:title=" ">
<path fill="none" stroke="#63b8ff" d="M218.81,-40.79C195.19,-47.44 167.26,-55.3 149.35,-60.34"/>
<polygon fill="#63b8ff" stroke="#63b8ff" points="219.96,-44.11 228.64,-38.03 218.06,-37.37 219.96,-44.11"/>
</a>
</g>
</g>
<!-- Node3 -->
<g id="Node000003" class="node">
<title>Node3</title>
<g id="a_Node000003"><a xlink:href="classI2CScanner.html#ad3b7b4bc25e6c1e8b89e702862a56af5" target="_top" xlink:title="Scans the I2C bus for connected devices.">
<polygon fill="white" stroke="#666666" points="180,-38 80,-38 80,-19 180,-19 180,-38"/>
<text text-anchor="middle" x="130" y="-26" font-family="Helvetica,sans-Serif" font-size="10.00">I2CScanner::scan</text>
</a>
</g>
</g>
<!-- Node1&#45;&gt;Node3 -->
<g id="edge2_Node000001_Node000003" class="edge">
<title>Node1&#45;&gt;Node3</title>
<g id="a_edge2_Node000001_Node000003"><a xlink:title=" ">
<path fill="none" stroke="#63b8ff" d="M205.61,-28.5C197.16,-28.5 188.52,-28.5 180.25,-28.5"/>
<polygon fill="#63b8ff" stroke="#63b8ff" points="205.77,-32 215.77,-28.5 205.77,-25 205.77,-32"/>
</a>
</g>
</g>
<!-- Node4 -->
<g id="Node000004" class="node">
<title>Node4</title>
<g id="a_Node000004"><a xlink:href="main_8cpp.html#a4fc01d736fe50cf5b977f755b675f11d" target="_top" xlink:title="Initializes the system, including the display, sensors, and logger.">
<polygon fill="white" stroke="#666666" points="44,-19 0,-19 0,0 44,0 44,-19"/>
<text text-anchor="middle" x="22" y="-7" font-family="Helvetica,sans-Serif" font-size="10.00">setup</text>
</a>
</g>
</g>
<!-- Node1&#45;&gt;Node4 -->
<g id="edge4_Node000001_Node000004" class="edge">
<title>Node1&#45;&gt;Node4</title>
<g id="a_edge4_Node000001_Node000004"><a xlink:title=" ">
<path fill="none" stroke="#63b8ff" d="M216.52,-16.69C204.7,-14.15 191.95,-11.83 180,-10.5 131.64,-5.13 74.39,-6.76 44.16,-8.24"/>
<polygon fill="#63b8ff" stroke="#63b8ff" points="216.1,-20.19 226.63,-18.97 217.64,-13.36 216.1,-20.19"/>
</a>
</g>
</g>
<!-- Node3&#45;&gt;Node4 -->
<g id="edge3_Node000003_Node000004" class="edge">
<title>Node3&#45;&gt;Node4</title>
<g id="a_edge3_Node000003_Node000004"><a xlink:title=" ">
<path fill="none" stroke="#63b8ff" d="M69.72,-17.87C60.55,-16.23 51.63,-14.63 44.08,-13.28"/>
<polygon fill="#63b8ff" stroke="#63b8ff" points="69.26,-21.35 79.72,-19.67 70.5,-14.46 69.26,-21.35"/>
</a>
</g>
</g>
</g>
</svg>
