<?xml version="1.0" encoding="UTF-8" standalone="no"?>
<!DOCTYPE svg PUBLIC "-//W3C//DTD SVG 1.1//EN"
 "http://www.w3.org/Graphics/SVG/1.1/DTD/svg11.dtd">
<!-- Generated by graphviz version 12.2.1 (20241206.2353)
 -->
<!-- Title: SensorManager::checkAndCalibrateSCD30 Pages: 1 -->
<svg width="551pt" height="72pt"
 viewBox="0.00 0.00 550.50 72.00" xmlns="http://www.w3.org/2000/svg" xmlns:xlink="http://www.w3.org/1999/xlink">
<g id="graph0" class="graph" transform="scale(1 1) rotate(0) translate(4 68)">
<title>SensorManager::checkAndCalibrateSCD30</title>
<!-- Node1 -->
<g id="Node000001" class="node">
<title>Node1</title>
<g id="a_Node000001"><a xlink:title="Checks if the SCD30 sensor needs calibration and performs calibration if necessary.">
<polygon fill="#999999" stroke="#666666" points="172.75,-42 0,-42 0,-10 172.75,-10 172.75,-42"/>
<text text-anchor="start" x="8" y="-28.5" font-family="Helvetica,sans-Serif" font-size="10.00">SensorManager::checkAndCalibrate</text>
<text text-anchor="middle" x="86.38" y="-16.5" font-family="Helvetica,sans-Serif" font-size="10.00">SCD30</text>
</a>
</g>
</g>
<!-- Node2 -->
<g id="Node000002" class="node">
<title>Node2</title>
<g id="a_Node000002"><a xlink:href="class_sensor_manager.html#a3608ee33385f64e74410127d59c2638e" target="_top" xlink:title="Calibrates the SCD30 sensor using the forced recalibration factor.">
<polygon fill="white" stroke="#666666" points="335.75,-64 208.75,-64 208.75,-32 335.75,-32 335.75,-64"/>
<text text-anchor="start" x="216.75" y="-50.5" font-family="Helvetica,sans-Serif" font-size="10.00">SensorManager::calibrate</text>
<text text-anchor="middle" x="272.25" y="-38.5" font-family="Helvetica,sans-Serif" font-size="10.00">SCD30</text>
</a>
</g>
</g>
<!-- Node1&#45;&gt;Node2 -->
<g id="edge1_Node000001_Node000002" class="edge">
<title>Node1&#45;&gt;Node2</title>
<g id="a_edge1_Node000001_Node000002"><a xlink:title=" ">
<path fill="none" stroke="#63b8ff" d="M173.12,-36.26C181.11,-37.22 189.16,-38.18 197.03,-39.12"/>
<polygon fill="#63b8ff" stroke="#63b8ff" points="196.56,-42.59 206.91,-40.3 197.39,-35.64 196.56,-42.59"/>
</a>
</g>
</g>
<!-- Node5 -->
<g id="Node000005" class="node">
<title>Node5</title>
<g id="a_Node000005"><a xlink:href="class_logger.html#a0c5851d03ba2e560bfd57aeb713267b3" target="_top" xlink:title="Logs an informational message.">
<polygon fill="white" stroke="#666666" points="440.62,-20 373.62,-20 373.62,0 440.62,0 440.62,-20"/>
<text text-anchor="middle" x="407.12" y="-6.5" font-family="Helvetica,sans-Serif" font-size="10.00">Logger::info</text>
</a>
</g>
</g>
<!-- Node1&#45;&gt;Node5 -->
<g id="edge6_Node000001_Node000005" class="edge">
<title>Node1&#45;&gt;Node5</title>
<g id="a_edge6_Node000001_Node000005"><a xlink:title=" ">
<path fill="none" stroke="#63b8ff" d="M173.21,-21.69C234.2,-18.63 313.58,-14.65 362.15,-12.21"/>
<polygon fill="#63b8ff" stroke="#63b8ff" points="362.18,-15.71 371.99,-11.71 361.83,-8.72 362.18,-15.71"/>
</a>
</g>
</g>
<!-- Node3 -->
<g id="Node000003" class="node">
<title>Node3</title>
<g id="a_Node000003"><a xlink:href="class_logger.html#ac862952b8ffa9de295a496af0108785c" target="_top" xlink:title="Logs an error message.">
<polygon fill="white" stroke="#666666" points="442.5,-58 371.75,-58 371.75,-38 442.5,-38 442.5,-58"/>
<text text-anchor="middle" x="407.12" y="-44.5" font-family="Helvetica,sans-Serif" font-size="10.00">Logger::error</text>
</a>
</g>
</g>
<!-- Node2&#45;&gt;Node3 -->
<g id="edge2_Node000002_Node000003" class="edge">
<title>Node2&#45;&gt;Node3</title>
<g id="a_edge2_Node000002_Node000003"><a xlink:title=" ">
<path fill="none" stroke="#63b8ff" d="M336.19,-48C344.2,-48 352.29,-48 359.98,-48"/>
<polygon fill="#63b8ff" stroke="#63b8ff" points="359.76,-51.5 369.76,-48 359.76,-44.5 359.76,-51.5"/>
</a>
</g>
</g>
<!-- Node2&#45;&gt;Node5 -->
<g id="edge4_Node000002_Node000005" class="edge">
<title>Node2&#45;&gt;Node5</title>
<g id="a_edge4_Node000002_Node000005"><a xlink:title=" ">
<path fill="none" stroke="#63b8ff" d="M330.76,-31.55C341.36,-28.52 352.27,-25.4 362.38,-22.51"/>
<polygon fill="#63b8ff" stroke="#63b8ff" points="363.29,-25.89 371.94,-19.78 361.36,-19.16 363.29,-25.89"/>
</a>
</g>
</g>
<!-- Node4 -->
<g id="Node000004" class="node">
<title>Node4</title>
<g id="a_Node000004"><a xlink:href="class_logger.html#af0dc4ff68b6d37026b9f6c7a51da6aaa" target="_top" xlink:title="Logs a message if it meets the current log level.">
<polygon fill="white" stroke="#666666" points="542.5,-39 478.5,-39 478.5,-19 542.5,-19 542.5,-39"/>
<text text-anchor="middle" x="510.5" y="-25.5" font-family="Helvetica,sans-Serif" font-size="10.00">Logger::log</text>
</a>
</g>
</g>
<!-- Node3&#45;&gt;Node4 -->
<g id="edge3_Node000003_Node000004" class="edge">
<title>Node3&#45;&gt;Node4</title>
<g id="a_edge3_Node000003_Node000004"><a xlink:title=" ">
<path fill="none" stroke="#63b8ff" d="M442.73,-41.51C450.53,-40.05 458.89,-38.49 466.97,-36.97"/>
<polygon fill="#63b8ff" stroke="#63b8ff" points="467.44,-40.44 476.63,-35.16 466.15,-33.56 467.44,-40.44"/>
</a>
</g>
</g>
<!-- Node5&#45;&gt;Node4 -->
<g id="edge5_Node000005_Node000004" class="edge">
<title>Node5&#45;&gt;Node4</title>
<g id="a_edge5_Node000005_Node000004"><a xlink:title=" ">
<path fill="none" stroke="#63b8ff" d="M441.04,-16.17C449.32,-17.72 458.33,-19.41 467,-21.03"/>
<polygon fill="#63b8ff" stroke="#63b8ff" points="466.17,-24.44 476.64,-22.84 467.46,-17.56 466.17,-24.44"/>
</a>
</g>
</g>
</g>
</svg>
