<?xml version="1.0" encoding="UTF-8" standalone="no"?>
<!DOCTYPE svg PUBLIC "-//W3C//DTD SVG 1.1//EN"
 "http://www.w3.org/Graphics/SVG/1.1/DTD/svg11.dtd">
<!-- Generated by graphviz version 2.43.0 (0)
 -->
<!-- Title: Logger::error Pages: 1 -->
<svg width="626pt" height="190pt"
 viewBox="0.00 0.00 626.00 189.50" xmlns="http://www.w3.org/2000/svg" xmlns:xlink="http://www.w3.org/1999/xlink">
<g id="graph0" class="graph" transform="scale(1 1) rotate(0) translate(4 185.5)">
<title>Logger::error</title>
<!-- Node1 -->
<g id="Node000001" class="node">
<title>Node1</title>
<g id="a_Node000001"><a xlink:title="Logs an error message.">
<polygon fill="#999999" stroke="#666666" points="618,-95 539,-95 539,-76 618,-76 618,-95"/>
<text text-anchor="middle" x="578.5" y="-83" font-family="Helvetica,sans-Serif" font-size="10.00">Logger::error</text>
</a>
</g>
</g>
<!-- Node2 -->
<g id="Node000002" class="node">
<title>Node2</title>
<g id="a_Node000002"><a xlink:href="classSensorManager.html#a3608ee33385f64e74410127d59c2638e" target="_top" xlink:title="Calibrates the SCD30 sensor using the forced recalibration factor.">
<polygon fill="white" stroke="#666666" points="475,-181.5 334,-181.5 334,-151.5 475,-151.5 475,-181.5"/>
<text text-anchor="start" x="342" y="-169.5" font-family="Helvetica,sans-Serif" font-size="10.00">SensorManager::calibrate</text>
<text text-anchor="middle" x="404.5" y="-158.5" font-family="Helvetica,sans-Serif" font-size="10.00">SCD30</text>
</a>
</g>
</g>
<!-- Node1&#45;&gt;Node2 -->
<g id="edge1_Node000001_Node000002" class="edge">
<title>Node1&#45;&gt;Node2</title>
<g id="a_edge1_Node000001_Node000002"><a xlink:title=" ">
<path fill="none" stroke="#63b8ff" d="M557.97,-101.76C543.54,-113.09 523,-127.86 503,-137.5 491.71,-142.95 479.18,-147.6 466.97,-151.49"/>
<polygon fill="#63b8ff" stroke="#63b8ff" points="560.5,-104.21 566.1,-95.22 556.12,-98.76 560.5,-104.21"/>
</a>
</g>
</g>
<!-- Node4 -->
<g id="Node000004" class="node">
<title>Node4</title>
<g id="a_Node000004"><a xlink:href="main_8cpp.html#a4fc01d736fe50cf5b977f755b675f11d" target="_top" xlink:title="Initializes the system, including the display, sensors, and logger.">
<polygon fill="white" stroke="#666666" points="44,-114 0,-114 0,-95 44,-95 44,-114"/>
<text text-anchor="middle" x="22" y="-102" font-family="Helvetica,sans-Serif" font-size="10.00">setup</text>
</a>
</g>
</g>
<!-- Node1&#45;&gt;Node4 -->
<g id="edge9_Node000001_Node000004" class="edge">
<title>Node1&#45;&gt;Node4</title>
<g id="a_edge9_Node000001_Node000004"><a xlink:title=" ">
<path fill="none" stroke="#63b8ff" d="M528.77,-95.84C520.21,-97.32 511.37,-98.63 503,-99.5 326.44,-117.86 111.4,-109.13 44.13,-105.68"/>
<polygon fill="#63b8ff" stroke="#63b8ff" points="529.41,-99.28 538.63,-94.05 528.16,-92.4 529.41,-99.28"/>
</a>
</g>
</g>
<!-- Node5 -->
<g id="Node000005" class="node">
<title>Node5</title>
<g id="a_Node000005"><a xlink:href="classDisplayManager.html#aeb1c8224403ea2595f202e5d93380609" target="_top" xlink:title="Initializes the OLED display.">
<polygon fill="white" stroke="#666666" points="247,-95 103,-95 103,-76 247,-76 247,-95"/>
<text text-anchor="middle" x="175" y="-83" font-family="Helvetica,sans-Serif" font-size="10.00">DisplayManager::initialize</text>
</a>
</g>
</g>
<!-- Node1&#45;&gt;Node5 -->
<g id="edge4_Node000001_Node000005" class="edge">
<title>Node1&#45;&gt;Node5</title>
<g id="a_edge4_Node000001_Node000005"><a xlink:title=" ">
<path fill="none" stroke="#63b8ff" d="M528.28,-85.5C457.87,-85.5 327.99,-85.5 247.13,-85.5"/>
<polygon fill="#63b8ff" stroke="#63b8ff" points="528.64,-89 538.64,-85.5 528.64,-82 528.64,-89"/>
</a>
</g>
</g>
<!-- Node6 -->
<g id="Node000006" class="node">
<title>Node6</title>
<g id="a_Node000006"><a xlink:href="classSensorManager.html#aded8aff6d741a64d0c34668a0694dd3d" target="_top" xlink:title="Initializes the SCD30 and BMP280 sensors.">
<polygon fill="white" stroke="#666666" points="245,-57.5 105,-57.5 105,-27.5 245,-27.5 245,-57.5"/>
<text text-anchor="start" x="113" y="-45.5" font-family="Helvetica,sans-Serif" font-size="10.00">SensorManager::initialize</text>
<text text-anchor="middle" x="175" y="-34.5" font-family="Helvetica,sans-Serif" font-size="10.00">Sensors</text>
</a>
</g>
</g>
<!-- Node1&#45;&gt;Node6 -->
<g id="edge6_Node000001_Node000006" class="edge">
<title>Node1&#45;&gt;Node6</title>
<g id="a_edge6_Node000001_Node000006"><a xlink:title=" ">
<path fill="none" stroke="#63b8ff" d="M528.64,-80.27C457.77,-72.68 326.13,-58.58 245.27,-49.92"/>
<polygon fill="#63b8ff" stroke="#63b8ff" points="528.32,-83.75 538.64,-81.34 529.07,-76.79 528.32,-83.75"/>
</a>
</g>
</g>
<!-- Node7 -->
<g id="Node000007" class="node">
<title>Node7</title>
<g id="a_Node000007"><a xlink:href="classSensorManager.html#ad6448faa4a1a1e9647682ee4a7005d80" target="_top" xlink:title="Resets the calibration flag stored in EEPROM.">
<polygon fill="white" stroke="#666666" points="503,-19 306,-19 306,0 503,0 503,-19"/>
<text text-anchor="middle" x="404.5" y="-7" font-family="Helvetica,sans-Serif" font-size="10.00">SensorManager::resetCalibrationFlag</text>
</a>
</g>
</g>
<!-- Node1&#45;&gt;Node7 -->
<g id="edge8_Node000001_Node000007" class="edge">
<title>Node1&#45;&gt;Node7</title>
<g id="a_edge8_Node000001_Node000007"><a xlink:title=" ">
<path fill="none" stroke="#63b8ff" d="M558.61,-69.35C544.22,-57.82 523.46,-42.77 503,-33.5 489.34,-27.31 473.86,-22.58 459.32,-19.01"/>
<polygon fill="#63b8ff" stroke="#63b8ff" points="556.74,-72.35 566.68,-75.99 561.18,-66.94 556.74,-72.35"/>
</a>
</g>
</g>
<!-- Node3 -->
<g id="Node000003" class="node">
<title>Node3</title>
<g id="a_Node000003"><a xlink:href="classSensorManager.html#a9daa366f758f7419ab22fb3c243801fe" target="_top" xlink:title="Checks if the SCD30 sensor needs calibration and performs calibration if necessary.">
<polygon fill="white" stroke="#666666" points="270,-181.5 80,-181.5 80,-151.5 270,-151.5 270,-181.5"/>
<text text-anchor="start" x="88" y="-169.5" font-family="Helvetica,sans-Serif" font-size="10.00">SensorManager::checkAndCalibrate</text>
<text text-anchor="middle" x="175" y="-158.5" font-family="Helvetica,sans-Serif" font-size="10.00">SCD30</text>
</a>
</g>
</g>
<!-- Node2&#45;&gt;Node3 -->
<g id="edge2_Node000002_Node000003" class="edge">
<title>Node2&#45;&gt;Node3</title>
<g id="a_edge2_Node000002_Node000003"><a xlink:title=" ">
<path fill="none" stroke="#63b8ff" d="M323.22,-166.5C306.14,-166.5 287.95,-166.5 270.39,-166.5"/>
<polygon fill="#63b8ff" stroke="#63b8ff" points="323.7,-170 333.7,-166.5 323.7,-163 323.7,-170"/>
</a>
</g>
</g>
<!-- Node3&#45;&gt;Node4 -->
<g id="edge3_Node000003_Node000004" class="edge">
<title>Node3&#45;&gt;Node4</title>
<g id="a_edge3_Node000003_Node000004"><a xlink:title=" ">
<path fill="none" stroke="#63b8ff" d="M107.78,-148.14C98.33,-144.92 88.83,-141.36 80,-137.5 64.91,-130.91 48.76,-121.29 37.52,-114.14"/>
<polygon fill="#63b8ff" stroke="#63b8ff" points="106.98,-151.56 117.57,-151.36 109.17,-144.91 106.98,-151.56"/>
</a>
</g>
</g>
<!-- Node5&#45;&gt;Node4 -->
<g id="edge5_Node000005_Node000004" class="edge">
<title>Node5&#45;&gt;Node4</title>
<g id="a_edge5_Node000005_Node000004"><a xlink:title=" ">
<path fill="none" stroke="#63b8ff" d="M92.87,-95.71C74.82,-97.98 57.2,-100.2 44.16,-101.84"/>
<polygon fill="#63b8ff" stroke="#63b8ff" points="93.44,-99.16 102.92,-94.44 92.56,-92.22 93.44,-99.16"/>
</a>
</g>
</g>
<!-- Node6&#45;&gt;Node4 -->
<g id="edge7_Node000006_Node000004" class="edge">
<title>Node6&#45;&gt;Node4</title>
<g id="a_edge7_Node000006_Node000004"><a xlink:title=" ">
<path fill="none" stroke="#63b8ff" d="M95.29,-60.45C90.04,-62.3 84.9,-64.32 80,-66.5 63.27,-73.95 46.04,-86.19 34.97,-94.76"/>
<polygon fill="#63b8ff" stroke="#63b8ff" points="96.41,-63.77 104.8,-57.3 94.21,-57.12 96.41,-63.77"/>
</a>
</g>
</g>
</g>
</svg>
