<?xml version="1.0" encoding="UTF-8" standalone="no"?>
<!DOCTYPE svg PUBLIC "-//W3C//DTD SVG 1.1//EN"
 "http://www.w3.org/Graphics/SVG/1.1/DTD/svg11.dtd">
<!-- Generated by graphviz version 2.43.0 (0)
 -->
<!-- Title: SensorManager::isDataAvailable Pages: 1 -->
<svg width="412pt" height="27pt"
 viewBox="0.00 0.00 412.00 27.00" xmlns="http://www.w3.org/2000/svg" xmlns:xlink="http://www.w3.org/1999/xlink">
<g id="graph0" class="graph" transform="scale(1 1) rotate(0) translate(4 23)">
<title>SensorManager::isDataAvailable</title>
<!-- Node1 -->
<g id="Node000001" class="node">
<title>Node1</title>
<g id="a_Node000001"><a xlink:title="Checks if new data is available from the sensors.">
<polygon fill="#999999" stroke="#666666" points="175,-19 0,-19 0,0 175,0 175,-19"/>
<text text-anchor="middle" x="87.5" y="-7" font-family="Helvetica,sans-Serif" font-size="10.00">SensorManager::isDataAvailable</text>
</a>
</g>
</g>
<!-- Node2 -->
<g id="Node000002" class="node">
<title>Node2</title>
<g id="a_Node000002"><a xlink:href="classLogger.html#abeffd58a6beace1b1c01a5324227fd83" target="_top" xlink:title="Logs a debug message.">
<polygon fill="white" stroke="#666666" points="297,-19 211,-19 211,0 297,0 297,-19"/>
<text text-anchor="middle" x="254" y="-7" font-family="Helvetica,sans-Serif" font-size="10.00">Logger::debug</text>
</a>
</g>
</g>
<!-- Node1&#45;&gt;Node2 -->
<g id="edge1_Node000001_Node000002" class="edge">
<title>Node1&#45;&gt;Node2</title>
<g id="a_edge1_Node000001_Node000002"><a xlink:title=" ">
<path fill="none" stroke="#63b8ff" d="M175.09,-9.5C183.79,-9.5 192.44,-9.5 200.62,-9.5"/>
<polygon fill="#63b8ff" stroke="#63b8ff" points="200.72,-13 210.72,-9.5 200.72,-6 200.72,-13"/>
</a>
</g>
</g>
<!-- Node3 -->
<g id="Node000003" class="node">
<title>Node3</title>
<g id="a_Node000003"><a xlink:href="classLogger.html#af0dc4ff68b6d37026b9f6c7a51da6aaa" target="_top" xlink:title="Logs a message if it meets the current log level.">
<polygon fill="white" stroke="#666666" points="404,-19 333,-19 333,0 404,0 404,-19"/>
<text text-anchor="middle" x="368.5" y="-7" font-family="Helvetica,sans-Serif" font-size="10.00">Logger::log</text>
</a>
</g>
</g>
<!-- Node2&#45;&gt;Node3 -->
<g id="edge2_Node000002_Node000003" class="edge">
<title>Node2&#45;&gt;Node3</title>
<g id="a_edge2_Node000002_Node000003"><a xlink:title=" ">
<path fill="none" stroke="#63b8ff" d="M297.21,-9.5C305.54,-9.5 314.32,-9.5 322.73,-9.5"/>
<polygon fill="#63b8ff" stroke="#63b8ff" points="322.76,-13 332.76,-9.5 322.76,-6 322.76,-13"/>
</a>
</g>
</g>
</g>
</svg>
