<?xml version="1.0" encoding="UTF-8" standalone="no"?>
<!DOCTYPE svg PUBLIC "-//W3C//DTD SVG 1.1//EN"
 "http://www.w3.org/Graphics/SVG/1.1/DTD/svg11.dtd">
<!-- Generated by graphviz version 12.2.1 (20241206.2353)
 -->
<!-- Title: DisplayManager::initialize Pages: 1 -->
<svg width="343pt" height="66pt"
 viewBox="0.00 0.00 342.50 66.00" xmlns="http://www.w3.org/2000/svg" xmlns:xlink="http://www.w3.org/1999/xlink">
<g id="graph0" class="graph" transform="scale(1 1) rotate(0) translate(4 62)">
<title>DisplayManager::initialize</title>
<!-- Node1 -->
<g id="Node000001" class="node">
<title>Node1</title>
<g id="a_Node000001"><a xlink:title="Initializes the OLED display.">
<polygon fill="#999999" stroke="#666666" points="127.75,-39 0,-39 0,-19 127.75,-19 127.75,-39"/>
<text text-anchor="middle" x="63.88" y="-25.5" font-family="Helvetica,sans-Serif" font-size="10.00">DisplayManager::initialize</text>
</a>
</g>
</g>
<!-- Node2 -->
<g id="Node000002" class="node">
<title>Node2</title>
<g id="a_Node000002"><a xlink:href="class_logger.html#ac862952b8ffa9de295a496af0108785c" target="_top" xlink:title="Logs an error message.">
<polygon fill="white" stroke="#666666" points="234.5,-58 163.75,-58 163.75,-38 234.5,-38 234.5,-58"/>
<text text-anchor="middle" x="199.12" y="-44.5" font-family="Helvetica,sans-Serif" font-size="10.00">Logger::error</text>
</a>
</g>
</g>
<!-- Node1&#45;&gt;Node2 -->
<g id="edge1_Node000001_Node000002" class="edge">
<title>Node1&#45;&gt;Node2</title>
<g id="a_edge1_Node000001_Node000002"><a xlink:title=" ">
<path fill="none" stroke="#63b8ff" d="M127.99,-38C136.21,-39.17 144.51,-40.36 152.38,-41.48"/>
<polygon fill="#63b8ff" stroke="#63b8ff" points="151.64,-44.91 162.03,-42.85 152.63,-37.98 151.64,-44.91"/>
</a>
</g>
</g>
<!-- Node4 -->
<g id="Node000004" class="node">
<title>Node4</title>
<g id="a_Node000004"><a xlink:href="class_logger.html#a0c5851d03ba2e560bfd57aeb713267b3" target="_top" xlink:title="Logs an informational message.">
<polygon fill="white" stroke="#666666" points="232.62,-20 165.62,-20 165.62,0 232.62,0 232.62,-20"/>
<text text-anchor="middle" x="199.12" y="-6.5" font-family="Helvetica,sans-Serif" font-size="10.00">Logger::info</text>
</a>
</g>
</g>
<!-- Node1&#45;&gt;Node4 -->
<g id="edge3_Node000001_Node000004" class="edge">
<title>Node1&#45;&gt;Node4</title>
<g id="a_edge3_Node000001_Node000004"><a xlink:title=" ">
<path fill="none" stroke="#63b8ff" d="M127.99,-20C136.77,-18.75 145.63,-17.49 153.96,-16.3"/>
<polygon fill="#63b8ff" stroke="#63b8ff" points="154.41,-19.77 163.82,-14.89 153.42,-12.84 154.41,-19.77"/>
</a>
</g>
</g>
<!-- Node3 -->
<g id="Node000003" class="node">
<title>Node3</title>
<g id="a_Node000003"><a xlink:href="class_logger.html#af0dc4ff68b6d37026b9f6c7a51da6aaa" target="_top" xlink:title="Logs a message if it meets the current log level.">
<polygon fill="white" stroke="#666666" points="334.5,-39 270.5,-39 270.5,-19 334.5,-19 334.5,-39"/>
<text text-anchor="middle" x="302.5" y="-25.5" font-family="Helvetica,sans-Serif" font-size="10.00">Logger::log</text>
</a>
</g>
</g>
<!-- Node2&#45;&gt;Node3 -->
<g id="edge2_Node000002_Node000003" class="edge">
<title>Node2&#45;&gt;Node3</title>
<g id="a_edge2_Node000002_Node000003"><a xlink:title=" ">
<path fill="none" stroke="#63b8ff" d="M234.73,-41.51C242.53,-40.05 250.89,-38.49 258.97,-36.97"/>
<polygon fill="#63b8ff" stroke="#63b8ff" points="259.44,-40.44 268.63,-35.16 258.15,-33.56 259.44,-40.44"/>
</a>
</g>
</g>
<!-- Node4&#45;&gt;Node3 -->
<g id="edge4_Node000004_Node000003" class="edge">
<title>Node4&#45;&gt;Node3</title>
<g id="a_edge4_Node000004_Node000003"><a xlink:title=" ">
<path fill="none" stroke="#63b8ff" d="M233.04,-16.17C241.32,-17.72 250.33,-19.41 259,-21.03"/>
<polygon fill="#63b8ff" stroke="#63b8ff" points="258.17,-24.44 268.64,-22.84 259.46,-17.56 258.17,-24.44"/>
</a>
</g>
</g>
</g>
</svg>
