<?xml version="1.0" encoding="UTF-8" standalone="no"?>
<!DOCTYPE svg PUBLIC "-//W3C//DTD SVG 1.1//EN"
 "http://www.w3.org/Graphics/SVG/1.1/DTD/svg11.dtd">
<!-- Generated by graphviz version 2.43.0 (0)
 -->
<!-- Title: SensorManager::checkAndCalibrateSCD30 Pages: 1 -->
<svg width="597pt" height="70pt"
 viewBox="0.00 0.00 597.00 69.50" xmlns="http://www.w3.org/2000/svg" xmlns:xlink="http://www.w3.org/1999/xlink">
<g id="graph0" class="graph" transform="scale(1 1) rotate(0) translate(4 65.5)">
<title>SensorManager::checkAndCalibrateSCD30</title>
<!-- Node1 -->
<g id="Node000001" class="node">
<title>Node1</title>
<g id="a_Node000001"><a xlink:title="Checks if the SCD30 sensor needs calibration and performs calibration if necessary.">
<polygon fill="#999999" stroke="#666666" points="190,-39.5 0,-39.5 0,-9.5 190,-9.5 190,-39.5"/>
<text text-anchor="start" x="8" y="-27.5" font-family="Helvetica,sans-Serif" font-size="10.00">SensorManager::checkAndCalibrate</text>
<text text-anchor="middle" x="95" y="-16.5" font-family="Helvetica,sans-Serif" font-size="10.00">SCD30</text>
</a>
</g>
</g>
<!-- Node2 -->
<g id="Node000002" class="node">
<title>Node2</title>
<g id="a_Node000002"><a xlink:href="classSensorManager.html#a3608ee33385f64e74410127d59c2638e" target="_top" xlink:title="Calibrates the SCD30 sensor using the forced recalibration factor.">
<polygon fill="white" stroke="#666666" points="367,-61.5 226,-61.5 226,-31.5 367,-31.5 367,-61.5"/>
<text text-anchor="start" x="234" y="-49.5" font-family="Helvetica,sans-Serif" font-size="10.00">SensorManager::calibrate</text>
<text text-anchor="middle" x="296.5" y="-38.5" font-family="Helvetica,sans-Serif" font-size="10.00">SCD30</text>
</a>
</g>
</g>
<!-- Node1&#45;&gt;Node2 -->
<g id="edge1_Node000001_Node000002" class="edge">
<title>Node1&#45;&gt;Node2</title>
<g id="a_edge1_Node000001_Node000002"><a xlink:title=" ">
<path fill="none" stroke="#63b8ff" d="M190.2,-34.89C198.74,-35.83 207.32,-36.78 215.72,-37.7"/>
<polygon fill="#63b8ff" stroke="#63b8ff" points="215.52,-41.2 225.84,-38.82 216.29,-34.24 215.52,-41.2"/>
</a>
</g>
</g>
<!-- Node5 -->
<g id="Node000005" class="node">
<title>Node5</title>
<g id="a_Node000005"><a xlink:href="classLogger.html#a0c5851d03ba2e560bfd57aeb713267b3" target="_top" xlink:title="Logs an informational message.">
<polygon fill="white" stroke="#666666" points="479.5,-19 405.5,-19 405.5,0 479.5,0 479.5,-19"/>
<text text-anchor="middle" x="442.5" y="-7" font-family="Helvetica,sans-Serif" font-size="10.00">Logger::info</text>
</a>
</g>
</g>
<!-- Node1&#45;&gt;Node5 -->
<g id="edge6_Node000001_Node000005" class="edge">
<title>Node1&#45;&gt;Node5</title>
<g id="a_edge6_Node000001_Node000005"><a xlink:title=" ">
<path fill="none" stroke="#63b8ff" d="M190.41,-20.4C256.77,-17.52 342.69,-13.79 394.87,-11.52"/>
<polygon fill="#63b8ff" stroke="#63b8ff" points="395.32,-15.01 405.16,-11.08 395.02,-8.01 395.32,-15.01"/>
</a>
</g>
</g>
<!-- Node3 -->
<g id="Node000003" class="node">
<title>Node3</title>
<g id="a_Node000003"><a xlink:href="classLogger.html#ac862952b8ffa9de295a496af0108785c" target="_top" xlink:title="Logs an error message.">
<polygon fill="white" stroke="#666666" points="482,-56 403,-56 403,-37 482,-37 482,-56"/>
<text text-anchor="middle" x="442.5" y="-44" font-family="Helvetica,sans-Serif" font-size="10.00">Logger::error</text>
</a>
</g>
</g>
<!-- Node2&#45;&gt;Node3 -->
<g id="edge2_Node000002_Node000003" class="edge">
<title>Node2&#45;&gt;Node3</title>
<g id="a_edge2_Node000002_Node000003"><a xlink:title=" ">
<path fill="none" stroke="#63b8ff" d="M367.39,-46.5C375.96,-46.5 384.56,-46.5 392.72,-46.5"/>
<polygon fill="#63b8ff" stroke="#63b8ff" points="392.78,-50 402.78,-46.5 392.78,-43 392.78,-50"/>
</a>
</g>
</g>
<!-- Node2&#45;&gt;Node5 -->
<g id="edge4_Node000002_Node000005" class="edge">
<title>Node2&#45;&gt;Node5</title>
<g id="a_edge4_Node000002_Node000005"><a xlink:title=" ">
<path fill="none" stroke="#63b8ff" d="M356.07,-31.45C369.22,-28.07 382.99,-24.53 395.54,-21.31"/>
<polygon fill="#63b8ff" stroke="#63b8ff" points="396.49,-24.68 405.3,-18.8 394.75,-17.9 396.49,-24.68"/>
</a>
</g>
</g>
<!-- Node4 -->
<g id="Node000004" class="node">
<title>Node4</title>
<g id="a_Node000004"><a xlink:href="classLogger.html#af0dc4ff68b6d37026b9f6c7a51da6aaa" target="_top" xlink:title="Logs a message if it meets the current log level.">
<polygon fill="white" stroke="#666666" points="589,-37 518,-37 518,-18 589,-18 589,-37"/>
<text text-anchor="middle" x="553.5" y="-25" font-family="Helvetica,sans-Serif" font-size="10.00">Logger::log</text>
</a>
</g>
</g>
<!-- Node3&#45;&gt;Node4 -->
<g id="edge3_Node000003_Node000004" class="edge">
<title>Node3&#45;&gt;Node4</title>
<g id="a_edge3_Node000003_Node000004"><a xlink:title=" ">
<path fill="none" stroke="#63b8ff" d="M482.24,-39.75C490.5,-38.31 499.3,-36.77 507.77,-35.3"/>
<polygon fill="#63b8ff" stroke="#63b8ff" points="508.63,-38.7 517.88,-33.53 507.43,-31.8 508.63,-38.7"/>
</a>
</g>
</g>
<!-- Node5&#45;&gt;Node4 -->
<g id="edge5_Node000005_Node000004" class="edge">
<title>Node5&#45;&gt;Node4</title>
<g id="a_edge5_Node000005_Node000004"><a xlink:title=" ">
<path fill="none" stroke="#63b8ff" d="M479.8,-15.49C488.8,-16.98 498.55,-18.59 507.91,-20.14"/>
<polygon fill="#63b8ff" stroke="#63b8ff" points="507.4,-23.6 517.84,-21.78 508.54,-16.69 507.4,-23.6"/>
</a>
</g>
</g>
</g>
</svg>
