<?xml version="1.0" encoding="UTF-8" standalone="no"?>
<!DOCTYPE svg PUBLIC "-//W3C//DTD SVG 1.1//EN"
 "http://www.w3.org/Graphics/SVG/1.1/DTD/svg11.dtd">
<!-- Generated by graphviz version 2.43.0 (0)
 -->
<!-- Title: SensorManager::resetCalibrationFlag Pages: 1 -->
<svg width="434pt" height="64pt"
 viewBox="0.00 0.00 434.00 64.00" xmlns="http://www.w3.org/2000/svg" xmlns:xlink="http://www.w3.org/1999/xlink">
<g id="graph0" class="graph" transform="scale(1 1) rotate(0) translate(4 60)">
<title>SensorManager::resetCalibrationFlag</title>
<!-- Node1 -->
<g id="Node000001" class="node">
<title>Node1</title>
<g id="a_Node000001"><a xlink:title="Resets the calibration flag stored in EEPROM.">
<polygon fill="#999999" stroke="#666666" points="197,-37 0,-37 0,-18 197,-18 197,-37"/>
<text text-anchor="middle" x="98.5" y="-25" font-family="Helvetica,sans-Serif" font-size="10.00">SensorManager::resetCalibrationFlag</text>
</a>
</g>
</g>
<!-- Node2 -->
<g id="Node000002" class="node">
<title>Node2</title>
<g id="a_Node000002"><a xlink:href="classLogger.html#abeffd58a6beace1b1c01a5324227fd83" target="_top" xlink:title="Logs a debug message.">
<polygon fill="white" stroke="#666666" points="319,-56 233,-56 233,-37 319,-37 319,-56"/>
<text text-anchor="middle" x="276" y="-44" font-family="Helvetica,sans-Serif" font-size="10.00">Logger::debug</text>
</a>
</g>
</g>
<!-- Node1&#45;&gt;Node2 -->
<g id="edge1_Node000001_Node000002" class="edge">
<title>Node1&#45;&gt;Node2</title>
<g id="a_edge1_Node000001_Node000002"><a xlink:title=" ">
<path fill="none" stroke="#63b8ff" d="M187.51,-37.03C199.43,-38.32 211.35,-39.61 222.38,-40.8"/>
<polygon fill="#63b8ff" stroke="#63b8ff" points="222.34,-44.32 232.66,-41.92 223.09,-37.36 222.34,-44.32"/>
</a>
</g>
</g>
<!-- Node4 -->
<g id="Node000004" class="node">
<title>Node4</title>
<g id="a_Node000004"><a xlink:href="classLogger.html#ac862952b8ffa9de295a496af0108785c" target="_top" xlink:title="Logs an error message.">
<polygon fill="white" stroke="#666666" points="315.5,-19 236.5,-19 236.5,0 315.5,0 315.5,-19"/>
<text text-anchor="middle" x="276" y="-7" font-family="Helvetica,sans-Serif" font-size="10.00">Logger::error</text>
</a>
</g>
</g>
<!-- Node1&#45;&gt;Node4 -->
<g id="edge3_Node000001_Node000004" class="edge">
<title>Node1&#45;&gt;Node4</title>
<g id="a_edge3_Node000001_Node000004"><a xlink:title=" ">
<path fill="none" stroke="#63b8ff" d="M192.13,-18C204,-16.78 215.74,-15.58 226.5,-14.47"/>
<polygon fill="#63b8ff" stroke="#63b8ff" points="226.88,-17.95 236.47,-13.45 226.17,-10.99 226.88,-17.95"/>
</a>
</g>
</g>
<!-- Node3 -->
<g id="Node000003" class="node">
<title>Node3</title>
<g id="a_Node000003"><a xlink:href="classLogger.html#af0dc4ff68b6d37026b9f6c7a51da6aaa" target="_top" xlink:title="Logs a message if it meets the current log level.">
<polygon fill="white" stroke="#666666" points="426,-37 355,-37 355,-18 426,-18 426,-37"/>
<text text-anchor="middle" x="390.5" y="-25" font-family="Helvetica,sans-Serif" font-size="10.00">Logger::log</text>
</a>
</g>
</g>
<!-- Node2&#45;&gt;Node3 -->
<g id="edge2_Node000002_Node000003" class="edge">
<title>Node2&#45;&gt;Node3</title>
<g id="a_edge2_Node000002_Node000003"><a xlink:title=" ">
<path fill="none" stroke="#63b8ff" d="M319.21,-39.37C327.54,-37.96 336.32,-36.48 344.73,-35.06"/>
<polygon fill="#63b8ff" stroke="#63b8ff" points="345.49,-38.48 354.76,-33.37 344.32,-31.58 345.49,-38.48"/>
</a>
</g>
</g>
<!-- Node4&#45;&gt;Node3 -->
<g id="edge4_Node000004_Node000003" class="edge">
<title>Node4&#45;&gt;Node3</title>
<g id="a_edge4_Node000004_Node000003"><a xlink:title=" ">
<path fill="none" stroke="#63b8ff" d="M315.72,-15.69C325.05,-17.19 335.1,-18.8 344.69,-20.33"/>
<polygon fill="#63b8ff" stroke="#63b8ff" points="344.43,-23.83 354.86,-21.96 345.54,-16.92 344.43,-23.83"/>
</a>
</g>
</g>
</g>
</svg>
