<?xml version="1.0" encoding="UTF-8" standalone="no"?>
<!DOCTYPE svg PUBLIC "-//W3C//DTD SVG 1.1//EN"
 "http://www.w3.org/Graphics/SVG/1.1/DTD/svg11.dtd">
<!-- Generated by graphviz version 12.2.1 (20241206.2353)
 -->
<!-- Title: I2CScanner::scan Pages: 1 -->
<svg width="324pt" height="66pt"
 viewBox="0.00 0.00 323.75 66.00" xmlns="http://www.w3.org/2000/svg" xmlns:xlink="http://www.w3.org/1999/xlink">
<g id="graph0" class="graph" transform="scale(1 1) rotate(0) translate(4 62)">
<title>I2CScanner::scan</title>
<!-- Node1 -->
<g id="Node000001" class="node">
<title>Node1</title>
<g id="a_Node000001"><a xlink:title="Scans the I2C bus for connected devices.">
<polygon fill="#999999" stroke="#666666" points="94.75,-39 0,-39 0,-19 94.75,-19 94.75,-39"/>
<text text-anchor="middle" x="47.38" y="-25.5" font-family="Helvetica,sans-Serif" font-size="10.00">I2CScanner::scan</text>
</a>
</g>
</g>
<!-- Node2 -->
<g id="Node000002" class="node">
<title>Node2</title>
<g id="a_Node000002"><a xlink:href="$class_logger.html#a0c5851d03ba2e560bfd57aeb713267b3" xlink:title="Logs an informational message.">
<polygon fill="white" stroke="#666666" points="206.75,-58 139.75,-58 139.75,-38 206.75,-38 206.75,-58"/>
<text text-anchor="middle" x="173.25" y="-44.5" font-family="Helvetica,sans-Serif" font-size="10.00">Logger::info</text>
</a>
</g>
</g>
<!-- Node1&#45;&gt;Node2 -->
<g id="edge1_Node000001_Node000002" class="edge">
<title>Node1&#45;&gt;Node2</title>
<g id="a_edge1_Node000001_Node000002"><a xlink:title=" ">
<path fill="none" stroke="#63b8ff" d="M95.21,-36.18C106.07,-37.85 117.6,-39.62 128.34,-41.27"/>
<polygon fill="#63b8ff" stroke="#63b8ff" points="127.7,-44.71 138.12,-42.76 128.76,-37.79 127.7,-44.71"/>
</a>
</g>
</g>
<!-- Node4 -->
<g id="Node000004" class="node">
<title>Node4</title>
<g id="a_Node000004"><a xlink:href="$class_logger.html#a4d229b17ee039e273686455c74382ec6" xlink:title="Logs a warning message.">
<polygon fill="white" stroke="#666666" points="215.75,-20 130.75,-20 130.75,0 215.75,0 215.75,-20"/>
<text text-anchor="middle" x="173.25" y="-6.5" font-family="Helvetica,sans-Serif" font-size="10.00">Logger::warning</text>
</a>
</g>
</g>
<!-- Node1&#45;&gt;Node4 -->
<g id="edge3_Node000001_Node000004" class="edge">
<title>Node1&#45;&gt;Node4</title>
<g id="a_edge3_Node000001_Node000004"><a xlink:title=" ">
<path fill="none" stroke="#63b8ff" d="M95.21,-21.82C103.12,-20.6 111.39,-19.33 119.45,-18.1"/>
<polygon fill="#63b8ff" stroke="#63b8ff" points="119.79,-21.59 129.14,-16.61 118.73,-14.67 119.79,-21.59"/>
</a>
</g>
</g>
<!-- Node3 -->
<g id="Node000003" class="node">
<title>Node3</title>
<g id="a_Node000003"><a xlink:href="$class_logger.html#af0dc4ff68b6d37026b9f6c7a51da6aaa" xlink:title="Logs a message if it meets the current log level.">
<polygon fill="white" stroke="#666666" points="315.75,-39 251.75,-39 251.75,-19 315.75,-19 315.75,-39"/>
<text text-anchor="middle" x="283.75" y="-25.5" font-family="Helvetica,sans-Serif" font-size="10.00">Logger::log</text>
</a>
</g>
</g>
<!-- Node2&#45;&gt;Node3 -->
<g id="edge2_Node000002_Node000003" class="edge">
<title>Node2&#45;&gt;Node3</title>
<g id="a_edge2_Node000002_Node000003"><a xlink:title=" ">
<path fill="none" stroke="#63b8ff" d="M207.1,-42.25C217.56,-40.42 229.29,-38.36 240.33,-36.43"/>
<polygon fill="#63b8ff" stroke="#63b8ff" points="240.76,-39.91 250.01,-34.73 239.56,-33.01 240.76,-39.91"/>
</a>
</g>
</g>
<!-- Node4&#45;&gt;Node3 -->
<g id="edge4_Node000004_Node000003" class="edge">
<title>Node4&#45;&gt;Node3</title>
<g id="a_edge4_Node000004_Node000003"><a xlink:title=" ">
<path fill="none" stroke="#63b8ff" d="M216.2,-17.35C224.05,-18.72 232.27,-20.16 240.14,-21.54"/>
<polygon fill="#63b8ff" stroke="#63b8ff" points="239.4,-24.96 249.86,-23.24 240.61,-18.07 239.4,-24.96"/>
</a>
</g>
</g>
</g>
</svg>
