<?xml version="1.0" encoding="UTF-8" standalone="no"?>
<!DOCTYPE svg PUBLIC "-//W3C//DTD SVG 1.1//EN"
 "http://www.w3.org/Graphics/SVG/1.1/DTD/svg11.dtd">
<!-- Generated by graphviz version 2.43.0 (0)
 -->
<!-- Title: include/I2CScanner.h Pages: 1 -->
<svg width="214pt" height="82pt"
 viewBox="0.00 0.00 213.50 82.00" xmlns="http://www.w3.org/2000/svg" xmlns:xlink="http://www.w3.org/1999/xlink">
<g id="graph0" class="graph" transform="scale(1 1) rotate(0) translate(4 78)">
<title>include/I2CScanner.h</title>
<!-- Node1 -->
<g id="Node000001" class="node">
<title>Node1</title>
<g id="a_Node000001"><a xlink:title="Provides functionality to scan the I2C bus for connected devices.">
<polygon fill="#999999" stroke="#666666" points="169,-74 51,-74 51,-55 169,-55 169,-74"/>
<text text-anchor="middle" x="110" y="-62" font-family="Helvetica,sans-Serif" font-size="10.00">include/I2CScanner.h</text>
</a>
</g>
</g>
<!-- Node2 -->
<g id="Node000002" class="node">
<title>Node2</title>
<g id="a_Node000002"><a xlink:href="I2CScanner_8cpp_source.html" target="_top" xlink:title=" ">
<polygon fill="white" stroke="#666666" points="108,-19 0,-19 0,0 108,0 108,-19"/>
<text text-anchor="middle" x="54" y="-7" font-family="Helvetica,sans-Serif" font-size="10.00">src/I2CScanner.cpp</text>
</a>
</g>
</g>
<!-- Node1&#45;&gt;Node2 -->
<g id="edge1_Node000001_Node000002" class="edge">
<title>Node1&#45;&gt;Node2</title>
<g id="a_edge1_Node000001_Node000002"><a xlink:title=" ">
<path fill="none" stroke="#63b8ff" d="M93.67,-48.04C83.74,-38.64 71.41,-26.98 63.16,-19.17"/>
<polygon fill="#63b8ff" stroke="#63b8ff" points="91.33,-50.65 101,-54.98 96.15,-45.57 91.33,-50.65"/>
</a>
</g>
</g>
<!-- Node3 -->
<g id="Node000003" class="node">
<title>Node3</title>
<g id="a_Node000003"><a xlink:href="main_8cpp.html" target="_top" xlink:title="Main entry point for the CO2 Meter application.">
<polygon fill="white" stroke="#666666" points="205.5,-19 126.5,-19 126.5,0 205.5,0 205.5,-19"/>
<text text-anchor="middle" x="166" y="-7" font-family="Helvetica,sans-Serif" font-size="10.00">src/main.cpp</text>
</a>
</g>
</g>
<!-- Node1&#45;&gt;Node3 -->
<g id="edge2_Node000001_Node000003" class="edge">
<title>Node1&#45;&gt;Node3</title>
<g id="a_edge2_Node000001_Node000003"><a xlink:title=" ">
<path fill="none" stroke="#63b8ff" d="M126.33,-48.04C136.26,-38.64 148.59,-26.98 156.84,-19.17"/>
<polygon fill="#63b8ff" stroke="#63b8ff" points="123.85,-45.57 119,-54.98 128.67,-50.65 123.85,-45.57"/>
</a>
</g>
</g>
</g>
</svg>
