<?xml version="1.0" encoding="UTF-8" standalone="no"?>
<!DOCTYPE svg PUBLIC "-//W3C//DTD SVG 1.1//EN"
 "http://www.w3.org/Graphics/SVG/1.1/DTD/svg11.dtd">
<!-- Generated by graphviz version 2.43.0 (0)
 -->
<!-- Title: include/I2CScanner.h Pages: 1 -->
<svg width="135pt" height="137pt"
 viewBox="0.00 0.00 134.50 137.00" xmlns="http://www.w3.org/2000/svg" xmlns:xlink="http://www.w3.org/1999/xlink">
<g id="graph0" class="graph" transform="scale(1 1) rotate(0) translate(4 133)">
<title>include/I2CScanner.h</title>
<!-- Node1 -->
<g id="Node000001" class="node">
<title>Node1</title>
<g id="a_Node000001"><a xlink:title="Provides functionality to scan the I2C bus for connected devices.">
<polygon fill="#999999" stroke="#666666" points="118,-129 0,-129 0,-110 118,-110 118,-129"/>
<text text-anchor="middle" x="59" y="-117" font-family="Helvetica,sans-Serif" font-size="10.00">include/I2CScanner.h</text>
</a>
</g>
</g>
<!-- Node2 -->
<g id="Node000002" class="node">
<title>Node2</title>
<g id="a_Node000002"><a xlink:title=" ">
<polygon fill="#e0e0e0" stroke="#999999" points="48,-74 0,-74 0,-55 48,-55 48,-74"/>
<text text-anchor="middle" x="24" y="-62" font-family="Helvetica,sans-Serif" font-size="10.00">Wire.h</text>
</a>
</g>
</g>
<!-- Node1&#45;&gt;Node2 -->
<g id="edge1_Node000001_Node000002" class="edge">
<title>Node1&#45;&gt;Node2</title>
<g id="a_edge1_Node000001_Node000002"><a xlink:title=" ">
<path fill="none" stroke="#63b8ff" d="M53.22,-109.75C48.38,-102.42 41.32,-91.73 35.36,-82.7"/>
<polygon fill="#63b8ff" stroke="#63b8ff" points="38.1,-80.5 29.67,-74.09 32.26,-84.36 38.1,-80.5"/>
</a>
</g>
</g>
<!-- Node3 -->
<g id="Node000003" class="node">
<title>Node3</title>
<g id="a_Node000003"><a xlink:href="Logger_8h.html" target="_top" xlink:title="Provides logging functionality with different log levels for debugging and monitoring.">
<polygon fill="white" stroke="#666666" points="124,-74 66,-74 66,-55 124,-55 124,-74"/>
<text text-anchor="middle" x="95" y="-62" font-family="Helvetica,sans-Serif" font-size="10.00">Logger.h</text>
</a>
</g>
</g>
<!-- Node1&#45;&gt;Node3 -->
<g id="edge2_Node000001_Node000003" class="edge">
<title>Node1&#45;&gt;Node3</title>
<g id="a_edge2_Node000001_Node000003"><a xlink:title=" ">
<path fill="none" stroke="#63b8ff" d="M64.94,-109.75C69.98,-102.34 77.34,-91.5 83.51,-82.41"/>
<polygon fill="#63b8ff" stroke="#63b8ff" points="86.44,-84.33 89.17,-74.09 80.65,-80.39 86.44,-84.33"/>
</a>
</g>
</g>
<!-- Node4 -->
<g id="Node000004" class="node">
<title>Node4</title>
<g id="a_Node000004"><a xlink:title=" ">
<polygon fill="#e0e0e0" stroke="#999999" points="126.5,-19 63.5,-19 63.5,0 126.5,0 126.5,-19"/>
<text text-anchor="middle" x="95" y="-7" font-family="Helvetica,sans-Serif" font-size="10.00">Arduino.h</text>
</a>
</g>
</g>
<!-- Node3&#45;&gt;Node4 -->
<g id="edge3_Node000003_Node000004" class="edge">
<title>Node3&#45;&gt;Node4</title>
<g id="a_edge3_Node000003_Node000004"><a xlink:title=" ">
<path fill="none" stroke="#63b8ff" d="M95,-54.75C95,-47.8 95,-37.85 95,-29.13"/>
<polygon fill="#63b8ff" stroke="#63b8ff" points="98.5,-29.09 95,-19.09 91.5,-29.09 98.5,-29.09"/>
</a>
</g>
</g>
</g>
</svg>
