<?xml version="1.0" encoding="UTF-8" standalone="no"?>
<!DOCTYPE svg PUBLIC "-//W3C//DTD SVG 1.1//EN"
 "http://www.w3.org/Graphics/SVG/1.1/DTD/svg11.dtd">
<!-- Generated by graphviz version 2.43.0 (0)
 -->
<!-- Title: include/Logger.h Pages: 1 -->
<svg width="683pt" height="137pt"
 viewBox="0.00 0.00 682.50 137.00" xmlns="http://www.w3.org/2000/svg" xmlns:xlink="http://www.w3.org/1999/xlink">
<g id="graph0" class="graph" transform="scale(1 1) rotate(0) translate(4 133)">
<title>include/Logger.h</title>
<!-- Node1 -->
<g id="Node000001" class="node">
<title>Node1</title>
<g id="a_Node000001"><a xlink:title="Provides logging functionality with different log levels for debugging and monitoring.">
<polygon fill="#999999" stroke="#666666" points="363.5,-129 267.5,-129 267.5,-110 363.5,-110 363.5,-129"/>
<text text-anchor="middle" x="315.5" y="-117" font-family="Helvetica,sans-Serif" font-size="10.00">include/Logger.h</text>
</a>
</g>
</g>
<!-- Node2 -->
<g id="Node000002" class="node">
<title>Node2</title>
<g id="a_Node000002"><a xlink:href="DisplayManager_8h_source.html" target="_top" xlink:title=" ">
<polygon fill="white" stroke="#666666" points="200,-74 57,-74 57,-55 200,-55 200,-74"/>
<text text-anchor="middle" x="128.5" y="-62" font-family="Helvetica,sans-Serif" font-size="10.00">include/DisplayManager.h</text>
</a>
</g>
</g>
<!-- Node1&#45;&gt;Node2 -->
<g id="edge1_Node000001_Node000002" class="edge">
<title>Node1&#45;&gt;Node2</title>
<g id="a_edge1_Node000001_Node000002"><a xlink:title=" ">
<path fill="none" stroke="#63b8ff" d="M275.57,-107.18C240.6,-97.27 190.54,-83.08 158.78,-74.08"/>
<polygon fill="#63b8ff" stroke="#63b8ff" points="274.88,-110.63 285.46,-109.98 276.79,-103.89 274.88,-110.63"/>
</a>
</g>
</g>
<!-- Node3 -->
<g id="Node000003" class="node">
<title>Node3</title>
<g id="a_Node000003"><a xlink:href="DisplayManager_8cpp_source.html" target="_top" xlink:title=" ">
<polygon fill="white" stroke="#666666" points="133,-19 0,-19 0,0 133,0 133,-19"/>
<text text-anchor="middle" x="66.5" y="-7" font-family="Helvetica,sans-Serif" font-size="10.00">src/DisplayManager.cpp</text>
</a>
</g>
</g>
<!-- Node1&#45;&gt;Node3 -->
<g id="edge10_Node000001_Node000003" class="edge">
<title>Node1&#45;&gt;Node3</title>
<g id="a_edge10_Node000001_Node000003"><a xlink:title=" ">
<path fill="none" stroke="#63b8ff" d="M257.27,-117.3C186.67,-114.48 73.84,-105.08 47.5,-74 33.96,-58.02 49.27,-32.67 59.26,-19.35"/>
<polygon fill="#63b8ff" stroke="#63b8ff" points="257.24,-120.8 267.36,-117.67 257.5,-113.81 257.24,-120.8"/>
</a>
</g>
</g>
<!-- Node4 -->
<g id="Node000004" class="node">
<title>Node4</title>
<g id="a_Node000004"><a xlink:href="main_8cpp.html" target="_top" xlink:title="Main entry point for the CO2 Meter application.">
<polygon fill="white" stroke="#666666" points="268,-19 189,-19 189,0 268,0 268,-19"/>
<text text-anchor="middle" x="228.5" y="-7" font-family="Helvetica,sans-Serif" font-size="10.00">src/main.cpp</text>
</a>
</g>
</g>
<!-- Node1&#45;&gt;Node4 -->
<g id="edge13_Node000001_Node000004" class="edge">
<title>Node1&#45;&gt;Node4</title>
<g id="a_edge13_Node000001_Node000004"><a xlink:title=" ">
<path fill="none" stroke="#63b8ff" d="M286.14,-105.24C272.63,-97.81 257.44,-87.32 247.5,-74 234.98,-57.21 230.66,-32.2 229.21,-19.14"/>
<polygon fill="#63b8ff" stroke="#63b8ff" points="284.64,-108.41 295.13,-109.9 287.86,-102.2 284.64,-108.41"/>
</a>
</g>
</g>
<!-- Node5 -->
<g id="Node000005" class="node">
<title>Node5</title>
<g id="a_Node000005"><a xlink:href="I2CScanner_8h.html" target="_top" xlink:title="Provides functionality to scan the I2C bus for connected devices.">
<polygon fill="white" stroke="#666666" points="374.5,-74 256.5,-74 256.5,-55 374.5,-55 374.5,-74"/>
<text text-anchor="middle" x="315.5" y="-62" font-family="Helvetica,sans-Serif" font-size="10.00">include/I2CScanner.h</text>
</a>
</g>
</g>
<!-- Node1&#45;&gt;Node5 -->
<g id="edge4_Node000001_Node000005" class="edge">
<title>Node1&#45;&gt;Node5</title>
<g id="a_edge4_Node000001_Node000005"><a xlink:title=" ">
<path fill="none" stroke="#63b8ff" d="M315.5,-99.66C315.5,-90.93 315.5,-80.99 315.5,-74.09"/>
<polygon fill="#63b8ff" stroke="#63b8ff" points="312,-99.75 315.5,-109.75 319,-99.75 312,-99.75"/>
</a>
</g>
</g>
<!-- Node7 -->
<g id="Node000007" class="node">
<title>Node7</title>
<g id="a_Node000007"><a xlink:href="SensorManager_8h.html" target="_top" xlink:title="Manages the initialization, calibration, and data retrieval from sensors.">
<polygon fill="white" stroke="#666666" points="532,-74 393,-74 393,-55 532,-55 532,-74"/>
<text text-anchor="middle" x="462.5" y="-62" font-family="Helvetica,sans-Serif" font-size="10.00">include/SensorManager.h</text>
</a>
</g>
</g>
<!-- Node1&#45;&gt;Node7 -->
<g id="edge7_Node000001_Node000007" class="edge">
<title>Node1&#45;&gt;Node7</title>
<g id="a_edge7_Node000001_Node000007"><a xlink:title=" ">
<path fill="none" stroke="#63b8ff" d="M348.64,-106.55C375.94,-96.71 414,-82.98 438.45,-74.17"/>
<polygon fill="#63b8ff" stroke="#63b8ff" points="347.34,-103.3 339.12,-109.98 349.71,-109.89 347.34,-103.3"/>
</a>
</g>
</g>
<!-- Node8 -->
<g id="Node000008" class="node">
<title>Node8</title>
<g id="a_Node000008"><a xlink:href="SensorManager_8cpp.html" target="_top" xlink:title="Implements the functionality for managing the SCD30 and BMP280 sensors.">
<polygon fill="white" stroke="#666666" points="583,-19 454,-19 454,0 583,0 583,-19"/>
<text text-anchor="middle" x="518.5" y="-7" font-family="Helvetica,sans-Serif" font-size="10.00">src/SensorManager.cpp</text>
</a>
</g>
</g>
<!-- Node1&#45;&gt;Node8 -->
<g id="edge12_Node000001_Node000008" class="edge">
<title>Node1&#45;&gt;Node8</title>
<g id="a_edge12_Node000001_Node000008"><a xlink:title=" ">
<path fill="none" stroke="#63b8ff" d="M373.74,-115.22C433.52,-110.5 520.64,-99.37 541.5,-74 555.05,-57.52 537.71,-32.38 526.55,-19.22"/>
<polygon fill="#63b8ff" stroke="#63b8ff" points="373.37,-111.74 363.66,-115.98 373.9,-118.72 373.37,-111.74"/>
</a>
</g>
</g>
<!-- Node9 -->
<g id="Node000009" class="node">
<title>Node9</title>
<g id="a_Node000009"><a xlink:href="Logger_8cpp.html" target="_top" xlink:title="Implements logging functionality with different log levels for debugging and monitoring.">
<polygon fill="white" stroke="#666666" points="674.5,-74 588.5,-74 588.5,-55 674.5,-55 674.5,-74"/>
<text text-anchor="middle" x="631.5" y="-62" font-family="Helvetica,sans-Serif" font-size="10.00">src/Logger.cpp</text>
</a>
</g>
</g>
<!-- Node1&#45;&gt;Node9 -->
<g id="edge11_Node000001_Node000009" class="edge">
<title>Node1&#45;&gt;Node9</title>
<g id="a_edge11_Node000001_Node000009"><a xlink:title=" ">
<path fill="none" stroke="#63b8ff" d="M373.87,-108.71C435.94,-98.3 532.66,-82.08 588.25,-72.75"/>
<polygon fill="#63b8ff" stroke="#63b8ff" points="373.12,-105.29 363.84,-110.39 374.28,-112.19 373.12,-105.29"/>
</a>
</g>
</g>
<!-- Node2&#45;&gt;Node3 -->
<g id="edge2_Node000002_Node000003" class="edge">
<title>Node2&#45;&gt;Node3</title>
<g id="a_edge2_Node000002_Node000003"><a xlink:title=" ">
<path fill="none" stroke="#63b8ff" d="M110.75,-48.32C99.69,-38.87 85.87,-27.06 76.64,-19.17"/>
<polygon fill="#63b8ff" stroke="#63b8ff" points="108.66,-51.15 118.54,-54.98 113.21,-45.83 108.66,-51.15"/>
</a>
</g>
</g>
<!-- Node2&#45;&gt;Node4 -->
<g id="edge3_Node000002_Node000004" class="edge">
<title>Node2&#45;&gt;Node4</title>
<g id="a_edge3_Node000002_Node000004"><a xlink:title=" ">
<path fill="none" stroke="#63b8ff" d="M153.53,-50.23C171.87,-40.51 196.24,-27.6 212.14,-19.17"/>
<polygon fill="#63b8ff" stroke="#63b8ff" points="151.76,-47.21 144.57,-54.98 155.04,-53.39 151.76,-47.21"/>
</a>
</g>
</g>
<!-- Node5&#45;&gt;Node4 -->
<g id="edge6_Node000005_Node000004" class="edge">
<title>Node5&#45;&gt;Node4</title>
<g id="a_edge6_Node000005_Node000004"><a xlink:title=" ">
<path fill="none" stroke="#63b8ff" d="M292.84,-49.7C276.99,-40.04 256.31,-27.44 242.73,-19.17"/>
<polygon fill="#63b8ff" stroke="#63b8ff" points="291.16,-52.77 301.52,-54.98 294.8,-46.79 291.16,-52.77"/>
</a>
</g>
</g>
<!-- Node6 -->
<g id="Node000006" class="node">
<title>Node6</title>
<g id="a_Node000006"><a xlink:href="I2CScanner_8cpp_source.html" target="_top" xlink:title=" ">
<polygon fill="white" stroke="#666666" points="394.5,-19 286.5,-19 286.5,0 394.5,0 394.5,-19"/>
<text text-anchor="middle" x="340.5" y="-7" font-family="Helvetica,sans-Serif" font-size="10.00">src/I2CScanner.cpp</text>
</a>
</g>
</g>
<!-- Node5&#45;&gt;Node6 -->
<g id="edge5_Node000005_Node000006" class="edge">
<title>Node5&#45;&gt;Node6</title>
<g id="a_edge5_Node000005_Node000006"><a xlink:title=" ">
<path fill="none" stroke="#63b8ff" d="M323.98,-45.53C328.19,-36.6 333.09,-26.22 336.45,-19.09"/>
<polygon fill="#63b8ff" stroke="#63b8ff" points="320.73,-44.21 319.63,-54.75 327.06,-47.2 320.73,-44.21"/>
</a>
</g>
</g>
<!-- Node7&#45;&gt;Node4 -->
<g id="edge9_Node000007_Node000004" class="edge">
<title>Node7&#45;&gt;Node4</title>
<g id="a_edge9_Node000007_Node000004"><a xlink:title=" ">
<path fill="none" stroke="#63b8ff" d="M415.05,-52.75C371.2,-42.82 306.9,-28.26 266.39,-19.08"/>
<polygon fill="#63b8ff" stroke="#63b8ff" points="414.38,-56.19 424.9,-54.98 415.92,-49.36 414.38,-56.19"/>
</a>
</g>
</g>
<!-- Node7&#45;&gt;Node8 -->
<g id="edge8_Node000007_Node000008" class="edge">
<title>Node7&#45;&gt;Node8</title>
<g id="a_edge8_Node000007_Node000008"><a xlink:title=" ">
<path fill="none" stroke="#63b8ff" d="M478.83,-48.04C488.76,-38.64 501.09,-26.98 509.34,-19.17"/>
<polygon fill="#63b8ff" stroke="#63b8ff" points="476.35,-45.57 471.5,-54.98 481.17,-50.65 476.35,-45.57"/>
</a>
</g>
</g>
</g>
</svg>
