<?xml version="1.0" encoding="UTF-8" standalone="no"?>
<!DOCTYPE svg PUBLIC "-//W3C//DTD SVG 1.1//EN"
 "http://www.w3.org/Graphics/SVG/1.1/DTD/svg11.dtd">
<!-- Generated by graphviz version 2.43.0 (0)
 -->
<!-- Title: loop Pages: 1 -->
<svg width="586pt" height="427pt"
 viewBox="0.00 0.00 586.00 426.53" xmlns="http://www.w3.org/2000/svg" xmlns:xlink="http://www.w3.org/1999/xlink">
<g id="graph0" class="graph" transform="scale(1 1) rotate(0) translate(4 422.53)">
<title>loop</title>
<!-- Node1 -->
<g id="Node000001" class="node">
<title>Node1</title>
<g id="a_Node000001"><a xlink:title="Main loop for retrieving sensor data and updating the display.">
<polygon fill="#999999" stroke="#666666" points="38,-227.86 0,-227.86 0,-208.86 38,-208.86 38,-227.86"/>
<text text-anchor="middle" x="19" y="-215.86" font-family="Helvetica,sans-Serif" font-size="10.00">loop</text>
</a>
</g>
</g>
<!-- Node2 -->
<g id="Node000002" class="node">
<title>Node2</title>
<g id="a_Node000002"><a xlink:href="classLogger.html#abeffd58a6beace1b1c01a5324227fd83" target="_top" xlink:title="Logs a debug message.">
<polygon fill="white" stroke="#666666" points="432,-264.86 346,-264.86 346,-245.86 432,-245.86 432,-264.86"/>
<text text-anchor="middle" x="389" y="-252.86" font-family="Helvetica,sans-Serif" font-size="10.00">Logger::debug</text>
</a>
</g>
</g>
<!-- Node1&#45;&gt;Node2 -->
<g id="edge1_Node000001_Node000002" class="edge">
<title>Node1&#45;&gt;Node2</title>
<g id="a_edge1_Node000001_Node000002"><a xlink:title=" ">
<path fill="none" stroke="#63b8ff" d="M19.61,-228.09C19.01,-257.77 21.77,-347.35 74,-385.36 144.8,-436.87 191.02,-420.98 271,-385.36 322.59,-362.38 360.97,-304.18 378.11,-274.06"/>
<polygon fill="#63b8ff" stroke="#63b8ff" points="381.33,-275.46 383.09,-265.01 375.2,-272.08 381.33,-275.46"/>
</a>
</g>
</g>
<!-- Node4 -->
<g id="Node000004" class="node">
<title>Node4</title>
<g id="a_Node000004"><a xlink:href="classSensorManager.html#ad588608b06513ea5515ea42fac68582a" target="_top" xlink:title="Retrieves the current CO2 reading from the SCD30 sensor.">
<polygon fill="white" stroke="#666666" points="239.5,-375.86 105.5,-375.86 105.5,-356.86 239.5,-356.86 239.5,-375.86"/>
<text text-anchor="middle" x="172.5" y="-363.86" font-family="Helvetica,sans-Serif" font-size="10.00">SensorManager::getCO2</text>
</a>
</g>
</g>
<!-- Node1&#45;&gt;Node4 -->
<g id="edge3_Node000001_Node000004" class="edge">
<title>Node1&#45;&gt;Node4</title>
<g id="a_edge3_Node000001_Node000004"><a xlink:title=" ">
<path fill="none" stroke="#63b8ff" d="M20.94,-228.03C23.85,-252.45 35.04,-316.86 74,-348.36 80.42,-353.55 87.87,-357.43 95.72,-360.3"/>
<polygon fill="#63b8ff" stroke="#63b8ff" points="94.87,-363.71 105.46,-363.33 96.95,-357.02 94.87,-363.71"/>
</a>
</g>
</g>
<!-- Node5 -->
<g id="Node000005" class="node">
<title>Node5</title>
<g id="a_Node000005"><a xlink:href="classSensorManager.html#a9c953b446464788eaaceea974145cd1c" target="_top" xlink:title="Retrieves the current humidity reading from the SCD30 sensor.">
<polygon fill="white" stroke="#666666" points="252,-338.86 93,-338.86 93,-319.86 252,-319.86 252,-338.86"/>
<text text-anchor="middle" x="172.5" y="-326.86" font-family="Helvetica,sans-Serif" font-size="10.00">SensorManager::getHumidity</text>
</a>
</g>
</g>
<!-- Node1&#45;&gt;Node5 -->
<g id="edge4_Node000001_Node000005" class="edge">
<title>Node1&#45;&gt;Node5</title>
<g id="a_edge4_Node000001_Node000005"><a xlink:title=" ">
<path fill="none" stroke="#63b8ff" d="M22.67,-228.11C28.48,-247.41 44.24,-290.39 74,-311.36 77.07,-313.52 80.31,-315.44 83.69,-317.15"/>
<polygon fill="#63b8ff" stroke="#63b8ff" points="82.35,-320.38 92.91,-321.2 85.16,-313.97 82.35,-320.38"/>
</a>
</g>
</g>
<!-- Node6 -->
<g id="Node000006" class="node">
<title>Node6</title>
<g id="a_Node000006"><a xlink:href="classSensorManager.html#ab621f498c240f93c0d9a7e47cbb669c6" target="_top" xlink:title="Retrieves the current pressure reading from the BMP280 sensor.">
<polygon fill="white" stroke="#666666" points="250.5,-301.86 94.5,-301.86 94.5,-282.86 250.5,-282.86 250.5,-301.86"/>
<text text-anchor="middle" x="172.5" y="-289.86" font-family="Helvetica,sans-Serif" font-size="10.00">SensorManager::getPressure</text>
</a>
</g>
</g>
<!-- Node1&#45;&gt;Node6 -->
<g id="edge5_Node000001_Node000006" class="edge">
<title>Node1&#45;&gt;Node6</title>
<g id="a_edge5_Node000001_Node000006"><a xlink:title=" ">
<path fill="none" stroke="#63b8ff" d="M26.39,-228.05C35.39,-240.86 53.06,-263.11 74,-274.36 77.48,-276.23 81.13,-277.91 84.87,-279.42"/>
<polygon fill="#63b8ff" stroke="#63b8ff" points="83.77,-282.74 94.36,-282.83 86.13,-276.15 83.77,-282.74"/>
</a>
</g>
</g>
<!-- Node7 -->
<g id="Node000007" class="node">
<title>Node7</title>
<g id="a_Node000007"><a xlink:href="classSensorManager.html#aa4207d6b919d2deac9d8b95c6a36f8b9" target="_top" xlink:title="Retrieves the current temperature reading from the BMP280 sensor.">
<polygon fill="white" stroke="#666666" points="271,-264.86 74,-264.86 74,-245.86 271,-245.86 271,-264.86"/>
<text text-anchor="middle" x="172.5" y="-252.86" font-family="Helvetica,sans-Serif" font-size="10.00">SensorManager::getTemperatureBMP</text>
</a>
</g>
</g>
<!-- Node1&#45;&gt;Node7 -->
<g id="edge7_Node000001_Node000007" class="edge">
<title>Node1&#45;&gt;Node7</title>
<g id="a_edge7_Node000001_Node000007"><a xlink:title=" ">
<path fill="none" stroke="#63b8ff" d="M38.27,-225.59C48.63,-229.48 61.9,-234.13 74,-237.36 82.86,-239.72 92.24,-241.88 101.56,-243.81"/>
<polygon fill="#63b8ff" stroke="#63b8ff" points="101.12,-247.29 111.62,-245.83 102.5,-240.43 101.12,-247.29"/>
</a>
</g>
</g>
<!-- Node8 -->
<g id="Node000008" class="node">
<title>Node8</title>
<g id="a_Node000008"><a xlink:href="classSensorManager.html#af817648616e888ab2e88c9eaee153da3" target="_top" xlink:title="Retrieves the current temperature reading from the SCD30 sensor.">
<polygon fill="white" stroke="#666666" points="270.5,-227.86 74.5,-227.86 74.5,-208.86 270.5,-208.86 270.5,-227.86"/>
<text text-anchor="middle" x="172.5" y="-215.86" font-family="Helvetica,sans-Serif" font-size="10.00">SensorManager::getTemperatureSCD</text>
</a>
</g>
</g>
<!-- Node1&#45;&gt;Node8 -->
<g id="edge9_Node000001_Node000008" class="edge">
<title>Node1&#45;&gt;Node8</title>
<g id="a_edge9_Node000001_Node000008"><a xlink:title=" ">
<path fill="none" stroke="#63b8ff" d="M38.27,-218.36C45.53,-218.36 54.5,-218.36 64.33,-218.36"/>
<polygon fill="#63b8ff" stroke="#63b8ff" points="64.41,-221.86 74.41,-218.36 64.41,-214.86 64.41,-221.86"/>
</a>
</g>
</g>
<!-- Node9 -->
<g id="Node000009" class="node">
<title>Node9</title>
<g id="a_Node000009"><a xlink:href="classLogger.html#a0c5851d03ba2e560bfd57aeb713267b3" target="_top" xlink:title="Logs an informational message.">
<polygon fill="white" stroke="#666666" points="426,-152.86 352,-152.86 352,-133.86 426,-133.86 426,-152.86"/>
<text text-anchor="middle" x="389" y="-140.86" font-family="Helvetica,sans-Serif" font-size="10.00">Logger::info</text>
</a>
</g>
</g>
<!-- Node1&#45;&gt;Node9 -->
<g id="edge10_Node000001_Node000009" class="edge">
<title>Node1&#45;&gt;Node9</title>
<g id="a_edge10_Node000001_Node000009"><a xlink:title=" ">
<path fill="none" stroke="#63b8ff" d="M26.25,-208.47C35.09,-195.48 52.58,-173.16 74,-163.36 161.75,-123.21 277.93,-128.95 341.51,-136.36"/>
<polygon fill="#63b8ff" stroke="#63b8ff" points="341.27,-139.86 351.62,-137.61 342.12,-132.91 341.27,-139.86"/>
</a>
</g>
</g>
<!-- Node10 -->
<g id="Node000010" class="node">
<title>Node10</title>
<g id="a_Node000010"><a xlink:href="classSensorManager.html#a4fa7cbb9b36b933c0ca03553ba4db966" target="_top" xlink:title="Checks if new data is available from the sensors.">
<polygon fill="white" stroke="#666666" points="260,-190.86 85,-190.86 85,-171.86 260,-171.86 260,-190.86"/>
<text text-anchor="middle" x="172.5" y="-178.86" font-family="Helvetica,sans-Serif" font-size="10.00">SensorManager::isDataAvailable</text>
</a>
</g>
</g>
<!-- Node1&#45;&gt;Node10 -->
<g id="edge12_Node000001_Node000010" class="edge">
<title>Node1&#45;&gt;Node10</title>
<g id="a_edge12_Node000001_Node000010"><a xlink:title=" ">
<path fill="none" stroke="#63b8ff" d="M38.32,-211.6C48.69,-207.93 61.96,-203.52 74,-200.36 84.34,-197.64 95.4,-195.12 106.21,-192.87"/>
<polygon fill="#63b8ff" stroke="#63b8ff" points="106.94,-196.29 116.05,-190.88 105.55,-189.43 106.94,-196.29"/>
</a>
</g>
</g>
<!-- Node11 -->
<g id="Node000011" class="node">
<title>Node11</title>
<g id="a_Node000011"><a xlink:href="classDisplayManager.html#af8a5a8ee843f0ccc7bf50dc94ff2d529" target="_top" xlink:title="Displays a blinking warning message on the screen.">
<polygon fill="white" stroke="#666666" points="256,-115.36 89,-115.36 89,-85.36 256,-85.36 256,-115.36"/>
<text text-anchor="start" x="97" y="-103.36" font-family="Helvetica,sans-Serif" font-size="10.00">DisplayManager::showBlinking</text>
<text text-anchor="middle" x="172.5" y="-92.36" font-family="Helvetica,sans-Serif" font-size="10.00">Warning</text>
</a>
</g>
</g>
<!-- Node1&#45;&gt;Node11 -->
<g id="edge14_Node000001_Node000011" class="edge">
<title>Node1&#45;&gt;Node11</title>
<g id="a_edge14_Node000001_Node000011"><a xlink:title=" ">
<path fill="none" stroke="#63b8ff" d="M23.18,-208.71C29.72,-190.43 46.39,-150.67 74,-129.36 78.7,-125.73 83.85,-122.55 89.25,-119.77"/>
<polygon fill="#63b8ff" stroke="#63b8ff" points="90.94,-122.85 98.53,-115.46 87.99,-116.5 90.94,-122.85"/>
</a>
</g>
</g>
<!-- Node12 -->
<g id="Node000012" class="node">
<title>Node12</title>
<g id="a_Node000012"><a xlink:href="classDisplayManager.html#a430456b5a894ff7d63b62324007cb3ce" target="_top" xlink:title="Displays the normal screen with sensor readings.">
<polygon fill="white" stroke="#666666" points="471,-106.36 307,-106.36 307,-76.36 471,-76.36 471,-106.36"/>
<text text-anchor="start" x="315" y="-94.36" font-family="Helvetica,sans-Serif" font-size="10.00">DisplayManager::showNormal</text>
<text text-anchor="middle" x="389" y="-83.36" font-family="Helvetica,sans-Serif" font-size="10.00">Screen</text>
</a>
</g>
</g>
<!-- Node1&#45;&gt;Node12 -->
<g id="edge16_Node000001_Node000012" class="edge">
<title>Node1&#45;&gt;Node12</title>
<g id="a_edge16_Node000001_Node000012"><a xlink:title=" ">
<path fill="none" stroke="#63b8ff" d="M20.22,-208.54C21.42,-181.78 28.84,-107.5 74,-76.36 154.24,-21.03 275.33,-50.19 341.23,-72.89"/>
<polygon fill="#63b8ff" stroke="#63b8ff" points="340.34,-76.29 350.93,-76.32 342.67,-69.69 340.34,-76.29"/>
</a>
</g>
</g>
<!-- Node13 -->
<g id="Node000013" class="node">
<title>Node13</title>
<g id="a_Node000013"><a xlink:href="classLogger.html#a4d229b17ee039e273686455c74382ec6" target="_top" xlink:title="Logs a warning message.">
<polygon fill="white" stroke="#666666" points="436.5,-38.86 341.5,-38.86 341.5,-19.86 436.5,-19.86 436.5,-38.86"/>
<text text-anchor="middle" x="389" y="-26.86" font-family="Helvetica,sans-Serif" font-size="10.00">Logger::warning</text>
</a>
</g>
</g>
<!-- Node1&#45;&gt;Node13 -->
<g id="edge17_Node000001_Node000013" class="edge">
<title>Node1&#45;&gt;Node13</title>
<g id="a_edge17_Node000001_Node000013"><a xlink:title=" ">
<path fill="none" stroke="#63b8ff" d="M19.47,-208.59C18.41,-177.92 19.79,-83.12 74,-41.36 153.58,19.95 281.15,-0.73 346.49,-17.17"/>
<polygon fill="#63b8ff" stroke="#63b8ff" points="345.86,-20.63 356.42,-19.76 347.63,-13.85 345.86,-20.63"/>
</a>
</g>
</g>
<!-- Node3 -->
<g id="Node000003" class="node">
<title>Node3</title>
<g id="a_Node000003"><a xlink:href="classLogger.html#af0dc4ff68b6d37026b9f6c7a51da6aaa" target="_top" xlink:title="Logs a message if it meets the current log level.">
<polygon fill="white" stroke="#666666" points="578,-152.86 507,-152.86 507,-133.86 578,-133.86 578,-152.86"/>
<text text-anchor="middle" x="542.5" y="-140.86" font-family="Helvetica,sans-Serif" font-size="10.00">Logger::log</text>
</a>
</g>
</g>
<!-- Node2&#45;&gt;Node3 -->
<g id="edge2_Node000002_Node000003" class="edge">
<title>Node2&#45;&gt;Node3</title>
<g id="a_edge2_Node000002_Node000003"><a xlink:title=" ">
<path fill="none" stroke="#63b8ff" d="M402.92,-245.81C429.08,-226.47 488.55,-182.5 520.41,-158.95"/>
<polygon fill="#63b8ff" stroke="#63b8ff" points="522.66,-161.64 528.62,-152.88 518.49,-156.01 522.66,-161.64"/>
</a>
</g>
</g>
<!-- Node6&#45;&gt;Node2 -->
<g id="edge6_Node000006_Node000002" class="edge">
<title>Node6&#45;&gt;Node2</title>
<g id="a_edge6_Node000006_Node000002"><a xlink:title=" ">
<path fill="none" stroke="#63b8ff" d="M228.74,-282.83C261.67,-277.15 303.23,-269.98 335.64,-264.39"/>
<polygon fill="#63b8ff" stroke="#63b8ff" points="336.56,-267.78 345.82,-262.63 335.37,-260.89 336.56,-267.78"/>
</a>
</g>
</g>
<!-- Node7&#45;&gt;Node2 -->
<g id="edge8_Node000007_Node000002" class="edge">
<title>Node7&#45;&gt;Node2</title>
<g id="a_edge8_Node000007_Node000002"><a xlink:title=" ">
<path fill="none" stroke="#63b8ff" d="M271.02,-255.36C293.35,-255.36 316.24,-255.36 335.79,-255.36"/>
<polygon fill="#63b8ff" stroke="#63b8ff" points="335.98,-258.86 345.98,-255.36 335.98,-251.86 335.98,-258.86"/>
</a>
</g>
</g>
<!-- Node9&#45;&gt;Node3 -->
<g id="edge11_Node000009_Node000003" class="edge">
<title>Node9&#45;&gt;Node3</title>
<g id="a_edge11_Node000009_Node000003"><a xlink:title=" ">
<path fill="none" stroke="#63b8ff" d="M426.29,-143.36C447.37,-143.36 474.12,-143.36 496.53,-143.36"/>
<polygon fill="#63b8ff" stroke="#63b8ff" points="496.81,-146.86 506.81,-143.36 496.81,-139.86 496.81,-146.86"/>
</a>
</g>
</g>
<!-- Node10&#45;&gt;Node2 -->
<g id="edge13_Node000010_Node000002" class="edge">
<title>Node10&#45;&gt;Node2</title>
<g id="a_edge13_Node000010_Node000002"><a xlink:title=" ">
<path fill="none" stroke="#63b8ff" d="M234.69,-190.88C246.86,-193.44 259.44,-196.58 271,-200.36 303.63,-211.02 339.02,-228.57 362.24,-240.98"/>
<polygon fill="#63b8ff" stroke="#63b8ff" points="360.64,-244.09 371.1,-245.78 363.98,-237.94 360.64,-244.09"/>
</a>
</g>
</g>
<!-- Node11&#45;&gt;Node12 -->
<g id="edge15_Node000011_Node000012" class="edge">
<title>Node11&#45;&gt;Node12</title>
<g id="a_edge15_Node000011_Node000012"><a xlink:title=" ">
<path fill="none" stroke="#63b8ff" d="M256.12,-96.89C269.38,-96.34 283.18,-95.76 296.63,-95.19"/>
<polygon fill="#63b8ff" stroke="#63b8ff" points="296.99,-98.68 306.83,-94.76 296.69,-91.69 296.99,-98.68"/>
</a>
</g>
</g>
<!-- Node13&#45;&gt;Node3 -->
<g id="edge18_Node000013_Node000003" class="edge">
<title>Node13&#45;&gt;Node3</title>
<g id="a_edge18_Node000013_Node000003"><a xlink:title=" ">
<path fill="none" stroke="#63b8ff" d="M416.95,-38.96C433.42,-45.54 454.44,-55.27 471,-67.36 493.81,-84.02 515.15,-108.81 528.25,-125.51"/>
<polygon fill="#63b8ff" stroke="#63b8ff" points="525.77,-128.04 534.63,-133.85 531.33,-123.78 525.77,-128.04"/>
</a>
</g>
</g>
</g>
</svg>
