<?xml version="1.0" encoding="UTF-8" standalone="no"?>
<!DOCTYPE svg PUBLIC "-//W3C//DTD SVG 1.1//EN"
 "http://www.w3.org/Graphics/SVG/1.1/DTD/svg11.dtd">
<!-- Generated by graphviz version 2.43.0 (0)
 -->
<!-- Title: src/main.cpp Pages: 1 -->
<svg width="900pt" height="203pt"
 viewBox="0.00 0.00 899.50 203.00" xmlns="http://www.w3.org/2000/svg" xmlns:xlink="http://www.w3.org/1999/xlink">
<g id="graph0" class="graph" transform="scale(1 1) rotate(0) translate(4 199)">
<title>src/main.cpp</title>
<!-- Node1 -->
<g id="Node000001" class="node">
<title>Node1</title>
<g id="a_Node000001"><a xlink:title="Main entry point for the CO2 Meter application.">
<polygon fill="#999999" stroke="#666666" points="495.5,-195 416.5,-195 416.5,-176 495.5,-176 495.5,-195"/>
<text text-anchor="middle" x="456" y="-183" font-family="Helvetica,sans-Serif" font-size="10.00">src/main.cpp</text>
</a>
</g>
</g>
<!-- Node2 -->
<g id="Node000002" class="node">
<title>Node2</title>
<g id="a_Node000002"><a xlink:title=" ">
<polygon fill="#e0e0e0" stroke="#999999" points="410,-79.5 362,-79.5 362,-60.5 410,-60.5 410,-79.5"/>
<text text-anchor="middle" x="386" y="-67.5" font-family="Helvetica,sans-Serif" font-size="10.00">Wire.h</text>
</a>
</g>
</g>
<!-- Node1&#45;&gt;Node2 -->
<g id="edge1_Node000001_Node000002" class="edge">
<title>Node1&#45;&gt;Node2</title>
<g id="a_edge1_Node000001_Node000002"><a xlink:title=" ">
<path fill="none" stroke="#63b8ff" d="M422.98,-175.87C404.82,-169.26 383.83,-158.1 373,-140 363.64,-124.36 369.65,-103.46 376.26,-88.77"/>
<polygon fill="#63b8ff" stroke="#63b8ff" points="379.44,-90.25 380.76,-79.74 373.17,-87.13 379.44,-90.25"/>
</a>
</g>
</g>
<!-- Node3 -->
<g id="Node000003" class="node">
<title>Node3</title>
<g id="a_Node000003"><a xlink:title=" ">
<polygon fill="#e0e0e0" stroke="#999999" points="806,-140 716,-140 716,-121 806,-121 806,-140"/>
<text text-anchor="middle" x="761" y="-128" font-family="Helvetica,sans-Serif" font-size="10.00">Adafruit_GFX.h</text>
</a>
</g>
</g>
<!-- Node1&#45;&gt;Node3 -->
<g id="edge2_Node000001_Node000003" class="edge">
<title>Node1&#45;&gt;Node3</title>
<g id="a_edge2_Node000001_Node000003"><a xlink:title=" ">
<path fill="none" stroke="#63b8ff" d="M495.56,-177.63C549.12,-168.32 644.96,-151.66 705.64,-141.12"/>
<polygon fill="#63b8ff" stroke="#63b8ff" points="706.55,-144.51 715.8,-139.35 705.35,-137.62 706.55,-144.51"/>
</a>
</g>
</g>
<!-- Node4 -->
<g id="Node000004" class="node">
<title>Node4</title>
<g id="a_Node000004"><a xlink:title=" ">
<polygon fill="#e0e0e0" stroke="#999999" points="655.5,-79.5 542.5,-79.5 542.5,-60.5 655.5,-60.5 655.5,-79.5"/>
<text text-anchor="middle" x="599" y="-67.5" font-family="Helvetica,sans-Serif" font-size="10.00">Adafruit_SSD1306.h</text>
</a>
</g>
</g>
<!-- Node1&#45;&gt;Node4 -->
<g id="edge3_Node000001_Node000004" class="edge">
<title>Node1&#45;&gt;Node4</title>
<g id="a_edge3_Node000001_Node000004"><a xlink:title=" ">
<path fill="none" stroke="#63b8ff" d="M495.63,-180.04C541.99,-173.91 614.55,-161.16 631,-140 643.58,-123.82 629.14,-101.88 615.81,-87.13"/>
<polygon fill="#63b8ff" stroke="#63b8ff" points="618.17,-84.53 608.71,-79.75 613.13,-89.38 618.17,-84.53"/>
</a>
</g>
</g>
<!-- Node5 -->
<g id="Node000005" class="node">
<title>Node5</title>
<g id="a_Node000005"><a xlink:title=" ">
<polygon fill="#e0e0e0" stroke="#999999" points="110,-79.5 0,-79.5 0,-60.5 110,-60.5 110,-79.5"/>
<text text-anchor="middle" x="55" y="-67.5" font-family="Helvetica,sans-Serif" font-size="10.00">Adafruit_BMP280.h</text>
</a>
</g>
</g>
<!-- Node1&#45;&gt;Node5 -->
<g id="edge4_Node000001_Node000005" class="edge">
<title>Node1&#45;&gt;Node5</title>
<g id="a_edge4_Node000001_Node000005"><a xlink:title=" ">
<path fill="none" stroke="#63b8ff" d="M416.12,-183.27C359.37,-180.42 252.81,-171.03 168,-140 132.14,-126.88 95.24,-101.73 73.75,-85.69"/>
<polygon fill="#63b8ff" stroke="#63b8ff" points="75.86,-82.91 65.79,-79.64 71.63,-88.48 75.86,-82.91"/>
</a>
</g>
</g>
<!-- Node6 -->
<g id="Node000006" class="node">
<title>Node6</title>
<g id="a_Node000006"><a xlink:title=" ">
<polygon fill="#e0e0e0" stroke="#999999" points="270,-85 128,-85 128,-55 270,-55 270,-85"/>
<text text-anchor="start" x="136" y="-73" font-family="Helvetica,sans-Serif" font-size="10.00">SparkFun_SCD30_Arduino</text>
<text text-anchor="middle" x="199" y="-62" font-family="Helvetica,sans-Serif" font-size="10.00">_Library.h</text>
</a>
</g>
</g>
<!-- Node1&#45;&gt;Node6 -->
<g id="edge5_Node000001_Node000006" class="edge">
<title>Node1&#45;&gt;Node6</title>
<g id="a_edge5_Node000001_Node000006"><a xlink:title=" ">
<path fill="none" stroke="#63b8ff" d="M416.23,-184.23C346.65,-182.81 207.28,-175.5 177,-140 165.92,-127.01 172.79,-108.38 181.68,-93.76"/>
<polygon fill="#63b8ff" stroke="#63b8ff" points="184.71,-95.52 187.33,-85.25 178.88,-91.64 184.71,-95.52"/>
</a>
</g>
</g>
<!-- Node7 -->
<g id="Node000007" class="node">
<title>Node7</title>
<g id="a_Node000007"><a xlink:title=" ">
<polygon fill="#e0e0e0" stroke="#999999" points="891.5,-140 824.5,-140 824.5,-121 891.5,-121 891.5,-140"/>
<text text-anchor="middle" x="858" y="-128" font-family="Helvetica,sans-Serif" font-size="10.00">EEPROM.h</text>
</a>
</g>
</g>
<!-- Node1&#45;&gt;Node7 -->
<g id="edge6_Node000001_Node000007" class="edge">
<title>Node1&#45;&gt;Node7</title>
<g id="a_edge6_Node000001_Node000007"><a xlink:title=" ">
<path fill="none" stroke="#63b8ff" d="M495.71,-180.52C560.29,-173.84 692.31,-159.34 814.35,-139.99"/>
<polygon fill="#63b8ff" stroke="#63b8ff" points="814.92,-143.45 824.24,-138.41 813.81,-136.54 814.92,-143.45"/>
</a>
</g>
</g>
<!-- Node8 -->
<g id="Node000008" class="node">
<title>Node8</title>
<g id="a_Node000008"><a xlink:href="config_8h_source.html" target="_top" xlink:title=" ">
<polygon fill="white" stroke="#666666" points="343.5,-79.5 288.5,-79.5 288.5,-60.5 343.5,-60.5 343.5,-79.5"/>
<text text-anchor="middle" x="316" y="-67.5" font-family="Helvetica,sans-Serif" font-size="10.00">config.h</text>
</a>
</g>
</g>
<!-- Node1&#45;&gt;Node8 -->
<g id="edge7_Node000001_Node000008" class="edge">
<title>Node1&#45;&gt;Node8</title>
<g id="a_edge7_Node000001_Node000008"><a xlink:title=" ">
<path fill="none" stroke="#63b8ff" d="M430.47,-175.97C411.05,-168.59 384.44,-156.51 365,-140 347.91,-125.49 333.79,-103.76 325.16,-88.58"/>
<polygon fill="#63b8ff" stroke="#63b8ff" points="328.18,-86.79 320.32,-79.69 322.03,-90.14 328.18,-86.79"/>
</a>
</g>
</g>
<!-- Node9 -->
<g id="Node000009" class="node">
<title>Node9</title>
<g id="a_Node000009"><a xlink:href="DisplayManager_8h_source.html" target="_top" xlink:title=" ">
<polygon fill="white" stroke="#666666" points="622,-140 518,-140 518,-121 622,-121 622,-140"/>
<text text-anchor="middle" x="570" y="-128" font-family="Helvetica,sans-Serif" font-size="10.00">DisplayManager.h</text>
</a>
</g>
</g>
<!-- Node1&#45;&gt;Node9 -->
<g id="edge8_Node000001_Node000009" class="edge">
<title>Node1&#45;&gt;Node9</title>
<g id="a_edge8_Node000001_Node000009"><a xlink:title=" ">
<path fill="none" stroke="#63b8ff" d="M474.32,-175.98C492.66,-167.46 521.11,-154.23 542.23,-144.41"/>
<polygon fill="#63b8ff" stroke="#63b8ff" points="543.76,-147.56 551.35,-140.17 540.81,-141.21 543.76,-147.56"/>
</a>
</g>
</g>
<!-- Node10 -->
<g id="Node000010" class="node">
<title>Node10</title>
<g id="a_Node000010"><a xlink:href="Logger_8h.html" target="_top" xlink:title="Provides logging functionality with different log levels for debugging and monitoring.">
<polygon fill="white" stroke="#666666" points="519,-79.5 461,-79.5 461,-60.5 519,-60.5 519,-79.5"/>
<text text-anchor="middle" x="490" y="-67.5" font-family="Helvetica,sans-Serif" font-size="10.00">Logger.h</text>
</a>
</g>
</g>
<!-- Node1&#45;&gt;Node10 -->
<g id="edge18_Node000001_Node000010" class="edge">
<title>Node1&#45;&gt;Node10</title>
<g id="a_edge18_Node000001_Node000010"><a xlink:title=" ">
<path fill="none" stroke="#63b8ff" d="M459.14,-175.68C462.28,-166.74 467.18,-152.47 471,-140 476.22,-122.94 481.56,-103.3 485.25,-89.35"/>
<polygon fill="#63b8ff" stroke="#63b8ff" points="488.67,-90.1 487.81,-79.54 481.9,-88.33 488.67,-90.1"/>
</a>
</g>
</g>
<!-- Node11 -->
<g id="Node000011" class="node">
<title>Node11</title>
<g id="a_Node000011"><a xlink:title=" ">
<polygon fill="#e0e0e0" stroke="#999999" points="620.5,-19 557.5,-19 557.5,0 620.5,0 620.5,-19"/>
<text text-anchor="middle" x="589" y="-7" font-family="Helvetica,sans-Serif" font-size="10.00">Arduino.h</text>
</a>
</g>
</g>
<!-- Node1&#45;&gt;Node11 -->
<g id="edge19_Node000001_Node000011" class="edge">
<title>Node1&#45;&gt;Node11</title>
<g id="a_edge19_Node000001_Node000011"><a xlink:title=" ">
<path fill="none" stroke="#63b8ff" d="M495.51,-179.89C544.77,-173.38 625.16,-160.01 647,-140 675.47,-113.91 684.21,-88.5 665,-55 656.64,-40.42 641.45,-30.16 626.83,-23.19"/>
<polygon fill="#63b8ff" stroke="#63b8ff" points="627.95,-19.86 617.39,-19.08 625.16,-26.28 627.95,-19.86"/>
</a>
</g>
</g>
<!-- Node12 -->
<g id="Node000012" class="node">
<title>Node12</title>
<g id="a_Node000012"><a xlink:href="SensorManager_8h.html" target="_top" xlink:title="Manages the initialization, calibration, and data retrieval from sensors.">
<polygon fill="white" stroke="#666666" points="287.5,-140 186.5,-140 186.5,-121 287.5,-121 287.5,-140"/>
<text text-anchor="middle" x="237" y="-128" font-family="Helvetica,sans-Serif" font-size="10.00">SensorManager.h</text>
</a>
</g>
</g>
<!-- Node1&#45;&gt;Node12 -->
<g id="edge12_Node000001_Node000012" class="edge">
<title>Node1&#45;&gt;Node12</title>
<g id="a_edge12_Node000001_Node000012"><a xlink:title=" ">
<path fill="none" stroke="#63b8ff" d="M420.81,-175.98C383.17,-166.87 323.34,-152.4 282.23,-142.45"/>
<polygon fill="#63b8ff" stroke="#63b8ff" points="283,-139.03 272.46,-140.08 281.36,-145.84 283,-139.03"/>
</a>
</g>
</g>
<!-- Node13 -->
<g id="Node000013" class="node">
<title>Node13</title>
<g id="a_Node000013"><a xlink:href="I2CScanner_8h.html" target="_top" xlink:title="Provides functionality to scan the I2C bus for connected devices.">
<polygon fill="white" stroke="#666666" points="462,-140 382,-140 382,-121 462,-121 462,-140"/>
<text text-anchor="middle" x="422" y="-128" font-family="Helvetica,sans-Serif" font-size="10.00">I2CScanner.h</text>
</a>
</g>
</g>
<!-- Node1&#45;&gt;Node13 -->
<g id="edge20_Node000001_Node000013" class="edge">
<title>Node1&#45;&gt;Node13</title>
<g id="a_edge20_Node000001_Node000013"><a xlink:title=" ">
<path fill="none" stroke="#63b8ff" d="M450.39,-175.75C445.68,-168.42 438.83,-157.73 433.03,-148.7"/>
<polygon fill="#63b8ff" stroke="#63b8ff" points="435.86,-146.62 427.51,-140.09 429.96,-150.4 435.86,-146.62"/>
</a>
</g>
</g>
<!-- Node9&#45;&gt;Node4 -->
<g id="edge9_Node000009_Node000004" class="edge">
<title>Node9&#45;&gt;Node4</title>
<g id="a_edge9_Node000009_Node000004"><a xlink:title=" ">
<path fill="none" stroke="#63b8ff" d="M574.28,-120.87C578.43,-112.49 584.87,-99.51 590.13,-88.89"/>
<polygon fill="#63b8ff" stroke="#63b8ff" points="593.4,-90.18 594.7,-79.67 587.13,-87.07 593.4,-90.18"/>
</a>
</g>
</g>
<!-- Node9&#45;&gt;Node10 -->
<g id="edge10_Node000009_Node000010" class="edge">
<title>Node9&#45;&gt;Node10</title>
<g id="a_edge10_Node000009_Node000010"><a xlink:title=" ">
<path fill="none" stroke="#63b8ff" d="M558.2,-120.87C545.55,-111.62 525.26,-96.78 510.09,-85.69"/>
<polygon fill="#63b8ff" stroke="#63b8ff" points="511.99,-82.74 501.85,-79.67 507.86,-88.4 511.99,-82.74"/>
</a>
</g>
</g>
<!-- Node10&#45;&gt;Node11 -->
<g id="edge11_Node000010_Node000011" class="edge">
<title>Node10&#45;&gt;Node11</title>
<g id="a_edge11_Node000010_Node000011"><a xlink:title=" ">
<path fill="none" stroke="#63b8ff" d="M504.61,-60.37C520.69,-50.86 546.78,-35.45 565.7,-24.27"/>
<polygon fill="#63b8ff" stroke="#63b8ff" points="567.5,-27.27 574.33,-19.17 563.94,-21.24 567.5,-27.27"/>
</a>
</g>
</g>
<!-- Node12&#45;&gt;Node2 -->
<g id="edge16_Node000012_Node000002" class="edge">
<title>Node12&#45;&gt;Node2</title>
<g id="a_edge16_Node000012_Node000002"><a xlink:title=" ">
<path fill="none" stroke="#63b8ff" d="M259.53,-120.94C282.76,-112.09 319.99,-97.78 352,-85 353.37,-84.45 354.77,-83.89 356.19,-83.32"/>
<polygon fill="#63b8ff" stroke="#63b8ff" points="357.59,-86.53 365.53,-79.51 354.95,-80.04 357.59,-86.53"/>
</a>
</g>
</g>
<!-- Node12&#45;&gt;Node5 -->
<g id="edge15_Node000012_Node000005" class="edge">
<title>Node12&#45;&gt;Node5</title>
<g id="a_edge15_Node000012_Node000005"><a xlink:title=" ">
<path fill="none" stroke="#63b8ff" d="M210.54,-120.99C179.13,-110.9 126.6,-94.01 91.38,-82.69"/>
<polygon fill="#63b8ff" stroke="#63b8ff" points="92.09,-79.24 81.5,-79.52 89.95,-85.91 92.09,-79.24"/>
</a>
</g>
</g>
<!-- Node12&#45;&gt;Node6 -->
<g id="edge14_Node000012_Node000006" class="edge">
<title>Node12&#45;&gt;Node6</title>
<g id="a_edge14_Node000012_Node000006"><a xlink:title=" ">
<path fill="none" stroke="#63b8ff" d="M231.39,-120.87C226.76,-113.74 219.97,-103.28 213.8,-93.79"/>
<polygon fill="#63b8ff" stroke="#63b8ff" points="216.55,-91.59 208.17,-85.11 210.68,-95.41 216.55,-91.59"/>
</a>
</g>
</g>
<!-- Node12&#45;&gt;Node8 -->
<g id="edge17_Node000012_Node000008" class="edge">
<title>Node12&#45;&gt;Node8</title>
<g id="a_edge17_Node000012_Node000008"><a xlink:title=" ">
<path fill="none" stroke="#63b8ff" d="M248.66,-120.87C261.14,-111.62 281.18,-96.78 296.16,-85.69"/>
<polygon fill="#63b8ff" stroke="#63b8ff" points="298.34,-88.43 304.3,-79.67 294.18,-82.81 298.34,-88.43"/>
</a>
</g>
</g>
<!-- Node12&#45;&gt;Node10 -->
<g id="edge13_Node000012_Node000010" class="edge">
<title>Node12&#45;&gt;Node10</title>
<g id="a_edge13_Node000012_Node000010"><a xlink:title=" ">
<path fill="none" stroke="#63b8ff" d="M273.79,-120.99C321,-110.08 402.56,-91.22 450.88,-80.05"/>
<polygon fill="#63b8ff" stroke="#63b8ff" points="451.7,-83.45 460.66,-77.78 450.13,-76.63 451.7,-83.45"/>
</a>
</g>
</g>
<!-- Node13&#45;&gt;Node2 -->
<g id="edge21_Node000013_Node000002" class="edge">
<title>Node13&#45;&gt;Node2</title>
<g id="a_edge21_Node000013_Node000002"><a xlink:title=" ">
<path fill="none" stroke="#63b8ff" d="M416.69,-120.87C411.42,-112.31 403.21,-98.97 396.61,-88.24"/>
<polygon fill="#63b8ff" stroke="#63b8ff" points="399.56,-86.35 391.33,-79.67 393.59,-90.02 399.56,-86.35"/>
</a>
</g>
</g>
<!-- Node13&#45;&gt;Node10 -->
<g id="edge22_Node000013_Node000010" class="edge">
<title>Node13&#45;&gt;Node10</title>
<g id="a_edge22_Node000013_Node000010"><a xlink:title=" ">
<path fill="none" stroke="#63b8ff" d="M432.03,-120.87C442.58,-111.8 459.39,-97.34 472.19,-86.32"/>
<polygon fill="#63b8ff" stroke="#63b8ff" points="474.63,-88.84 479.93,-79.67 470.06,-83.54 474.63,-88.84"/>
</a>
</g>
</g>
</g>
</svg>
