<?xml version="1.0" encoding="UTF-8" standalone="no"?>
<!DOCTYPE svg PUBLIC "-//W3C//DTD SVG 1.1//EN"
 "http://www.w3.org/Graphics/SVG/1.1/DTD/svg11.dtd">
<!-- Generated by graphviz version 2.43.0 (0)
 -->
<!-- Title: setup Pages: 1 -->
<svg width="698pt" height="454pt"
 viewBox="0.00 0.00 698.00 454.01" xmlns="http://www.w3.org/2000/svg" xmlns:xlink="http://www.w3.org/1999/xlink">
<g id="graph0" class="graph" transform="scale(1 1) rotate(0) translate(4 450.01)">
<title>setup</title>
<!-- Node1 -->
<g id="Node000001" class="node">
<title>Node1</title>
<g id="a_Node000001"><a xlink:title="Initializes the system, including the display, sensors, and logger.">
<polygon fill="#999999" stroke="#666666" points="44,-199 0,-199 0,-180 44,-180 44,-199"/>
<text text-anchor="middle" x="22" y="-187" font-family="Helvetica,sans-Serif" font-size="10.00">setup</text>
</a>
</g>
</g>
<!-- Node2 -->
<g id="Node000002" class="node">
<title>Node2</title>
<g id="a_Node000002"><a xlink:href="classSensorManager.html#a9daa366f758f7419ab22fb3c243801fe" target="_top" xlink:title="Checks if the SCD30 sensor needs calibration and performs calibration if necessary.">
<polygon fill="white" stroke="#666666" points="270,-267.5 80,-267.5 80,-237.5 270,-237.5 270,-267.5"/>
<text text-anchor="start" x="88" y="-255.5" font-family="Helvetica,sans-Serif" font-size="10.00">SensorManager::checkAndCalibrate</text>
<text text-anchor="middle" x="175" y="-244.5" font-family="Helvetica,sans-Serif" font-size="10.00">SCD30</text>
</a>
</g>
</g>
<!-- Node1&#45;&gt;Node2 -->
<g id="edge1_Node000001_Node000002" class="edge">
<title>Node1&#45;&gt;Node2</title>
<g id="a_edge1_Node000001_Node000002"><a xlink:title=" ">
<path fill="none" stroke="#63b8ff" d="M37.01,-199.15C48.25,-206.57 64.63,-216.66 80,-223.5 88.8,-227.42 98.29,-231.01 107.73,-234.24"/>
<polygon fill="#63b8ff" stroke="#63b8ff" points="106.93,-237.66 117.52,-237.47 109.12,-231.02 106.93,-237.66"/>
</a>
</g>
</g>
<!-- Node4 -->
<g id="Node000004" class="node">
<title>Node4</title>
<g id="a_Node000004"><a xlink:href="classLogger.html#ac862952b8ffa9de295a496af0108785c" target="_top" xlink:title="Logs an error message.">
<polygon fill="white" stroke="#666666" points="579.5,-343 500.5,-343 500.5,-324 579.5,-324 579.5,-343"/>
<text text-anchor="middle" x="540" y="-331" font-family="Helvetica,sans-Serif" font-size="10.00">Logger::error</text>
</a>
</g>
</g>
<!-- Node1&#45;&gt;Node4 -->
<g id="edge10_Node000001_Node000004" class="edge">
<title>Node1&#45;&gt;Node4</title>
<g id="a_edge10_Node000001_Node000004"><a xlink:title=" ">
<path fill="none" stroke="#63b8ff" d="M22.97,-199.2C23.43,-228.84 29.14,-318.82 80,-362.5 209.1,-473.37 301.43,-459.63 461,-400.5 487.51,-390.68 511.08,-367.36 525.19,-351.01"/>
<polygon fill="#63b8ff" stroke="#63b8ff" points="527.98,-353.13 531.68,-343.2 522.6,-348.66 527.98,-353.13"/>
</a>
</g>
</g>
<!-- Node6 -->
<g id="Node000006" class="node">
<title>Node6</title>
<g id="a_Node000006"><a xlink:href="classLogger.html#a0c5851d03ba2e560bfd57aeb713267b3" target="_top" xlink:title="Logs an informational message.">
<polygon fill="white" stroke="#666666" points="577,-238 503,-238 503,-219 577,-219 577,-238"/>
<text text-anchor="middle" x="540" y="-226" font-family="Helvetica,sans-Serif" font-size="10.00">Logger::info</text>
</a>
</g>
</g>
<!-- Node1&#45;&gt;Node6 -->
<g id="edge11_Node000001_Node000006" class="edge">
<title>Node1&#45;&gt;Node6</title>
<g id="a_edge11_Node000001_Node000006"><a xlink:title=" ">
<path fill="none" stroke="#63b8ff" d="M44.19,-191.1C120.81,-196.89 384.65,-216.83 492.5,-224.99"/>
<polygon fill="#63b8ff" stroke="#63b8ff" points="492.51,-228.5 502.75,-225.76 493.04,-221.52 492.51,-228.5"/>
</a>
</g>
</g>
<!-- Node7 -->
<g id="Node000007" class="node">
<title>Node7</title>
<g id="a_Node000007"><a xlink:href="classLogger.html#abeffd58a6beace1b1c01a5324227fd83" target="_top" xlink:title="Logs a debug message.">
<polygon fill="white" stroke="#666666" points="583,-98 497,-98 497,-79 583,-79 583,-98"/>
<text text-anchor="middle" x="540" y="-86" font-family="Helvetica,sans-Serif" font-size="10.00">Logger::debug</text>
</a>
</g>
</g>
<!-- Node1&#45;&gt;Node7 -->
<g id="edge8_Node000001_Node000007" class="edge">
<title>Node1&#45;&gt;Node7</title>
<g id="a_edge8_Node000001_Node000007"><a xlink:title=" ">
<path fill="none" stroke="#63b8ff" d="M24.02,-179.82C27.16,-155.46 39.11,-91.71 80,-65.5 151.28,-19.81 377.16,-54.68 461,-66.5 474.63,-68.42 489.24,-72.09 502.08,-75.89"/>
<polygon fill="#63b8ff" stroke="#63b8ff" points="501.36,-79.33 511.95,-78.93 503.43,-72.64 501.36,-79.33"/>
</a>
</g>
</g>
<!-- Node8 -->
<g id="Node000008" class="node">
<title>Node8</title>
<g id="a_Node000008"><a xlink:href="classDisplayManager.html#aeb1c8224403ea2595f202e5d93380609" target="_top" xlink:title="Initializes the OLED display.">
<polygon fill="white" stroke="#666666" points="455.5,-343 311.5,-343 311.5,-324 455.5,-324 455.5,-343"/>
<text text-anchor="middle" x="383.5" y="-331" font-family="Helvetica,sans-Serif" font-size="10.00">DisplayManager::initialize</text>
</a>
</g>
</g>
<!-- Node1&#45;&gt;Node8 -->
<g id="edge12_Node000001_Node000008" class="edge">
<title>Node1&#45;&gt;Node8</title>
<g id="a_edge12_Node000001_Node000008"><a xlink:title=" ">
<path fill="none" stroke="#63b8ff" d="M26.39,-199.2C33.34,-217.53 51.01,-257.15 80,-276.5 145.61,-320.29 236.13,-332.53 301.01,-335.05"/>
<polygon fill="#63b8ff" stroke="#63b8ff" points="301.09,-338.55 311.2,-335.37 301.32,-331.56 301.09,-338.55"/>
</a>
</g>
</g>
<!-- Node9 -->
<g id="Node000009" class="node">
<title>Node9</title>
<g id="a_Node000009"><a xlink:href="classSensorManager.html#aded8aff6d741a64d0c34668a0694dd3d" target="_top" xlink:title="Initializes the SCD30 and BMP280 sensors.">
<polygon fill="white" stroke="#666666" points="453.5,-391.5 313.5,-391.5 313.5,-361.5 453.5,-361.5 453.5,-391.5"/>
<text text-anchor="start" x="321.5" y="-379.5" font-family="Helvetica,sans-Serif" font-size="10.00">SensorManager::initialize</text>
<text text-anchor="middle" x="383.5" y="-368.5" font-family="Helvetica,sans-Serif" font-size="10.00">Sensors</text>
</a>
</g>
</g>
<!-- Node1&#45;&gt;Node9 -->
<g id="edge15_Node000001_Node000009" class="edge">
<title>Node1&#45;&gt;Node9</title>
<g id="a_edge15_Node000001_Node000009"><a xlink:title=" ">
<path fill="none" stroke="#63b8ff" d="M24.21,-199.1C27.8,-223.33 40.72,-287.25 80,-318.5 143.06,-368.67 236.69,-379.87 303.06,-380.6"/>
<polygon fill="#63b8ff" stroke="#63b8ff" points="303.45,-384.1 313.46,-380.63 303.47,-377.1 303.45,-384.1"/>
</a>
</g>
</g>
<!-- Node10 -->
<g id="Node000010" class="node">
<title>Node10</title>
<g id="a_Node000010"><a xlink:href="classDisplayManager.html#a2d6f5efef5cb7e03c820ab14c4adc217" target="_top" xlink:title="Runs a display check to verify the OLED functionality.">
<polygon fill="white" stroke="#666666" points="461,-181.5 306,-181.5 306,-151.5 461,-151.5 461,-181.5"/>
<text text-anchor="start" x="314" y="-169.5" font-family="Helvetica,sans-Serif" font-size="10.00">DisplayManager::runDisplay</text>
<text text-anchor="middle" x="383.5" y="-158.5" font-family="Helvetica,sans-Serif" font-size="10.00">Check</text>
</a>
</g>
</g>
<!-- Node1&#45;&gt;Node10 -->
<g id="edge18_Node000001_Node000010" class="edge">
<title>Node1&#45;&gt;Node10</title>
<g id="a_edge18_Node000001_Node000010"><a xlink:title=" ">
<path fill="none" stroke="#63b8ff" d="M44.15,-188.15C92.26,-185.07 212.19,-177.4 295.5,-172.07"/>
<polygon fill="#63b8ff" stroke="#63b8ff" points="295.97,-175.54 305.73,-171.41 295.52,-168.56 295.97,-175.54"/>
</a>
</g>
</g>
<!-- Node11 -->
<g id="Node000011" class="node">
<title>Node11</title>
<g id="a_Node000011"><a xlink:href="classI2CScanner.html#ad3b7b4bc25e6c1e8b89e702862a56af5" target="_top" xlink:title="Scans the I2C bus for connected devices.">
<polygon fill="white" stroke="#666666" points="225,-133 125,-133 125,-114 225,-114 225,-133"/>
<text text-anchor="middle" x="175" y="-121" font-family="Helvetica,sans-Serif" font-size="10.00">I2CScanner::scan</text>
</a>
</g>
</g>
<!-- Node1&#45;&gt;Node11 -->
<g id="edge20_Node000001_Node000011" class="edge">
<title>Node1&#45;&gt;Node11</title>
<g id="a_edge20_Node000001_Node000011"><a xlink:title=" ">
<path fill="none" stroke="#63b8ff" d="M36.55,-179.93C47.8,-172.3 64.41,-161.74 80,-154.5 95.34,-147.38 112.78,-141.15 128.44,-136.18"/>
<polygon fill="#63b8ff" stroke="#63b8ff" points="129.91,-139.39 138.44,-133.1 127.85,-132.7 129.91,-139.39"/>
</a>
</g>
</g>
<!-- Node12 -->
<g id="Node000012" class="node">
<title>Node12</title>
<g id="a_Node000012"><a xlink:href="classLogger.html#a4d229b17ee039e273686455c74382ec6" target="_top" xlink:title="Logs a warning message.">
<polygon fill="white" stroke="#666666" points="431,-95 336,-95 336,-76 431,-76 431,-95"/>
<text text-anchor="middle" x="383.5" y="-83" font-family="Helvetica,sans-Serif" font-size="10.00">Logger::warning</text>
</a>
</g>
</g>
<!-- Node1&#45;&gt;Node12 -->
<g id="edge25_Node000001_Node000012" class="edge">
<title>Node1&#45;&gt;Node12</title>
<g id="a_edge25_Node000001_Node000012"><a xlink:title=" ">
<path fill="none" stroke="#63b8ff" d="M26.15,-179.98C32.79,-161.63 50.11,-121.67 80,-104.5 156.23,-60.71 261.79,-65.98 325.94,-74.93"/>
<polygon fill="#63b8ff" stroke="#63b8ff" points="325.46,-78.4 335.87,-76.39 326.48,-71.47 325.46,-78.4"/>
</a>
</g>
</g>
<!-- Node13 -->
<g id="Node000013" class="node">
<title>Node13</title>
<g id="a_Node000013"><a xlink:href="classDisplayManager.html#af6b3073649e2e7d9f4a8ce768ac51b3d" target="_top" xlink:title="Displays a splash screen with a centered message.">
<polygon fill="white" stroke="#666666" points="258.5,-19 91.5,-19 91.5,0 258.5,0 258.5,-19"/>
<text text-anchor="middle" x="175" y="-7" font-family="Helvetica,sans-Serif" font-size="10.00">DisplayManager::splashScreen</text>
</a>
</g>
</g>
<!-- Node1&#45;&gt;Node13 -->
<g id="edge24_Node000001_Node000013" class="edge">
<title>Node1&#45;&gt;Node13</title>
<g id="a_edge24_Node000001_Node000013"><a xlink:title=" ">
<path fill="none" stroke="#63b8ff" d="M23.54,-179.74C25.6,-152.32 35.3,-73.92 80,-33.5 84.4,-29.52 89.37,-26.18 94.67,-23.38"/>
<polygon fill="#63b8ff" stroke="#63b8ff" points="96.23,-26.52 103.86,-19.16 93.31,-20.15 96.23,-26.52"/>
</a>
</g>
</g>
<!-- Node3 -->
<g id="Node000003" class="node">
<title>Node3</title>
<g id="a_Node000003"><a xlink:href="classSensorManager.html#a3608ee33385f64e74410127d59c2638e" target="_top" xlink:title="Calibrates the SCD30 sensor using the forced recalibration factor.">
<polygon fill="white" stroke="#666666" points="454,-305.5 313,-305.5 313,-275.5 454,-275.5 454,-305.5"/>
<text text-anchor="start" x="321" y="-293.5" font-family="Helvetica,sans-Serif" font-size="10.00">SensorManager::calibrate</text>
<text text-anchor="middle" x="383.5" y="-282.5" font-family="Helvetica,sans-Serif" font-size="10.00">SCD30</text>
</a>
</g>
</g>
<!-- Node2&#45;&gt;Node3 -->
<g id="edge2_Node000002_Node000003" class="edge">
<title>Node2&#45;&gt;Node3</title>
<g id="a_edge2_Node000002_Node000003"><a xlink:title=" ">
<path fill="none" stroke="#63b8ff" d="M257.61,-267.52C272.45,-270.25 287.92,-273.09 302.7,-275.82"/>
<polygon fill="#63b8ff" stroke="#63b8ff" points="302.35,-279.31 312.81,-277.68 303.61,-272.42 302.35,-279.31"/>
</a>
</g>
</g>
<!-- Node2&#45;&gt;Node6 -->
<g id="edge7_Node000002_Node000006" class="edge">
<title>Node2&#45;&gt;Node6</title>
<g id="a_edge7_Node000002_Node000006"><a xlink:title=" ">
<path fill="none" stroke="#63b8ff" d="M270.43,-246.26C341.87,-241.53 436.9,-235.25 492.66,-231.56"/>
<polygon fill="#63b8ff" stroke="#63b8ff" points="493.19,-235.04 502.93,-230.88 492.72,-228.05 493.19,-235.04"/>
</a>
</g>
</g>
<!-- Node3&#45;&gt;Node4 -->
<g id="edge3_Node000003_Node000004" class="edge">
<title>Node3&#45;&gt;Node4</title>
<g id="a_edge3_Node000003_Node000004"><a xlink:title=" ">
<path fill="none" stroke="#63b8ff" d="M438.54,-305.54C456.87,-310.64 477.12,-316.28 494.61,-321.15"/>
<polygon fill="#63b8ff" stroke="#63b8ff" points="493.98,-324.6 504.56,-323.91 495.86,-317.86 493.98,-324.6"/>
</a>
</g>
</g>
<!-- Node3&#45;&gt;Node6 -->
<g id="edge5_Node000003_Node000006" class="edge">
<title>Node3&#45;&gt;Node6</title>
<g id="a_edge5_Node000003_Node000006"><a xlink:title=" ">
<path fill="none" stroke="#63b8ff" d="M425.11,-275.43C436.73,-271.03 449.4,-266.15 461,-261.5 476.41,-255.32 493.41,-248.17 507.59,-242.11"/>
<polygon fill="#63b8ff" stroke="#63b8ff" points="509.09,-245.27 516.9,-238.11 506.33,-238.84 509.09,-245.27"/>
</a>
</g>
</g>
<!-- Node5 -->
<g id="Node000005" class="node">
<title>Node5</title>
<g id="a_Node000005"><a xlink:href="classLogger.html#af0dc4ff68b6d37026b9f6c7a51da6aaa" target="_top" xlink:title="Logs a message if it meets the current log level.">
<polygon fill="white" stroke="#666666" points="690,-198 619,-198 619,-179 690,-179 690,-198"/>
<text text-anchor="middle" x="654.5" y="-186" font-family="Helvetica,sans-Serif" font-size="10.00">Logger::log</text>
</a>
</g>
</g>
<!-- Node4&#45;&gt;Node5 -->
<g id="edge4_Node000004_Node000005" class="edge">
<title>Node4&#45;&gt;Node5</title>
<g id="a_edge4_Node000004_Node000005"><a xlink:title=" ">
<path fill="none" stroke="#63b8ff" d="M548.38,-323.99C566.89,-300.13 615.51,-237.47 639.58,-206.44"/>
<polygon fill="#63b8ff" stroke="#63b8ff" points="642.58,-208.29 645.94,-198.24 637.05,-203.99 642.58,-208.29"/>
</a>
</g>
</g>
<!-- Node6&#45;&gt;Node5 -->
<g id="edge6_Node000006_Node000005" class="edge">
<title>Node6&#45;&gt;Node5</title>
<g id="a_edge6_Node000006_Node000005"><a xlink:title=" ">
<path fill="none" stroke="#63b8ff" d="M567.95,-218.92C582.7,-213.67 601.18,-207.1 617.18,-201.41"/>
<polygon fill="#63b8ff" stroke="#63b8ff" points="618.52,-204.65 626.77,-198 616.18,-198.06 618.52,-204.65"/>
</a>
</g>
</g>
<!-- Node7&#45;&gt;Node5 -->
<g id="edge9_Node000007_Node000005" class="edge">
<title>Node7&#45;&gt;Node5</title>
<g id="a_edge9_Node000007_Node000005"><a xlink:title=" ">
<path fill="none" stroke="#63b8ff" d="M551.79,-98.09C570.97,-115.14 611.24,-150.93 634.95,-172.01"/>
<polygon fill="#63b8ff" stroke="#63b8ff" points="632.78,-174.77 642.58,-178.79 637.43,-169.53 632.78,-174.77"/>
</a>
</g>
</g>
<!-- Node8&#45;&gt;Node4 -->
<g id="edge13_Node000008_Node000004" class="edge">
<title>Node8&#45;&gt;Node4</title>
<g id="a_edge13_Node000008_Node000004"><a xlink:title=" ">
<path fill="none" stroke="#63b8ff" d="M455.87,-333.5C467.49,-333.5 479.3,-333.5 490.22,-333.5"/>
<polygon fill="#63b8ff" stroke="#63b8ff" points="490.38,-337 500.38,-333.5 490.38,-330 490.38,-337"/>
</a>
</g>
</g>
<!-- Node8&#45;&gt;Node6 -->
<g id="edge14_Node000008_Node000006" class="edge">
<title>Node8&#45;&gt;Node6</title>
<g id="a_edge14_Node000008_Node000006"><a xlink:title=" ">
<path fill="none" stroke="#63b8ff" d="M439.98,-323.9C447.32,-321.44 454.54,-318.36 461,-314.5 489.68,-297.36 513.92,-266.36 527.44,-246.64"/>
<polygon fill="#63b8ff" stroke="#63b8ff" points="530.42,-248.48 533.04,-238.21 524.59,-244.61 530.42,-248.48"/>
</a>
</g>
</g>
<!-- Node9&#45;&gt;Node4 -->
<g id="edge16_Node000009_Node000004" class="edge">
<title>Node9&#45;&gt;Node4</title>
<g id="a_edge16_Node000009_Node000004"><a xlink:title=" ">
<path fill="none" stroke="#63b8ff" d="M438.54,-361.46C456.87,-356.36 477.12,-350.72 494.61,-345.85"/>
<polygon fill="#63b8ff" stroke="#63b8ff" points="495.86,-349.14 504.56,-343.09 493.98,-342.4 495.86,-349.14"/>
</a>
</g>
</g>
<!-- Node9&#45;&gt;Node6 -->
<g id="edge17_Node000009_Node000006" class="edge">
<title>Node9&#45;&gt;Node6</title>
<g id="a_edge17_Node000009_Node000006"><a xlink:title=" ">
<path fill="none" stroke="#63b8ff" d="M446.56,-361.33C451.69,-358.82 456.59,-355.9 461,-352.5 497.1,-324.68 520.88,-275.04 531.9,-247.77"/>
<polygon fill="#63b8ff" stroke="#63b8ff" points="535.26,-248.78 535.61,-238.19 528.73,-246.25 535.26,-248.78"/>
</a>
</g>
</g>
<!-- Node10&#45;&gt;Node6 -->
<g id="edge19_Node000010_Node000006" class="edge">
<title>Node10&#45;&gt;Node6</title>
<g id="a_edge19_Node000010_Node000006"><a xlink:title=" ">
<path fill="none" stroke="#63b8ff" d="M425.11,-181.57C436.73,-185.97 449.4,-190.85 461,-195.5 476.41,-201.68 493.41,-208.83 507.59,-214.89"/>
<polygon fill="#63b8ff" stroke="#63b8ff" points="506.33,-218.16 516.9,-218.89 509.09,-211.73 506.33,-218.16"/>
</a>
</g>
</g>
<!-- Node11&#45;&gt;Node6 -->
<g id="edge21_Node000011_Node000006" class="edge">
<title>Node11&#45;&gt;Node6</title>
<g id="a_edge21_Node000011_Node000006"><a xlink:title=" ">
<path fill="none" stroke="#63b8ff" d="M225.18,-116.07C284.33,-109.47 385.1,-105.8 461,-142.5 491.39,-157.19 515.4,-189.47 528.37,-210.03"/>
<polygon fill="#63b8ff" stroke="#63b8ff" points="525.51,-212.07 533.69,-218.81 531.5,-208.44 525.51,-212.07"/>
</a>
</g>
</g>
<!-- Node11&#45;&gt;Node12 -->
<g id="edge22_Node000011_Node000012" class="edge">
<title>Node11&#45;&gt;Node12</title>
<g id="a_edge22_Node000011_Node000012"><a xlink:title=" ">
<path fill="none" stroke="#63b8ff" d="M225.2,-114.45C255.45,-108.88 294.31,-101.73 325.85,-95.93"/>
<polygon fill="#63b8ff" stroke="#63b8ff" points="326.6,-99.34 335.8,-94.09 325.34,-92.46 326.6,-99.34"/>
</a>
</g>
</g>
<!-- Node12&#45;&gt;Node5 -->
<g id="edge23_Node000012_Node000005" class="edge">
<title>Node12&#45;&gt;Node5</title>
<g id="a_edge23_Node000012_Node000005"><a xlink:title=" ">
<path fill="none" stroke="#63b8ff" d="M417.09,-95.05C430.74,-99.23 446.73,-104.34 461,-109.5 518.7,-130.35 584.56,-158.3 622.36,-174.76"/>
<polygon fill="#63b8ff" stroke="#63b8ff" points="621.23,-178.08 631.8,-178.88 624.03,-171.67 621.23,-178.08"/>
</a>
</g>
</g>
</g>
</svg>
