<?xml version="1.0" encoding="UTF-8" standalone="no"?>
<!DOCTYPE svg PUBLIC "-//W3C//DTD SVG 1.1//EN"
 "http://www.w3.org/Graphics/SVG/1.1/DTD/svg11.dtd">
<!-- Generated by graphviz version 2.43.0 (0)
 -->
<!-- Title: src/SensorManager.cpp Pages: 1 -->
<svg width="523pt" height="203pt"
 viewBox="0.00 0.00 523.00 203.00" xmlns="http://www.w3.org/2000/svg" xmlns:xlink="http://www.w3.org/1999/xlink">
<g id="graph0" class="graph" transform="scale(1 1) rotate(0) translate(4 199)">
<title>src/SensorManager.cpp</title>
<!-- Node1 -->
<g id="Node000001" class="node">
<title>Node1</title>
<g id="a_Node000001"><a xlink:title="Implements the functionality for managing the SCD30 and BMP280 sensors.">
<polygon fill="#999999" stroke="#666666" points="446,-195 317,-195 317,-176 446,-176 446,-195"/>
<text text-anchor="middle" x="381.5" y="-183" font-family="Helvetica,sans-Serif" font-size="10.00">src/SensorManager.cpp</text>
</a>
</g>
</g>
<!-- Node2 -->
<g id="Node000002" class="node">
<title>Node2</title>
<g id="a_Node000002"><a xlink:href="SensorManager_8h.html" target="_top" xlink:title="Manages the initialization, calibration, and data retrieval from sensors.">
<polygon fill="white" stroke="#666666" points="336,-140 235,-140 235,-121 336,-121 336,-140"/>
<text text-anchor="middle" x="285.5" y="-128" font-family="Helvetica,sans-Serif" font-size="10.00">SensorManager.h</text>
</a>
</g>
</g>
<!-- Node1&#45;&gt;Node2 -->
<g id="edge1_Node000001_Node000002" class="edge">
<title>Node1&#45;&gt;Node2</title>
<g id="a_edge1_Node000001_Node000002"><a xlink:title=" ">
<path fill="none" stroke="#63b8ff" d="M366.08,-175.98C351.05,-167.69 327.96,-154.94 310.34,-145.22"/>
<polygon fill="#63b8ff" stroke="#63b8ff" points="311.65,-141.94 301.2,-140.17 308.27,-148.07 311.65,-141.94"/>
</a>
</g>
</g>
<!-- Node3 -->
<g id="Node000003" class="node">
<title>Node3</title>
<g id="a_Node000003"><a xlink:href="Logger_8h.html" target="_top" xlink:title="Provides logging functionality with different log levels for debugging and monitoring.">
<polygon fill="white" stroke="#666666" points="60.5,-79.5 2.5,-79.5 2.5,-60.5 60.5,-60.5 60.5,-79.5"/>
<text text-anchor="middle" x="31.5" y="-67.5" font-family="Helvetica,sans-Serif" font-size="10.00">Logger.h</text>
</a>
</g>
</g>
<!-- Node1&#45;&gt;Node3 -->
<g id="edge10_Node000001_Node000003" class="edge">
<title>Node1&#45;&gt;Node3</title>
<g id="a_edge10_Node000001_Node000003"><a xlink:title=" ">
<path fill="none" stroke="#63b8ff" d="M349.36,-175.95C317.7,-167.38 268.03,-153.55 225.5,-140 155.45,-117.68 138.66,-109.93 69.5,-85 67.86,-84.41 66.19,-83.8 64.5,-83.19"/>
<polygon fill="#63b8ff" stroke="#63b8ff" points="65.39,-79.79 54.79,-79.64 62.98,-86.36 65.39,-79.79"/>
</a>
</g>
</g>
<!-- Node7 -->
<g id="Node000007" class="node">
<title>Node7</title>
<g id="a_Node000007"><a xlink:title=" ">
<polygon fill="#e0e0e0" stroke="#999999" points="414.5,-79.5 366.5,-79.5 366.5,-60.5 414.5,-60.5 414.5,-79.5"/>
<text text-anchor="middle" x="390.5" y="-67.5" font-family="Helvetica,sans-Serif" font-size="10.00">Wire.h</text>
</a>
</g>
</g>
<!-- Node1&#45;&gt;Node7 -->
<g id="edge11_Node000001_Node000007" class="edge">
<title>Node1&#45;&gt;Node7</title>
<g id="a_edge11_Node000001_Node000007"><a xlink:title=" ">
<path fill="none" stroke="#63b8ff" d="M382.18,-175.97C383.62,-157.73 387.05,-114.57 389.02,-89.64"/>
<polygon fill="#63b8ff" stroke="#63b8ff" points="392.51,-89.88 389.82,-79.63 385.54,-89.32 392.51,-89.88"/>
</a>
</g>
</g>
<!-- Node8 -->
<g id="Node000008" class="node">
<title>Node8</title>
<g id="a_Node000008"><a xlink:href="config_8h_source.html" target="_top" xlink:title=" ">
<polygon fill="white" stroke="#666666" points="488,-79.5 433,-79.5 433,-60.5 488,-60.5 488,-79.5"/>
<text text-anchor="middle" x="460.5" y="-67.5" font-family="Helvetica,sans-Serif" font-size="10.00">config.h</text>
</a>
</g>
</g>
<!-- Node1&#45;&gt;Node8 -->
<g id="edge8_Node000001_Node000008" class="edge">
<title>Node1&#45;&gt;Node8</title>
<g id="a_edge8_Node000001_Node000008"><a xlink:title=" ">
<path fill="none" stroke="#63b8ff" d="M387.44,-175.97C400.42,-157.32 431.53,-112.61 448.68,-87.99"/>
<polygon fill="#63b8ff" stroke="#63b8ff" points="451.65,-89.84 454.49,-79.63 445.91,-85.84 451.65,-89.84"/>
</a>
</g>
</g>
<!-- Node9 -->
<g id="Node000009" class="node">
<title>Node9</title>
<g id="a_Node000009"><a xlink:title=" ">
<polygon fill="#e0e0e0" stroke="#999999" points="515,-140 448,-140 448,-121 515,-121 515,-140"/>
<text text-anchor="middle" x="481.5" y="-128" font-family="Helvetica,sans-Serif" font-size="10.00">EEPROM.h</text>
</a>
</g>
</g>
<!-- Node1&#45;&gt;Node9 -->
<g id="edge9_Node000001_Node000009" class="edge">
<title>Node1&#45;&gt;Node9</title>
<g id="a_edge9_Node000001_Node000009"><a xlink:title=" ">
<path fill="none" stroke="#63b8ff" d="M397.57,-175.98C413.36,-167.61 437.72,-154.7 456.13,-144.95"/>
<polygon fill="#63b8ff" stroke="#63b8ff" points="457.94,-147.95 465.14,-140.17 454.67,-141.76 457.94,-147.95"/>
</a>
</g>
</g>
<!-- Node2&#45;&gt;Node3 -->
<g id="edge2_Node000002_Node000003" class="edge">
<title>Node2&#45;&gt;Node3</title>
<g id="a_edge2_Node000002_Node000003"><a xlink:title=" ">
<path fill="none" stroke="#63b8ff" d="M234.79,-121.27C190.69,-113.58 125.28,-100.92 69.5,-85 67.22,-84.35 64.88,-83.63 62.53,-82.86"/>
<polygon fill="#63b8ff" stroke="#63b8ff" points="63.61,-79.53 53.02,-79.56 61.32,-86.15 63.61,-79.53"/>
</a>
</g>
</g>
<!-- Node5 -->
<g id="Node000005" class="node">
<title>Node5</title>
<g id="a_Node000005"><a xlink:title=" ">
<polygon fill="#e0e0e0" stroke="#999999" points="348.5,-85 206.5,-85 206.5,-55 348.5,-55 348.5,-85"/>
<text text-anchor="start" x="214.5" y="-73" font-family="Helvetica,sans-Serif" font-size="10.00">SparkFun_SCD30_Arduino</text>
<text text-anchor="middle" x="277.5" y="-62" font-family="Helvetica,sans-Serif" font-size="10.00">_Library.h</text>
</a>
</g>
</g>
<!-- Node2&#45;&gt;Node5 -->
<g id="edge4_Node000002_Node000005" class="edge">
<title>Node2&#45;&gt;Node5</title>
<g id="a_edge4_Node000002_Node000005"><a xlink:title=" ">
<path fill="none" stroke="#63b8ff" d="M284.32,-120.87C283.39,-114.11 282.06,-104.35 280.82,-95.26"/>
<polygon fill="#63b8ff" stroke="#63b8ff" points="284.25,-94.55 279.43,-85.11 277.32,-95.5 284.25,-94.55"/>
</a>
</g>
</g>
<!-- Node6 -->
<g id="Node000006" class="node">
<title>Node6</title>
<g id="a_Node000006"><a xlink:title=" ">
<polygon fill="#e0e0e0" stroke="#999999" points="188.5,-79.5 78.5,-79.5 78.5,-60.5 188.5,-60.5 188.5,-79.5"/>
<text text-anchor="middle" x="133.5" y="-67.5" font-family="Helvetica,sans-Serif" font-size="10.00">Adafruit_BMP280.h</text>
</a>
</g>
</g>
<!-- Node2&#45;&gt;Node6 -->
<g id="edge5_Node000002_Node000006" class="edge">
<title>Node2&#45;&gt;Node6</title>
<g id="a_edge5_Node000002_Node000006"><a xlink:title=" ">
<path fill="none" stroke="#63b8ff" d="M263.4,-120.99C237.51,-111.03 194.42,-94.45 165.03,-83.13"/>
<polygon fill="#63b8ff" stroke="#63b8ff" points="166.22,-79.84 155.63,-79.52 163.7,-86.38 166.22,-79.84"/>
</a>
</g>
</g>
<!-- Node2&#45;&gt;Node7 -->
<g id="edge6_Node000002_Node000007" class="edge">
<title>Node2&#45;&gt;Node7</title>
<g id="a_edge6_Node000002_Node000007"><a xlink:title=" ">
<path fill="none" stroke="#63b8ff" d="M300.99,-120.87C318.13,-111.32 345.97,-95.81 366.06,-84.62"/>
<polygon fill="#63b8ff" stroke="#63b8ff" points="367.91,-87.59 374.94,-79.67 364.5,-81.48 367.91,-87.59"/>
</a>
</g>
</g>
<!-- Node2&#45;&gt;Node8 -->
<g id="edge7_Node000002_Node000008" class="edge">
<title>Node2&#45;&gt;Node8</title>
<g id="a_edge7_Node000002_Node000008"><a xlink:title=" ">
<path fill="none" stroke="#63b8ff" d="M313.39,-120.95C341.36,-112.28 385.61,-98.27 423.5,-85 425.15,-84.42 426.84,-83.82 428.54,-83.21"/>
<polygon fill="#63b8ff" stroke="#63b8ff" points="430.09,-86.36 438.26,-79.62 427.67,-79.8 430.09,-86.36"/>
</a>
</g>
</g>
<!-- Node4 -->
<g id="Node000004" class="node">
<title>Node4</title>
<g id="a_Node000004"><a xlink:title=" ">
<polygon fill="#e0e0e0" stroke="#999999" points="63,-19 0,-19 0,0 63,0 63,-19"/>
<text text-anchor="middle" x="31.5" y="-7" font-family="Helvetica,sans-Serif" font-size="10.00">Arduino.h</text>
</a>
</g>
</g>
<!-- Node3&#45;&gt;Node4 -->
<g id="edge3_Node000003_Node000004" class="edge">
<title>Node3&#45;&gt;Node4</title>
<g id="a_edge3_Node000003_Node000004"><a xlink:title=" ">
<path fill="none" stroke="#63b8ff" d="M31.5,-60.37C31.5,-52.25 31.5,-39.81 31.5,-29.39"/>
<polygon fill="#63b8ff" stroke="#63b8ff" points="35,-29.17 31.5,-19.17 28,-29.17 35,-29.17"/>
</a>
</g>
</g>
</g>
</svg>
