<?xml version="1.0" encoding="UTF-8" standalone="no"?>
<!DOCTYPE svg PUBLIC "-//W3C//DTD SVG 1.1//EN"
 "http://www.w3.org/Graphics/SVG/1.1/DTD/svg11.dtd">
<!-- Generated by graphviz version 2.43.0 (0)
 -->
<!-- Title: include/SensorManager.h Pages: 1 -->
<svg width="496pt" height="148pt"
 viewBox="0.00 0.00 496.00 148.00" xmlns="http://www.w3.org/2000/svg" xmlns:xlink="http://www.w3.org/1999/xlink">
<g id="graph0" class="graph" transform="scale(1 1) rotate(0) translate(4 144)">
<title>include/SensorManager.h</title>
<!-- Node1 -->
<g id="Node000001" class="node">
<title>Node1</title>
<g id="a_Node000001"><a xlink:title="Manages the initialization, calibration, and data retrieval from sensors.">
<polygon fill="#999999" stroke="#666666" points="363,-140 224,-140 224,-121 363,-121 363,-140"/>
<text text-anchor="middle" x="293.5" y="-128" font-family="Helvetica,sans-Serif" font-size="10.00">include/SensorManager.h</text>
</a>
</g>
</g>
<!-- Node2 -->
<g id="Node000002" class="node">
<title>Node2</title>
<g id="a_Node000002"><a xlink:href="Logger_8h.html" target="_top" xlink:title="Provides logging functionality with different log levels for debugging and monitoring.">
<polygon fill="white" stroke="#666666" points="60.5,-79.5 2.5,-79.5 2.5,-60.5 60.5,-60.5 60.5,-79.5"/>
<text text-anchor="middle" x="31.5" y="-67.5" font-family="Helvetica,sans-Serif" font-size="10.00">Logger.h</text>
</a>
</g>
</g>
<!-- Node1&#45;&gt;Node2 -->
<g id="edge1_Node000001_Node000002" class="edge">
<title>Node1&#45;&gt;Node2</title>
<g id="a_edge1_Node000001_Node000002"><a xlink:title=" ">
<path fill="none" stroke="#63b8ff" d="M238.16,-120.99C192.47,-113.38 126.17,-100.96 69.5,-85 67.22,-84.36 64.87,-83.64 62.53,-82.88"/>
<polygon fill="#63b8ff" stroke="#63b8ff" points="63.6,-79.55 53.01,-79.59 61.32,-86.16 63.6,-79.55"/>
</a>
</g>
</g>
<!-- Node4 -->
<g id="Node000004" class="node">
<title>Node4</title>
<g id="a_Node000004"><a xlink:title=" ">
<polygon fill="#e0e0e0" stroke="#999999" points="220.5,-85 78.5,-85 78.5,-55 220.5,-55 220.5,-85"/>
<text text-anchor="start" x="86.5" y="-73" font-family="Helvetica,sans-Serif" font-size="10.00">SparkFun_SCD30_Arduino</text>
<text text-anchor="middle" x="149.5" y="-62" font-family="Helvetica,sans-Serif" font-size="10.00">_Library.h</text>
</a>
</g>
</g>
<!-- Node1&#45;&gt;Node4 -->
<g id="edge3_Node000001_Node000004" class="edge">
<title>Node1&#45;&gt;Node4</title>
<g id="a_edge3_Node000001_Node000004"><a xlink:title=" ">
<path fill="none" stroke="#63b8ff" d="M272.56,-120.99C251.93,-112.61 219.77,-99.55 193.5,-88.87"/>
<polygon fill="#63b8ff" stroke="#63b8ff" points="194.7,-85.59 184.12,-85.06 192.07,-92.07 194.7,-85.59"/>
</a>
</g>
</g>
<!-- Node5 -->
<g id="Node000005" class="node">
<title>Node5</title>
<g id="a_Node000005"><a xlink:title=" ">
<polygon fill="#e0e0e0" stroke="#999999" points="348.5,-79.5 238.5,-79.5 238.5,-60.5 348.5,-60.5 348.5,-79.5"/>
<text text-anchor="middle" x="293.5" y="-67.5" font-family="Helvetica,sans-Serif" font-size="10.00">Adafruit_BMP280.h</text>
</a>
</g>
</g>
<!-- Node1&#45;&gt;Node5 -->
<g id="edge4_Node000001_Node000005" class="edge">
<title>Node1&#45;&gt;Node5</title>
<g id="a_edge4_Node000001_Node000005"><a xlink:title=" ">
<path fill="none" stroke="#63b8ff" d="M293.5,-120.87C293.5,-112.75 293.5,-100.31 293.5,-89.89"/>
<polygon fill="#63b8ff" stroke="#63b8ff" points="297,-89.67 293.5,-79.67 290,-89.67 297,-89.67"/>
</a>
</g>
</g>
<!-- Node6 -->
<g id="Node000006" class="node">
<title>Node6</title>
<g id="a_Node000006"><a xlink:title=" ">
<polygon fill="#e0e0e0" stroke="#999999" points="414.5,-79.5 366.5,-79.5 366.5,-60.5 414.5,-60.5 414.5,-79.5"/>
<text text-anchor="middle" x="390.5" y="-67.5" font-family="Helvetica,sans-Serif" font-size="10.00">Wire.h</text>
</a>
</g>
</g>
<!-- Node1&#45;&gt;Node6 -->
<g id="edge5_Node000001_Node000006" class="edge">
<title>Node1&#45;&gt;Node6</title>
<g id="a_edge5_Node000001_Node000006"><a xlink:title=" ">
<path fill="none" stroke="#63b8ff" d="M307.81,-120.87C323.5,-111.41 348.9,-96.09 367.41,-84.92"/>
<polygon fill="#63b8ff" stroke="#63b8ff" points="369.37,-87.83 376.13,-79.67 365.76,-81.83 369.37,-87.83"/>
</a>
</g>
</g>
<!-- Node7 -->
<g id="Node000007" class="node">
<title>Node7</title>
<g id="a_Node000007"><a xlink:href="config_8h_source.html" target="_top" xlink:title=" ">
<polygon fill="white" stroke="#666666" points="488,-79.5 433,-79.5 433,-60.5 488,-60.5 488,-79.5"/>
<text text-anchor="middle" x="460.5" y="-67.5" font-family="Helvetica,sans-Serif" font-size="10.00">config.h</text>
</a>
</g>
</g>
<!-- Node1&#45;&gt;Node7 -->
<g id="edge6_Node000001_Node000007" class="edge">
<title>Node1&#45;&gt;Node7</title>
<g id="a_edge6_Node000001_Node000007"><a xlink:title=" ">
<path fill="none" stroke="#63b8ff" d="M319.48,-120.88C345.79,-112.08 387.59,-97.94 423.5,-85 425.14,-84.41 426.83,-83.8 428.52,-83.17"/>
<polygon fill="#63b8ff" stroke="#63b8ff" points="430.09,-86.32 438.24,-79.56 427.65,-79.76 430.09,-86.32"/>
</a>
</g>
</g>
<!-- Node3 -->
<g id="Node000003" class="node">
<title>Node3</title>
<g id="a_Node000003"><a xlink:title=" ">
<polygon fill="#e0e0e0" stroke="#999999" points="63,-19 0,-19 0,0 63,0 63,-19"/>
<text text-anchor="middle" x="31.5" y="-7" font-family="Helvetica,sans-Serif" font-size="10.00">Arduino.h</text>
</a>
</g>
</g>
<!-- Node2&#45;&gt;Node3 -->
<g id="edge2_Node000002_Node000003" class="edge">
<title>Node2&#45;&gt;Node3</title>
<g id="a_edge2_Node000002_Node000003"><a xlink:title=" ">
<path fill="none" stroke="#63b8ff" d="M31.5,-60.37C31.5,-52.25 31.5,-39.81 31.5,-29.39"/>
<polygon fill="#63b8ff" stroke="#63b8ff" points="35,-29.17 31.5,-19.17 28,-29.17 35,-29.17"/>
</a>
</g>
</g>
</g>
</svg>
